<svg xmlns="http://www.w3.org/2000/svg"
     width="1660.0938" height="1003.6875" id="svg2" version="1.1">
    <g id="layer1" transform="translate(-4368.7187,-728.25)">
        <g>
            <path id="u5"
                  style="fill:none;stroke:#7e5330;stroke-width:8;stroke-linecap:butt;stroke-linejoin:miter;stroke-miterlimit:4;stroke-opacity:1;stroke-dasharray:none"
                  d="m 5108.9751,1174.2292 c 0,0 591.1222,2e-4 600.2262,2e-4 9.104,0 14.1007,5.8084 14.1007,5.8084 l 56.621,56.6212 c 0,0 4.7336,5.8088 14.1028,5.8089 9.3692,0 14.2304,-5.9221 14.2304,-5.9221 l 171.8271,-171.8269"
            />
            <path id="u8-1"
                  style="fill:none;stroke:#224f86;stroke-width:8;stroke-linecap:butt;stroke-linejoin:miter;stroke-miterlimit:4;stroke-opacity:1;stroke-dasharray:none"
                  d="m 5386.7812,1537.8275 0,-384.0325 c 0,0 0.574,-7.6404 -5.8635,-14.0779 -3.2842,-3.2841 -88.7947,-88.795 -188.5758,-188.57603"
            />
            <path id="u6"
                  style="fill:none;stroke:#8c6dab;stroke-width:8;stroke-linecap:butt;stroke-linejoin:miter;stroke-miterlimit:4;stroke-opacity:1;stroke-dasharray:none"
                  d="m 5269.0224,1666.8405 0,-498.6816 c 0,0 0.574,-7.6403 -5.8635,-14.0778 -6.4375,-6.4375 -332.1742,-332.17432 -332.1742,-332.17432"
            />
            <path id="u7-1"
                  style="fill:none;stroke:#528dba;stroke-width:8;stroke-linecap:butt;stroke-linejoin:miter;stroke-miterlimit:4;stroke-opacity:1;stroke-dasharray:none"
                  d="m 5053.8075,1447.536 53.5478,-2e-4 c 0,0 7.6468,0.6134 14.1269,-5.8668 26.3834,-26.3835 76.4211,-76.4207 76.4211,-76.4207 0,0 5.0603,-5.8483 14.1643,-5.8483 0,0 7.8339,-0.4179 14.1464,5.8945 6.3127,6.3125 57.4028,57.7563 57.4028,57.7563 0,0 4.8894,5.8269 14.1392,5.8266 9.2501,3e-4 128.3917,10e-5 128.3917,10e-5 0,0 7.7924,-0.5044 14.136,5.8395 6.3439,6.3436 256.4139,256.4139 256.4139,256.4139"
            />
            <path id="u7-2"
                  style="fill:none;stroke:#528dba;stroke-width:8;stroke-linecap:butt;stroke-linejoin:round;stroke-miterlimit:4;stroke-opacity:1;stroke-dasharray:none"
                  d="m 5080.2396,1447.5231 -232.68,0 c 0,0 -7.7436,0.5695 -14.1738,-5.8606 -6.4304,-6.4305 -24.5872,-24.5873 -24.5872,-24.5873 0,0 -5.8935,-4.9886 -5.8935,-14.1762 l 0,-243.682 c 0,0 0.464,-7.7892 -5.8116,-14.0647 -6.2755,-6.2756 -12.551,-5.9221 -14.2304,-5.922 -1.6795,-10e-5 -338.7044,-10e-5 -338.7044,-10e-5"
            />
            <path id="u9-1"
                  style="fill:none;stroke:#f3791d;stroke-width:8;stroke-linecap:butt;stroke-linejoin:miter;stroke-miterlimit:4;stroke-opacity:1;stroke-dasharray:none"
                  d="m 4901.2653,1623.5379 c 0,0 34.4558,-34.4558 40.831,-40.8308 6.375,-6.375 5.8321,-14.1121 5.8321,-14.1121 l 0,-245.4154"
            />
            <path id="u9-2"
                  style="fill:none;stroke:#f3791d;stroke-width:8;stroke-linecap:butt;stroke-linejoin:miter;stroke-miterlimit:4;stroke-opacity:1;stroke-dasharray:none"
                  d="m 4947.9284,1334.5938 0,-133.1046 c 0,0 -0.663,-7.635 5.8336,-14.1315 l 237.8972,-237.89721"
            />
            <path id="u8-2"
                  style="fill:none;stroke:#224f86;stroke-width:8;stroke-linecap:butt;stroke-linejoin:miter;stroke-miterlimit:4;stroke-opacity:1;stroke-dasharray:none"
                  d="m 5084.0858,756.08708 0,78.56239 c 0,0 -0.574,7.64044 5.8635,14.07794 3.2842,3.28422 0.4636,0.46339 100.2446,100.24447"
            />
            <path id="u3"
                  style="fill:none;stroke:#007a5b;stroke-width:8;stroke-linecap:butt;stroke-linejoin:round;stroke-miterlimit:4;stroke-opacity:1;stroke-dasharray:none"
                  d="m 4664.7384,1671.2355 317.7876,-317.7877 c 0,0 5.2643,-5.8695 14.1706,-5.8695 8.9063,0 542.1549,0 542.1549,0"
            />


            <path id="u1"
                  style="fill:none;stroke:#7dad4c;stroke-width:8;stroke-linecap:butt;stroke-linejoin:miter;stroke-miterlimit:4;stroke-opacity:1;stroke-dasharray:none"
                  d="m 4880.2939,1335.6442 659.2502,2e-4"/>


            <path id="u2-2"
                  style="fill:none;stroke:#da421e;stroke-width:8;stroke-linecap:butt;stroke-linejoin:round;stroke-miterlimit:4;stroke-opacity:1;stroke-dasharray:none"
                  d="m 4803.3694,1260.4551 c 70.6487,-10e-5 113.8576,-10e-5 117.5589,-10e-5 9.1251,-10e-5 14.1385,5.8283 14.1385,5.8283 l 52.1155,52.1155 c 0,0 5.2646,5.8696 14.1707,5.8694 2.3364,10e-5 40.1973,2e-4 68.1435,2e-4 0,0 7.1953,-0.1555 12.7962,5.4429 l 38.1975,38.1975 c 0,0 5.1767,5.864 14.114,5.8641 8.9374,0 13.6874,-5.375 14.1876,-5.875 0.5001,-0.5001 5.8126,-5.3125 5.8122,-14.1249 0,-3.7054 0.088,-13.6545 0.088,-13.6135"
            />
            <path id="u2-1"
                  style="fill:none;stroke:#da421e;stroke-width:8;stroke-linecap:butt;stroke-linejoin:round;stroke-miterlimit:4;stroke-opacity:1;stroke-dasharray:none"
                  d="m 4801.6015,1260.4548 c -101.9792,0 -126.3024,0 -126.3024,0 0,0 -7.4734,0.861 -14.1468,-5.8124 -6.6733,-6.6733 -71.6117,-71.6119 -71.6117,-71.6119"
            />
            <path id="u2-3"
                  style="fill:none;stroke:#da421e;stroke-width:8;stroke-linecap:butt;stroke-linejoin:round;stroke-miterlimit:4;stroke-opacity:1;stroke-dasharray:none"
                  d="m 5154.605,1336.1594 c 0,-20.2688 0,-59.938 0,-59.938 0,0 -0.2552,-8.049 5.8383,-14.1429 6.0938,-6.0937 13.1251,-5.8749 14.1876,-5.8749 0.549,0 57.2178,0 93.4176,0"
            />
            <path id="u2-4"
                  style="fill:none;stroke:#da421e;stroke-width:8;stroke-linecap:butt;stroke-linejoin:round;stroke-miterlimit:4;stroke-opacity:1;stroke-dasharray:none"
                  d="m 5252.7607,1256.2036 c 31.6906,10e-5 43.7308,0 43.7308,0 0,0 7.9799,0.326 14.1048,-5.7992 6.1249,-6.1251 122.4735,-122.4736 122.4735,-122.4736 0,0 5.8331,-5.1409 5.8332,-14.1123 0,-8.9715 -1e-4,-129.53908 -1e-4,-129.53908"
            />


            <path id="u4"
                  style="fill:none;stroke:#f0d722;stroke-width:8;stroke-linecap:butt;stroke-linejoin:miter;stroke-miterlimit:4;stroke-opacity:1;stroke-dasharray:none"
                  d="m 5053.8422,1348.8155 3e-4,181.9355"/>


        </g>

    </g>
</svg>
