<svg xmlns="http://www.w3.org/2000/svg"
     width="1660.0938" height="1003.6875" id="svg2" version="1.1">
    <g id="layer1" transform="translate(-4368.7187,-728.25)">
        <g>

            <path id="u1"
                  style="fill:none;stroke:#7dad4c;stroke-width:8;stroke-linecap:butt;stroke-linejoin:miter;stroke-miterlimit:4;stroke-opacity:1;stroke-dasharray:none"
                  d="M5539.5441 1335.6444L4880.2939 1335.6442"></path>


            <path id="u2"
                  style="fill:none;stroke:#da421e;stroke-width:8;stroke-linecap:butt;stroke-linejoin:round;stroke-miterlimit:4;stroke-opacity:1;stroke-dasharray:none"
                  d="
M4589.5406 1183.0305C4589.5406 1183.0305 4654.479 1247.9691 4661.1523 1254.6424C4667.8257 1261.3158 4675.2991 1260.4548 4675.2991 1260.4548C4675.2991 1260.4548 4699.6223 1260.4548 4801.6015 1260.4548
L4803.3694 1260.4551C4874.0181 1260.455 4917.227 1260.455 4920.9283 1260.455C4930.0534 1260.4549 4935.0668 1266.2833 4935.0668 1266.2833L4987.1823 1318.3988C4987.1823 1318.3988 4992.4469 1324.2684 5001.353 1324.2682C5003.6894 1324.2683 5041.5503 1324.2684 5069.4965 1324.2684C5069.4965 1324.2684 5076.6918 1324.1129 5082.2927 1329.7113L5120.4902 1367.9088C5120.4902 1367.9088 5125.6669 1373.7728 5134.6042 1373.7729C5143.5416 1373.7729 5148.2916 1368.3979 5148.7918 1367.8979C5149.2919 1367.3978 5154.6044 1362.5854 5154.604 1353.773C5154.604 1350.0676 5154.692 1340.1185 5154.692 1340.1595
L5154.605 1336.1594C5154.605 1315.8906 5154.605 1276.2214 5154.605 1276.2214C5154.605 1276.2214 5154.3498 1268.1724 5160.4433 1262.0785C5166.5371 1255.9848 5173.5684 1256.2036 5174.6309 1256.2036C5175.1799 1256.2036 5231.8487 1256.2036 5268.0485 1256.2036
L5252.7607 1256.2036C5284.4513 1256.2037 5296.4915 1256.2036 5296.4915 1256.2036C5296.4915 1256.2036 5304.4714 1256.5296 5310.5963 1250.4044C5316.7212 1244.2793 5433.0698 1127.9308 5433.0698 1127.9308C5433.0698 1127.9308 5438.9029 1122.7899 5438.903 1113.8185C5438.903 1104.847 5438.9029 984.2794 5438.9029 984.2794"></path>

            <path id="u3"
                  style="fill:none;stroke:#007a5b;stroke-width:8;stroke-linecap:butt;stroke-linejoin:round;stroke-miterlimit:4;stroke-opacity:1;stroke-dasharray:none"
                  d="m 4664.7384,1671.2355 317.7876,-317.7877 c 0,0 5.2643,-5.8695 14.1706,-5.8695 8.9063,0 542.1549,0 542.1549,0"
            />


            <path id="u4"
                  style="fill:none;stroke:#f0d722;stroke-width:8;stroke-linecap:butt;stroke-linejoin:miter;stroke-miterlimit:4;stroke-opacity:1;stroke-dasharray:none"
                  d="M5053.8422 1348.8155L5053.8425 1530.751"></path>

            <path id="u5"
                  style="fill:none;stroke:#7e5330;stroke-width:8;stroke-linecap:butt;stroke-linejoin:miter;stroke-miterlimit:4;stroke-opacity:1;stroke-dasharray:none"
                  d="M5108.9751 1174.2292C5108.9751 1174.2292 5700.0973 1174.2294 5709.2013 1174.2294C5718.3053 1174.2294 5723.302 1180.0378 5723.302 1180.0378L5779.923 1236.659C5779.923 1236.659 5784.6566 1242.4678 5794.0258 1242.4679C5803.395 1242.4679 5808.2562 1236.5458 5808.2562 1236.5458L5980.0833 1064.7189"></path>

            <path id="u6"
                  style="fill:none;stroke:#8c6dab;stroke-width:8;stroke-linecap:butt;stroke-linejoin:miter;stroke-miterlimit:4;stroke-opacity:1;stroke-dasharray:none"
                  d="M5269.0224 1666.8405L5269.0224 1168.1589C5269.0224 1168.1589 5269.5964 1160.5186 5263.1589 1154.0811C5256.7214 1147.6436 4930.9847 821.9068 4930.9847 821.9068"></path>

            <path id="u7"
                  style="fill:none;stroke:#528dba;stroke-width:8;stroke-linecap:butt;stroke-linejoin:round;stroke-miterlimit:4;stroke-opacity:1;stroke-dasharray:none"
                  d="M5696.6976 1691.1309C5696.6976 1691.1309 5446.6276 1441.0606 5440.2837 1434.717C5433.9401 1428.3731 5426.1477 1428.8775 5426.1477 1428.8775C5426.1477 1428.8775 5307.0061 1428.8777 5297.756 1428.8774C5288.5062 1428.8777 5283.6168 1423.0508 5283.6168 1423.0508C5283.6168 1423.0508 5232.5267 1371.607 5226.214 1365.2945C5219.9015 1358.9821 5212.0676 1359.4 5212.0676 1359.4C5202.9636 1359.4 5197.9033 1365.2483 5197.9033 1365.2483C5197.9033 1365.2483 5147.8656 1415.2855 5121.4822 1441.669C5115.0021 1448.1492 5107.3553 1447.5358 5107.3553 1447.5358L5053.8075 1447.536
                  L5080.2396 1447.5231L4847.5596 1447.5231C4847.5596 1447.5231 4839.816 1448.0926 4833.3858 1441.6625C4826.9554 1435.232 4808.7986 1417.0752 4808.7986 1417.0752C4808.7986 1417.0752 4802.9051 1412.0866 4802.9051 1402.899L4802.9051 1159.217C4802.9051 1159.217 4803.3691 1151.4278 4797.0935 1145.1523C4790.818 1138.8767 4784.5425 1139.2302 4782.8631 1139.2303C4781.1836 1139.2302 4444.1587 1139.2302 4444.1587 1139.2302"></path>
            <path id="u8"
                  style="fill:none;stroke:#224f86;stroke-width:8;stroke-linecap:butt;stroke-linejoin:miter;stroke-miterlimit:4;stroke-opacity:1;stroke-dasharray:none"
                  d="M5386.7812 1537.8275L5386.7812 1153.795C5386.7812 1153.795 5387.3552 1146.1546 5380.9177 1139.7171C5377.6335 1136.433 5292.123 1050.9221 5192.3419 951.1411
L5190.1939 948.9719C5090.4129 849.1908 5093.2335 852.0116 5089.9493 848.7274C5083.5118 842.2899 5084.0858 834.6495 5084.0858 834.6495L5084.0858 756.0871"></path>
            <path id="u9"
                  style="fill:none;stroke:#f3791d;stroke-width:8;stroke-linecap:butt;stroke-linejoin:miter;stroke-miterlimit:4;stroke-opacity:1;stroke-dasharray:none"
                  d="M4901.2653 1623.5379C4901.2653 1623.5379 4935.7211 1589.0821 4942.0963 1582.7071C4948.4713 1576.3321 4947.9284 1568.595 4947.9284 1568.595L4947.9284 1323.1796
L4947.9284 1334.5938L4947.9284 1201.4892C4947.9284 1201.4892 4947.2654 1193.8542 4953.762 1187.3577L5191.6592 949.4605
"></path>
        </g>

    </g>
</svg>