<svg xmlns="http://www.w3.org/2000/svg" width="1660.0938" height="1003.6875" version="1.1" style="background: gray;">
  <g transform="translate(-4368.7187,-728.25)">
    <g id="lines">
      <path
        style="fill:none;stroke:#7e5330;stroke-width:8;stroke-linecap:butt;stroke-linejoin:miter;stroke-miterlimit:4;stroke-opacity:1;stroke-dasharray:none"
        d="m 5108.9751,1174.2292 c 0,0 591.1222,2e-4 600.2262,2e-4 9.104,0 14.1007,5.8084 14.1007,5.8084 l 56.621,56.6212 c 0,0 4.7336,5.8088 14.1028,5.8089 9.3692,0 14.2304,-5.9221 14.2304,-5.9221 l 171.8271,-171.8269"
        id="path4495-1-7-7"/>
      <path
        style="fill:none;stroke:#224f86;stroke-width:8;stroke-linecap:butt;stroke-linejoin:miter;stroke-miterlimit:4;stroke-opacity:1;stroke-dasharray:none"
        d="m 5386.7812,1537.8275 0,-384.0325 c 0,0 0.574,-7.6404 -5.8635,-14.0779 -3.2842,-3.2841 -88.7947,-88.795 -188.5758,-188.57603"
        id="path7255-4-0"/>
      <path
        style="fill:none;stroke:#8c6dab;stroke-width:8;stroke-linecap:butt;stroke-linejoin:miter;stroke-miterlimit:4;stroke-opacity:1;stroke-dasharray:none"
        d="m 5269.0224,1666.8405 0,-498.6816 c 0,0 0.574,-7.6403 -5.8635,-14.0778 -6.4375,-6.4375 -332.1742,-332.17432 -332.1742,-332.17432"
        id="path4495-0-9"/>
      <path
        style="fill:none;stroke:#528dba;stroke-width:8;stroke-linecap:butt;stroke-linejoin:miter;stroke-miterlimit:4;stroke-opacity:1;stroke-dasharray:none"
        d="m 5053.8075,1447.536 53.5478,-2e-4 c 0,0 7.6468,0.6134 14.1269,-5.8668 26.3834,-26.3835 76.4211,-76.4207 76.4211,-76.4207 0,0 5.0603,-5.8483 14.1643,-5.8483 0,0 7.8339,-0.4179 14.1464,5.8945 6.3127,6.3125 57.4028,57.7563 57.4028,57.7563 0,0 4.8894,5.8269 14.1392,5.8266 9.2501,3e-4 128.3917,10e-5 128.3917,10e-5 0,0 7.7924,-0.5044 14.136,5.8395 6.3439,6.3436 256.4139,256.4139 256.4139,256.4139"
        id="path4671-9-4"/>
      <path
        style="fill:none;stroke:#528dba;stroke-width:8;stroke-linecap:butt;stroke-linejoin:round;stroke-miterlimit:4;stroke-opacity:1;stroke-dasharray:none"
        d="m 5080.2396,1447.5231 -232.68,0 c 0,0 -7.7436,0.5695 -14.1738,-5.8606 -6.4304,-6.4305 -24.5872,-24.5873 -24.5872,-24.5873 0,0 -5.8935,-4.9886 -5.8935,-14.1762 l 0,-243.682 c 0,0 0.464,-7.7892 -5.8116,-14.0647 -6.2755,-6.2756 -12.551,-5.9221 -14.2304,-5.922 -1.6795,-10e-5 -338.7044,-10e-5 -338.7044,-10e-5"
        id="path2996-4-8"/>
      <path
        style="fill:none;stroke:#f3791d;stroke-width:8;stroke-linecap:butt;stroke-linejoin:miter;stroke-miterlimit:4;stroke-opacity:1;stroke-dasharray:none"
        d="m 4901.2653,1623.5379 c 0,0 34.4558,-34.4558 40.831,-40.8308 6.375,-6.375 5.8321,-14.1121 5.8321,-14.1121 l 0,-245.4154"
        id="path6503"/>
      <path
        style="fill:none;stroke:#f3791d;stroke-width:8;stroke-linecap:butt;stroke-linejoin:miter;stroke-miterlimit:4;stroke-opacity:1;stroke-dasharray:none"
        d="m 4947.9284,1334.5938 0,-133.1046 c 0,0 -0.663,-7.635 5.8336,-14.1315 l 237.8972,-237.89721"
        id="path3770-8-8"/>
      <path
        style="fill:none;stroke:#224f86;stroke-width:8;stroke-linecap:butt;stroke-linejoin:miter;stroke-miterlimit:4;stroke-opacity:1;stroke-dasharray:none"
        d="m 5084.0858,756.08708 0,78.56239 c 0,0 -0.574,7.64044 5.8635,14.07794 3.2842,3.28422 0.4636,0.46339 100.2446,100.24447"
        id="path7255-7-8-2"/>
      <path
        style="fill:none;stroke:#007a5b;stroke-width:8;stroke-linecap:butt;stroke-linejoin:round;stroke-miterlimit:4;stroke-opacity:1;stroke-dasharray:none"
        d="m 4664.7384,1671.2355 317.7876,-317.7877 c 0,0 5.2643,-5.8695 14.1706,-5.8695 8.9063,0 542.1549,0 542.1549,0"
        id="path3766-2-4"/>
      <path
        style="fill:none;stroke:#7dad4c;stroke-width:8;stroke-linecap:butt;stroke-linejoin:miter;stroke-miterlimit:4;stroke-opacity:1;stroke-dasharray:none"
        d="m 4880.2939,1335.6442 659.2502,2e-4" id="path3946-1-1"/>
      <path
        style="fill:none;stroke:#da421e;stroke-width:8;stroke-linecap:butt;stroke-linejoin:round;stroke-miterlimit:4;stroke-opacity:1;stroke-dasharray:none"
        d="m 4803.3694,1260.4551 c 70.6487,-10e-5 113.8576,-10e-5 117.5589,-10e-5 9.1251,-10e-5 14.1385,5.8283 14.1385,5.8283 l 52.1155,52.1155 c 0,0 5.2646,5.8696 14.1707,5.8694 2.3364,10e-5 40.1973,2e-4 68.1435,2e-4 0,0 7.1953,-0.1555 12.7962,5.4429 l 38.1975,38.1975 c 0,0 5.1767,5.864 14.114,5.8641 8.9374,0 13.6874,-5.375 14.1876,-5.875 0.5001,-0.5001 5.8126,-5.3125 5.8122,-14.1249 0,-3.7054 0.088,-13.6545 0.088,-13.6135"
        id="path6622-4-3"/>
      <path
        style="fill:none;stroke:#da421e;stroke-width:8;stroke-linecap:butt;stroke-linejoin:round;stroke-miterlimit:4;stroke-opacity:1;stroke-dasharray:none"
        d="m 4801.6015,1260.4548 c -101.9792,0 -126.3024,0 -126.3024,0 0,0 -7.4734,0.861 -14.1468,-5.8124 -6.6733,-6.6733 -71.6117,-71.6119 -71.6117,-71.6119"
        id="path4659-6-4"/>
      <path
        style="fill:none;stroke:#da421e;stroke-width:8;stroke-linecap:butt;stroke-linejoin:round;stroke-miterlimit:4;stroke-opacity:1;stroke-dasharray:none"
        d="m 5154.605,1336.1594 c 0,-20.2688 0,-59.938 0,-59.938 0,0 -0.2552,-8.049 5.8383,-14.1429 6.0938,-6.0937 13.1251,-5.8749 14.1876,-5.8749 0.549,0 57.2178,0 93.4176,0"
        id="path4813-0-4"/>
      <path
        style="fill:none;stroke:#da421e;stroke-width:8;stroke-linecap:butt;stroke-linejoin:round;stroke-miterlimit:4;stroke-opacity:1;stroke-dasharray:none"
        d="m 5252.7607,1256.2036 c 31.6906,10e-5 43.7308,0 43.7308,0 0,0 7.9799,0.326 14.1048,-5.7992 6.1249,-6.1251 122.4735,-122.4736 122.4735,-122.4736 0,0 5.8331,-5.1409 5.8332,-14.1123 0,-8.9715 -1e-4,-129.53908 -1e-4,-129.53908"
        id="path4225-6-6"/>
      <path
        style="fill:none;stroke:#f0d722;stroke-width:8;stroke-linecap:butt;stroke-linejoin:miter;stroke-miterlimit:4;stroke-opacity:1;stroke-dasharray:none"
        d="m 5053.8422,1348.8155 3e-4,181.9355" id="path4262-8-6"/>
    </g>
    <g id="stations">

      <path transform="matrix(0.77241381,0,0,0.77241381,4733.7589,650.56973)"
            d="m 285,1031.7372 c 0,4.2901 -3.47778,7.7678 -7.76785,7.7678 -4.29007,0 -7.76786,-3.4777 -7.76786,-7.7678 0,-4.2901 3.47779,-7.7679 7.76786,-7.7679 4.29007,0 7.76785,3.4778 7.76785,7.7679 z"
            id="path3772-4-5"
            style="fill:#ffffff;fill-opacity:1;stroke:#000000;stroke-width:2.58928561;stroke-linejoin:round;stroke-miterlimit:4;stroke-opacity:1;stroke-dasharray:none"/>
      <path style="fill:#ffffff;fill-opacity:1;stroke:none" id="path3774-5-5"
            d="m 345.5,1032.9247 c 0,0.7249 -0.36377,1.3125 -0.8125,1.3125 -0.44873,0 -0.8125,-0.5876 -0.8125,-1.3125 0,-0.7249 0.36377,-1.3125 0.8125,-1.3125 0.44873,0 0.8125,0.5876 0.8125,1.3125 z"
            transform="matrix(3.6923078,-7.0710678e-8,7.0710678e-8,2.2857143,3648.5916,-913.47441)"/>
      <path
        style="fill:#ffffff;fill-opacity:1;stroke:#000000;stroke-width:2.58928561;stroke-linejoin:round;stroke-miterlimit:4;stroke-opacity:1;stroke-dasharray:none"
        id="path3857-2-2"
        d="m 285,1031.7372 c 0,4.2901 -3.47778,7.7678 -7.76785,7.7678 -4.29007,0 -7.76786,-3.4777 -7.76786,-7.7678 0,-4.2901 3.47779,-7.7679 7.76786,-7.7679 4.29007,0 7.76785,3.4778 7.76785,7.7679 z"
        transform="matrix(0.77241381,0,0,0.77241381,4733.7589,591.14113)"/>
      <path transform="matrix(3.6923078,-7.0710678e-8,7.0710678e-8,2.2857143,3656.9353,-765.79481)"
            d="m 345.5,1032.9247 c 0,0.7249 -0.36377,1.3125 -0.8125,1.3125 -0.44873,0 -0.8125,-0.5876 -0.8125,-1.3125 0,-0.7249 0.36377,-1.3125 0.8125,-1.3125 0.44873,0 0.8125,0.5876 0.8125,1.3125 z"
            id="path3799-8-5-5" style="fill:#ffffff;fill-opacity:1;stroke:none"/>
      <path transform="matrix(0.77241381,0,0,0.77241381,4733.7589,538.73703)"
            d="m 285,1031.7372 c 0,4.2901 -3.47778,7.7678 -7.76785,7.7678 -4.29007,0 -7.76786,-3.4777 -7.76786,-7.7678 0,-4.2901 3.47779,-7.7679 7.76786,-7.7679 4.29007,0 7.76785,3.4778 7.76785,7.7679 z"
            id="path3948-8-8"
            style="fill:#ffffff;fill-opacity:1;stroke:#000000;stroke-width:2.58928561;stroke-linejoin:round;stroke-miterlimit:4;stroke-opacity:1;stroke-dasharray:none"/>
      <path transform="matrix(3.6923078,-7.0710678e-8,7.0710678e-8,2.2857143,3548.2994,-931.68969)"
            d="m 345.5,1032.9247 c 0,0.7249 -0.36377,1.3125 -0.8125,1.3125 -0.44873,0 -0.8125,-0.5876 -0.8125,-1.3125 0,-0.7249 0.36377,-1.3125 0.8125,-1.3125 0.44873,0 0.8125,0.5876 0.8125,1.3125 z"
            id="path3799-4-2-2" style="fill:#ffffff;fill-opacity:1;stroke:none"/>
      <path style="fill:#ffffff;fill-opacity:1;stroke:none" id="path4073-4-5"
            d="m 345.5,1032.9247 c 0,0.7249 -0.36377,1.3125 -0.8125,1.3125 -0.44873,0 -0.8125,-0.5876 -0.8125,-1.3125 0,-0.7249 0.36377,-1.3125 0.8125,-1.3125 0.44873,0 0.8125,0.5876 0.8125,1.3125 z"
            transform="matrix(3.6923078,-7.0710678e-8,7.0710678e-8,2.2857143,3589.3432,-887.03696)"/>
      <path transform="matrix(3.6923078,-7.0710678e-8,7.0710678e-8,2.2857143,3564.8433,-862.53705)"
            d="m 345.5,1032.9247 c 0,0.7249 -0.36377,1.3125 -0.8125,1.3125 -0.44873,0 -0.8125,-0.5876 -0.8125,-1.3125 0,-0.7249 0.36377,-1.3125 0.8125,-1.3125 0.44873,0 0.8125,0.5876 0.8125,1.3125 z"
            id="path4079-2-1" style="fill:#ffffff;fill-opacity:1;stroke:none"/>
      <path style="fill:#ffffff;fill-opacity:1;stroke:none" id="path4087-4-3"
            d="m 345.5,1032.9247 c 0,0.7249 -0.36377,1.3125 -0.8125,1.3125 -0.44873,0 -0.8125,-0.5876 -0.8125,-1.3125 0,-0.7249 0.36377,-1.3125 0.8125,-1.3125 0.44873,0 0.8125,0.5876 0.8125,1.3125 z"
            transform="matrix(3.6923078,-7.0710678e-8,7.0710678e-8,2.2857143,3540.345,-838.03877)"/>
      <path style="fill:#ffffff;fill-opacity:1;stroke:none" id="path4095-3-1"
            d="m 345.5,1032.9247 c 0,0.7249 -0.36377,1.3125 -0.8125,1.3125 -0.44873,0 -0.8125,-0.5876 -0.8125,-1.3125 0,-0.7249 0.36377,-1.3125 0.8125,-1.3125 0.44873,0 0.8125,0.5876 0.8125,1.3125 z"
            transform="matrix(3.6923078,-7.0710678e-8,7.0710678e-8,2.2857143,3515.8408,-813.53484)"/>
      <path transform="matrix(3.6923078,-7.0710678e-8,7.0710678e-8,2.2857143,3491.3426,-789.03649)"
            d="m 345.5,1032.9247 c 0,0.7249 -0.36377,1.3125 -0.8125,1.3125 -0.44873,0 -0.8125,-0.5876 -0.8125,-1.3125 0,-0.7249 0.36377,-1.3125 0.8125,-1.3125 0.44873,0 0.8125,0.5876 0.8125,1.3125 z"
            id="path4101-4-7" style="fill:#ffffff;fill-opacity:1;stroke:none"/>
      <path style="fill:#ffffff;fill-opacity:1;stroke:none" id="path4109-7-7"
            d="m 345.5,1032.9247 c 0,0.7249 -0.36377,1.3125 -0.8125,1.3125 -0.44873,0 -0.8125,-0.5876 -0.8125,-1.3125 0,-0.7249 0.36377,-1.3125 0.8125,-1.3125 0.44873,0 0.8125,0.5876 0.8125,1.3125 z"
            transform="matrix(3.6923078,-7.0710678e-8,7.0710678e-8,2.2857143,3466.8205,-764.51409)"/>
      <path transform="matrix(3.6923078,-7.0710678e-8,7.0710678e-8,2.2857143,3442.3224,-740.01596)"
            d="m 345.5,1032.9247 c 0,0.7249 -0.36377,1.3125 -0.8125,1.3125 -0.44873,0 -0.8125,-0.5876 -0.8125,-1.3125 0,-0.7249 0.36377,-1.3125 0.8125,-1.3125 0.44873,0 0.8125,0.5876 0.8125,1.3125 z"
            id="path4115-1-3" style="fill:#ffffff;fill-opacity:1;stroke:none"/>
      <path transform="matrix(3.6923078,-7.0710678e-8,7.0710678e-8,2.2857143,3417.8182,-715.51195)"
            d="m 345.5,1032.9247 c 0,0.7249 -0.36377,1.3125 -0.8125,1.3125 -0.44873,0 -0.8125,-0.5876 -0.8125,-1.3125 0,-0.7249 0.36377,-1.3125 0.8125,-1.3125 0.44873,0 0.8125,0.5876 0.8125,1.3125 z"
            id="path4121-6-8" style="fill:#ffffff;fill-opacity:1;stroke:none"/>
      <path style="fill:#ffffff;fill-opacity:1;stroke:none" id="path4167-3-1"
            d="m 345.5,1032.9247 c 0,0.7249 -0.36377,1.3125 -0.8125,1.3125 -0.44873,0 -0.8125,-0.5876 -0.8125,-1.3125 0,-0.7249 0.36377,-1.3125 0.8125,-1.3125 0.44873,0 0.8125,0.5876 0.8125,1.3125 z"
            transform="matrix(3.6923078,-7.0710678e-8,7.0710678e-8,2.2857143,3700.5915,-998.28522)"/>
      <path
        style="fill:#ffffff;fill-opacity:1;stroke:#000000;stroke-width:2.58928561;stroke-linejoin:round;stroke-miterlimit:4;stroke-opacity:1;stroke-dasharray:none"
        id="path4227-6-0"
        d="m 285,1031.7372 c 0,4.2901 -3.47778,7.7678 -7.76785,7.7678 -4.29007,0 -7.76786,-3.4777 -7.76786,-7.7678 0,-4.2901 3.47779,-7.7679 7.76786,-7.7679 4.29007,0 7.76785,3.4778 7.76785,7.7679 z"
        transform="matrix(0.77241381,0,0,0.77241381,4733.7589,482.23388)"/>
      <rect
        style="fill:#ffffff;fill-opacity:1;stroke:#000000;stroke-width:1.99999988;stroke-linejoin:round;stroke-miterlimit:4;stroke-opacity:1;stroke-dasharray:none"
        id="rect4229-1-6" width="36" height="12" x="-1353.6605" y="4998.4639" ry="6" rx="6"
        transform="matrix(0,-1,1,0,0,0)"/>
      <rect rx="6" ry="6" y="5047.8452" x="-1353.6605" height="12" width="36" id="rect4264-4-1"
            style="fill:#ffffff;fill-opacity:1;stroke:#000000;stroke-width:1.99999988;stroke-linejoin:round;stroke-miterlimit:4;stroke-opacity:1;stroke-dasharray:none"
            transform="matrix(0,-1,1,0,0,0)"/>
      <path
        style="fill:#ffffff;fill-opacity:1;stroke:#000000;stroke-width:2.58928561;stroke-linejoin:round;stroke-miterlimit:4;stroke-opacity:1;stroke-dasharray:none"
        id="path4266-9-8"
        d="m 285,1031.7372 c 0,4.2901 -3.47778,7.7678 -7.76785,7.7678 -4.29007,0 -7.76786,-3.4777 -7.76786,-7.7678 0,-4.2901 3.47779,-7.7679 7.76786,-7.7679 4.29007,0 7.76785,3.4778 7.76785,7.7679 z"
        transform="matrix(0.77241381,0,0,0.77241381,4839.7365,650.56971)"/>
      <path transform="matrix(3.6923078,-7.0710678e-8,7.0710678e-8,2.2857143,3781.1662,-963.24235)"
            d="m 345.5,1032.9247 c 0,0.7249 -0.36377,1.3125 -0.8125,1.3125 -0.44873,0 -0.8125,-0.5876 -0.8125,-1.3125 0,-0.7249 0.36377,-1.3125 0.8125,-1.3125 0.44873,0 0.8125,0.5876 0.8125,1.3125 z"
            id="path4268-6-4" style="fill:#ffffff;fill-opacity:1;stroke:none"/>
      <path style="fill:#ffffff;fill-opacity:1;stroke:none" id="path4276-2-8"
            d="m 345.5,1032.9247 c 0,0.7249 -0.36377,1.3125 -0.8125,1.3125 -0.44873,0 -0.8125,-0.5876 -0.8125,-1.3125 0,-0.7249 0.36377,-1.3125 0.8125,-1.3125 0.44873,0 0.8125,0.5876 0.8125,1.3125 z"
            transform="matrix(3.6923078,-7.0710678e-8,7.0710678e-8,2.2857143,3781.1664,-870.36572)"/>
      <path transform="matrix(3.6923078,-7.0710678e-8,7.0710678e-8,2.2857143,3675.2547,-1141.013)"
            d="m 345.5,1032.9247 c 0,0.7249 -0.36377,1.3125 -0.8125,1.3125 -0.44873,0 -0.8125,-0.5876 -0.8125,-1.3125 0,-0.7249 0.36377,-1.3125 0.8125,-1.3125 0.44873,0 0.8125,0.5876 0.8125,1.3125 z"
            id="path4358-37-0" style="fill:#ffffff;fill-opacity:1;stroke:none"/>
      <rect
        style="fill:#ffffff;fill-opacity:1;stroke:#000000;stroke-width:1.99999988;stroke-linejoin:round;stroke-miterlimit:4;stroke-opacity:1;stroke-dasharray:none"
        id="rect4364-0-3" width="24" height="12" x="-1353.6605" y="5148.583" ry="6" rx="6"
        transform="matrix(0,-1,1,0,0,0)"/>
      <path transform="matrix(3.6923078,-7.0710678e-8,7.0710678e-8,2.2857143,3861.9406,-987.20903)"
            d="m 345.5,1032.9247 c 0,0.7249 -0.36377,1.3125 -0.8125,1.3125 -0.44873,0 -0.8125,-0.5876 -0.8125,-1.3125 0,-0.7249 0.36377,-1.3125 0.8125,-1.3125 0.44873,0 0.8125,0.5876 0.8125,1.3125 z"
            id="path4268-4-1-7" style="fill:#ffffff;fill-opacity:1;stroke:none"/>
      <path transform="matrix(3.6923078,-7.0710678e-8,7.0710678e-8,2.2857143,3848.069,-1013.3877)"
            d="m 345.5,1032.9247 c 0,0.7249 -0.36377,1.3125 -0.8125,1.3125 -0.44873,0 -0.8125,-0.5876 -0.8125,-1.3125 0,-0.7249 0.36377,-1.3125 0.8125,-1.3125 0.44873,0 0.8125,0.5876 0.8125,1.3125 z"
            id="path4268-4-3-6-2" style="fill:#ffffff;fill-opacity:1;stroke:none"/>
      <path style="fill:#ffffff;fill-opacity:1;stroke:none" id="path4402-5-6"
            d="m 345.5,1032.9247 c 0,0.7249 -0.36377,1.3125 -0.8125,1.3125 -0.44873,0 -0.8125,-0.5876 -0.8125,-1.3125 0,-0.7249 0.36377,-1.3125 0.8125,-1.3125 0.44873,0 0.8125,0.5876 0.8125,1.3125 z"
            transform="matrix(3.6923078,-7.0710678e-8,7.0710678e-8,2.2857143,3848.0693,-1025.3252)"/>
      <path transform="matrix(3.6923078,-7.0710678e-8,7.0710678e-8,2.2857143,3881.9098,-1078.1215)"
            d="m 345.5,1032.9247 c 0,0.7249 -0.36377,1.3125 -0.8125,1.3125 -0.44873,0 -0.8125,-0.5876 -0.8125,-1.3125 0,-0.7249 0.36377,-1.3125 0.8125,-1.3125 0.44873,0 0.8125,0.5876 0.8125,1.3125 z"
            id="path4358-3-6-0" style="fill:#ffffff;fill-opacity:1;stroke:none"/>
      <rect transform="matrix(0,-1,1,0,0,0)"
            style="fill:#ffffff;fill-opacity:1;stroke:#000000;stroke-width:1.99999988;stroke-linejoin:round;stroke-miterlimit:4;stroke-opacity:1;stroke-dasharray:none"
            id="rect4489-7-0" width="36" height="12" x="-1365.6603" y="5205.8428" ry="6" rx="6"/>
      <rect transform="matrix(0,-1,1,0,0,0)" rx="6" ry="6" y="5263.0024" x="-1353.6605" height="12" width="24"
            id="rect4491-7-7"
            style="fill:#ffffff;fill-opacity:1;stroke:#000000;stroke-width:1.99999988;stroke-linejoin:round;stroke-miterlimit:4;stroke-opacity:1;stroke-dasharray:none"/>
      <path
        style="fill:#ffffff;fill-opacity:1;stroke:#000000;stroke-width:2.58928561;stroke-linejoin:round;stroke-miterlimit:4;stroke-opacity:1;stroke-dasharray:none"
        id="path4266-3-7-1"
        d="m 285,1031.7372 c 0,4.2901 -3.47778,7.7678 -7.76785,7.7678 -4.29007,0 -7.76786,-3.4777 -7.76786,-7.7678 0,-4.2901 3.47779,-7.7679 7.76786,-7.7679 4.29007,0 7.76785,3.4778 7.76785,7.7679 z"
        transform="matrix(0.77241381,0,0,0.77241381,5054.8726,611.47632)"/>
      <path style="fill:#ffffff;fill-opacity:1;stroke:none" id="path4551-3-2"
            d="m 345.5,1032.9247 c 0,0.7249 -0.36377,1.3125 -0.8125,1.3125 -0.44873,0 -0.8125,-0.5876 -0.8125,-1.3125 0,-0.7249 0.36377,-1.3125 0.8125,-1.3125 0.44873,0 0.8125,0.5876 0.8125,1.3125 z"
            transform="matrix(3.6923078,-7.0710678e-8,7.0710678e-8,2.2857143,3905.037,-975.6245)"/>
      <path transform="matrix(3.6923078,-7.0710678e-8,7.0710678e-8,2.2857143,3877.8134,-948.40124)"
            d="m 345.5,1032.9247 c 0,0.7249 -0.36377,1.3125 -0.8125,1.3125 -0.44873,0 -0.8125,-0.5876 -0.8125,-1.3125 0,-0.7249 0.36377,-1.3125 0.8125,-1.3125 0.44873,0 0.8125,0.5876 0.8125,1.3125 z"
            id="path4557-2-3" style="fill:#ffffff;fill-opacity:1;stroke:none"/>
      <path transform="matrix(3.6923078,-7.0710678e-8,7.0710678e-8,2.2857143,3851.9714,-922.55882)"
            d="m 345.5,1032.9247 c 0,0.7249 -0.36377,1.3125 -0.8125,1.3125 -0.44873,0 -0.8125,-0.5876 -0.8125,-1.3125 0,-0.7249 0.36377,-1.3125 0.8125,-1.3125 0.44873,0 0.8125,0.5876 0.8125,1.3125 z"
            id="path4565-9-1" style="fill:#ffffff;fill-opacity:1;stroke:none"/>
      <path transform="matrix(0.77241381,0,0,0.77241381,5054.8726,459.27158)"
            d="m 285,1031.7372 c 0,4.2901 -3.47778,7.7678 -7.76785,7.7678 -4.29007,0 -7.76786,-3.4777 -7.76786,-7.7678 0,-4.2901 3.47779,-7.7679 7.76786,-7.7679 4.29007,0 7.76785,3.4778 7.76785,7.7679 z"
            id="path4577-3-9"
            style="fill:#ffffff;fill-opacity:1;stroke:#000000;stroke-width:2.58928561;stroke-linejoin:round;stroke-miterlimit:4;stroke-opacity:1;stroke-dasharray:none"/>
      <path style="fill:#ffffff;fill-opacity:1;stroke:none" id="path4579-5-4"
            d="m 345.5,1032.9247 c 0,0.7249 -0.36377,1.3125 -0.8125,1.3125 -0.44873,0 -0.8125,-0.5876 -0.8125,-1.3125 0,-0.7249 0.36377,-1.3125 0.8125,-1.3125 0.44873,0 0.8125,0.5876 0.8125,1.3125 z"
            transform="matrix(3.6923078,-7.0710678e-8,7.0710678e-8,2.2857143,3996.316,-1065.5995)"/>
      <path style="fill:#ffffff;fill-opacity:1;stroke:none" id="path4579-8-0-3"
            d="m 345.5,1032.9247 c 0,0.7249 -0.36377,1.3125 -0.8125,1.3125 -0.44873,0 -0.8125,-0.5876 -0.8125,-1.3125 0,-0.7249 0.36377,-1.3125 0.8125,-1.3125 0.44873,0 0.8125,0.5876 0.8125,1.3125 z"
            transform="matrix(3.6923078,-7.0710678e-8,7.0710678e-8,2.2857143,3942.6276,-1104.8027)"/>
      <path transform="matrix(3.6923078,-7.0710678e-8,7.0710678e-8,2.2857143,3905.9611,-1104.8027)"
            d="m 345.5,1032.9247 c 0,0.7249 -0.36377,1.3125 -0.8125,1.3125 -0.44873,0 -0.8125,-0.5876 -0.8125,-1.3125 0,-0.7249 0.36377,-1.3125 0.8125,-1.3125 0.44873,0 0.8125,0.5876 0.8125,1.3125 z"
            id="path4631-0-0" style="fill:#ffffff;fill-opacity:1;stroke:none"/>
      <path style="fill:#ffffff;fill-opacity:1;stroke:none" id="path4661-8-0"
            d="m 345.5,1032.9247 c 0,0.7249 -0.36377,1.3125 -0.8125,1.3125 -0.44873,0 -0.8125,-0.5876 -0.8125,-1.3125 0,-0.7249 0.36377,-1.3125 0.8125,-1.3125 0.44873,0 0.8125,0.5876 0.8125,1.3125 z"
            transform="matrix(3.6923078,-7.0710678e-8,7.0710678e-8,2.2857143,3675.1843,-941.66831)"/>
      <path transform="matrix(3.6923078,-7.0710678e-8,7.0710678e-8,2.2857143,3649.1982,-946.90352)"
            d="m 345.5,1032.9247 c 0,0.7249 -0.36377,1.3125 -0.8125,1.3125 -0.44873,0 -0.8125,-0.5876 -0.8125,-1.3125 0,-0.7249 0.36377,-1.3125 0.8125,-1.3125 0.44873,0 0.8125,0.5876 0.8125,1.3125 z"
            id="path4663-4-6" style="fill:#ffffff;fill-opacity:1;stroke:none"/>
      <path
        style="fill:#ffffff;fill-opacity:1;stroke:#000000;stroke-width:2.58928561;stroke-linejoin:round;stroke-miterlimit:4;stroke-opacity:1;stroke-dasharray:none"
        id="path4665-1-1"
        d="m 285,1031.7372 c 0,4.2901 -3.47778,7.7678 -7.76785,7.7678 -4.29007,0 -7.76786,-3.4777 -7.76786,-7.7678 0,-4.2901 3.47779,-7.7679 7.76786,-7.7679 4.29007,0 7.76785,3.4778 7.76785,7.7679 z"
        transform="matrix(0.77241381,0,0,0.77241381,4674.5087,650.56971)"/>
      <path style="fill:#ffffff;fill-opacity:1;stroke:none" id="path4681-8-4"
            d="m 345.5,1032.9247 c 0,0.7249 -0.36377,1.3125 -0.8125,1.3125 -0.44873,0 -0.8125,-0.5876 -0.8125,-1.3125 0,-0.7249 0.36377,-1.3125 0.8125,-1.3125 0.44873,0 0.8125,0.5876 0.8125,1.3125 z"
            transform="matrix(3.6923078,-7.0710678e-8,7.0710678e-8,2.2857143,4022.8801,-1104.8027)"/>
      <path style="fill:#ffffff;fill-opacity:1;stroke:none" id="path4691-7-9"
            d="m 345.5,1032.9247 c 0,0.7249 -0.36377,1.3125 -0.8125,1.3125 -0.44873,0 -0.8125,-0.5876 -0.8125,-1.3125 0,-0.7249 0.36377,-1.3125 0.8125,-1.3125 0.44873,0 0.8125,0.5876 0.8125,1.3125 z"
            transform="matrix(3.6923078,-7.0710678e-8,7.0710678e-8,2.2857143,4055.6697,-1013.3878)"/>
      <path transform="matrix(3.6923078,-7.0710678e-8,7.0710678e-8,2.2857143,4055.6697,-1025.3252)"
            d="m 345.5,1032.9247 c 0,0.7249 -0.36377,1.3125 -0.8125,1.3125 -0.44873,0 -0.8125,-0.5876 -0.8125,-1.3125 0,-0.7249 0.36377,-1.3125 0.8125,-1.3125 0.44873,0 0.8125,0.5876 0.8125,1.3125 z"
            id="path4693-8-8" style="fill:#ffffff;fill-opacity:1;stroke:none"/>
      <path style="fill:#ffffff;fill-opacity:1;stroke:none" id="path4681-3-7-7"
            d="m 345.5,1032.9247 c 0,0.7249 -0.36377,1.3125 -0.8125,1.3125 -0.44873,0 -0.8125,-0.5876 -0.8125,-1.3125 0,-0.7249 0.36377,-1.3125 0.8125,-1.3125 0.44873,0 0.8125,0.5876 0.8125,1.3125 z"
            transform="matrix(3.6923078,-7.0710678e-8,7.0710678e-8,2.2857143,4048.4396,-1121.1496)"/>
      <path transform="matrix(3.6923078,-7.0710678e-8,7.0710678e-8,2.2857143,4066.8243,-1139.5343)"
            d="m 345.5,1032.9247 c 0,0.7249 -0.36377,1.3125 -0.8125,1.3125 -0.44873,0 -0.8125,-0.5876 -0.8125,-1.3125 0,-0.7249 0.36377,-1.3125 0.8125,-1.3125 0.44873,0 0.8125,0.5876 0.8125,1.3125 z"
            id="path4745-7-3" style="fill:#ffffff;fill-opacity:1;stroke:none"/>
      <path style="fill:#ffffff;fill-opacity:1;stroke:none" id="path4773-6-1"
            d="m 345.5,1032.9247 c 0,0.7249 -0.36377,1.3125 -0.8125,1.3125 -0.44873,0 -0.8125,-0.5876 -0.8125,-1.3125 0,-0.7249 0.36377,-1.3125 0.8125,-1.3125 0.44873,0 0.8125,0.5876 0.8125,1.3125 z"
            transform="matrix(3.6923078,-7.0710678e-8,7.0710678e-8,2.2857143,4085.209,-1157.9192)"/>
      <path transform="matrix(0.77241381,0,0,0.77241381,5172.4931,377.32445)"
            d="m 285,1031.7372 c 0,4.2901 -3.47778,7.7678 -7.76785,7.7678 -4.29007,0 -7.76786,-3.4777 -7.76786,-7.7678 0,-4.2901 3.47779,-7.7679 7.76786,-7.7679 4.29007,0 7.76785,3.4778 7.76785,7.7679 z"
            id="path4577-2-0-3"
            style="fill:#ffffff;fill-opacity:1;stroke:#000000;stroke-width:2.58928561;stroke-linejoin:round;stroke-miterlimit:4;stroke-opacity:1;stroke-dasharray:none"/>
      <path transform="matrix(3.6923078,-7.0710678e-8,7.0710678e-8,2.2857143,4079.9821,-1186.778)"
            d="m 345.5,1032.9247 c 0,0.7249 -0.36377,1.3125 -0.8125,1.3125 -0.44873,0 -0.8125,-0.5876 -0.8125,-1.3125 0,-0.7249 0.36377,-1.3125 0.8125,-1.3125 0.44873,0 0.8125,0.5876 0.8125,1.3125 z"
            id="path4805-9-9"
            style="fill:#ffffff;fill-opacity:1;stroke:none;stroke-width:0.34422313999999998;stroke-miterlimit:4;stroke-opacity:1;stroke-dasharray:none"/>
      <path transform="matrix(3.6923078,-7.0710678e-8,7.0710678e-8,2.2857143,3935.9711,-1186.7778)"
            d="m 345.5,1032.9247 c 0,0.7249 -0.36377,1.3125 -0.8125,1.3125 -0.44873,0 -0.8125,-0.5876 -0.8125,-1.3125 0,-0.7249 0.36377,-1.3125 0.8125,-1.3125 0.44873,0 0.8125,0.5876 0.8125,1.3125 z"
            id="path4809-8-5"
            style="fill:#ffffff;fill-opacity:1;stroke:none;stroke-width:0.34422313999999998;stroke-miterlimit:4;stroke-opacity:1;stroke-dasharray:none"/>
      <path
        style="fill:#ffffff;fill-opacity:1;stroke:none;stroke-width:0.34422313999999998;stroke-miterlimit:4;stroke-opacity:1;stroke-dasharray:none"
        id="path4878-7-2"
        d="m 345.5,1032.9247 c 0,0.7249 -0.36377,1.3125 -0.8125,1.3125 -0.44873,0 -0.8125,-0.5876 -0.8125,-1.3125 0,-0.7249 0.36377,-1.3125 0.8125,-1.3125 0.44873,0 0.8125,0.5876 0.8125,1.3125 z"
        transform="matrix(3.6923078,-7.0710678e-8,7.0710678e-8,2.2857143,3887.8497,-1186.778)"/>
      <rect
        style="fill:#ffffff;fill-opacity:1;stroke:#000000;stroke-width:1.99999988;stroke-linejoin:round;stroke-miterlimit:4;stroke-opacity:1;stroke-dasharray:none"
        id="rect4902-8-3" width="24" height="12" x="-1353.6605" y="5380.6914" ry="6" rx="6"
        transform="matrix(0,-1,1,0,0,0)"/>
      <path transform="matrix(3.6923078,-7.0710678e-8,7.0710678e-8,2.2857143,4165.9196,-1013.3875)"
            d="m 345.5,1032.9247 c 0,0.7249 -0.36377,1.3125 -0.8125,1.3125 -0.44873,0 -0.8125,-0.5876 -0.8125,-1.3125 0,-0.7249 0.36377,-1.3125 0.8125,-1.3125 0.44873,0 0.8125,0.5876 0.8125,1.3125 z"
            id="path4904-8-7" style="fill:#ffffff;fill-opacity:1;stroke:none"/>
      <path style="fill:#ffffff;fill-opacity:1;stroke:none" id="path4906-0-4"
            d="m 345.5,1032.9247 c 0,0.7249 -0.36377,1.3125 -0.8125,1.3125 -0.44873,0 -0.8125,-0.5876 -0.8125,-1.3125 0,-0.7249 0.36377,-1.3125 0.8125,-1.3125 0.44873,0 0.8125,0.5876 0.8125,1.3125 z"
            transform="matrix(3.6923078,-7.0710678e-8,7.0710678e-8,2.2857143,4165.9196,-1025.3252)"/>
      <path style="fill:#ffffff;fill-opacity:1;stroke:none" id="path4914-9-8"
            d="m 345.5,1032.9247 c 0,0.7249 -0.36377,1.3125 -0.8125,1.3125 -0.44873,0 -0.8125,-0.5876 -0.8125,-1.3125 0,-0.7249 0.36377,-1.3125 0.8125,-1.3125 0.44873,0 0.8125,0.5876 0.8125,1.3125 z"
            transform="matrix(3.6923078,-7.0710678e-8,7.0710678e-8,2.2857143,4213.6697,-1013.3878)"/>
      <path transform="matrix(3.6923078,-7.0710678e-8,7.0710678e-8,2.2857143,4213.6696,-1025.3252)"
            d="m 345.5,1032.9247 c 0,0.7249 -0.36377,1.3125 -0.8125,1.3125 -0.44873,0 -0.8125,-0.5876 -0.8125,-1.3125 0,-0.7249 0.36377,-1.3125 0.8125,-1.3125 0.44873,0 0.8125,0.5876 0.8125,1.3125 z"
            id="path4916-8-8" style="fill:#ffffff;fill-opacity:1;stroke:none"/>
      <rect transform="matrix(0,-1,1,0,0,0)" rx="6" ry="6" y="5533.4414" x="-1353.6605" height="12" width="24"
            id="rect4936-2-1"
            style="fill:#ffffff;fill-opacity:1;stroke:#000000;stroke-width:1.99999988;stroke-linejoin:round;stroke-miterlimit:4;stroke-opacity:1;stroke-dasharray:none"/>
      <path
        style="fill:#ffffff;fill-opacity:1;stroke:#000000;stroke-width:2.58928561;stroke-linejoin:round;stroke-miterlimit:4;stroke-opacity:1;stroke-dasharray:none"
        id="path4942-9-7"
        d="m 285,1031.7372 c 0,4.2901 -3.47778,7.7678 -7.76785,7.7678 -4.29007,0 -7.76786,-3.4777 -7.76786,-7.7678 0,-4.2901 3.47779,-7.7679 7.76786,-7.7679 4.29007,0 7.76785,3.4778 7.76785,7.7679 z"
        transform="matrix(0.77241381,0,0,0.77241381,4667.0087,538.7371)"/>
      <path transform="matrix(0.77241381,0,0,0.77241381,4839.7365,732.06966)"
            d="m 285,1031.7372 c 0,4.2901 -3.47778,7.7678 -7.76785,7.7678 -4.29007,0 -7.76786,-3.4777 -7.76786,-7.7678 0,-4.2901 3.47779,-7.7679 7.76786,-7.7679 4.29007,0 7.76785,3.4778 7.76785,7.7679 z"
            id="path4944-0-2"
            style="fill:#ffffff;fill-opacity:1;stroke:#000000;stroke-width:2.58928561;stroke-linejoin:round;stroke-miterlimit:4;stroke-opacity:1;stroke-dasharray:none"/>
      <path style="fill:#f0d722;fill-opacity:1;stroke:none" id="path4946-7-2"
            d="m 285,1031.7372 c 0,4.2901 -3.47778,7.7678 -7.76785,7.7678 -4.29007,0 -7.76786,-3.4777 -7.76786,-7.7678 0,-4.2901 3.47779,-7.7679 7.76786,-7.7679 4.29007,0 7.76785,3.4778 7.76785,7.7679 z"
            transform="matrix(0.3862069,0,0,0.3862069,4946.8058,1130.5335)"/>
      <path transform="matrix(0.3862069,0,0,0.3862069,4946.8059,949.1965)"
            d="m 285,1031.7372 c 0,4.2901 -3.47778,7.7678 -7.76785,7.7678 -4.29007,0 -7.76786,-3.4777 -7.76786,-7.7678 0,-4.2901 3.47779,-7.7679 7.76786,-7.7679 4.29007,0 7.76785,3.4778 7.76785,7.7679 z"
            id="path4948-8-8" style="fill:#f0d722;fill-opacity:1;stroke:none"/>
      <path style="fill:#7dad4c;fill-opacity:1;stroke:none" id="path4946-8-1-2"
            d="m 285,1031.7372 c 0,4.2901 -3.47778,7.7678 -7.76785,7.7678 -4.29007,0 -7.76786,-3.4777 -7.76786,-7.7678 0,-4.2901 3.47779,-7.7679 7.76786,-7.7679 4.29007,0 7.76785,3.4778 7.76785,7.7679 z"
            transform="matrix(0.3862069,0,0,0.3862069,4774.0778,937.20141)"/>
      <path transform="matrix(0.3862069,0,0,0.3862069,5432.3728,937.20124)"
            d="m 285,1031.7372 c 0,4.2901 -3.47778,7.7678 -7.76785,7.7678 -4.29007,0 -7.76786,-3.4777 -7.76786,-7.7678 0,-4.2901 3.47779,-7.7679 7.76786,-7.7679 4.29007,0 7.76785,3.4778 7.76785,7.7679 z"
            id="path4968-5-8" style="fill:#7dad4c;fill-opacity:1;stroke:none"/>
      <path style="fill:#007a5b;fill-opacity:1;stroke:none" id="path4970-8-9"
            d="m 285,1031.7372 c 0,4.2901 -3.47778,7.7678 -7.76785,7.7678 -4.29007,0 -7.76786,-3.4777 -7.76786,-7.7678 0,-4.2901 3.47779,-7.7679 7.76786,-7.7679 4.29007,0 7.76785,3.4778 7.76785,7.7679 z"
            transform="matrix(0.3862069,0,0,0.3862069,5432.3729,949.19645)"/>
      <path transform="matrix(3.6923078,-7.0710678e-8,7.0710678e-8,2.2857143,4037.0726,-932.04869)"
            d="m 345.5,1032.9247 c 0,0.7249 -0.36377,1.3125 -0.8125,1.3125 -0.44873,0 -0.8125,-0.5876 -0.8125,-1.3125 0,-0.7249 0.36377,-1.3125 0.8125,-1.3125 0.44873,0 0.8125,0.5876 0.8125,1.3125 z"
            id="path4984-5-8" style="fill:#ffffff;fill-opacity:1;stroke:none"/>
      <path style="fill:#ffffff;fill-opacity:1;stroke:none" id="path4986-8-6"
            d="m 345.5,1032.9247 c 0,0.7249 -0.36377,1.3125 -0.8125,1.3125 -0.44873,0 -0.8125,-0.5876 -0.8125,-1.3125 0,-0.7249 0.36377,-1.3125 0.8125,-1.3125 0.44873,0 0.8125,0.5876 0.8125,1.3125 z"
            transform="matrix(3.6923078,-7.0710678e-8,7.0710678e-8,2.2857143,4074.5728,-932.04869)"/>
      <path
        style="fill:#ffffff;fill-opacity:1;stroke:#000000;stroke-width:2.58928561;stroke-linejoin:round;stroke-miterlimit:4;stroke-opacity:1;stroke-dasharray:none"
        id="path4988-6-1"
        d="m 285,1031.7372 c 0,4.2901 -3.47778,7.7678 -7.76785,7.7678 -4.29007,0 -7.76786,-3.4777 -7.76786,-7.7678 0,-4.2901 3.47779,-7.7679 7.76786,-7.7679 4.29007,0 7.76785,3.4778 7.76785,7.7679 z"
        transform="matrix(0.77241381,0,0,0.77241381,5172.4932,631.88707)"/>
      <path style="fill:#ffffff;fill-opacity:1;stroke:none" id="path4276-0-2-6"
            d="m 345.5,1032.9247 c 0,0.7249 -0.36377,1.3125 -0.8125,1.3125 -0.44873,0 -0.8125,-0.5876 -0.8125,-1.3125 0,-0.7249 0.36377,-1.3125 0.8125,-1.3125 0.44873,0 0.8125,0.5876 0.8125,1.3125 z"
            transform="matrix(3.6923078,-7.0710678e-8,7.0710678e-8,2.2857143,4114.0836,-967.17069)"/>
      <path transform="matrix(3.6923078,-7.0710678e-8,7.0710678e-8,2.2857143,4114.0836,-884.43933)"
            d="m 345.5,1032.9247 c 0,0.7249 -0.36377,1.3125 -0.8125,1.3125 -0.44873,0 -0.8125,-0.5876 -0.8125,-1.3125 0,-0.7249 0.36377,-1.3125 0.8125,-1.3125 0.44873,0 0.8125,0.5876 0.8125,1.3125 z"
            id="path5054-1-4" style="fill:#ffffff;fill-opacity:1;stroke:none"/>
      <path style="fill:#ffffff;fill-opacity:1;stroke:none" id="path5062-6-8"
            d="m 345.5,1032.9247 c 0,0.7249 -0.36377,1.3125 -0.8125,1.3125 -0.44873,0 -0.8125,-0.5876 -0.8125,-1.3125 0,-0.7249 0.36377,-1.3125 0.8125,-1.3125 0.44873,0 0.8125,0.5876 0.8125,1.3125 z"
            transform="matrix(3.6923078,-7.0710678e-8,7.0710678e-8,2.2857143,4114.0837,-855.44788)"/>
      <path transform="matrix(0.77241381,0,0,0.77241381,5172.4931,740.88694)"
            d="m 285,1031.7372 c 0,4.2901 -3.47778,7.7678 -7.76785,7.7678 -4.29007,0 -7.76786,-3.4777 -7.76786,-7.7678 0,-4.2901 3.47779,-7.7679 7.76786,-7.7679 4.29007,0 7.76785,3.4778 7.76785,7.7679 z"
            id="path5070-52-1"
            style="fill:#ffffff;fill-opacity:1;stroke:#000000;stroke-width:2.58928561;stroke-linejoin:round;stroke-miterlimit:4;stroke-opacity:1;stroke-dasharray:none"/>
      <path transform="matrix(3.6923078,-7.0710678e-8,7.0710678e-8,2.2857143,4155.0359,-1227.746)"
            d="m 345.5,1032.9247 c 0,0.7249 -0.36377,1.3125 -0.8125,1.3125 -0.44873,0 -0.8125,-0.5876 -0.8125,-1.3125 0,-0.7249 0.36377,-1.3125 0.8125,-1.3125 0.44873,0 0.8125,0.5876 0.8125,1.3125 z"
            id="path5119-39-6" style="fill:#ffffff;fill-opacity:1;stroke:none"/>
      <path transform="matrix(3.6923078,-7.0710678e-8,7.0710678e-8,2.2857143,4114.0838,-1067.6961)"
            d="m 345.5,1032.9247 c 0,0.7249 -0.36377,1.3125 -0.8125,1.3125 -0.44873,0 -0.8125,-0.5876 -0.8125,-1.3125 0,-0.7249 0.36377,-1.3125 0.8125,-1.3125 0.44873,0 0.8125,0.5876 0.8125,1.3125 z"
            id="path5144-9-2" style="fill:#ffffff;fill-opacity:1;stroke:none"/>
      <path style="fill:#ffffff;fill-opacity:1;stroke:none" id="path5152-5-9"
            d="m 345.5,1032.9247 c 0,0.7249 -0.36377,1.3125 -0.8125,1.3125 -0.44873,0 -0.8125,-0.5876 -0.8125,-1.3125 0,-0.7249 0.36377,-1.3125 0.8125,-1.3125 0.44873,0 0.8125,0.5876 0.8125,1.3125 z"
            transform="matrix(3.6923078,-7.0710678e-8,7.0710678e-8,2.2857143,4114.0838,-1135.2963)"/>
      <path transform="matrix(3.6923078,-7.0710678e-8,7.0710678e-8,2.2857143,4114.0838,-1101.5393)"
            d="m 345.5,1032.9247 c 0,0.7249 -0.36377,1.3125 -0.8125,1.3125 -0.44873,0 -0.8125,-0.5876 -0.8125,-1.3125 0,-0.7249 0.36377,-1.3125 0.8125,-1.3125 0.44873,0 0.8125,0.5876 0.8125,1.3125 z"
            id="path5160-6-9" style="fill:#ffffff;fill-opacity:1;stroke:none"/>
      <path transform="matrix(3.6923078,-7.0710678e-8,7.0710678e-8,2.2857143,4166.2163,-1255.0662)"
            d="m 345.5,1032.9247 c 0,0.7249 -0.36377,1.3125 -0.8125,1.3125 -0.44873,0 -0.8125,-0.5876 -0.8125,-1.3125 0,-0.7249 0.36377,-1.3125 0.8125,-1.3125 0.44873,0 0.8125,0.5876 0.8125,1.3125 z"
            id="path5119-3-1-8" style="fill:#ffffff;fill-opacity:1;stroke:none"/>
      <path style="fill:#ffffff;fill-opacity:1;stroke:none" id="path5206-9-7"
            d="m 345.5,1032.9247 c 0,0.7249 -0.36377,1.3125 -0.8125,1.3125 -0.44873,0 -0.8125,-0.5876 -0.8125,-1.3125 0,-0.7249 0.36377,-1.3125 0.8125,-1.3125 0.44873,0 0.8125,0.5876 0.8125,1.3125 z"
            transform="matrix(3.6923078,-7.0710678e-8,7.0710678e-8,2.2857143,4166.2162,-1285.5662)"/>
      <path transform="matrix(3.6923078,-7.0710678e-8,7.0710678e-8,2.2857143,4166.2163,-1316.0662)"
            d="m 345.5,1032.9247 c 0,0.7249 -0.36377,1.3125 -0.8125,1.3125 -0.44873,0 -0.8125,-0.5876 -0.8125,-1.3125 0,-0.7249 0.36377,-1.3125 0.8125,-1.3125 0.44873,0 0.8125,0.5876 0.8125,1.3125 z"
            id="path5214-5-9" style="fill:#ffffff;fill-opacity:1;stroke:none"/>
      <path transform="matrix(3.6923078,-7.0710678e-8,7.0710678e-8,2.2857143,4166.2163,-1346.5986)"
            d="m 345.5,1032.9247 c 0,0.7249 -0.36377,1.3125 -0.8125,1.3125 -0.44873,0 -0.8125,-0.5876 -0.8125,-1.3125 0,-0.7249 0.36377,-1.3125 0.8125,-1.3125 0.44873,0 0.8125,0.5876 0.8125,1.3125 z"
            id="path5222-9-9" style="fill:#ffffff;fill-opacity:1;stroke:none"/>
      <path transform="matrix(0.77241381,0,0,0.77241381,5224.8537,186.91537)"
            d="m 285,1031.7372 c 0,4.2901 -3.47778,7.7678 -7.76785,7.7678 -4.29007,0 -7.76786,-3.4777 -7.76786,-7.7678 0,-4.2901 3.47779,-7.7679 7.76786,-7.7679 4.29007,0 7.76785,3.4778 7.76785,7.7679 z"
            id="path4577-2-8-5-8"
            style="fill:#ffffff;fill-opacity:1;stroke:#000000;stroke-width:2.58928561;stroke-linejoin:round;stroke-miterlimit:4;stroke-opacity:1;stroke-dasharray:none"/>
      <path style="fill:#224f86;fill-opacity:1;stroke:none" id="path4946-9-39-5"
            d="m 285,1031.7372 c 0,4.2901 -3.47778,7.7678 -7.76785,7.7678 -4.29007,0 -7.76786,-3.4777 -7.76786,-7.7678 0,-4.2901 3.47779,-7.7679 7.76786,-7.7679 4.29007,0 7.76785,3.4778 7.76785,7.7679 z"
            transform="matrix(0.3862069,0,0,0.3862069,5279.5618,1139.3515)"/>
      <path style="fill:#da421e;fill-opacity:1;stroke:none" id="path4946-9-3-3-4"
            d="m 285,1031.7372 c 0,4.2901 -3.47778,7.7678 -7.76785,7.7678 -4.29007,0 -7.76786,-3.4777 -7.76786,-7.7678 0,-4.2901 3.47779,-7.7679 7.76786,-7.7679 4.29007,0 7.76785,3.4778 7.76785,7.7679 z"
            transform="matrix(0.3862069,0,0,0.3862069,5331.9227,585.37941)"/>
      <path style="fill:#ffffff;fill-opacity:1;stroke:none" id="path5288-9-9"
            d="m 345.5,1032.9247 c 0,0.7249 -0.36377,1.3125 -0.8125,1.3125 -0.44873,0 -0.8125,-0.5876 -0.8125,-1.3125 0,-0.7249 0.36377,-1.3125 0.8125,-1.3125 0.44873,0 0.8125,0.5876 0.8125,1.3125 z"
            transform="matrix(3.6923078,-7.0710678e-8,7.0710678e-8,2.2857143,4183.3568,-1186.778)"/>
      <path transform="matrix(3.6923078,-7.0710678e-8,7.0710678e-8,2.2857143,4224.857,-1186.7778)"
            d="m 345.5,1032.9247 c 0,0.7249 -0.36377,1.3125 -0.8125,1.3125 -0.44873,0 -0.8125,-0.5876 -0.8125,-1.3125 0,-0.7249 0.36377,-1.3125 0.8125,-1.3125 0.44873,0 0.8125,0.5876 0.8125,1.3125 z"
            id="path5298-9-5" style="fill:#ffffff;fill-opacity:1;stroke:none"/>
      <path style="fill:#ffffff;fill-opacity:1;stroke:none" id="path5316-9-9"
            d="m 345.5,1032.9247 c 0,0.7249 -0.36377,1.3125 -0.8125,1.3125 -0.44873,0 -0.8125,-0.5876 -0.8125,-1.3125 0,-0.7249 0.36377,-1.3125 0.8125,-1.3125 0.44873,0 0.8125,0.5876 0.8125,1.3125 z"
            transform="matrix(3.6923078,-7.0710678e-8,7.0710678e-8,2.2857143,4266.3569,-1186.778)"/>
      <path style="fill:#ffffff;fill-opacity:1;stroke:none" id="path5326-6-7"
            d="m 345.5,1032.9247 c 0,0.7249 -0.36377,1.3125 -0.8125,1.3125 -0.44873,0 -0.8125,-0.5876 -0.8125,-1.3125 0,-0.7249 0.36377,-1.3125 0.8125,-1.3125 0.44873,0 0.8125,0.5876 0.8125,1.3125 z"
            transform="matrix(3.6923078,-7.0710678e-8,7.0710678e-8,2.2857143,4307.8567,-1186.778)"/>
      <path transform="matrix(3.6923078,-7.0710678e-8,7.0710678e-8,2.2857143,4349.3568,-1186.778)"
            d="m 345.5,1032.9247 c 0,0.7249 -0.36377,1.3125 -0.8125,1.3125 -0.44873,0 -0.8125,-0.5876 -0.8125,-1.3125 0,-0.7249 0.36377,-1.3125 0.8125,-1.3125 0.44873,0 0.8125,0.5876 0.8125,1.3125 z"
            id="path5334-2-6" style="fill:#ffffff;fill-opacity:1;stroke:none"/>
      <path transform="matrix(3.6923078,-7.0710678e-8,7.0710678e-8,2.2857143,4390.8569,-1186.778)"
            d="m 345.5,1032.9247 c 0,0.7249 -0.36377,1.3125 -0.8125,1.3125 -0.44873,0 -0.8125,-0.5876 -0.8125,-1.3125 0,-0.7249 0.36377,-1.3125 0.8125,-1.3125 0.44873,0 0.8125,0.5876 0.8125,1.3125 z"
            id="path5344-1-7" style="fill:#ffffff;fill-opacity:1;stroke:none"/>
      <path style="fill:#ffffff;fill-opacity:1;stroke:none" id="path5352-3-8"
            d="m 345.5,1032.9247 c 0,0.7249 -0.36377,1.3125 -0.8125,1.3125 -0.44873,0 -0.8125,-0.5876 -0.8125,-1.3125 0,-0.7249 0.36377,-1.3125 0.8125,-1.3125 0.44873,0 0.8125,0.5876 0.8125,1.3125 z"
            transform="matrix(3.6923078,-7.0710678e-8,7.0710678e-8,2.2857143,4432.3568,-1186.7781)"/>
      <path transform="matrix(0.77241381,0,0,0.77241381,4686.5584,827.1808)"
            d="m 285,1031.7372 c 0,4.2901 -3.47778,7.7678 -7.76785,7.7678 -4.29007,0 -7.76786,-3.4777 -7.76786,-7.7678 0,-4.2901 3.47779,-7.7679 7.76786,-7.7679 4.29007,0 7.76785,3.4778 7.76785,7.7679 z"
            id="path4944-4-82-4"
            style="fill:#ffffff;fill-opacity:1;stroke:#000000;stroke-width:2.58928561;stroke-linejoin:round;stroke-miterlimit:4;stroke-opacity:1;stroke-dasharray:none"/>
      <path style="fill:#f3791d;fill-opacity:1;stroke:none" id="path4946-4-5-1"
            d="m 285,1031.7372 c 0,4.2901 -3.47778,7.7678 -7.76785,7.7678 -4.29007,0 -7.76786,-3.4777 -7.76786,-7.7678 0,-4.2901 3.47779,-7.7679 7.76786,-7.7679 4.29007,0 7.76785,3.4778 7.76785,7.7679 z"
            transform="matrix(0.3862069,0,0,0.3862069,4793.6277,1225.6445)"/>
      <path transform="matrix(3.6923078,-7.0710678e-8,7.0710678e-8,2.2857143,3981.7184,-1215.6561)"
            d="m 345.5,1032.9247 c 0,0.7249 -0.36377,1.3125 -0.8125,1.3125 -0.44873,0 -0.8125,-0.5876 -0.8125,-1.3125 0,-0.7249 0.36377,-1.3125 0.8125,-1.3125 0.44873,0 0.8125,0.5876 0.8125,1.3125 z"
            id="path4809-6-3-6" style="fill:#ffffff;fill-opacity:1;stroke:none"/>
      <path style="fill:#ffffff;fill-opacity:1;stroke:none" id="path5424-8-3"
            d="m 345.5,1032.9247 c 0,0.7249 -0.36377,1.3125 -0.8125,1.3125 -0.44873,0 -0.8125,-0.5876 -0.8125,-1.3125 0,-0.7249 0.36377,-1.3125 0.8125,-1.3125 0.44873,0 0.8125,0.5876 0.8125,1.3125 z"
            transform="matrix(3.6923078,-7.0710678e-8,7.0710678e-8,2.2857143,3961.3196,-1236.055)"/>
      <path transform="matrix(3.6923078,-7.0710678e-8,7.0710678e-8,2.2857143,3940.9231,-1256.4516)"
            d="m 345.5,1032.9247 c 0,0.7249 -0.36377,1.3125 -0.8125,1.3125 -0.44873,0 -0.8125,-0.5876 -0.8125,-1.3125 0,-0.7249 0.36377,-1.3125 0.8125,-1.3125 0.44873,0 0.8125,0.5876 0.8125,1.3125 z"
            id="path5462-4-3" style="fill:#ffffff;fill-opacity:1;stroke:none"/>
      <path transform="matrix(3.6923078,-7.0710678e-8,7.0710678e-8,2.2857143,3920.5382,-1276.8361)"
            d="m 345.5,1032.9247 c 0,0.7249 -0.36377,1.3125 -0.8125,1.3125 -0.44873,0 -0.8125,-0.5876 -0.8125,-1.3125 0,-0.7249 0.36377,-1.3125 0.8125,-1.3125 0.44873,0 0.8125,0.5876 0.8125,1.3125 z"
            id="path5472-1-5" style="fill:#ffffff;fill-opacity:1;stroke:none"/>
      <path style="fill:#ffffff;fill-opacity:1;stroke:none" id="path5480-6-8"
            d="m 345.5,1032.9247 c 0,0.7249 -0.36377,1.3125 -0.8125,1.3125 -0.44873,0 -0.8125,-0.5876 -0.8125,-1.3125 0,-0.7249 0.36377,-1.3125 0.8125,-1.3125 0.44873,0 0.8125,0.5876 0.8125,1.3125 z"
            transform="matrix(3.6923078,-7.0710678e-8,7.0710678e-8,2.2857143,3900.1418,-1297.233)"/>
      <path transform="matrix(3.6923078,-7.0710678e-8,7.0710678e-8,2.2857143,3879.7166,-1317.6581)"
            d="m 345.5,1032.9247 c 0,0.7249 -0.36377,1.3125 -0.8125,1.3125 -0.44873,0 -0.8125,-0.5876 -0.8125,-1.3125 0,-0.7249 0.36377,-1.3125 0.8125,-1.3125 0.44873,0 0.8125,0.5876 0.8125,1.3125 z"
            id="path5490-93-4" style="fill:#ffffff;fill-opacity:1;stroke:none"/>
      <path transform="matrix(0.77241381,0,0,0.77241381,4910.7171,218.93328)"
            d="m 285,1031.7372 c 0,4.2901 -3.47778,7.7678 -7.76785,7.7678 -4.29007,0 -7.76786,-3.4777 -7.76786,-7.7678 0,-4.2901 3.47779,-7.7679 7.76786,-7.7679 4.29007,0 7.76785,3.4778 7.76785,7.7679 z"
            id="path5360-1-0-9"
            style="fill:#ffffff;fill-opacity:1;stroke:#000000;stroke-width:2.58928561;stroke-linejoin:round;stroke-miterlimit:4;stroke-opacity:1;stroke-dasharray:none"/>
      <path style="fill:#ffffff;fill-opacity:1;stroke:none" id="path5506-6-0"
            d="m 345.5,1032.9247 c 0,0.7249 -0.36377,1.3125 -0.8125,1.3125 -0.44873,0 -0.8125,-0.5876 -0.8125,-1.3125 0,-0.7249 0.36377,-1.3125 0.8125,-1.3125 0.44873,0 0.8125,0.5876 0.8125,1.3125 z"
            transform="matrix(3.6923078,-7.0710678e-8,7.0710678e-8,2.2857143,3825.4354,-1371.9393)"/>
      <path transform="matrix(3.6923078,-7.0710678e-8,7.0710678e-8,2.2857143,3805.0389,-1392.3357)"
            d="m 345.5,1032.9247 c 0,0.7249 -0.36377,1.3125 -0.8125,1.3125 -0.44873,0 -0.8125,-0.5876 -0.8125,-1.3125 0,-0.7249 0.36377,-1.3125 0.8125,-1.3125 0.44873,0 0.8125,0.5876 0.8125,1.3125 z"
            id="path5514-3-3" style="fill:#ffffff;fill-opacity:1;stroke:none"/>
      <path style="fill:#ffffff;fill-opacity:1;stroke:none" id="path5569-8-9"
            d="m 345.5,1032.9247 c 0,0.7249 -0.36377,1.3125 -0.8125,1.3125 -0.44873,0 -0.8125,-0.5876 -0.8125,-1.3125 0,-0.7249 0.36377,-1.3125 0.8125,-1.3125 0.44873,0 0.8125,0.5876 0.8125,1.3125 z"
            transform="matrix(3.6923078,-7.0710678e-8,7.0710678e-8,2.2857143,3784.6214,-1412.7534)"/>
      <path style="fill:#ffffff;fill-opacity:1;stroke:none" id="path5581-12-4"
            d="m 345.5,1032.9247 c 0,0.7249 -0.36377,1.3125 -0.8125,1.3125 -0.44873,0 -0.8125,-0.5876 -0.8125,-1.3125 0,-0.7249 0.36377,-1.3125 0.8125,-1.3125 0.44873,0 0.8125,0.5876 0.8125,1.3125 z"
            transform="matrix(3.6923078,-7.0710678e-8,7.0710678e-8,2.2857143,3764.2479,-1433.1268)"/>
      <path transform="matrix(3.6923078,-7.0710678e-8,7.0710678e-8,2.2857143,3743.8301,-1453.5443)"
            d="m 345.5,1032.9247 c 0,0.7249 -0.36377,1.3125 -0.8125,1.3125 -0.44873,0 -0.8125,-0.5876 -0.8125,-1.3125 0,-0.7249 0.36377,-1.3125 0.8125,-1.3125 0.44873,0 0.8125,0.5876 0.8125,1.3125 z"
            id="path5583-5-0" style="fill:#ffffff;fill-opacity:1;stroke:none"/>
      <path style="fill:#ffffff;fill-opacity:1;stroke:none" id="path5595-4-4"
            d="m 345.5,1032.9247 c 0,0.7249 -0.36377,1.3125 -0.8125,1.3125 -0.44873,0 -0.8125,-0.5876 -0.8125,-1.3125 0,-0.7249 0.36377,-1.3125 0.8125,-1.3125 0.44873,0 0.8125,0.5876 0.8125,1.3125 z"
            transform="matrix(3.6923078,-7.0710678e-8,7.0710678e-8,2.2857143,3723.4344,-1473.9403)"/>
      <path transform="matrix(3.6923078,-7.0710678e-8,7.0710678e-8,2.2857143,3703.0169,-1494.3578)"
            d="m 345.5,1032.9247 c 0,0.7249 -0.36377,1.3125 -0.8125,1.3125 -0.44873,0 -0.8125,-0.5876 -0.8125,-1.3125 0,-0.7249 0.36377,-1.3125 0.8125,-1.3125 0.44873,0 0.8125,0.5876 0.8125,1.3125 z"
            id="path5597-4-2" style="fill:#ffffff;fill-opacity:1;stroke:none"/>
      <path transform="matrix(3.6923078,-7.0710678e-8,7.0710678e-8,2.2857143,3682.6432,-1514.7313)"
            d="m 345.5,1032.9247 c 0,0.7249 -0.36377,1.3125 -0.8125,1.3125 -0.44873,0 -0.8125,-0.5876 -0.8125,-1.3125 0,-0.7249 0.36377,-1.3125 0.8125,-1.3125 0.44873,0 0.8125,0.5876 0.8125,1.3125 z"
            id="path5607-7-8" style="fill:#ffffff;fill-opacity:1;stroke:none"/>
      <path
        style="fill:#ffffff;fill-opacity:1;stroke:#000000;stroke-width:2.58928561;stroke-linejoin:round;stroke-miterlimit:4;stroke-opacity:1;stroke-dasharray:none"
        id="path5619-0-4"
        d="m 285,1031.7372 c 0,4.2901 -3.47778,7.7678 -7.76785,7.7678 -4.29007,0 -7.76786,-3.4777 -7.76786,-7.7678 0,-4.2901 3.47779,-7.7679 7.76786,-7.7679 4.29007,0 7.76785,3.4778 7.76785,7.7679 z"
        transform="matrix(0.77241381,0,0,0.77241381,4716.9674,25.183451)"/>
      <path
        style="fill:#ffffff;fill-opacity:1;stroke:#000000;stroke-width:2.58928561;stroke-linejoin:round;stroke-miterlimit:4;stroke-opacity:1;stroke-dasharray:none"
        id="path5621-3-4"
        d="m 285,1031.7372 c 0,4.2901 -3.47778,7.7678 -7.76785,7.7678 -4.29007,0 -7.76786,-3.4777 -7.76786,-7.7678 0,-4.2901 3.47779,-7.7679 7.76786,-7.7679 4.29007,0 7.76785,3.4778 7.76785,7.7679 z"
        transform="matrix(0.77241381,0,0,0.77241381,4976.8424,152.80809)"/>
      <path transform="matrix(3.6923078,-7.0710678e-8,7.0710678e-8,2.2857143,3887.0051,-1379.5634)"
            d="m 345.5,1032.9247 c 0,0.7249 -0.36377,1.3125 -0.8125,1.3125 -0.44873,0 -0.8125,-0.5876 -0.8125,-1.3125 0,-0.7249 0.36377,-1.3125 0.8125,-1.3125 0.44873,0 0.8125,0.5876 0.8125,1.3125 z"
            id="path5490-9-8-4" style="fill:#ffffff;fill-opacity:1;stroke:none"/>
      <path style="fill:#ffffff;fill-opacity:1;stroke:none" id="path5665-0-9"
            d="m 345.5,1032.9247 c 0,0.7249 -0.36377,1.3125 -0.8125,1.3125 -0.44873,0 -0.8125,-0.5876 -0.8125,-1.3125 0,-0.7249 0.36377,-1.3125 0.8125,-1.3125 0.44873,0 0.8125,0.5876 0.8125,1.3125 z"
            transform="matrix(3.6923078,-7.0710678e-8,7.0710678e-8,2.2857143,4088.5173,-1240.9512)"/>
      <path style="fill:#ffffff;fill-opacity:1;stroke:none" id="path5737-5-7"
            d="m 345.5,1032.9247 c 0,0.7249 -0.36377,1.3125 -0.8125,1.3125 -0.44873,0 -0.8125,-0.5876 -0.8125,-1.3125 0,-0.7249 0.36377,-1.3125 0.8125,-1.3125 0.44873,0 0.8125,0.5876 0.8125,1.3125 z"
            transform="matrix(3.6923078,-7.0710678e-8,7.0710678e-8,2.2857143,4060.8663,-1268.6021)"/>
      <path transform="matrix(3.6923078,-7.0710678e-8,7.0710678e-8,2.2857143,4033.2337,-1296.2344)"
            d="m 345.5,1032.9247 c 0,0.7249 -0.36377,1.3125 -0.8125,1.3125 -0.44873,0 -0.8125,-0.5876 -0.8125,-1.3125 0,-0.7249 0.36377,-1.3125 0.8125,-1.3125 0.44873,0 0.8125,0.5876 0.8125,1.3125 z"
            id="path5745-3-3" style="fill:#ffffff;fill-opacity:1;stroke:none"/>
      <path transform="matrix(3.6923078,-7.0710678e-8,7.0710678e-8,2.2857143,4005.5796,-1323.8889)"
            d="m 345.5,1032.9247 c 0,0.7249 -0.36377,1.3125 -0.8125,1.3125 -0.44873,0 -0.8125,-0.5876 -0.8125,-1.3125 0,-0.7249 0.36377,-1.3125 0.8125,-1.3125 0.44873,0 0.8125,0.5876 0.8125,1.3125 z"
            id="path5753-1-5" style="fill:#ffffff;fill-opacity:1;stroke:none"/>
      <path style="fill:#ffffff;fill-opacity:1;stroke:none" id="path5759-5-3"
            d="m 345.5,1032.9247 c 0,0.7249 -0.36377,1.3125 -0.8125,1.3125 -0.44873,0 -0.8125,-0.5876 -0.8125,-1.3125 0,-0.7249 0.36377,-1.3125 0.8125,-1.3125 0.44873,0 0.8125,0.5876 0.8125,1.3125 z"
            transform="matrix(3.6923078,-7.0710678e-8,7.0710678e-8,2.2857143,3977.9469,-1351.5215)"/>
      <path style="fill:#ffffff;fill-opacity:1;stroke:none" id="path5767-1-9"
            d="m 345.5,1032.9247 c 0,0.7249 -0.36377,1.3125 -0.8125,1.3125 -0.44873,0 -0.8125,-0.5876 -0.8125,-1.3125 0,-0.7249 0.36377,-1.3125 0.8125,-1.3125 0.44873,0 0.8125,0.5876 0.8125,1.3125 z"
            transform="matrix(3.6923078,-7.0710678e-8,7.0710678e-8,2.2857143,3950.3183,-1379.1501)"/>
      <path transform="matrix(0.77241381,0,0,0.77241381,4869.9392,-39.237242)"
            d="m 285,1031.7372 c 0,4.2901 -3.47778,7.7678 -7.76785,7.7678 -4.29007,0 -7.76786,-3.4777 -7.76786,-7.7678 0,-4.2901 3.47779,-7.7679 7.76786,-7.7679 4.29007,0 7.76785,3.4778 7.76785,7.7679 z"
            id="path5769-2-7"
            style="fill:#ffffff;fill-opacity:1;stroke:#000000;stroke-width:2.58928561;stroke-linejoin:round;stroke-miterlimit:4;stroke-opacity:1;stroke-dasharray:none"/>
      <path transform="matrix(3.6923078,-7.0710678e-8,7.0710678e-8,2.2857143,3886.8903,-1442.578)"
            d="m 345.5,1032.9247 c 0,0.7249 -0.36377,1.3125 -0.8125,1.3125 -0.44873,0 -0.8125,-0.5876 -0.8125,-1.3125 0,-0.7249 0.36377,-1.3125 0.8125,-1.3125 0.44873,0 0.8125,0.5876 0.8125,1.3125 z"
            id="path5771-2-5" style="fill:#ffffff;fill-opacity:1;stroke:none"/>
      <path transform="matrix(3.6923078,-7.0710678e-8,7.0710678e-8,2.2857143,3864.1893,-1465.279)"
            d="m 345.5,1032.9247 c 0,0.7249 -0.36377,1.3125 -0.8125,1.3125 -0.44873,0 -0.8125,-0.5876 -0.8125,-1.3125 0,-0.7249 0.36377,-1.3125 0.8125,-1.3125 0.44873,0 0.8125,0.5876 0.8125,1.3125 z"
            id="path5783-7-1" style="fill:#ffffff;fill-opacity:1;stroke:none"/>
      <path style="fill:#ffffff;fill-opacity:1;stroke:none" id="path5789-4-2"
            d="m 345.5,1032.9247 c 0,0.7249 -0.36377,1.3125 -0.8125,1.3125 -0.44873,0 -0.8125,-0.5876 -0.8125,-1.3125 0,-0.7249 0.36377,-1.3125 0.8125,-1.3125 0.44873,0 0.8125,0.5876 0.8125,1.3125 z"
            transform="matrix(3.6923078,-7.0710678e-8,7.0710678e-8,2.2857143,3841.5068,-1487.9616)"/>
      <path style="fill:#f3791d;fill-opacity:1;stroke:none" id="path4946-9-3-8-5-5"
            d="m 285,1031.7372 c 0,4.2901 -3.47778,7.7678 -7.76785,7.7678 -4.29007,0 -7.76786,-3.4777 -7.76786,-7.7678 0,-4.2901 3.47779,-7.7679 7.76786,-7.7679 4.29007,0 7.76785,3.4778 7.76785,7.7679 z"
            transform="matrix(0.3862069,0,0,0.3862069,5083.9115,551.27254)"/>
      <path transform="matrix(0.3862069,0,0,0.3862069,4977.0082,359.22736)"
            d="m 285,1031.7372 c 0,4.2901 -3.47778,7.7678 -7.76785,7.7678 -4.29007,0 -7.76786,-3.4777 -7.76786,-7.7678 0,-4.2901 3.47779,-7.7679 7.76786,-7.7679 4.29007,0 7.76785,3.4778 7.76785,7.7679 z"
            id="path5835-3-1" style="fill:#224f86;fill-opacity:1;stroke:none"/>
      <path transform="matrix(0.3862069,0,0,0.3862069,4824.0365,423.64749)"
            d="m 285,1031.7372 c 0,4.2901 -3.47778,7.7678 -7.76785,7.7678 -4.29007,0 -7.76786,-3.4777 -7.76786,-7.7678 0,-4.2901 3.47779,-7.7679 7.76786,-7.7679 4.29007,0 7.76785,3.4778 7.76785,7.7679 z"
            id="path5835-8-1-2" style="fill:#8c6dab;fill-opacity:1;stroke:none"/>
      <path style="fill:#ffffff;fill-opacity:1;stroke:none" id="path5873-6-2"
            d="m 345.5,1032.9247 c 0,0.7249 -0.36377,1.3125 -0.8125,1.3125 -0.44873,0 -0.8125,-0.5876 -0.8125,-1.3125 0,-0.7249 0.36377,-1.3125 0.8125,-1.3125 0.44873,0 0.8125,0.5876 0.8125,1.3125 z"
            transform="matrix(3.6923078,-7.0710678e-8,7.0710678e-8,2.2857143,3807.456,-1300.0143)"/>
      <path transform="matrix(3.6923078,-7.0710678e-8,7.0710678e-8,2.2857143,3772.1004,-1264.6589)"
            d="m 345.5,1032.9247 c 0,0.7249 -0.36377,1.3125 -0.8125,1.3125 -0.44873,0 -0.8125,-0.5876 -0.8125,-1.3125 0,-0.7249 0.36377,-1.3125 0.8125,-1.3125 0.44873,0 0.8125,0.5876 0.8125,1.3125 z"
            id="path5883-0-4" style="fill:#ffffff;fill-opacity:1;stroke:none"/>
      <path style="fill:#ffffff;fill-opacity:1;stroke:none" id="path5889-5-0"
            d="m 345.5,1032.9247 c 0,0.7249 -0.36377,1.3125 -0.8125,1.3125 -0.44873,0 -0.8125,-0.5876 -0.8125,-1.3125 0,-0.7249 0.36377,-1.3125 0.8125,-1.3125 0.44873,0 0.8125,0.5876 0.8125,1.3125 z"
            transform="matrix(3.6923078,-7.0710678e-8,7.0710678e-8,2.2857143,3736.7451,-1229.3032)"/>
      <path transform="matrix(3.6923078,-7.0710678e-8,7.0710678e-8,2.2857143,3701.3898,-1193.9482)"
            d="m 345.5,1032.9247 c 0,0.7249 -0.36377,1.3125 -0.8125,1.3125 -0.44873,0 -0.8125,-0.5876 -0.8125,-1.3125 0,-0.7249 0.36377,-1.3125 0.8125,-1.3125 0.44873,0 0.8125,0.5876 0.8125,1.3125 z"
            id="path5895-5-0" style="fill:#ffffff;fill-opacity:1;stroke:none"/>
      <path transform="matrix(3.6923078,-7.0710678e-8,7.0710678e-8,2.2857143,3996.3161,-908.09955)"
            d="m 345.5,1032.9247 c 0,0.7249 -0.36377,1.3125 -0.8125,1.3125 -0.44873,0 -0.8125,-0.5876 -0.8125,-1.3125 0,-0.7249 0.36377,-1.3125 0.8125,-1.3125 0.44873,0 0.8125,0.5876 0.8125,1.3125 z"
            id="path5901-8-3" style="fill:#ffffff;fill-opacity:1;stroke:none"/>
      <path style="fill:#ffffff;fill-opacity:1;stroke:none" id="path5939-8-7"
            d="m 345.5,1032.9247 c 0,0.7249 -0.36377,1.3125 -0.8125,1.3125 -0.44873,0 -0.8125,-0.5876 -0.8125,-1.3125 0,-0.7249 0.36377,-1.3125 0.8125,-1.3125 0.44873,0 0.8125,0.5876 0.8125,1.3125 z"
            transform="matrix(3.6923078,-7.0710678e-8,7.0710678e-8,2.2857143,3996.3162,-878.09948)"/>
      <path transform="matrix(3.6923078,-7.0710678e-8,7.0710678e-8,2.2857143,3996.3163,-848.09914)"
            d="m 345.5,1032.9247 c 0,0.7249 -0.36377,1.3125 -0.8125,1.3125 -0.44873,0 -0.8125,-0.5876 -0.8125,-1.3125 0,-0.7249 0.36377,-1.3125 0.8125,-1.3125 0.44873,0 0.8125,0.5876 0.8125,1.3125 z"
            id="path5947-8-4" style="fill:#ffffff;fill-opacity:1;stroke:none"/>
      <path style="fill:#ffffff;fill-opacity:1;stroke:none" id="path5955-0-5"
            d="m 345.5,1032.9247 c 0,0.7249 -0.36377,1.3125 -0.8125,1.3125 -0.44873,0 -0.8125,-0.5876 -0.8125,-1.3125 0,-0.7249 0.36377,-1.3125 0.8125,-1.3125 0.44873,0 0.8125,0.5876 0.8125,1.3125 z"
            transform="matrix(3.6923078,-7.0710678e-8,7.0710678e-8,2.2857143,3996.3161,-818.09914)"/>
      <path transform="matrix(3.6923078,-7.0710678e-8,7.0710678e-8,2.2857143,3996.3161,-788.09915)"
            d="m 345.5,1032.9247 c 0,0.7249 -0.36377,1.3125 -0.8125,1.3125 -0.44873,0 -0.8125,-0.5876 -0.8125,-1.3125 0,-0.7249 0.36377,-1.3125 0.8125,-1.3125 0.44873,0 0.8125,0.5876 0.8125,1.3125 z"
            id="path5963-6-8" style="fill:#ffffff;fill-opacity:1;stroke:none"/>
      <path style="fill:#ffffff;fill-opacity:1;stroke:none" id="path5971-0-6"
            d="m 345.5,1032.9247 c 0,0.7249 -0.36377,1.3125 -0.8125,1.3125 -0.44873,0 -0.8125,-0.5876 -0.8125,-1.3125 0,-0.7249 0.36377,-1.3125 0.8125,-1.3125 0.44873,0 0.8125,0.5876 0.8125,1.3125 z"
            transform="matrix(3.6923078,-7.0710678e-8,7.0710678e-8,2.2857143,3996.3161,-758.09915)"/>
      <path transform="matrix(3.6923078,-7.0710678e-8,7.0710678e-8,2.2857143,3996.3161,-728.09944)"
            d="m 345.5,1032.9247 c 0,0.7249 -0.36377,1.3125 -0.8125,1.3125 -0.44873,0 -0.8125,-0.5876 -0.8125,-1.3125 0,-0.7249 0.36377,-1.3125 0.8125,-1.3125 0.44873,0 0.8125,0.5876 0.8125,1.3125 z"
            id="path5979-7-1" style="fill:#ffffff;fill-opacity:1;stroke:none"/>
      <path transform="matrix(0.77241381,0,0,0.77241381,5054.7708,869.85144)"
            d="m 285,1031.7372 c 0,4.2901 -3.47778,7.7678 -7.76785,7.7678 -4.29007,0 -7.76786,-3.4777 -7.76786,-7.7678 0,-4.2901 3.47779,-7.7679 7.76786,-7.7679 4.29007,0 7.76785,3.4778 7.76785,7.7679 z"
            id="path5070-5-2-2"
            style="fill:#ffffff;fill-opacity:1;stroke:#000000;stroke-width:2.58928561;stroke-linejoin:round;stroke-miterlimit:4;stroke-opacity:1;stroke-dasharray:none"/>
      <path style="fill:#8c6dab;fill-opacity:1;stroke:none" id="path4946-9-9-6-0"
            d="m 285,1031.7372 c 0,4.2901 -3.47778,7.7678 -7.76785,7.7678 -4.29007,0 -7.76786,-3.4777 -7.76786,-7.7678 0,-4.2901 3.47779,-7.7679 7.76786,-7.7679 4.29007,0 7.76785,3.4778 7.76785,7.7679 z"
            transform="matrix(0.3862069,0,0,0.3862069,5161.8395,1268.3159)"/>
      <path transform="matrix(0.77241381,0,0,0.77241381,4450.8603,874.04877)"
            d="m 285,1031.7372 c 0,4.2901 -3.47778,7.7678 -7.76785,7.7678 -4.29007,0 -7.76786,-3.4777 -7.76786,-7.7678 0,-4.2901 3.47779,-7.7679 7.76786,-7.7679 4.29007,0 7.76785,3.4778 7.76785,7.7679 z"
            id="path4944-4-8-5-7"
            style="fill:#ffffff;fill-opacity:1;stroke:#000000;stroke-width:2.58928561;stroke-linejoin:round;stroke-miterlimit:4;stroke-opacity:1;stroke-dasharray:none"/>
      <path style="fill:#007a5b;fill-opacity:1;stroke:none" id="path4946-4-4-7-0"
            d="m 285,1031.7372 c 0,4.2901 -3.47778,7.7678 -7.76785,7.7678 -4.29007,0 -7.76786,-3.4777 -7.76786,-7.7678 0,-4.2901 3.47779,-7.7679 7.76786,-7.7679 4.29007,0 7.76785,3.4778 7.76785,7.7679 z"
            transform="matrix(0.3862069,0,0,0.3862069,4557.9296,1272.5124)"/>
      <path transform="matrix(3.6923078,-7.0710678e-8,7.0710678e-8,2.2857143,3530.2164,-978.56621)"
            d="m 345.5,1032.9247 c 0,0.7249 -0.36377,1.3125 -0.8125,1.3125 -0.44873,0 -0.8125,-0.5876 -0.8125,-1.3125 0,-0.7249 0.36377,-1.3125 0.8125,-1.3125 0.44873,0 0.8125,0.5876 0.8125,1.3125 z"
            id="path3799-4-0-7-6" style="fill:#ffffff;fill-opacity:1;stroke:none"/>
      <path style="fill:#ffffff;fill-opacity:1;stroke:none" id="path4986-3-7-0"
            d="m 345.5,1032.9247 c 0,0.7249 -0.36377,1.3125 -0.8125,1.3125 -0.44873,0 -0.8125,-0.5876 -0.8125,-1.3125 0,-0.7249 0.36377,-1.3125 0.8125,-1.3125 0.44873,0 0.8125,0.5876 0.8125,1.3125 z"
            transform="matrix(3.6923078,-7.0710678e-8,7.0710678e-8,2.2857143,4186.5846,-907.25475)"/>
      <path transform="matrix(3.6923078,-7.0710678e-8,7.0710678e-8,2.2857143,4207.7975,-886.04202)"
            d="m 345.5,1032.9247 c 0,0.7249 -0.36377,1.3125 -0.8125,1.3125 -0.44873,0 -0.8125,-0.5876 -0.8125,-1.3125 0,-0.7249 0.36377,-1.3125 0.8125,-1.3125 0.44873,0 0.8125,0.5876 0.8125,1.3125 z"
            id="path6166-3-7" style="fill:#ffffff;fill-opacity:1;stroke:none"/>
      <path style="fill:#ffffff;fill-opacity:1;stroke:none" id="path6172-2-4"
            d="m 345.5,1032.9247 c 0,0.7249 -0.36377,1.3125 -0.8125,1.3125 -0.44873,0 -0.8125,-0.5876 -0.8125,-1.3125 0,-0.7249 0.36377,-1.3125 0.8125,-1.3125 0.44873,0 0.8125,0.5876 0.8125,1.3125 z"
            transform="matrix(3.6923078,-7.0710678e-8,7.0710678e-8,2.2857143,4229.0105,-864.82872)"/>
      <path transform="matrix(3.6923078,-7.0710678e-8,7.0710678e-8,2.2857143,4250.2237,-843.61565)"
            d="m 345.5,1032.9247 c 0,0.7249 -0.36377,1.3125 -0.8125,1.3125 -0.44873,0 -0.8125,-0.5876 -0.8125,-1.3125 0,-0.7249 0.36377,-1.3125 0.8125,-1.3125 0.44873,0 0.8125,0.5876 0.8125,1.3125 z"
            id="path6178-7-6" style="fill:#ffffff;fill-opacity:1;stroke:none"/>
      <path style="fill:#ffffff;fill-opacity:1;stroke:none" id="path6184-5-7"
            d="m 345.5,1032.9247 c 0,0.7249 -0.36377,1.3125 -0.8125,1.3125 -0.44873,0 -0.8125,-0.5876 -0.8125,-1.3125 0,-0.7249 0.36377,-1.3125 0.8125,-1.3125 0.44873,0 0.8125,0.5876 0.8125,1.3125 z"
            transform="matrix(3.6923078,-7.0710678e-8,7.0710678e-8,2.2857143,4271.4369,-822.4022)"/>
      <path transform="matrix(3.6923078,-7.0710678e-8,7.0710678e-8,2.2857143,4292.6503,-801.18905)"
            d="m 345.5,1032.9247 c 0,0.7249 -0.36377,1.3125 -0.8125,1.3125 -0.44873,0 -0.8125,-0.5876 -0.8125,-1.3125 0,-0.7249 0.36377,-1.3125 0.8125,-1.3125 0.44873,0 0.8125,0.5876 0.8125,1.3125 z"
            id="path6190-2-7" style="fill:#ffffff;fill-opacity:1;stroke:none"/>
      <path style="fill:#ffffff;fill-opacity:1;stroke:none" id="path6196-6-3"
            d="m 345.5,1032.9247 c 0,0.7249 -0.36377,1.3125 -0.8125,1.3125 -0.44873,0 -0.8125,-0.5876 -0.8125,-1.3125 0,-0.7249 0.36377,-1.3125 0.8125,-1.3125 0.44873,0 0.8125,0.5876 0.8125,1.3125 z"
            transform="matrix(3.6923078,-7.0710678e-8,7.0710678e-8,2.2857143,4313.8633,-779.97592)"/>
      <path transform="matrix(3.6923078,-7.0710678e-8,7.0710678e-8,2.2857143,4335.0765,-758.76285)"
            d="m 345.5,1032.9247 c 0,0.7249 -0.36377,1.3125 -0.8125,1.3125 -0.44873,0 -0.8125,-0.5876 -0.8125,-1.3125 0,-0.7249 0.36377,-1.3125 0.8125,-1.3125 0.44873,0 0.8125,0.5876 0.8125,1.3125 z"
            id="path6202-1-2" style="fill:#ffffff;fill-opacity:1;stroke:none"/>
      <path style="fill:#ffffff;fill-opacity:1;stroke:none" id="path6208-0-7"
            d="m 345.5,1032.9247 c 0,0.7249 -0.36377,1.3125 -0.8125,1.3125 -0.44873,0 -0.8125,-0.5876 -0.8125,-1.3125 0,-0.7249 0.36377,-1.3125 0.8125,-1.3125 0.44873,0 0.8125,0.5876 0.8125,1.3125 z"
            transform="matrix(3.6923078,-7.0710678e-8,7.0710678e-8,2.2857143,4356.2898,-737.54964)"/>
      <path transform="matrix(3.6923078,-7.0710678e-8,7.0710678e-8,2.2857143,4377.5029,-716.33679)"
            d="m 345.5,1032.9247 c 0,0.7249 -0.36377,1.3125 -0.8125,1.3125 -0.44873,0 -0.8125,-0.5876 -0.8125,-1.3125 0,-0.7249 0.36377,-1.3125 0.8125,-1.3125 0.44873,0 0.8125,0.5876 0.8125,1.3125 z"
            id="path6214-8-5" style="fill:#ffffff;fill-opacity:1;stroke:none"/>
      <path style="fill:#ffffff;fill-opacity:1;stroke:none" id="path6220-1-2"
            d="m 345.5,1032.9247 c 0,0.7249 -0.36377,1.3125 -0.8125,1.3125 -0.44873,0 -0.8125,-0.5876 -0.8125,-1.3125 0,-0.7249 0.36377,-1.3125 0.8125,-1.3125 0.44873,0 0.8125,0.5876 0.8125,1.3125 z"
            transform="matrix(3.6923078,-7.0710678e-8,7.0710678e-8,2.2857143,4398.7159,-695.12345)"/>
      <path transform="matrix(0.77241381,0,0,0.77241381,5480.6542,892.373)"
            d="m 285,1031.7372 c 0,4.2901 -3.47778,7.7678 -7.76785,7.7678 -4.29007,0 -7.76786,-3.4777 -7.76786,-7.7678 0,-4.2901 3.47779,-7.7679 7.76786,-7.7679 4.29007,0 7.76785,3.4778 7.76785,7.7679 z"
            id="path5070-54-8-1"
            style="fill:#ffffff;fill-opacity:1;stroke:#000000;stroke-width:2.58928561;stroke-linejoin:round;stroke-miterlimit:4;stroke-opacity:1;stroke-dasharray:none"/>
      <path style="fill:#528dba;fill-opacity:1;stroke:none" id="path4946-9-2-8-1"
            d="m 285,1031.7372 c 0,4.2901 -3.47778,7.7678 -7.76785,7.7678 -4.29007,0 -7.76786,-3.4777 -7.76786,-7.7678 0,-4.2901 3.47779,-7.7679 7.76786,-7.7679 4.29007,0 7.76785,3.4778 7.76785,7.7679 z"
            transform="matrix(0.3862069,0,0,0.3862069,5587.7229,1290.8375)"/>
      <path
        style="fill:#ffffff;fill-opacity:1;stroke:#000000;stroke-width:2.58928561;stroke-linejoin:round;stroke-miterlimit:4;stroke-opacity:1;stroke-dasharray:none"
        id="path4227-0-5-7"
        d="m 285,1031.7372 c 0,4.2901 -3.47778,7.7678 -7.76785,7.7678 -4.29007,0 -7.76786,-3.4777 -7.76786,-7.7678 0,-4.2901 3.47779,-7.7679 7.76786,-7.7679 4.29007,0 7.76785,3.4778 7.76785,7.7679 z"
        transform="matrix(0.77241381,0,0,0.77241381,4588.7894,463.54802)"/>
      <path transform="matrix(3.6923078,-7.0710678e-8,7.0710678e-8,2.2857143,3633.8702,-1100.5389)"
            d="m 345.5,1032.9247 c 0,0.7249 -0.36377,1.3125 -0.8125,1.3125 -0.44873,0 -0.8125,-0.5876 -0.8125,-1.3125 0,-0.7249 0.36377,-1.3125 0.8125,-1.3125 0.44873,0 0.8125,0.5876 0.8125,1.3125 z"
            id="path4358-9-7-3" style="fill:#ffffff;fill-opacity:1;stroke:none"/>
      <path style="fill:#ffffff;fill-opacity:1;stroke:none" id="path6313-9-8"
            d="m 345.5,1032.9247 c 0,0.7249 -0.36377,1.3125 -0.8125,1.3125 -0.44873,0 -0.8125,-0.5876 -0.8125,-1.3125 0,-0.7249 0.36377,-1.3125 0.8125,-1.3125 0.44873,0 0.8125,0.5876 0.8125,1.3125 z"
            transform="matrix(3.6923078,-7.0710678e-8,7.0710678e-8,2.2857143,3588.9689,-1100.5388)"/>
      <path transform="matrix(3.6923078,-7.0710678e-8,7.0710678e-8,2.2857143,3488.2062,-1100.5389)"
            d="m 345.5,1032.9247 c 0,0.7249 -0.36377,1.3125 -0.8125,1.3125 -0.44873,0 -0.8125,-0.5876 -0.8125,-1.3125 0,-0.7249 0.36377,-1.3125 0.8125,-1.3125 0.44873,0 0.8125,0.5876 0.8125,1.3125 z"
            id="path6341-3-3" style="fill:#ffffff;fill-opacity:1;stroke:none"/>
      <path style="fill:#ffffff;fill-opacity:1;stroke:none" id="path6351-8-7"
            d="m 345.5,1032.9247 c 0,0.7249 -0.36377,1.3125 -0.8125,1.3125 -0.44873,0 -0.8125,-0.5876 -0.8125,-1.3125 0,-0.7249 0.36377,-1.3125 0.8125,-1.3125 0.44873,0 0.8125,0.5876 0.8125,1.3125 z"
            transform="matrix(3.6923078,-7.0710678e-8,7.0710678e-8,2.2857143,3448.2064,-1100.5388)"/>
      <path style="fill:#ffffff;fill-opacity:1;stroke:none" id="path6359-0-3"
            d="m 345.5,1032.9247 c 0,0.7249 -0.36377,1.3125 -0.8125,1.3125 -0.44873,0 -0.8125,-0.5876 -0.8125,-1.3125 0,-0.7249 0.36377,-1.3125 0.8125,-1.3125 0.44873,0 0.8125,0.5876 0.8125,1.3125 z"
            transform="matrix(3.6923078,-7.0710678e-8,7.0710678e-8,2.2857143,3408.2061,-1100.5388)"/>
      <path style="fill:#ffffff;fill-opacity:1;stroke:none" id="path6377-2-8"
            d="m 345.5,1032.9247 c 0,0.7249 -0.36377,1.3125 -0.8125,1.3125 -0.44873,0 -0.8125,-0.5876 -0.8125,-1.3125 0,-0.7249 0.36377,-1.3125 0.8125,-1.3125 0.44873,0 0.8125,0.5876 0.8125,1.3125 z"
            transform="matrix(3.6923078,-7.0710678e-8,7.0710678e-8,2.2857143,3530.2164,-1027.8162)"/>
      <path transform="matrix(3.6923078,-7.0710678e-8,7.0710678e-8,2.2857143,3374.7986,-1119.9432)"
            d="m 345.5,1032.9247 c 0,0.7249 -0.36377,1.3125 -0.8125,1.3125 -0.44873,0 -0.8125,-0.5876 -0.8125,-1.3125 0,-0.7249 0.36377,-1.3125 0.8125,-1.3125 0.44873,0 0.8125,0.5876 0.8125,1.3125 z"
            id="path6383-5-1" style="fill:#ffffff;fill-opacity:1;stroke:none"/>
      <path transform="matrix(0.77241381,0,0,0.77241381,4375.4144,386.13029)"
            d="m 285,1031.7372 c 0,4.2901 -3.47778,7.7678 -7.76785,7.7678 -4.29007,0 -7.76786,-3.4777 -7.76786,-7.7678 0,-4.2901 3.47779,-7.7679 7.76786,-7.7679 4.29007,0 7.76785,3.4778 7.76785,7.7679 z"
            id="path4577-2-8-2-6-8"
            style="fill:#ffffff;fill-opacity:1;stroke:#000000;stroke-width:2.58928561;stroke-linejoin:round;stroke-miterlimit:4;stroke-opacity:1;stroke-dasharray:none"/>
      <path style="fill:#da421e;fill-opacity:1;stroke:none" id="path4946-9-3-6-7-3"
            d="m 285,1031.7372 c 0,4.2901 -3.47778,7.7678 -7.76785,7.7678 -4.29007,0 -7.76786,-3.4777 -7.76786,-7.7678 0,-4.2901 3.47779,-7.7679 7.76786,-7.7679 4.29007,0 7.76785,3.4778 7.76785,7.7679 z"
            transform="matrix(0.3862069,0,0,0.3862069,4482.4836,784.59452)"/>
      <path transform="matrix(3.6923078,-7.0710678e-8,7.0710678e-8,2.2857143,3530.2164,-1138.4781)"
            d="m 345.5,1032.9247 c 0,0.7249 -0.36377,1.3125 -0.8125,1.3125 -0.44873,0 -0.8125,-0.5876 -0.8125,-1.3125 0,-0.7249 0.36377,-1.3125 0.8125,-1.3125 0.44873,0 0.8125,0.5876 0.8125,1.3125 z"
            id="path6440-6-4" style="fill:#ffffff;fill-opacity:1;stroke:none"/>
      <path style="fill:#ffffff;fill-opacity:1;stroke:none" id="path6481-1-1"
            d="m 345.5,1032.9247 c 0,0.7249 -0.36377,1.3125 -0.8125,1.3125 -0.44873,0 -0.8125,-0.5876 -0.8125,-1.3125 0,-0.7249 0.36377,-1.3125 0.8125,-1.3125 0.44873,0 0.8125,0.5876 0.8125,1.3125 z"
            transform="matrix(3.6923078,-7.0710678e-8,7.0710678e-8,2.2857143,3530.2164,-1168.4781)"/>
      <path style="fill:#ffffff;fill-opacity:1;stroke:none" id="path6483-9-4"
            d="m 345.5,1032.9247 c 0,0.7249 -0.36377,1.3125 -0.8125,1.3125 -0.44873,0 -0.8125,-0.5876 -0.8125,-1.3125 0,-0.7249 0.36377,-1.3125 0.8125,-1.3125 0.44873,0 0.8125,0.5876 0.8125,1.3125 z"
            transform="matrix(3.6923078,-7.0710678e-8,7.0710678e-8,2.2857143,3530.2163,-1198.4785)"/>
      <path transform="matrix(3.6923078,-7.0710678e-8,7.0710678e-8,2.2857143,3503.3607,-1221.7569)"
            d="m 345.5,1032.9247 c 0,0.7249 -0.36377,1.3125 -0.8125,1.3125 -0.44873,0 -0.8125,-0.5876 -0.8125,-1.3125 0,-0.7249 0.36377,-1.3125 0.8125,-1.3125 0.44873,0 0.8125,0.5876 0.8125,1.3125 z"
            id="path6531-2-2" style="fill:#ffffff;fill-opacity:1;stroke:none"/>
      <path transform="matrix(3.6923078,-7.0710678e-8,7.0710678e-8,2.2857143,3463.3605,-1221.7569)"
            d="m 345.5,1032.9247 c 0,0.7249 -0.36377,1.3125 -0.8125,1.3125 -0.44873,0 -0.8125,-0.5876 -0.8125,-1.3125 0,-0.7249 0.36377,-1.3125 0.8125,-1.3125 0.44873,0 0.8125,0.5876 0.8125,1.3125 z"
            id="path6539-5-6" style="fill:#ffffff;fill-opacity:1;stroke:none"/>
      <path style="fill:#ffffff;fill-opacity:1;stroke:none" id="path6549-9-6"
            d="m 345.5,1032.9247 c 0,0.7249 -0.36377,1.3125 -0.8125,1.3125 -0.44873,0 -0.8125,-0.5876 -0.8125,-1.3125 0,-0.7249 0.36377,-1.3125 0.8125,-1.3125 0.44873,0 0.8125,0.5876 0.8125,1.3125 z"
            transform="matrix(3.6923078,-7.0710678e-8,7.0710678e-8,2.2857143,3423.3606,-1221.7569)"/>
      <path style="fill:#ffffff;fill-opacity:1;stroke:none" id="path6557-2-9"
            d="m 345.5,1032.9247 c 0,0.7249 -0.36377,1.3125 -0.8125,1.3125 -0.44873,0 -0.8125,-0.5876 -0.8125,-1.3125 0,-0.7249 0.36377,-1.3125 0.8125,-1.3125 0.44873,0 0.8125,0.5876 0.8125,1.3125 z"
            transform="matrix(3.6923078,-7.0710678e-8,7.0710678e-8,2.2857143,3383.36,-1221.7569)"/>
      <path transform="matrix(3.6923078,-7.0710678e-8,7.0710678e-8,2.2857143,3343.3604,-1221.7568)"
            d="m 345.5,1032.9247 c 0,0.7249 -0.36377,1.3125 -0.8125,1.3125 -0.44873,0 -0.8125,-0.5876 -0.8125,-1.3125 0,-0.7249 0.36377,-1.3125 0.8125,-1.3125 0.44873,0 0.8125,0.5876 0.8125,1.3125 z"
            id="path6582-4-7" style="fill:#ffffff;fill-opacity:1;stroke:none"/>
      <path transform="matrix(3.6923078,-7.0710678e-8,7.0710678e-8,2.2857143,3303.3599,-1221.7569)"
            d="m 345.5,1032.9247 c 0,0.7249 -0.36377,1.3125 -0.8125,1.3125 -0.44873,0 -0.8125,-0.5876 -0.8125,-1.3125 0,-0.7249 0.36377,-1.3125 0.8125,-1.3125 0.44873,0 0.8125,0.5876 0.8125,1.3125 z"
            id="path6590-9-3" style="fill:#ffffff;fill-opacity:1;stroke:none"/>
      <path style="fill:#ffffff;fill-opacity:1;stroke:none" id="path6596-7-5"
            d="m 345.5,1032.9247 c 0,0.7249 -0.36377,1.3125 -0.8125,1.3125 -0.44873,0 -0.8125,-0.5876 -0.8125,-1.3125 0,-0.7249 0.36377,-1.3125 0.8125,-1.3125 0.44873,0 0.8125,0.5876 0.8125,1.3125 z"
            transform="matrix(3.6923078,-7.0710678e-8,7.0710678e-8,2.2857143,3263.3604,-1221.7571)"/>
      <path style="fill:#ffffff;fill-opacity:1;stroke:none" id="path6604-5-6"
            d="m 345.5,1032.9247 c 0,0.7249 -0.36377,1.3125 -0.8125,1.3125 -0.44873,0 -0.8125,-0.5876 -0.8125,-1.3125 0,-0.7249 0.36377,-1.3125 0.8125,-1.3125 0.44873,0 0.8125,0.5876 0.8125,1.3125 z"
            transform="matrix(3.6923078,-7.0710678e-8,7.0710678e-8,2.2857143,3223.36,-1221.7568)"/>
      <path style="fill:#ffffff;fill-opacity:1;stroke:none" id="path6626-2-4"
            d="m 345.5,1032.9247 c 0,0.7249 -0.36377,1.3125 -0.8125,1.3125 -0.44873,0 -0.8125,-0.5876 -0.8125,-1.3125 0,-0.7249 0.36377,-1.3125 0.8125,-1.3125 0.44873,0 0.8125,0.5876 0.8125,1.3125 z"
            transform="matrix(3.6923078,-7.0710678e-8,7.0710678e-8,2.2857143,3350.0497,-1144.6922)"/>
      <path transform="matrix(0.77241381,0,0,0.77241381,4230.206,342.27948)"
            d="m 285,1031.7372 c 0,4.2901 -3.47778,7.7678 -7.76785,7.7678 -4.29007,0 -7.76786,-3.4777 -7.76786,-7.7678 0,-4.2901 3.47779,-7.7679 7.76786,-7.7679 4.29007,0 7.76785,3.4778 7.76785,7.7679 z"
            id="path5070-54-6-9-9"
            style="fill:#ffffff;fill-opacity:1;stroke:#000000;stroke-width:2.58928561;stroke-linejoin:round;stroke-miterlimit:4;stroke-opacity:1;stroke-dasharray:none"/>
      <path style="fill:#528dba;fill-opacity:1;stroke:none" id="path4946-9-2-5-5-2"
            d="m 285,1031.7372 c 0,4.2901 -3.47778,7.7678 -7.76785,7.7678 -4.29007,0 -7.76786,-3.4777 -7.76786,-7.7678 0,-4.2901 3.47779,-7.7679 7.76786,-7.7679 4.29007,0 7.76785,3.4778 7.76785,7.7679 z"
            transform="matrix(0.3862069,0,0,0.3862069,4337.2748,740.74394)"/>
      <path style="fill:#ffffff;fill-opacity:1;stroke:none" id="path5569-2-4-1"
            d="m 345.5,1032.9247 c 0,0.7249 -0.36377,1.3125 -0.8125,1.3125 -0.44873,0 -0.8125,-0.5876 -0.8125,-1.3125 0,-0.7249 0.36377,-1.3125 0.8125,-1.3125 0.44873,0 0.8125,0.5876 0.8125,1.3125 z"
            transform="matrix(3.6923078,-7.0710678e-8,7.0710678e-8,2.2857143,4503.6055,-1127.9048)"/>
      <path style="fill:#ffffff;fill-opacity:1;stroke:none" id="path5581-1-0-8"
            d="m 345.5,1032.9247 c 0,0.7249 -0.36377,1.3125 -0.8125,1.3125 -0.44873,0 -0.8125,-0.5876 -0.8125,-1.3125 0,-0.7249 0.36377,-1.3125 0.8125,-1.3125 0.44873,0 0.8125,0.5876 0.8125,1.3125 z"
            transform="matrix(3.6923078,-7.0710678e-8,7.0710678e-8,2.2857143,4483.232,-1148.2781)"/>
      <path transform="matrix(3.6923078,-7.0710678e-8,7.0710678e-8,2.2857143,4462.814,-1168.6958)"
            d="m 345.5,1032.9247 c 0,0.7249 -0.36377,1.3125 -0.8125,1.3125 -0.44873,0 -0.8125,-0.5876 -0.8125,-1.3125 0,-0.7249 0.36377,-1.3125 0.8125,-1.3125 0.44873,0 0.8125,0.5876 0.8125,1.3125 z"
            id="path5583-4-8-5" style="fill:#ffffff;fill-opacity:1;stroke:none"/>
      <path transform="matrix(3.6923078,-7.0710678e-8,7.0710678e-8,2.2857143,4539.1056,-1127.9048)"
            d="m 345.5,1032.9247 c 0,0.7249 -0.36377,1.3125 -0.8125,1.3125 -0.44873,0 -0.8125,-0.5876 -0.8125,-1.3125 0,-0.7249 0.36377,-1.3125 0.8125,-1.3125 0.44873,0 0.8125,0.5876 0.8125,1.3125 z"
            id="path6780-7-1" style="fill:#ffffff;fill-opacity:1;stroke:none"/>
      <path transform="matrix(3.6923078,-7.0710678e-8,7.0710678e-8,2.2857143,4559.4086,-1148.2784)"
            d="m 345.5,1032.9247 c 0,0.7249 -0.36377,1.3125 -0.8125,1.3125 -0.44873,0 -0.8125,-0.5876 -0.8125,-1.3125 0,-0.7249 0.36377,-1.3125 0.8125,-1.3125 0.44873,0 0.8125,0.5876 0.8125,1.3125 z"
            id="path6782-4-1" style="fill:#ffffff;fill-opacity:1;stroke:none"/>
      <path style="fill:#ffffff;fill-opacity:1;stroke:none" id="path6784-6-5"
            d="m 345.5,1032.9247 c 0,0.7249 -0.36377,1.3125 -0.8125,1.3125 -0.44873,0 -0.8125,-0.5876 -0.8125,-1.3125 0,-0.7249 0.36377,-1.3125 0.8125,-1.3125 0.44873,0 0.8125,0.5876 0.8125,1.3125 z"
            transform="matrix(3.6923078,-7.0710678e-8,7.0710678e-8,2.2857143,4579.8188,-1168.696)"/>
      <path style="fill:#ffffff;fill-opacity:1;stroke:none" id="path6817-0-5"
            d="m 345.5,1032.9247 c 0,0.7249 -0.36377,1.3125 -0.8125,1.3125 -0.44873,0 -0.8125,-0.5876 -0.8125,-1.3125 0,-0.7249 0.36377,-1.3125 0.8125,-1.3125 0.44873,0 0.8125,0.5876 0.8125,1.3125 z"
            transform="matrix(3.6923078,-7.0710678e-8,7.0710678e-8,2.2857143,4600.2441,-1189.1137)"/>
      <path transform="matrix(3.6923078,-7.0710678e-8,7.0710678e-8,2.2857143,4620.6545,-1209.5314)"
            d="m 345.5,1032.9247 c 0,0.7249 -0.36377,1.3125 -0.8125,1.3125 -0.44873,0 -0.8125,-0.5876 -0.8125,-1.3125 0,-0.7249 0.36377,-1.3125 0.8125,-1.3125 0.44873,0 0.8125,0.5876 0.8125,1.3125 z"
            id="path6819-3-3" style="fill:#ffffff;fill-opacity:1;stroke:none"/>
      <path transform="matrix(3.6923078,-7.0710678e-8,7.0710678e-8,2.2857143,4641.1626,-1230.0396)"
            d="m 345.5,1032.9247 c 0,0.7249 -0.36377,1.3125 -0.8125,1.3125 -0.44873,0 -0.8125,-0.5876 -0.8125,-1.3125 0,-0.7249 0.36377,-1.3125 0.8125,-1.3125 0.44873,0 0.8125,0.5876 0.8125,1.3125 z"
            id="path6837-1-4" style="fill:#ffffff;fill-opacity:1;stroke:none"/>
      <path transform="matrix(3.6923078,-7.0710678e-8,7.0710678e-8,2.2857143,4661.5879,-1250.4575)"
            d="m 345.5,1032.9247 c 0,0.7249 -0.36377,1.3125 -0.8125,1.3125 -0.44873,0 -0.8125,-0.5876 -0.8125,-1.3125 0,-0.7249 0.36377,-1.3125 0.8125,-1.3125 0.44873,0 0.8125,0.5876 0.8125,1.3125 z"
            id="path6839-7-7" style="fill:#ffffff;fill-opacity:1;stroke:none"/>
      <path style="fill:#ffffff;fill-opacity:1;stroke:none" id="path6841-4-4"
            d="m 345.5,1032.9247 c 0,0.7249 -0.36377,1.3125 -0.8125,1.3125 -0.44873,0 -0.8125,-0.5876 -0.8125,-1.3125 0,-0.7249 0.36377,-1.3125 0.8125,-1.3125 0.44873,0 0.8125,0.5876 0.8125,1.3125 z"
            transform="matrix(3.6923078,-7.0710678e-8,7.0710678e-8,2.2857143,4681.998,-1270.8751)"/>
      <path transform="matrix(0.77241381,0,0,0.77241381,5765.3359,268.61214)"
            d="m 285,1031.7372 c 0,4.2901 -3.47778,7.7678 -7.76785,7.7678 -4.29007,0 -7.76786,-3.4777 -7.76786,-7.7678 0,-4.2901 3.47779,-7.7679 7.76786,-7.7679 4.29007,0 7.76785,3.4778 7.76785,7.7679 z"
            id="path5360-3-2-3"
            style="fill:#ffffff;fill-opacity:1;stroke:#000000;stroke-width:2.58928561;stroke-linejoin:round;stroke-miterlimit:4;stroke-opacity:1;stroke-dasharray:none"/>
      <path style="fill:#7e5330;fill-opacity:1;stroke:none" id="path4946-8-2-3-8-1"
            d="m 285,1031.7372 c 0,4.2901 -3.47778,7.7678 -7.76785,7.7678 -4.29007,0 -7.76786,-3.4777 -7.76786,-7.7678 0,-4.2901 3.47779,-7.7679 7.76786,-7.7679 4.29007,0 7.76785,3.4778 7.76785,7.7679 z"
            transform="matrix(0.3862069,0,0,0.3862069,5872.4051,667.07662)"/>
      <path transform="matrix(3.6923078,-7.0710678e-8,7.0710678e-8,2.2857143,3818.7881,-1510.6801)"
            d="m 345.5,1032.9247 c 0,0.7249 -0.36377,1.3125 -0.8125,1.3125 -0.44873,0 -0.8125,-0.5876 -0.8125,-1.3125 0,-0.7249 0.36377,-1.3125 0.8125,-1.3125 0.44873,0 0.8125,0.5876 0.8125,1.3125 z"
            id="path7283-7-7" style="fill:#ffffff;fill-opacity:1;stroke:none"/>
      <path transform="matrix(3.6923078,-7.0710678e-8,7.0710678e-8,2.2857143,3811.3914,-1545.4144)"
            d="m 345.5,1032.9247 c 0,0.7249 -0.36377,1.3125 -0.8125,1.3125 -0.44873,0 -0.8125,-0.5876 -0.8125,-1.3125 0,-0.7249 0.36377,-1.3125 0.8125,-1.3125 0.44873,0 0.8125,0.5876 0.8125,1.3125 z"
            id="path7283-1-4-7" style="fill:#ffffff;fill-opacity:1;stroke:none"/>
      <path style="fill:#ffffff;fill-opacity:1;stroke:none" id="path7313-3-0"
            d="m 345.5,1032.9247 c 0,0.7249 -0.36377,1.3125 -0.8125,1.3125 -0.44873,0 -0.8125,-0.5876 -0.8125,-1.3125 0,-0.7249 0.36377,-1.3125 0.8125,-1.3125 0.44873,0 0.8125,0.5876 0.8125,1.3125 z"
            transform="matrix(3.6923078,-7.0710678e-8,7.0710678e-8,2.2857143,3811.3914,-1570.4139)"/>
      <path transform="matrix(3.6923078,-7.0710678e-8,7.0710678e-8,2.2857143,3675.1842,-870.24876)"
            d="m 345.5,1032.9247 c 0,0.7249 -0.36377,1.3125 -0.8125,1.3125 -0.44873,0 -0.8125,-0.5876 -0.8125,-1.3125 0,-0.7249 0.36377,-1.3125 0.8125,-1.3125 0.44873,0 0.8125,0.5876 0.8125,1.3125 z"
            id="path6509" style="fill:#ffffff;fill-opacity:1;stroke:none"/>
      <path style="fill:#ffffff;fill-opacity:1;stroke:none" id="path6515"
            d="m 345.5,1032.9247 c 0,0.7249 -0.36377,1.3125 -0.8125,1.3125 -0.44873,0 -0.8125,-0.5876 -0.8125,-1.3125 0,-0.7249 0.36377,-1.3125 0.8125,-1.3125 0.44873,0 0.8125,0.5876 0.8125,1.3125 z"
            transform="matrix(3.6923078,-7.0710678e-8,7.0710678e-8,2.2857143,3675.1842,-832.10601)"/>
      <path transform="matrix(3.6923078,-7.0710678e-8,7.0710678e-8,2.2857143,3675.1842,-793.98093)"
            d="m 345.5,1032.9247 c 0,0.7249 -0.36377,1.3125 -0.8125,1.3125 -0.44873,0 -0.8125,-0.5876 -0.8125,-1.3125 0,-0.7249 0.36377,-1.3125 0.8125,-1.3125 0.44873,0 0.8125,0.5876 0.8125,1.3125 z"
            id="path6532" style="fill:#ffffff;fill-opacity:1;stroke:none"/>
      <path
        style="fill:#ffffff;fill-opacity:1;stroke:#000000;stroke-width:2.58928561;stroke-linejoin:round;stroke-miterlimit:4;stroke-opacity:1;stroke-dasharray:none"
        id="path5723"
        d="m 285,1031.7372 c 0,4.2901 -3.47778,7.7678 -7.76785,7.7678 -4.29007,0 -7.76786,-3.4777 -7.76786,-7.7678 0,-4.2901 3.47779,-7.7679 7.76786,-7.7679 4.29007,0 7.76785,3.4778 7.76785,7.7679 z"
        transform="matrix(0.77241381,0,0,0.77241381,5054.883,377.32445)"/>
      <path transform="matrix(0.77241381,0,0,0.77241381,4895.0769,377.32445)"
            d="m 285,1031.7372 c 0,4.2901 -3.47778,7.7678 -7.76785,7.7678 -4.29007,0 -7.76786,-3.4777 -7.76786,-7.7678 0,-4.2901 3.47779,-7.7679 7.76786,-7.7679 4.29007,0 7.76785,3.4778 7.76785,7.7679 z"
            id="path5733"
            style="fill:#ffffff;fill-opacity:1;stroke:#000000;stroke-width:2.58928561;stroke-linejoin:round;stroke-miterlimit:4;stroke-opacity:1;stroke-dasharray:none"/>
      <path style="fill:#7e5330;fill-opacity:1;stroke:none" id="path4946-8-1-2-4"
            d="m 285,1031.7372 c 0,4.2901 -3.47778,7.7678 -7.76785,7.7678 -4.29007,0 -7.76786,-3.4777 -7.76786,-7.7678 0,-4.2901 3.47779,-7.7679 7.76786,-7.7679 4.29007,0 7.76785,3.4778 7.76785,7.7679 z"
            transform="matrix(0.3862069,0,0,0.3862069,5002.1457,775.78848)"/>
      <path style="fill:#ffffff;fill-opacity:1;stroke:none" id="path5992"
            d="m 345.5,1032.9247 a 0.8125,1.3125 0 1 1 -1.625,0 0.8125,1.3125 0 1 1 1.625,0 z"
            transform="matrix(3.6923078,-7.0710678e-8,7.0710678e-8,2.2857143,4030.2195,-1186.778)"/>
    </g>
  </g>
</svg>