<svg xmlns="http://www.w3.org/2000/svg" width="1660.0938" height="1003.6875" version="1.1" style="background: gray;">
  <g id="lines" fill="none" stroke-width="8">
    <path id="U1" stroke="#7dad4c" d="m1170.7998,607.35l-659.25,0"/>
    <path id="U2" stroke-linejoin="round" stroke="#da421e"
          d="m1070.1998,256.03s0,120.57 0,129.54c0,8.9714 -5.8332,14.112 -5.8332,14.112s-116.35,116.35 -122.47,122.47c-6.1249,6.1252 -14.105,5.7992 -14.105,5.7992s-12.04,0 -28.443,0l-93.418,0c-1.0625,0 -8.0938,-0.2188 -14.188,5.8749c-6.0935,6.0939 -5.8383,14.143 -5.8383,14.143l0,59.938l0.087,4c0,-0.041 -0.088,9.9081 -0.088,13.614c0,8.8124 -5.3121,13.625 -5.8122,14.125c-0.5,0.5 -5.25,5.875 -14.188,5.875c-8.9373,0 -14.114,-5.8641 -14.114,-5.8641l-38.198,-38.198c-5.6,-5.5984 -12.796,-5.4429 -12.796,-5.4429c-27.946,0 -65.807,0 -68.144,0c-8.9061,0 -14.171,-5.8694 -14.171,-5.8694l-52.116,-52.116s-5.0134,-5.8284 -14.138,-5.8283c-3.7013,0 -46.91,0 -117.56,0l-1.7679,0l-126.3,0s-7.4734,0.861 -14.147,-5.8124c-6.6733,-6.6733 -71.612,-71.612 -71.612,-71.612"/>
    <path id="U3" stroke-linejoin="round" stroke="#007a5b"
          d="m1170.1998,619.35l-542.15,0c-8.9063,0 -14.171,5.8695 -14.171,5.8695l-317.79,317.79"/>
    <path id="U4" stroke="#f0d722" d="m685.0998,620.61l0,181.94"/>
    <path id="U5" stroke="#7e5330"
          d="m1611.3998,336.45l-171.83,171.83s-4.8612,5.9221 -14.23,5.9221c-9.3692,0 -14.103,-5.8089 -14.103,-5.8089l-56.621,-56.621s-5,-5.8084 -14.101,-5.8084s-600.23,0 -600.23,0"/>
    <path id="U6" stroke="#8c6dab"
          d="m562.2998,93.66s325.74,325.74 332.17,332.17s5.8635,14.078 5.8635,14.078l0,498.68"/>
    <path id="U7" stroke-linejoin="round" stroke="#528dba"
          d="m75.4998,410.95s337.02,0 338.7,0c1.6794,0 7.9549,-0.3536 14.23,5.922c6.2756,6.2755 5.8116,14.065 5.8116,14.065l0,243.68c0,9.1876 5.8935,14.176 5.8935,14.176s18.157,18.157 24.587,24.587c6.4302,6.4301 14.174,5.8606 14.174,5.8606l206.25,0.0129l53.548,0s7.6468,0.6134 14.127,-5.8668c26.383,-26.384 76.421,-76.421 76.421,-76.421s5.0603,-5.8483 14.164,-5.8483c0,0 7.8339,-0.4179 14.146,5.8945c6.3127,6.3125 57.403,57.756 57.403,57.756s4.8894,5.8269 14.139,5.8266c9.2501,0 128.39,0 128.39,0s7.7924,-0.5044 14.136,5.8395c6.3439,6.3436 256.41,256.41 256.41,256.41"/>
    <path id="U8" stroke="#224f86"
          d="m715.3998,27.84l0,78.562s-0.574,7.6404 5.8635,14.078c3.2842,3.2842 0.4636,0.4634 100.24,100.24l2.148,2.1692c99.781,99.781 185.29,185.29 188.58,188.58c6.4375,6.4375 5.8635,14.078 5.8635,14.078l0,384.03"/>
    <path id="U9" stroke="#f3791d"
          d="m823,221.21l-237.9,237.9c-6.4966,6.4965 -5.8336,14.132 -5.8336,14.132l0,367.11s0.5429,7.7371 -5.8321,14.112c-6.3752,6.375 -40.831,40.831 -40.831,40.831"/>
  </g>
  <g id="stations" transform="translate(-4368.7187,-728.25)">

    <path transform="matrix(0.77241381,0,0,0.77241381,4733.7589,650.56973)"
          d="m 285,1031.7372 c 0,4.2901 -3.47778,7.7678 -7.76785,7.7678 -4.29007,0 -7.76786,-3.4777 -7.76786,-7.7678 0,-4.2901 3.47779,-7.7679 7.76786,-7.7679 4.29007,0 7.76785,3.4778 7.76785,7.7679 z"
          id="path3772-4-5"
          style="fill:#ffffff;fill-opacity:1;stroke:#000000;stroke-width:2.58928561;stroke-linejoin:round;stroke-miterlimit:4;stroke-opacity:1;stroke-dasharray:none"/>
    <path style="fill:#ffffff;fill-opacity:1;stroke:none" id="path3774-5-5"
          d="m 345.5,1032.9247 c 0,0.7249 -0.36377,1.3125 -0.8125,1.3125 -0.44873,0 -0.8125,-0.5876 -0.8125,-1.3125 0,-0.7249 0.36377,-1.3125 0.8125,-1.3125 0.44873,0 0.8125,0.5876 0.8125,1.3125 z"
          transform="matrix(3.6923078,-7.0710678e-8,7.0710678e-8,2.2857143,3648.5916,-913.47441)"/>
    <path
      style="fill:#ffffff;fill-opacity:1;stroke:#000000;stroke-width:2.58928561;stroke-linejoin:round;stroke-miterlimit:4;stroke-opacity:1;stroke-dasharray:none"
      id="path3857-2-2"
      d="m 285,1031.7372 c 0,4.2901 -3.47778,7.7678 -7.76785,7.7678 -4.29007,0 -7.76786,-3.4777 -7.76786,-7.7678 0,-4.2901 3.47779,-7.7679 7.76786,-7.7679 4.29007,0 7.76785,3.4778 7.76785,7.7679 z"
      transform="matrix(0.77241381,0,0,0.77241381,4733.7589,591.14113)"/>
    <path transform="matrix(3.6923078,-7.0710678e-8,7.0710678e-8,2.2857143,3656.9353,-765.79481)"
          d="m 345.5,1032.9247 c 0,0.7249 -0.36377,1.3125 -0.8125,1.3125 -0.44873,0 -0.8125,-0.5876 -0.8125,-1.3125 0,-0.7249 0.36377,-1.3125 0.8125,-1.3125 0.44873,0 0.8125,0.5876 0.8125,1.3125 z"
          id="path3799-8-5-5" style="fill:#ffffff;fill-opacity:1;stroke:none"/>
    <path transform="matrix(0.77241381,0,0,0.77241381,4733.7589,538.73703)"
          d="m 285,1031.7372 c 0,4.2901 -3.47778,7.7678 -7.76785,7.7678 -4.29007,0 -7.76786,-3.4777 -7.76786,-7.7678 0,-4.2901 3.47779,-7.7679 7.76786,-7.7679 4.29007,0 7.76785,3.4778 7.76785,7.7679 z"
          id="path3948-8-8"
          style="fill:#ffffff;fill-opacity:1;stroke:#000000;stroke-width:2.58928561;stroke-linejoin:round;stroke-miterlimit:4;stroke-opacity:1;stroke-dasharray:none"/>
    <path transform="matrix(3.6923078,-7.0710678e-8,7.0710678e-8,2.2857143,3548.2994,-931.68969)"
          d="m 345.5,1032.9247 c 0,0.7249 -0.36377,1.3125 -0.8125,1.3125 -0.44873,0 -0.8125,-0.5876 -0.8125,-1.3125 0,-0.7249 0.36377,-1.3125 0.8125,-1.3125 0.44873,0 0.8125,0.5876 0.8125,1.3125 z"
          id="path3799-4-2-2" style="fill:#ffffff;fill-opacity:1;stroke:none"/>
    <path style="fill:#ffffff;fill-opacity:1;stroke:none" id="path4073-4-5"
          d="m 345.5,1032.9247 c 0,0.7249 -0.36377,1.3125 -0.8125,1.3125 -0.44873,0 -0.8125,-0.5876 -0.8125,-1.3125 0,-0.7249 0.36377,-1.3125 0.8125,-1.3125 0.44873,0 0.8125,0.5876 0.8125,1.3125 z"
          transform="matrix(3.6923078,-7.0710678e-8,7.0710678e-8,2.2857143,3589.3432,-887.03696)"/>
    <path transform="matrix(3.6923078,-7.0710678e-8,7.0710678e-8,2.2857143,3564.8433,-862.53705)"
          d="m 345.5,1032.9247 c 0,0.7249 -0.36377,1.3125 -0.8125,1.3125 -0.44873,0 -0.8125,-0.5876 -0.8125,-1.3125 0,-0.7249 0.36377,-1.3125 0.8125,-1.3125 0.44873,0 0.8125,0.5876 0.8125,1.3125 z"
          id="path4079-2-1" style="fill:#ffffff;fill-opacity:1;stroke:none"/>
    <path style="fill:#ffffff;fill-opacity:1;stroke:none" id="path4087-4-3"
          d="m 345.5,1032.9247 c 0,0.7249 -0.36377,1.3125 -0.8125,1.3125 -0.44873,0 -0.8125,-0.5876 -0.8125,-1.3125 0,-0.7249 0.36377,-1.3125 0.8125,-1.3125 0.44873,0 0.8125,0.5876 0.8125,1.3125 z"
          transform="matrix(3.6923078,-7.0710678e-8,7.0710678e-8,2.2857143,3540.345,-838.03877)"/>
    <path style="fill:#ffffff;fill-opacity:1;stroke:none" id="path4095-3-1"
          d="m 345.5,1032.9247 c 0,0.7249 -0.36377,1.3125 -0.8125,1.3125 -0.44873,0 -0.8125,-0.5876 -0.8125,-1.3125 0,-0.7249 0.36377,-1.3125 0.8125,-1.3125 0.44873,0 0.8125,0.5876 0.8125,1.3125 z"
          transform="matrix(3.6923078,-7.0710678e-8,7.0710678e-8,2.2857143,3515.8408,-813.53484)"/>
    <path transform="matrix(3.6923078,-7.0710678e-8,7.0710678e-8,2.2857143,3491.3426,-789.03649)"
          d="m 345.5,1032.9247 c 0,0.7249 -0.36377,1.3125 -0.8125,1.3125 -0.44873,0 -0.8125,-0.5876 -0.8125,-1.3125 0,-0.7249 0.36377,-1.3125 0.8125,-1.3125 0.44873,0 0.8125,0.5876 0.8125,1.3125 z"
          id="path4101-4-7" style="fill:#ffffff;fill-opacity:1;stroke:none"/>
    <path style="fill:#ffffff;fill-opacity:1;stroke:none" id="path4109-7-7"
          d="m 345.5,1032.9247 c 0,0.7249 -0.36377,1.3125 -0.8125,1.3125 -0.44873,0 -0.8125,-0.5876 -0.8125,-1.3125 0,-0.7249 0.36377,-1.3125 0.8125,-1.3125 0.44873,0 0.8125,0.5876 0.8125,1.3125 z"
          transform="matrix(3.6923078,-7.0710678e-8,7.0710678e-8,2.2857143,3466.8205,-764.51409)"/>
    <path transform="matrix(3.6923078,-7.0710678e-8,7.0710678e-8,2.2857143,3442.3224,-740.01596)"
          d="m 345.5,1032.9247 c 0,0.7249 -0.36377,1.3125 -0.8125,1.3125 -0.44873,0 -0.8125,-0.5876 -0.8125,-1.3125 0,-0.7249 0.36377,-1.3125 0.8125,-1.3125 0.44873,0 0.8125,0.5876 0.8125,1.3125 z"
          id="path4115-1-3" style="fill:#ffffff;fill-opacity:1;stroke:none"/>
    <path transform="matrix(3.6923078,-7.0710678e-8,7.0710678e-8,2.2857143,3417.8182,-715.51195)"
          d="m 345.5,1032.9247 c 0,0.7249 -0.36377,1.3125 -0.8125,1.3125 -0.44873,0 -0.8125,-0.5876 -0.8125,-1.3125 0,-0.7249 0.36377,-1.3125 0.8125,-1.3125 0.44873,0 0.8125,0.5876 0.8125,1.3125 z"
          id="path4121-6-8" style="fill:#ffffff;fill-opacity:1;stroke:none"/>
    <path style="fill:#ffffff;fill-opacity:1;stroke:none" id="path4167-3-1"
          d="m 345.5,1032.9247 c 0,0.7249 -0.36377,1.3125 -0.8125,1.3125 -0.44873,0 -0.8125,-0.5876 -0.8125,-1.3125 0,-0.7249 0.36377,-1.3125 0.8125,-1.3125 0.44873,0 0.8125,0.5876 0.8125,1.3125 z"
          transform="matrix(3.6923078,-7.0710678e-8,7.0710678e-8,2.2857143,3700.5915,-998.28522)"/>
    <path
      style="fill:#ffffff;fill-opacity:1;stroke:#000000;stroke-width:2.58928561;stroke-linejoin:round;stroke-miterlimit:4;stroke-opacity:1;stroke-dasharray:none"
      id="path4227-6-0"
      d="m 285,1031.7372 c 0,4.2901 -3.47778,7.7678 -7.76785,7.7678 -4.29007,0 -7.76786,-3.4777 -7.76786,-7.7678 0,-4.2901 3.47779,-7.7679 7.76786,-7.7679 4.29007,0 7.76785,3.4778 7.76785,7.7679 z"
      transform="matrix(0.77241381,0,0,0.77241381,4733.7589,482.23388)"/>
    <rect
      style="fill:#ffffff;fill-opacity:1;stroke:#000000;stroke-width:2stroke-linejoin:round;stroke-miterlimit:4;stroke-opacity:1;stroke-dasharray:none"
      id="rect4229-1-6" width="36" height="12" x="-1353.6605" y="4998.4639" ry="6" rx="6"
      transform="matrix(0,-1,1,0,0,0)"/>
    <rect rx="6" ry="6" y="5047.8452" x="-1353.6605" height="12" width="36" id="rect4264-4-1"
          style="fill:#ffffff;fill-opacity:1;stroke:#000000;stroke-width:2stroke-linejoin:round;stroke-miterlimit:4;stroke-opacity:1;stroke-dasharray:none"
          transform="matrix(0,-1,1,0,0,0)"/>
    <path
      style="fill:#ffffff;fill-opacity:1;stroke:#000000;stroke-width:2.58928561;stroke-linejoin:round;stroke-miterlimit:4;stroke-opacity:1;stroke-dasharray:none"
      id="path4266-9-8"
      d="m 285,1031.7372 c 0,4.2901 -3.47778,7.7678 -7.76785,7.7678 -4.29007,0 -7.76786,-3.4777 -7.76786,-7.7678 0,-4.2901 3.47779,-7.7679 7.76786,-7.7679 4.29007,0 7.76785,3.4778 7.76785,7.7679 z"
      transform="matrix(0.77241381,0,0,0.77241381,4839.7365,650.56971)"/>
    <path transform="matrix(3.6923078,-7.0710678e-8,7.0710678e-8,2.2857143,3781.1662,-963.24235)"
          d="m 345.5,1032.9247 c 0,0.7249 -0.36377,1.3125 -0.8125,1.3125 -0.44873,0 -0.8125,-0.5876 -0.8125,-1.3125 0,-0.7249 0.36377,-1.3125 0.8125,-1.3125 0.44873,0 0.8125,0.5876 0.8125,1.3125 z"
          id="path4268-6-4" style="fill:#ffffff;fill-opacity:1;stroke:none"/>
    <path style="fill:#ffffff;fill-opacity:1;stroke:none" id="path4276-2-8"
          d="m 345.5,1032.9247 c 0,0.7249 -0.36377,1.3125 -0.8125,1.3125 -0.44873,0 -0.8125,-0.5876 -0.8125,-1.3125 0,-0.7249 0.36377,-1.3125 0.8125,-1.3125 0.44873,0 0.8125,0.5876 0.8125,1.3125 z"
          transform="matrix(3.6923078,-7.0710678e-8,7.0710678e-8,2.2857143,3781.1664,-870.36572)"/>
    <path transform="matrix(3.6923078,-7.0710678e-8,7.0710678e-8,2.2857143,3675.2547,-1141.013)"
          d="m 345.5,1032.9247 c 0,0.7249 -0.36377,1.3125 -0.8125,1.3125 -0.44873,0 -0.8125,-0.5876 -0.8125,-1.3125 0,-0.7249 0.36377,-1.3125 0.8125,-1.3125 0.44873,0 0.8125,0.5876 0.8125,1.3125 z"
          id="path4358-37-0" style="fill:#ffffff;fill-opacity:1;stroke:none"/>
    <rect
      style="fill:#ffffff;fill-opacity:1;stroke:#000000;stroke-width:2stroke-linejoin:round;stroke-miterlimit:4;stroke-opacity:1;stroke-dasharray:none"
      id="rect4364-0-3" width="24" height="12" x="-1353.6605" y="5148.583" ry="6" rx="6"
      transform="matrix(0,-1,1,0,0,0)"/>
    <path transform="matrix(3.6923078,-7.0710678e-8,7.0710678e-8,2.2857143,3861.9406,-987.20903)"
          d="m 345.5,1032.9247 c 0,0.7249 -0.36377,1.3125 -0.8125,1.3125 -0.44873,0 -0.8125,-0.5876 -0.8125,-1.3125 0,-0.7249 0.36377,-1.3125 0.8125,-1.3125 0.44873,0 0.8125,0.5876 0.8125,1.3125 z"
          id="path4268-4-1-7" style="fill:#ffffff;fill-opacity:1;stroke:none"/>
    <path transform="matrix(3.6923078,-7.0710678e-8,7.0710678e-8,2.2857143,3848.069,-1013.3877)"
          d="m 345.5,1032.9247 c 0,0.7249 -0.36377,1.3125 -0.8125,1.3125 -0.44873,0 -0.8125,-0.5876 -0.8125,-1.3125 0,-0.7249 0.36377,-1.3125 0.8125,-1.3125 0.44873,0 0.8125,0.5876 0.8125,1.3125 z"
          id="path4268-4-3-6-2" style="fill:#ffffff;fill-opacity:1;stroke:none"/>
    <path style="fill:#ffffff;fill-opacity:1;stroke:none" id="path4402-5-6"
          d="m 345.5,1032.9247 c 0,0.7249 -0.36377,1.3125 -0.8125,1.3125 -0.44873,0 -0.8125,-0.5876 -0.8125,-1.3125 0,-0.7249 0.36377,-1.3125 0.8125,-1.3125 0.44873,0 0.8125,0.5876 0.8125,1.3125 z"
          transform="matrix(3.6923078,-7.0710678e-8,7.0710678e-8,2.2857143,3848.0693,-1025.3252)"/>
    <path transform="matrix(3.6923078,-7.0710678e-8,7.0710678e-8,2.2857143,3881.9098,-1078.1215)"
          d="m 345.5,1032.9247 c 0,0.7249 -0.36377,1.3125 -0.8125,1.3125 -0.44873,0 -0.8125,-0.5876 -0.8125,-1.3125 0,-0.7249 0.36377,-1.3125 0.8125,-1.3125 0.44873,0 0.8125,0.5876 0.8125,1.3125 z"
          id="path4358-3-6-0" style="fill:#ffffff;fill-opacity:1;stroke:none"/>
    <rect transform="matrix(0,-1,1,0,0,0)"
          style="fill:#ffffff;fill-opacity:1;stroke:#000000;stroke-width:2stroke-linejoin:round;stroke-miterlimit:4;stroke-opacity:1;stroke-dasharray:none"
          id="rect4489-7-0" width="36" height="12" x="-1365.6603" y="5205.8428" ry="6" rx="6"/>
    <rect transform="matrix(0,-1,1,0,0,0)" rx="6" ry="6" y="5263.0024" x="-1353.6605" height="12" width="24"
          id="rect4491-7-7"
          style="fill:#ffffff;fill-opacity:1;stroke:#000000;stroke-width:2stroke-linejoin:round;stroke-miterlimit:4;stroke-opacity:1;stroke-dasharray:none"/>
    <path
      style="fill:#ffffff;fill-opacity:1;stroke:#000000;stroke-width:2.58928561;stroke-linejoin:round;stroke-miterlimit:4;stroke-opacity:1;stroke-dasharray:none"
      id="path4266-3-7-1"
      d="m 285,1031.7372 c 0,4.2901 -3.47778,7.7678 -7.76785,7.7678 -4.29007,0 -7.76786,-3.4777 -7.76786,-7.7678 0,-4.2901 3.47779,-7.7679 7.76786,-7.7679 4.29007,0 7.76785,3.4778 7.76785,7.7679 z"
      transform="matrix(0.77241381,0,0,0.77241381,5054.8726,611.47632)"/>
    <path style="fill:#ffffff;fill-opacity:1;stroke:none" id="path4551-3-2"
          d="m 345.5,1032.9247 c 0,0.7249 -0.36377,1.3125 -0.8125,1.3125 -0.44873,0 -0.8125,-0.5876 -0.8125,-1.3125 0,-0.7249 0.36377,-1.3125 0.8125,-1.3125 0.44873,0 0.8125,0.5876 0.8125,1.3125 z"
          transform="matrix(3.6923078,-7.0710678e-8,7.0710678e-8,2.2857143,3905.037,-975.6245)"/>
    <path transform="matrix(3.6923078,-7.0710678e-8,7.0710678e-8,2.2857143,3877.8134,-948.40124)"
          d="m 345.5,1032.9247 c 0,0.7249 -0.36377,1.3125 -0.8125,1.3125 -0.44873,0 -0.8125,-0.5876 -0.8125,-1.3125 0,-0.7249 0.36377,-1.3125 0.8125,-1.3125 0.44873,0 0.8125,0.5876 0.8125,1.3125 z"
          id="path4557-2-3" style="fill:#ffffff;fill-opacity:1;stroke:none"/>
    <path transform="matrix(3.6923078,-7.0710678e-8,7.0710678e-8,2.2857143,3851.9714,-922.55882)"
          d="m 345.5,1032.9247 c 0,0.7249 -0.36377,1.3125 -0.8125,1.3125 -0.44873,0 -0.8125,-0.5876 -0.8125,-1.3125 0,-0.7249 0.36377,-1.3125 0.8125,-1.3125 0.44873,0 0.8125,0.5876 0.8125,1.3125 z"
          id="path4565-9-1" style="fill:#ffffff;fill-opacity:1;stroke:none"/>
    <path transform="matrix(0.77241381,0,0,0.77241381,5054.8726,459.27158)"
          d="m 285,1031.7372 c 0,4.2901 -3.47778,7.7678 -7.76785,7.7678 -4.29007,0 -7.76786,-3.4777 -7.76786,-7.7678 0,-4.2901 3.47779,-7.7679 7.76786,-7.7679 4.29007,0 7.76785,3.4778 7.76785,7.7679 z"
          id="path4577-3-9"
          style="fill:#ffffff;fill-opacity:1;stroke:#000000;stroke-width:2.58928561;stroke-linejoin:round;stroke-miterlimit:4;stroke-opacity:1;stroke-dasharray:none"/>
    <path style="fill:#ffffff;fill-opacity:1;stroke:none" id="path4579-5-4"
          d="m 345.5,1032.9247 c 0,0.7249 -0.36377,1.3125 -0.8125,1.3125 -0.44873,0 -0.8125,-0.5876 -0.8125,-1.3125 0,-0.7249 0.36377,-1.3125 0.8125,-1.3125 0.44873,0 0.8125,0.5876 0.8125,1.3125 z"
          transform="matrix(3.6923078,-7.0710678e-8,7.0710678e-8,2.2857143,3996.316,-1065.5995)"/>
    <path style="fill:#ffffff;fill-opacity:1;stroke:none" id="path4579-8-0-3"
          d="m 345.5,1032.9247 c 0,0.7249 -0.36377,1.3125 -0.8125,1.3125 -0.44873,0 -0.8125,-0.5876 -0.8125,-1.3125 0,-0.7249 0.36377,-1.3125 0.8125,-1.3125 0.44873,0 0.8125,0.5876 0.8125,1.3125 z"
          transform="matrix(3.6923078,-7.0710678e-8,7.0710678e-8,2.2857143,3942.6276,-1104.8027)"/>
    <path transform="matrix(3.6923078,-7.0710678e-8,7.0710678e-8,2.2857143,3905.9611,-1104.8027)"
          d="m 345.5,1032.9247 c 0,0.7249 -0.36377,1.3125 -0.8125,1.3125 -0.44873,0 -0.8125,-0.5876 -0.8125,-1.3125 0,-0.7249 0.36377,-1.3125 0.8125,-1.3125 0.44873,0 0.8125,0.5876 0.8125,1.3125 z"
          id="path4631-0-0" style="fill:#ffffff;fill-opacity:1;stroke:none"/>
    <path style="fill:#ffffff;fill-opacity:1;stroke:none" id="path4661-8-0"
          d="m 345.5,1032.9247 c 0,0.7249 -0.36377,1.3125 -0.8125,1.3125 -0.44873,0 -0.8125,-0.5876 -0.8125,-1.3125 0,-0.7249 0.36377,-1.3125 0.8125,-1.3125 0.44873,0 0.8125,0.5876 0.8125,1.3125 z"
          transform="matrix(3.6923078,-7.0710678e-8,7.0710678e-8,2.2857143,3675.1843,-941.66831)"/>
    <path transform="matrix(3.6923078,-7.0710678e-8,7.0710678e-8,2.2857143,3649.1982,-946.90352)"
          d="m 345.5,1032.9247 c 0,0.7249 -0.36377,1.3125 -0.8125,1.3125 -0.44873,0 -0.8125,-0.5876 -0.8125,-1.3125 0,-0.7249 0.36377,-1.3125 0.8125,-1.3125 0.44873,0 0.8125,0.5876 0.8125,1.3125 z"
          id="path4663-4-6" style="fill:#ffffff;fill-opacity:1;stroke:none"/>
    <path
      style="fill:#ffffff;fill-opacity:1;stroke:#000000;stroke-width:2.58928561;stroke-linejoin:round;stroke-miterlimit:4;stroke-opacity:1;stroke-dasharray:none"
      id="path4665-1-1"
      d="m 285,1031.7372 c 0,4.2901 -3.47778,7.7678 -7.76785,7.7678 -4.29007,0 -7.76786,-3.4777 -7.76786,-7.7678 0,-4.2901 3.47779,-7.7679 7.76786,-7.7679 4.29007,0 7.76785,3.4778 7.76785,7.7679 z"
      transform="matrix(0.77241381,0,0,0.77241381,4674.5087,650.56971)"/>
    <path style="fill:#ffffff;fill-opacity:1;stroke:none" id="path4681-8-4"
          d="m 345.5,1032.9247 c 0,0.7249 -0.36377,1.3125 -0.8125,1.3125 -0.44873,0 -0.8125,-0.5876 -0.8125,-1.3125 0,-0.7249 0.36377,-1.3125 0.8125,-1.3125 0.44873,0 0.8125,0.5876 0.8125,1.3125 z"
          transform="matrix(3.6923078,-7.0710678e-8,7.0710678e-8,2.2857143,4022.8801,-1104.8027)"/>
    <path style="fill:#ffffff;fill-opacity:1;stroke:none" id="path4691-7-9"
          d="m 345.5,1032.9247 c 0,0.7249 -0.36377,1.3125 -0.8125,1.3125 -0.44873,0 -0.8125,-0.5876 -0.8125,-1.3125 0,-0.7249 0.36377,-1.3125 0.8125,-1.3125 0.44873,0 0.8125,0.5876 0.8125,1.3125 z"
          transform="matrix(3.6923078,-7.0710678e-8,7.0710678e-8,2.2857143,4055.6697,-1013.3878)"/>
    <path transform="matrix(3.6923078,-7.0710678e-8,7.0710678e-8,2.2857143,4055.6697,-1025.3252)"
          d="m 345.5,1032.9247 c 0,0.7249 -0.36377,1.3125 -0.8125,1.3125 -0.44873,0 -0.8125,-0.5876 -0.8125,-1.3125 0,-0.7249 0.36377,-1.3125 0.8125,-1.3125 0.44873,0 0.8125,0.5876 0.8125,1.3125 z"
          id="path4693-8-8" style="fill:#ffffff;fill-opacity:1;stroke:none"/>
    <path style="fill:#ffffff;fill-opacity:1;stroke:none" id="path4681-3-7-7"
          d="m 345.5,1032.9247 c 0,0.7249 -0.36377,1.3125 -0.8125,1.3125 -0.44873,0 -0.8125,-0.5876 -0.8125,-1.3125 0,-0.7249 0.36377,-1.3125 0.8125,-1.3125 0.44873,0 0.8125,0.5876 0.8125,1.3125 z"
          transform="matrix(3.6923078,-7.0710678e-8,7.0710678e-8,2.2857143,4048.4396,-1121.1496)"/>
    <path transform="matrix(3.6923078,-7.0710678e-8,7.0710678e-8,2.2857143,4066.8243,-1139.5343)"
          d="m 345.5,1032.9247 c 0,0.7249 -0.36377,1.3125 -0.8125,1.3125 -0.44873,0 -0.8125,-0.5876 -0.8125,-1.3125 0,-0.7249 0.36377,-1.3125 0.8125,-1.3125 0.44873,0 0.8125,0.5876 0.8125,1.3125 z"
          id="path4745-7-3" style="fill:#ffffff;fill-opacity:1;stroke:none"/>
    <path style="fill:#ffffff;fill-opacity:1;stroke:none" id="path4773-6-1"
          d="m 345.5,1032.9247 c 0,0.7249 -0.36377,1.3125 -0.8125,1.3125 -0.44873,0 -0.8125,-0.5876 -0.8125,-1.3125 0,-0.7249 0.36377,-1.3125 0.8125,-1.3125 0.44873,0 0.8125,0.5876 0.8125,1.3125 z"
          transform="matrix(3.6923078,-7.0710678e-8,7.0710678e-8,2.2857143,4085.209,-1157.9192)"/>
    <path transform="matrix(0.77241381,0,0,0.77241381,5172.4931,377.32445)"
          d="m 285,1031.7372 c 0,4.2901 -3.47778,7.7678 -7.76785,7.7678 -4.29007,0 -7.76786,-3.4777 -7.76786,-7.7678 0,-4.2901 3.47779,-7.7679 7.76786,-7.7679 4.29007,0 7.76785,3.4778 7.76785,7.7679 z"
          id="path4577-2-0-3"
          style="fill:#ffffff;fill-opacity:1;stroke:#000000;stroke-width:2.58928561;stroke-linejoin:round;stroke-miterlimit:4;stroke-opacity:1;stroke-dasharray:none"/>
    <path transform="matrix(3.6923078,-7.0710678e-8,7.0710678e-8,2.2857143,4079.9821,-1186.778)"
          d="m 345.5,1032.9247 c 0,0.7249 -0.36377,1.3125 -0.8125,1.3125 -0.44873,0 -0.8125,-0.5876 -0.8125,-1.3125 0,-0.7249 0.36377,-1.3125 0.8125,-1.3125 0.44873,0 0.8125,0.5876 0.8125,1.3125 z"
          id="path4805-9-9"
          style="fill:#ffffff;fill-opacity:1;stroke:none;stroke-width:0.34422314;stroke-miterlimit:4;stroke-opacity:1;stroke-dasharray:none"/>
    <path transform="matrix(3.6923078,-7.0710678e-8,7.0710678e-8,2.2857143,3935.9711,-1186.7778)"
          d="m 345.5,1032.9247 c 0,0.7249 -0.36377,1.3125 -0.8125,1.3125 -0.44873,0 -0.8125,-0.5876 -0.8125,-1.3125 0,-0.7249 0.36377,-1.3125 0.8125,-1.3125 0.44873,0 0.8125,0.5876 0.8125,1.3125 z"
          id="path4809-8-5"
          style="fill:#ffffff;fill-opacity:1;stroke:none;stroke-width:0.34422314;stroke-miterlimit:4;stroke-opacity:1;stroke-dasharray:none"/>
    <path
      style="fill:#ffffff;fill-opacity:1;stroke:none;stroke-width:0.34422314;stroke-miterlimit:4;stroke-opacity:1;stroke-dasharray:none"
      id="path4878-7-2"
      d="m 345.5,1032.9247 c 0,0.7249 -0.36377,1.3125 -0.8125,1.3125 -0.44873,0 -0.8125,-0.5876 -0.8125,-1.3125 0,-0.7249 0.36377,-1.3125 0.8125,-1.3125 0.44873,0 0.8125,0.5876 0.8125,1.3125 z"
      transform="matrix(3.6923078,-7.0710678e-8,7.0710678e-8,2.2857143,3887.8497,-1186.778)"/>
    <rect
      style="fill:#ffffff;fill-opacity:1;stroke:#000000;stroke-width:2stroke-linejoin:round;stroke-miterlimit:4;stroke-opacity:1;stroke-dasharray:none"
      id="rect4902-8-3" width="24" height="12" x="-1353.6605" y="5380.6914" ry="6" rx="6"
      transform="matrix(0,-1,1,0,0,0)"/>
    <path transform="matrix(3.6923078,-7.0710678e-8,7.0710678e-8,2.2857143,4165.9196,-1013.3875)"
          d="m 345.5,1032.9247 c 0,0.7249 -0.36377,1.3125 -0.8125,1.3125 -0.44873,0 -0.8125,-0.5876 -0.8125,-1.3125 0,-0.7249 0.36377,-1.3125 0.8125,-1.3125 0.44873,0 0.8125,0.5876 0.8125,1.3125 z"
          id="path4904-8-7" style="fill:#ffffff;fill-opacity:1;stroke:none"/>
    <path style="fill:#ffffff;fill-opacity:1;stroke:none" id="path4906-0-4"
          d="m 345.5,1032.9247 c 0,0.7249 -0.36377,1.3125 -0.8125,1.3125 -0.44873,0 -0.8125,-0.5876 -0.8125,-1.3125 0,-0.7249 0.36377,-1.3125 0.8125,-1.3125 0.44873,0 0.8125,0.5876 0.8125,1.3125 z"
          transform="matrix(3.6923078,-7.0710678e-8,7.0710678e-8,2.2857143,4165.9196,-1025.3252)"/>
    <path style="fill:#ffffff;fill-opacity:1;stroke:none" id="path4914-9-8"
          d="m 345.5,1032.9247 c 0,0.7249 -0.36377,1.3125 -0.8125,1.3125 -0.44873,0 -0.8125,-0.5876 -0.8125,-1.3125 0,-0.7249 0.36377,-1.3125 0.8125,-1.3125 0.44873,0 0.8125,0.5876 0.8125,1.3125 z"
          transform="matrix(3.6923078,-7.0710678e-8,7.0710678e-8,2.2857143,4213.6697,-1013.3878)"/>
    <path transform="matrix(3.6923078,-7.0710678e-8,7.0710678e-8,2.2857143,4213.6696,-1025.3252)"
          d="m 345.5,1032.9247 c 0,0.7249 -0.36377,1.3125 -0.8125,1.3125 -0.44873,0 -0.8125,-0.5876 -0.8125,-1.3125 0,-0.7249 0.36377,-1.3125 0.8125,-1.3125 0.44873,0 0.8125,0.5876 0.8125,1.3125 z"
          id="path4916-8-8" style="fill:#ffffff;fill-opacity:1;stroke:none"/>
    <rect transform="matrix(0,-1,1,0,0,0)" rx="6" ry="6" y="5533.4414" x="-1353.6605" height="12" width="24"
          id="rect4936-2-1"
          style="fill:#ffffff;fill-opacity:1;stroke:#000000;stroke-width:2stroke-linejoin:round;stroke-miterlimit:4;stroke-opacity:1;stroke-dasharray:none"/>
    <path
      style="fill:#ffffff;fill-opacity:1;stroke:#000000;stroke-width:2.58928561;stroke-linejoin:round;stroke-miterlimit:4;stroke-opacity:1;stroke-dasharray:none"
      id="path4942-9-7"
      d="m 285,1031.7372 c 0,4.2901 -3.47778,7.7678 -7.76785,7.7678 -4.29007,0 -7.76786,-3.4777 -7.76786,-7.7678 0,-4.2901 3.47779,-7.7679 7.76786,-7.7679 4.29007,0 7.76785,3.4778 7.76785,7.7679 z"
      transform="matrix(0.77241381,0,0,0.77241381,4667.0087,538.7371)"/>
    <path transform="matrix(0.77241381,0,0,0.77241381,4839.7365,732.06966)"
          d="m 285,1031.7372 c 0,4.2901 -3.47778,7.7678 -7.76785,7.7678 -4.29007,0 -7.76786,-3.4777 -7.76786,-7.7678 0,-4.2901 3.47779,-7.7679 7.76786,-7.7679 4.29007,0 7.76785,3.4778 7.76785,7.7679 z"
          id="path4944-0-2"
          style="fill:#ffffff;fill-opacity:1;stroke:#000000;stroke-width:2.58928561;stroke-linejoin:round;stroke-miterlimit:4;stroke-opacity:1;stroke-dasharray:none"/>
    <path style="fill:#f0d722;fill-opacity:1;stroke:none" id="path4946-7-2"
          d="m 285,1031.7372 c 0,4.2901 -3.47778,7.7678 -7.76785,7.7678 -4.29007,0 -7.76786,-3.4777 -7.76786,-7.7678 0,-4.2901 3.47779,-7.7679 7.76786,-7.7679 4.29007,0 7.76785,3.4778 7.76785,7.7679 z"
          transform="matrix(0.3862069,0,0,0.3862069,4946.8058,1130.5335)"/>
    <path transform="matrix(0.3862069,0,0,0.3862069,4946.8059,949.1965)"
          d="m 285,1031.7372 c 0,4.2901 -3.47778,7.7678 -7.76785,7.7678 -4.29007,0 -7.76786,-3.4777 -7.76786,-7.7678 0,-4.2901 3.47779,-7.7679 7.76786,-7.7679 4.29007,0 7.76785,3.4778 7.76785,7.7679 z"
          id="path4948-8-8" style="fill:#f0d722;fill-opacity:1;stroke:none"/>
    <path style="fill:#7dad4c;fill-opacity:1;stroke:none" id="path4946-8-1-2"
          d="m 285,1031.7372 c 0,4.2901 -3.47778,7.7678 -7.76785,7.7678 -4.29007,0 -7.76786,-3.4777 -7.76786,-7.7678 0,-4.2901 3.47779,-7.7679 7.76786,-7.7679 4.29007,0 7.76785,3.4778 7.76785,7.7679 z"
          transform="matrix(0.3862069,0,0,0.3862069,4774.0778,937.20141)"/>
    <path transform="matrix(0.3862069,0,0,0.3862069,5432.3728,937.20124)"
          d="m 285,1031.7372 c 0,4.2901 -3.47778,7.7678 -7.76785,7.7678 -4.29007,0 -7.76786,-3.4777 -7.76786,-7.7678 0,-4.2901 3.47779,-7.7679 7.76786,-7.7679 4.29007,0 7.76785,3.4778 7.76785,7.7679 z"
          id="path4968-5-8" style="fill:#7dad4c;fill-opacity:1;stroke:none"/>
    <path style="fill:#007a5b;fill-opacity:1;stroke:none" id="path4970-8-9"
          d="m 285,1031.7372 c 0,4.2901 -3.47778,7.7678 -7.76785,7.7678 -4.29007,0 -7.76786,-3.4777 -7.76786,-7.7678 0,-4.2901 3.47779,-7.7679 7.76786,-7.7679 4.29007,0 7.76785,3.4778 7.76785,7.7679 z"
          transform="matrix(0.3862069,0,0,0.3862069,5432.3729,949.19645)"/>
    <path transform="matrix(3.6923078,-7.0710678e-8,7.0710678e-8,2.2857143,4037.0726,-932.04869)"
          d="m 345.5,1032.9247 c 0,0.7249 -0.36377,1.3125 -0.8125,1.3125 -0.44873,0 -0.8125,-0.5876 -0.8125,-1.3125 0,-0.7249 0.36377,-1.3125 0.8125,-1.3125 0.44873,0 0.8125,0.5876 0.8125,1.3125 z"
          id="path4984-5-8" style="fill:#ffffff;fill-opacity:1;stroke:none"/>
    <path style="fill:#ffffff;fill-opacity:1;stroke:none" id="path4986-8-6"
          d="m 345.5,1032.9247 c 0,0.7249 -0.36377,1.3125 -0.8125,1.3125 -0.44873,0 -0.8125,-0.5876 -0.8125,-1.3125 0,-0.7249 0.36377,-1.3125 0.8125,-1.3125 0.44873,0 0.8125,0.5876 0.8125,1.3125 z"
          transform="matrix(3.6923078,-7.0710678e-8,7.0710678e-8,2.2857143,4074.5728,-932.04869)"/>
    <path
      style="fill:#ffffff;fill-opacity:1;stroke:#000000;stroke-width:2.58928561;stroke-linejoin:round;stroke-miterlimit:4;stroke-opacity:1;stroke-dasharray:none"
      id="path4988-6-1"
      d="m 285,1031.7372 c 0,4.2901 -3.47778,7.7678 -7.76785,7.7678 -4.29007,0 -7.76786,-3.4777 -7.76786,-7.7678 0,-4.2901 3.47779,-7.7679 7.76786,-7.7679 4.29007,0 7.76785,3.4778 7.76785,7.7679 z"
      transform="matrix(0.77241381,0,0,0.77241381,5172.4932,631.88707)"/>
    <path style="fill:#ffffff;fill-opacity:1;stroke:none" id="path4276-0-2-6"
          d="m 345.5,1032.9247 c 0,0.7249 -0.36377,1.3125 -0.8125,1.3125 -0.44873,0 -0.8125,-0.5876 -0.8125,-1.3125 0,-0.7249 0.36377,-1.3125 0.8125,-1.3125 0.44873,0 0.8125,0.5876 0.8125,1.3125 z"
          transform="matrix(3.6923078,-7.0710678e-8,7.0710678e-8,2.2857143,4114.0836,-967.17069)"/>
    <path transform="matrix(3.6923078,-7.0710678e-8,7.0710678e-8,2.2857143,4114.0836,-884.43933)"
          d="m 345.5,1032.9247 c 0,0.7249 -0.36377,1.3125 -0.8125,1.3125 -0.44873,0 -0.8125,-0.5876 -0.8125,-1.3125 0,-0.7249 0.36377,-1.3125 0.8125,-1.3125 0.44873,0 0.8125,0.5876 0.8125,1.3125 z"
          id="path5054-1-4" style="fill:#ffffff;fill-opacity:1;stroke:none"/>
    <path style="fill:#ffffff;fill-opacity:1;stroke:none" id="path5062-6-8"
          d="m 345.5,1032.9247 c 0,0.7249 -0.36377,1.3125 -0.8125,1.3125 -0.44873,0 -0.8125,-0.5876 -0.8125,-1.3125 0,-0.7249 0.36377,-1.3125 0.8125,-1.3125 0.44873,0 0.8125,0.5876 0.8125,1.3125 z"
          transform="matrix(3.6923078,-7.0710678e-8,7.0710678e-8,2.2857143,4114.0837,-855.44788)"/>
    <path transform="matrix(0.77241381,0,0,0.77241381,5172.4931,740.88694)"
          d="m 285,1031.7372 c 0,4.2901 -3.47778,7.7678 -7.76785,7.7678 -4.29007,0 -7.76786,-3.4777 -7.76786,-7.7678 0,-4.2901 3.47779,-7.7679 7.76786,-7.7679 4.29007,0 7.76785,3.4778 7.76785,7.7679 z"
          id="path5070-52-1"
          style="fill:#ffffff;fill-opacity:1;stroke:#000000;stroke-width:2.58928561;stroke-linejoin:round;stroke-miterlimit:4;stroke-opacity:1;stroke-dasharray:none"/>
    <path transform="matrix(3.6923078,-7.0710678e-8,7.0710678e-8,2.2857143,4155.0359,-1227.746)"
          d="m 345.5,1032.9247 c 0,0.7249 -0.36377,1.3125 -0.8125,1.3125 -0.44873,0 -0.8125,-0.5876 -0.8125,-1.3125 0,-0.7249 0.36377,-1.3125 0.8125,-1.3125 0.44873,0 0.8125,0.5876 0.8125,1.3125 z"
          id="path5119-39-6" style="fill:#ffffff;fill-opacity:1;stroke:none"/>
    <path transform="matrix(3.6923078,-7.0710678e-8,7.0710678e-8,2.2857143,4114.0838,-1067.6961)"
          d="m 345.5,1032.9247 c 0,0.7249 -0.36377,1.3125 -0.8125,1.3125 -0.44873,0 -0.8125,-0.5876 -0.8125,-1.3125 0,-0.7249 0.36377,-1.3125 0.8125,-1.3125 0.44873,0 0.8125,0.5876 0.8125,1.3125 z"
          id="path5144-9-2" style="fill:#ffffff;fill-opacity:1;stroke:none"/>
    <path style="fill:#ffffff;fill-opacity:1;stroke:none" id="path5152-5-9"
          d="m 345.5,1032.9247 c 0,0.7249 -0.36377,1.3125 -0.8125,1.3125 -0.44873,0 -0.8125,-0.5876 -0.8125,-1.3125 0,-0.7249 0.36377,-1.3125 0.8125,-1.3125 0.44873,0 0.8125,0.5876 0.8125,1.3125 z"
          transform="matrix(3.6923078,-7.0710678e-8,7.0710678e-8,2.2857143,4114.0838,-1135.2963)"/>
    <path transform="matrix(3.6923078,-7.0710678e-8,7.0710678e-8,2.2857143,4114.0838,-1101.5393)"
          d="m 345.5,1032.9247 c 0,0.7249 -0.36377,1.3125 -0.8125,1.3125 -0.44873,0 -0.8125,-0.5876 -0.8125,-1.3125 0,-0.7249 0.36377,-1.3125 0.8125,-1.3125 0.44873,0 0.8125,0.5876 0.8125,1.3125 z"
          id="path5160-6-9" style="fill:#ffffff;fill-opacity:1;stroke:none"/>
    <path transform="matrix(3.6923078,-7.0710678e-8,7.0710678e-8,2.2857143,4166.2163,-1255.0662)"
          d="m 345.5,1032.9247 c 0,0.7249 -0.36377,1.3125 -0.8125,1.3125 -0.44873,0 -0.8125,-0.5876 -0.8125,-1.3125 0,-0.7249 0.36377,-1.3125 0.8125,-1.3125 0.44873,0 0.8125,0.5876 0.8125,1.3125 z"
          id="path5119-3-1-8" style="fill:#ffffff;fill-opacity:1;stroke:none"/>
    <path style="fill:#ffffff;fill-opacity:1;stroke:none" id="path5206-9-7"
          d="m 345.5,1032.9247 c 0,0.7249 -0.36377,1.3125 -0.8125,1.3125 -0.44873,0 -0.8125,-0.5876 -0.8125,-1.3125 0,-0.7249 0.36377,-1.3125 0.8125,-1.3125 0.44873,0 0.8125,0.5876 0.8125,1.3125 z"
          transform="matrix(3.6923078,-7.0710678e-8,7.0710678e-8,2.2857143,4166.2162,-1285.5662)"/>
    <path transform="matrix(3.6923078,-7.0710678e-8,7.0710678e-8,2.2857143,4166.2163,-1316.0662)"
          d="m 345.5,1032.9247 c 0,0.7249 -0.36377,1.3125 -0.8125,1.3125 -0.44873,0 -0.8125,-0.5876 -0.8125,-1.3125 0,-0.7249 0.36377,-1.3125 0.8125,-1.3125 0.44873,0 0.8125,0.5876 0.8125,1.3125 z"
          id="path5214-5-9" style="fill:#ffffff;fill-opacity:1;stroke:none"/>
    <path transform="matrix(3.6923078,-7.0710678e-8,7.0710678e-8,2.2857143,4166.2163,-1346.5986)"
          d="m 345.5,1032.9247 c 0,0.7249 -0.36377,1.3125 -0.8125,1.3125 -0.44873,0 -0.8125,-0.5876 -0.8125,-1.3125 0,-0.7249 0.36377,-1.3125 0.8125,-1.3125 0.44873,0 0.8125,0.5876 0.8125,1.3125 z"
          id="path5222-9-9" style="fill:#ffffff;fill-opacity:1;stroke:none"/>
    <path transform="matrix(0.77241381,0,0,0.77241381,5224.8537,186.91537)"
          d="m 285,1031.7372 c 0,4.2901 -3.47778,7.7678 -7.76785,7.7678 -4.29007,0 -7.76786,-3.4777 -7.76786,-7.7678 0,-4.2901 3.47779,-7.7679 7.76786,-7.7679 4.29007,0 7.76785,3.4778 7.76785,7.7679 z"
          id="path4577-2-8-5-8"
          style="fill:#ffffff;fill-opacity:1;stroke:#000000;stroke-width:2.58928561;stroke-linejoin:round;stroke-miterlimit:4;stroke-opacity:1;stroke-dasharray:none"/>
    <path style="fill:#224f86;fill-opacity:1;stroke:none" id="path4946-9-39-5"
          d="m 285,1031.7372 c 0,4.2901 -3.47778,7.7678 -7.76785,7.7678 -4.29007,0 -7.76786,-3.4777 -7.76786,-7.7678 0,-4.2901 3.47779,-7.7679 7.76786,-7.7679 4.29007,0 7.76785,3.4778 7.76785,7.7679 z"
          transform="matrix(0.3862069,0,0,0.3862069,5279.5618,1139.3515)"/>
    <path style="fill:#da421e;fill-opacity:1;stroke:none" id="path4946-9-3-3-4"
          d="m 285,1031.7372 c 0,4.2901 -3.47778,7.7678 -7.76785,7.7678 -4.29007,0 -7.76786,-3.4777 -7.76786,-7.7678 0,-4.2901 3.47779,-7.7679 7.76786,-7.7679 4.29007,0 7.76785,3.4778 7.76785,7.7679 z"
          transform="matrix(0.3862069,0,0,0.3862069,5331.9227,585.37941)"/>
    <path style="fill:#ffffff;fill-opacity:1;stroke:none" id="path5288-9-9"
          d="m 345.5,1032.9247 c 0,0.7249 -0.36377,1.3125 -0.8125,1.3125 -0.44873,0 -0.8125,-0.5876 -0.8125,-1.3125 0,-0.7249 0.36377,-1.3125 0.8125,-1.3125 0.44873,0 0.8125,0.5876 0.8125,1.3125 z"
          transform="matrix(3.6923078,-7.0710678e-8,7.0710678e-8,2.2857143,4183.3568,-1186.778)"/>
    <path transform="matrix(3.6923078,-7.0710678e-8,7.0710678e-8,2.2857143,4224.857,-1186.7778)"
          d="m 345.5,1032.9247 c 0,0.7249 -0.36377,1.3125 -0.8125,1.3125 -0.44873,0 -0.8125,-0.5876 -0.8125,-1.3125 0,-0.7249 0.36377,-1.3125 0.8125,-1.3125 0.44873,0 0.8125,0.5876 0.8125,1.3125 z"
          id="path5298-9-5" style="fill:#ffffff;fill-opacity:1;stroke:none"/>
    <path style="fill:#ffffff;fill-opacity:1;stroke:none" id="path5316-9-9"
          d="m 345.5,1032.9247 c 0,0.7249 -0.36377,1.3125 -0.8125,1.3125 -0.44873,0 -0.8125,-0.5876 -0.8125,-1.3125 0,-0.7249 0.36377,-1.3125 0.8125,-1.3125 0.44873,0 0.8125,0.5876 0.8125,1.3125 z"
          transform="matrix(3.6923078,-7.0710678e-8,7.0710678e-8,2.2857143,4266.3569,-1186.778)"/>
    <path style="fill:#ffffff;fill-opacity:1;stroke:none" id="path5326-6-7"
          d="m 345.5,1032.9247 c 0,0.7249 -0.36377,1.3125 -0.8125,1.3125 -0.44873,0 -0.8125,-0.5876 -0.8125,-1.3125 0,-0.7249 0.36377,-1.3125 0.8125,-1.3125 0.44873,0 0.8125,0.5876 0.8125,1.3125 z"
          transform="matrix(3.6923078,-7.0710678e-8,7.0710678e-8,2.2857143,4307.8567,-1186.778)"/>
    <path transform="matrix(3.6923078,-7.0710678e-8,7.0710678e-8,2.2857143,4349.3568,-1186.778)"
          d="m 345.5,1032.9247 c 0,0.7249 -0.36377,1.3125 -0.8125,1.3125 -0.44873,0 -0.8125,-0.5876 -0.8125,-1.3125 0,-0.7249 0.36377,-1.3125 0.8125,-1.3125 0.44873,0 0.8125,0.5876 0.8125,1.3125 z"
          id="path5334-2-6" style="fill:#ffffff;fill-opacity:1;stroke:none"/>
    <path transform="matrix(3.6923078,-7.0710678e-8,7.0710678e-8,2.2857143,4390.8569,-1186.778)"
          d="m 345.5,1032.9247 c 0,0.7249 -0.36377,1.3125 -0.8125,1.3125 -0.44873,0 -0.8125,-0.5876 -0.8125,-1.3125 0,-0.7249 0.36377,-1.3125 0.8125,-1.3125 0.44873,0 0.8125,0.5876 0.8125,1.3125 z"
          id="path5344-1-7" style="fill:#ffffff;fill-opacity:1;stroke:none"/>
    <path style="fill:#ffffff;fill-opacity:1;stroke:none" id="path5352-3-8"
          d="m 345.5,1032.9247 c 0,0.7249 -0.36377,1.3125 -0.8125,1.3125 -0.44873,0 -0.8125,-0.5876 -0.8125,-1.3125 0,-0.7249 0.36377,-1.3125 0.8125,-1.3125 0.44873,0 0.8125,0.5876 0.8125,1.3125 z"
          transform="matrix(3.6923078,-7.0710678e-8,7.0710678e-8,2.2857143,4432.3568,-1186.7781)"/>
    <path transform="matrix(0.77241381,0,0,0.77241381,4686.5584,827.1808)"
          d="m 285,1031.7372 c 0,4.2901 -3.47778,7.7678 -7.76785,7.7678 -4.29007,0 -7.76786,-3.4777 -7.76786,-7.7678 0,-4.2901 3.47779,-7.7679 7.76786,-7.7679 4.29007,0 7.76785,3.4778 7.76785,7.7679 z"
          id="path4944-4-82-4"
          style="fill:#ffffff;fill-opacity:1;stroke:#000000;stroke-width:2.58928561;stroke-linejoin:round;stroke-miterlimit:4;stroke-opacity:1;stroke-dasharray:none"/>
    <path style="fill:#f3791d;fill-opacity:1;stroke:none" id="path4946-4-5-1"
          d="m 285,1031.7372 c 0,4.2901 -3.47778,7.7678 -7.76785,7.7678 -4.29007,0 -7.76786,-3.4777 -7.76786,-7.7678 0,-4.2901 3.47779,-7.7679 7.76786,-7.7679 4.29007,0 7.76785,3.4778 7.76785,7.7679 z"
          transform="matrix(0.3862069,0,0,0.3862069,4793.6277,1225.6445)"/>
    <path transform="matrix(3.6923078,-7.0710678e-8,7.0710678e-8,2.2857143,3981.7184,-1215.6561)"
          d="m 345.5,1032.9247 c 0,0.7249 -0.36377,1.3125 -0.8125,1.3125 -0.44873,0 -0.8125,-0.5876 -0.8125,-1.3125 0,-0.7249 0.36377,-1.3125 0.8125,-1.3125 0.44873,0 0.8125,0.5876 0.8125,1.3125 z"
          id="path4809-6-3-6" style="fill:#ffffff;fill-opacity:1;stroke:none"/>
    <path style="fill:#ffffff;fill-opacity:1;stroke:none" id="path5424-8-3"
          d="m 345.5,1032.9247 c 0,0.7249 -0.36377,1.3125 -0.8125,1.3125 -0.44873,0 -0.8125,-0.5876 -0.8125,-1.3125 0,-0.7249 0.36377,-1.3125 0.8125,-1.3125 0.44873,0 0.8125,0.5876 0.8125,1.3125 z"
          transform="matrix(3.6923078,-7.0710678e-8,7.0710678e-8,2.2857143,3961.3196,-1236.055)"/>
    <path transform="matrix(3.6923078,-7.0710678e-8,7.0710678e-8,2.2857143,3940.9231,-1256.4516)"
          d="m 345.5,1032.9247 c 0,0.7249 -0.36377,1.3125 -0.8125,1.3125 -0.44873,0 -0.8125,-0.5876 -0.8125,-1.3125 0,-0.7249 0.36377,-1.3125 0.8125,-1.3125 0.44873,0 0.8125,0.5876 0.8125,1.3125 z"
          id="path5462-4-3" style="fill:#ffffff;fill-opacity:1;stroke:none"/>
    <path transform="matrix(3.6923078,-7.0710678e-8,7.0710678e-8,2.2857143,3920.5382,-1276.8361)"
          d="m 345.5,1032.9247 c 0,0.7249 -0.36377,1.3125 -0.8125,1.3125 -0.44873,0 -0.8125,-0.5876 -0.8125,-1.3125 0,-0.7249 0.36377,-1.3125 0.8125,-1.3125 0.44873,0 0.8125,0.5876 0.8125,1.3125 z"
          id="path5472-1-5" style="fill:#ffffff;fill-opacity:1;stroke:none"/>
    <path style="fill:#ffffff;fill-opacity:1;stroke:none" id="path5480-6-8"
          d="m 345.5,1032.9247 c 0,0.7249 -0.36377,1.3125 -0.8125,1.3125 -0.44873,0 -0.8125,-0.5876 -0.8125,-1.3125 0,-0.7249 0.36377,-1.3125 0.8125,-1.3125 0.44873,0 0.8125,0.5876 0.8125,1.3125 z"
          transform="matrix(3.6923078,-7.0710678e-8,7.0710678e-8,2.2857143,3900.1418,-1297.233)"/>
    <path transform="matrix(3.6923078,-7.0710678e-8,7.0710678e-8,2.2857143,3879.7166,-1317.6581)"
          d="m 345.5,1032.9247 c 0,0.7249 -0.36377,1.3125 -0.8125,1.3125 -0.44873,0 -0.8125,-0.5876 -0.8125,-1.3125 0,-0.7249 0.36377,-1.3125 0.8125,-1.3125 0.44873,0 0.8125,0.5876 0.8125,1.3125 z"
          id="path5490-93-4" style="fill:#ffffff;fill-opacity:1;stroke:none"/>
    <path transform="matrix(0.77241381,0,0,0.77241381,4910.7171,218.93328)"
          d="m 285,1031.7372 c 0,4.2901 -3.47778,7.7678 -7.76785,7.7678 -4.29007,0 -7.76786,-3.4777 -7.76786,-7.7678 0,-4.2901 3.47779,-7.7679 7.76786,-7.7679 4.29007,0 7.76785,3.4778 7.76785,7.7679 z"
          id="path5360-1-0-9"
          style="fill:#ffffff;fill-opacity:1;stroke:#000000;stroke-width:2.58928561;stroke-linejoin:round;stroke-miterlimit:4;stroke-opacity:1;stroke-dasharray:none"/>
    <path style="fill:#ffffff;fill-opacity:1;stroke:none" id="path5506-6-0"
          d="m 345.5,1032.9247 c 0,0.7249 -0.36377,1.3125 -0.8125,1.3125 -0.44873,0 -0.8125,-0.5876 -0.8125,-1.3125 0,-0.7249 0.36377,-1.3125 0.8125,-1.3125 0.44873,0 0.8125,0.5876 0.8125,1.3125 z"
          transform="matrix(3.6923078,-7.0710678e-8,7.0710678e-8,2.2857143,3825.4354,-1371.9393)"/>
    <path transform="matrix(3.6923078,-7.0710678e-8,7.0710678e-8,2.2857143,3805.0389,-1392.3357)"
          d="m 345.5,1032.9247 c 0,0.7249 -0.36377,1.3125 -0.8125,1.3125 -0.44873,0 -0.8125,-0.5876 -0.8125,-1.3125 0,-0.7249 0.36377,-1.3125 0.8125,-1.3125 0.44873,0 0.8125,0.5876 0.8125,1.3125 z"
          id="path5514-3-3" style="fill:#ffffff;fill-opacity:1;stroke:none"/>
    <path style="fill:#ffffff;fill-opacity:1;stroke:none" id="path5569-8-9"
          d="m 345.5,1032.9247 c 0,0.7249 -0.36377,1.3125 -0.8125,1.3125 -0.44873,0 -0.8125,-0.5876 -0.8125,-1.3125 0,-0.7249 0.36377,-1.3125 0.8125,-1.3125 0.44873,0 0.8125,0.5876 0.8125,1.3125 z"
          transform="matrix(3.6923078,-7.0710678e-8,7.0710678e-8,2.2857143,3784.6214,-1412.7534)"/>
    <path style="fill:#ffffff;fill-opacity:1;stroke:none" id="path5581-12-4"
          d="m 345.5,1032.9247 c 0,0.7249 -0.36377,1.3125 -0.8125,1.3125 -0.44873,0 -0.8125,-0.5876 -0.8125,-1.3125 0,-0.7249 0.36377,-1.3125 0.8125,-1.3125 0.44873,0 0.8125,0.5876 0.8125,1.3125 z"
          transform="matrix(3.6923078,-7.0710678e-8,7.0710678e-8,2.2857143,3764.2479,-1433.1268)"/>
    <path transform="matrix(3.6923078,-7.0710678e-8,7.0710678e-8,2.2857143,3743.8301,-1453.5443)"
          d="m 345.5,1032.9247 c 0,0.7249 -0.36377,1.3125 -0.8125,1.3125 -0.44873,0 -0.8125,-0.5876 -0.8125,-1.3125 0,-0.7249 0.36377,-1.3125 0.8125,-1.3125 0.44873,0 0.8125,0.5876 0.8125,1.3125 z"
          id="path5583-5-0" style="fill:#ffffff;fill-opacity:1;stroke:none"/>
    <path style="fill:#ffffff;fill-opacity:1;stroke:none" id="path5595-4-4"
          d="m 345.5,1032.9247 c 0,0.7249 -0.36377,1.3125 -0.8125,1.3125 -0.44873,0 -0.8125,-0.5876 -0.8125,-1.3125 0,-0.7249 0.36377,-1.3125 0.8125,-1.3125 0.44873,0 0.8125,0.5876 0.8125,1.3125 z"
          transform="matrix(3.6923078,-7.0710678e-8,7.0710678e-8,2.2857143,3723.4344,-1473.9403)"/>
    <path transform="matrix(3.6923078,-7.0710678e-8,7.0710678e-8,2.2857143,3703.0169,-1494.3578)"
          d="m 345.5,1032.9247 c 0,0.7249 -0.36377,1.3125 -0.8125,1.3125 -0.44873,0 -0.8125,-0.5876 -0.8125,-1.3125 0,-0.7249 0.36377,-1.3125 0.8125,-1.3125 0.44873,0 0.8125,0.5876 0.8125,1.3125 z"
          id="path5597-4-2" style="fill:#ffffff;fill-opacity:1;stroke:none"/>
    <path transform="matrix(3.6923078,-7.0710678e-8,7.0710678e-8,2.2857143,3682.6432,-1514.7313)"
          d="m 345.5,1032.9247 c 0,0.7249 -0.36377,1.3125 -0.8125,1.3125 -0.44873,0 -0.8125,-0.5876 -0.8125,-1.3125 0,-0.7249 0.36377,-1.3125 0.8125,-1.3125 0.44873,0 0.8125,0.5876 0.8125,1.3125 z"
          id="path5607-7-8" style="fill:#ffffff;fill-opacity:1;stroke:none"/>
    <path
      style="fill:#ffffff;fill-opacity:1;stroke:#000000;stroke-width:2.58928561;stroke-linejoin:round;stroke-miterlimit:4;stroke-opacity:1;stroke-dasharray:none"
      id="path5619-0-4"
      d="m 285,1031.7372 c 0,4.2901 -3.47778,7.7678 -7.76785,7.7678 -4.29007,0 -7.76786,-3.4777 -7.76786,-7.7678 0,-4.2901 3.47779,-7.7679 7.76786,-7.7679 4.29007,0 7.76785,3.4778 7.76785,7.7679 z"
      transform="matrix(0.77241381,0,0,0.77241381,4716.9674,25.183451)"/>
    <path
      style="fill:#ffffff;fill-opacity:1;stroke:#000000;stroke-width:2.58928561;stroke-linejoin:round;stroke-miterlimit:4;stroke-opacity:1;stroke-dasharray:none"
      id="path5621-3-4"
      d="m 285,1031.7372 c 0,4.2901 -3.47778,7.7678 -7.76785,7.7678 -4.29007,0 -7.76786,-3.4777 -7.76786,-7.7678 0,-4.2901 3.47779,-7.7679 7.76786,-7.7679 4.29007,0 7.76785,3.4778 7.76785,7.7679 z"
      transform="matrix(0.77241381,0,0,0.77241381,4976.8424,152.80809)"/>
    <path transform="matrix(3.6923078,-7.0710678e-8,7.0710678e-8,2.2857143,3887.0051,-1379.5634)"
          d="m 345.5,1032.9247 c 0,0.7249 -0.36377,1.3125 -0.8125,1.3125 -0.44873,0 -0.8125,-0.5876 -0.8125,-1.3125 0,-0.7249 0.36377,-1.3125 0.8125,-1.3125 0.44873,0 0.8125,0.5876 0.8125,1.3125 z"
          id="path5490-9-8-4" style="fill:#ffffff;fill-opacity:1;stroke:none"/>
    <path style="fill:#ffffff;fill-opacity:1;stroke:none" id="path5665-0-9"
          d="m 345.5,1032.9247 c 0,0.7249 -0.36377,1.3125 -0.8125,1.3125 -0.44873,0 -0.8125,-0.5876 -0.8125,-1.3125 0,-0.7249 0.36377,-1.3125 0.8125,-1.3125 0.44873,0 0.8125,0.5876 0.8125,1.3125 z"
          transform="matrix(3.6923078,-7.0710678e-8,7.0710678e-8,2.2857143,4088.5173,-1240.9512)"/>
    <path style="fill:#ffffff;fill-opacity:1;stroke:none" id="path5737-5-7"
          d="m 345.5,1032.9247 c 0,0.7249 -0.36377,1.3125 -0.8125,1.3125 -0.44873,0 -0.8125,-0.5876 -0.8125,-1.3125 0,-0.7249 0.36377,-1.3125 0.8125,-1.3125 0.44873,0 0.8125,0.5876 0.8125,1.3125 z"
          transform="matrix(3.6923078,-7.0710678e-8,7.0710678e-8,2.2857143,4060.8663,-1268.6021)"/>
    <path transform="matrix(3.6923078,-7.0710678e-8,7.0710678e-8,2.2857143,4033.2337,-1296.2344)"
          d="m 345.5,1032.9247 c 0,0.7249 -0.36377,1.3125 -0.8125,1.3125 -0.44873,0 -0.8125,-0.5876 -0.8125,-1.3125 0,-0.7249 0.36377,-1.3125 0.8125,-1.3125 0.44873,0 0.8125,0.5876 0.8125,1.3125 z"
          id="path5745-3-3" style="fill:#ffffff;fill-opacity:1;stroke:none"/>
    <path transform="matrix(3.6923078,-7.0710678e-8,7.0710678e-8,2.2857143,4005.5796,-1323.8889)"
          d="m 345.5,1032.9247 c 0,0.7249 -0.36377,1.3125 -0.8125,1.3125 -0.44873,0 -0.8125,-0.5876 -0.8125,-1.3125 0,-0.7249 0.36377,-1.3125 0.8125,-1.3125 0.44873,0 0.8125,0.5876 0.8125,1.3125 z"
          id="path5753-1-5" style="fill:#ffffff;fill-opacity:1;stroke:none"/>
    <path style="fill:#ffffff;fill-opacity:1;stroke:none" id="path5759-5-3"
          d="m 345.5,1032.9247 c 0,0.7249 -0.36377,1.3125 -0.8125,1.3125 -0.44873,0 -0.8125,-0.5876 -0.8125,-1.3125 0,-0.7249 0.36377,-1.3125 0.8125,-1.3125 0.44873,0 0.8125,0.5876 0.8125,1.3125 z"
          transform="matrix(3.6923078,-7.0710678e-8,7.0710678e-8,2.2857143,3977.9469,-1351.5215)"/>
    <path style="fill:#ffffff;fill-opacity:1;stroke:none" id="path5767-1-9"
          d="m 345.5,1032.9247 c 0,0.7249 -0.36377,1.3125 -0.8125,1.3125 -0.44873,0 -0.8125,-0.5876 -0.8125,-1.3125 0,-0.7249 0.36377,-1.3125 0.8125,-1.3125 0.44873,0 0.8125,0.5876 0.8125,1.3125 z"
          transform="matrix(3.6923078,-7.0710678e-8,7.0710678e-8,2.2857143,3950.3183,-1379.1501)"/>
    <path transform="matrix(0.77241381,0,0,0.77241381,4869.9392,-39.237242)"
          d="m 285,1031.7372 c 0,4.2901 -3.47778,7.7678 -7.76785,7.7678 -4.29007,0 -7.76786,-3.4777 -7.76786,-7.7678 0,-4.2901 3.47779,-7.7679 7.76786,-7.7679 4.29007,0 7.76785,3.4778 7.76785,7.7679 z"
          id="path5769-2-7"
          style="fill:#ffffff;fill-opacity:1;stroke:#000000;stroke-width:2.58928561;stroke-linejoin:round;stroke-miterlimit:4;stroke-opacity:1;stroke-dasharray:none"/>
    <path transform="matrix(3.6923078,-7.0710678e-8,7.0710678e-8,2.2857143,3886.8903,-1442.578)"
          d="m 345.5,1032.9247 c 0,0.7249 -0.36377,1.3125 -0.8125,1.3125 -0.44873,0 -0.8125,-0.5876 -0.8125,-1.3125 0,-0.7249 0.36377,-1.3125 0.8125,-1.3125 0.44873,0 0.8125,0.5876 0.8125,1.3125 z"
          id="path5771-2-5" style="fill:#ffffff;fill-opacity:1;stroke:none"/>
    <path transform="matrix(3.6923078,-7.0710678e-8,7.0710678e-8,2.2857143,3864.1893,-1465.279)"
          d="m 345.5,1032.9247 c 0,0.7249 -0.36377,1.3125 -0.8125,1.3125 -0.44873,0 -0.8125,-0.5876 -0.8125,-1.3125 0,-0.7249 0.36377,-1.3125 0.8125,-1.3125 0.44873,0 0.8125,0.5876 0.8125,1.3125 z"
          id="path5783-7-1" style="fill:#ffffff;fill-opacity:1;stroke:none"/>
    <path style="fill:#ffffff;fill-opacity:1;stroke:none" id="path5789-4-2"
          d="m 345.5,1032.9247 c 0,0.7249 -0.36377,1.3125 -0.8125,1.3125 -0.44873,0 -0.8125,-0.5876 -0.8125,-1.3125 0,-0.7249 0.36377,-1.3125 0.8125,-1.3125 0.44873,0 0.8125,0.5876 0.8125,1.3125 z"
          transform="matrix(3.6923078,-7.0710678e-8,7.0710678e-8,2.2857143,3841.5068,-1487.9616)"/>
    <path style="fill:#f3791d;fill-opacity:1;stroke:none" id="path4946-9-3-8-5-5"
          d="m 285,1031.7372 c 0,4.2901 -3.47778,7.7678 -7.76785,7.7678 -4.29007,0 -7.76786,-3.4777 -7.76786,-7.7678 0,-4.2901 3.47779,-7.7679 7.76786,-7.7679 4.29007,0 7.76785,3.4778 7.76785,7.7679 z"
          transform="matrix(0.3862069,0,0,0.3862069,5083.9115,551.27254)"/>
    <path transform="matrix(0.3862069,0,0,0.3862069,4977.0082,359.22736)"
          d="m 285,1031.7372 c 0,4.2901 -3.47778,7.7678 -7.76785,7.7678 -4.29007,0 -7.76786,-3.4777 -7.76786,-7.7678 0,-4.2901 3.47779,-7.7679 7.76786,-7.7679 4.29007,0 7.76785,3.4778 7.76785,7.7679 z"
          id="path5835-3-1" style="fill:#224f86;fill-opacity:1;stroke:none"/>
    <path transform="matrix(0.3862069,0,0,0.3862069,4824.0365,423.64749)"
          d="m 285,1031.7372 c 0,4.2901 -3.47778,7.7678 -7.76785,7.7678 -4.29007,0 -7.76786,-3.4777 -7.76786,-7.7678 0,-4.2901 3.47779,-7.7679 7.76786,-7.7679 4.29007,0 7.76785,3.4778 7.76785,7.7679 z"
          id="path5835-8-1-2" style="fill:#8c6dab;fill-opacity:1;stroke:none"/>
    <path style="fill:#ffffff;fill-opacity:1;stroke:none" id="path5873-6-2"
          d="m 345.5,1032.9247 c 0,0.7249 -0.36377,1.3125 -0.8125,1.3125 -0.44873,0 -0.8125,-0.5876 -0.8125,-1.3125 0,-0.7249 0.36377,-1.3125 0.8125,-1.3125 0.44873,0 0.8125,0.5876 0.8125,1.3125 z"
          transform="matrix(3.6923078,-7.0710678e-8,7.0710678e-8,2.2857143,3807.456,-1300.0143)"/>
    <path transform="matrix(3.6923078,-7.0710678e-8,7.0710678e-8,2.2857143,3772.1004,-1264.6589)"
          d="m 345.5,1032.9247 c 0,0.7249 -0.36377,1.3125 -0.8125,1.3125 -0.44873,0 -0.8125,-0.5876 -0.8125,-1.3125 0,-0.7249 0.36377,-1.3125 0.8125,-1.3125 0.44873,0 0.8125,0.5876 0.8125,1.3125 z"
          id="path5883-0-4" style="fill:#ffffff;fill-opacity:1;stroke:none"/>
    <path style="fill:#ffffff;fill-opacity:1;stroke:none" id="path5889-5-0"
          d="m 345.5,1032.9247 c 0,0.7249 -0.36377,1.3125 -0.8125,1.3125 -0.44873,0 -0.8125,-0.5876 -0.8125,-1.3125 0,-0.7249 0.36377,-1.3125 0.8125,-1.3125 0.44873,0 0.8125,0.5876 0.8125,1.3125 z"
          transform="matrix(3.6923078,-7.0710678e-8,7.0710678e-8,2.2857143,3736.7451,-1229.3032)"/>
    <path transform="matrix(3.6923078,-7.0710678e-8,7.0710678e-8,2.2857143,3701.3898,-1193.9482)"
          d="m 345.5,1032.9247 c 0,0.7249 -0.36377,1.3125 -0.8125,1.3125 -0.44873,0 -0.8125,-0.5876 -0.8125,-1.3125 0,-0.7249 0.36377,-1.3125 0.8125,-1.3125 0.44873,0 0.8125,0.5876 0.8125,1.3125 z"
          id="path5895-5-0" style="fill:#ffffff;fill-opacity:1;stroke:none"/>
    <path transform="matrix(3.6923078,-7.0710678e-8,7.0710678e-8,2.2857143,3996.3161,-908.09955)"
          d="m 345.5,1032.9247 c 0,0.7249 -0.36377,1.3125 -0.8125,1.3125 -0.44873,0 -0.8125,-0.5876 -0.8125,-1.3125 0,-0.7249 0.36377,-1.3125 0.8125,-1.3125 0.44873,0 0.8125,0.5876 0.8125,1.3125 z"
          id="path5901-8-3" style="fill:#ffffff;fill-opacity:1;stroke:none"/>
    <path style="fill:#ffffff;fill-opacity:1;stroke:none" id="path5939-8-7"
          d="m 345.5,1032.9247 c 0,0.7249 -0.36377,1.3125 -0.8125,1.3125 -0.44873,0 -0.8125,-0.5876 -0.8125,-1.3125 0,-0.7249 0.36377,-1.3125 0.8125,-1.3125 0.44873,0 0.8125,0.5876 0.8125,1.3125 z"
          transform="matrix(3.6923078,-7.0710678e-8,7.0710678e-8,2.2857143,3996.3162,-878.09948)"/>
    <path transform="matrix(3.6923078,-7.0710678e-8,7.0710678e-8,2.2857143,3996.3163,-848.09914)"
          d="m 345.5,1032.9247 c 0,0.7249 -0.36377,1.3125 -0.8125,1.3125 -0.44873,0 -0.8125,-0.5876 -0.8125,-1.3125 0,-0.7249 0.36377,-1.3125 0.8125,-1.3125 0.44873,0 0.8125,0.5876 0.8125,1.3125 z"
          id="path5947-8-4" style="fill:#ffffff;fill-opacity:1;stroke:none"/>
    <path style="fill:#ffffff;fill-opacity:1;stroke:none" id="path5955-0-5"
          d="m 345.5,1032.9247 c 0,0.7249 -0.36377,1.3125 -0.8125,1.3125 -0.44873,0 -0.8125,-0.5876 -0.8125,-1.3125 0,-0.7249 0.36377,-1.3125 0.8125,-1.3125 0.44873,0 0.8125,0.5876 0.8125,1.3125 z"
          transform="matrix(3.6923078,-7.0710678e-8,7.0710678e-8,2.2857143,3996.3161,-818.09914)"/>
    <path transform="matrix(3.6923078,-7.0710678e-8,7.0710678e-8,2.2857143,3996.3161,-788.09915)"
          d="m 345.5,1032.9247 c 0,0.7249 -0.36377,1.3125 -0.8125,1.3125 -0.44873,0 -0.8125,-0.5876 -0.8125,-1.3125 0,-0.7249 0.36377,-1.3125 0.8125,-1.3125 0.44873,0 0.8125,0.5876 0.8125,1.3125 z"
          id="path5963-6-8" style="fill:#ffffff;fill-opacity:1;stroke:none"/>
    <path style="fill:#ffffff;fill-opacity:1;stroke:none" id="path5971-0-6"
          d="m 345.5,1032.9247 c 0,0.7249 -0.36377,1.3125 -0.8125,1.3125 -0.44873,0 -0.8125,-0.5876 -0.8125,-1.3125 0,-0.7249 0.36377,-1.3125 0.8125,-1.3125 0.44873,0 0.8125,0.5876 0.8125,1.3125 z"
          transform="matrix(3.6923078,-7.0710678e-8,7.0710678e-8,2.2857143,3996.3161,-758.09915)"/>
    <path transform="matrix(3.6923078,-7.0710678e-8,7.0710678e-8,2.2857143,3996.3161,-728.09944)"
          d="m 345.5,1032.9247 c 0,0.7249 -0.36377,1.3125 -0.8125,1.3125 -0.44873,0 -0.8125,-0.5876 -0.8125,-1.3125 0,-0.7249 0.36377,-1.3125 0.8125,-1.3125 0.44873,0 0.8125,0.5876 0.8125,1.3125 z"
          id="path5979-7-1" style="fill:#ffffff;fill-opacity:1;stroke:none"/>
    <path transform="matrix(0.77241381,0,0,0.77241381,5054.7708,869.85144)"
          d="m 285,1031.7372 c 0,4.2901 -3.47778,7.7678 -7.76785,7.7678 -4.29007,0 -7.76786,-3.4777 -7.76786,-7.7678 0,-4.2901 3.47779,-7.7679 7.76786,-7.7679 4.29007,0 7.76785,3.4778 7.76785,7.7679 z"
          id="path5070-5-2-2"
          style="fill:#ffffff;fill-opacity:1;stroke:#000000;stroke-width:2.58928561;stroke-linejoin:round;stroke-miterlimit:4;stroke-opacity:1;stroke-dasharray:none"/>
    <path style="fill:#8c6dab;fill-opacity:1;stroke:none" id="path4946-9-9-6-0"
          d="m 285,1031.7372 c 0,4.2901 -3.47778,7.7678 -7.76785,7.7678 -4.29007,0 -7.76786,-3.4777 -7.76786,-7.7678 0,-4.2901 3.47779,-7.7679 7.76786,-7.7679 4.29007,0 7.76785,3.4778 7.76785,7.7679 z"
          transform="matrix(0.3862069,0,0,0.3862069,5161.8395,1268.3159)"/>
    <path transform="matrix(0.77241381,0,0,0.77241381,4450.8603,874.04877)"
          d="m 285,1031.7372 c 0,4.2901 -3.47778,7.7678 -7.76785,7.7678 -4.29007,0 -7.76786,-3.4777 -7.76786,-7.7678 0,-4.2901 3.47779,-7.7679 7.76786,-7.7679 4.29007,0 7.76785,3.4778 7.76785,7.7679 z"
          id="path4944-4-8-5-7"
          style="fill:#ffffff;fill-opacity:1;stroke:#000000;stroke-width:2.58928561;stroke-linejoin:round;stroke-miterlimit:4;stroke-opacity:1;stroke-dasharray:none"/>
    <path style="fill:#007a5b;fill-opacity:1;stroke:none" id="path4946-4-4-7-0"
          d="m 285,1031.7372 c 0,4.2901 -3.47778,7.7678 -7.76785,7.7678 -4.29007,0 -7.76786,-3.4777 -7.76786,-7.7678 0,-4.2901 3.47779,-7.7679 7.76786,-7.7679 4.29007,0 7.76785,3.4778 7.76785,7.7679 z"
          transform="matrix(0.3862069,0,0,0.3862069,4557.9296,1272.5124)"/>
    <path transform="matrix(3.6923078,-7.0710678e-8,7.0710678e-8,2.2857143,3530.2164,-978.56621)"
          d="m 345.5,1032.9247 c 0,0.7249 -0.36377,1.3125 -0.8125,1.3125 -0.44873,0 -0.8125,-0.5876 -0.8125,-1.3125 0,-0.7249 0.36377,-1.3125 0.8125,-1.3125 0.44873,0 0.8125,0.5876 0.8125,1.3125 z"
          id="path3799-4-0-7-6" style="fill:#ffffff;fill-opacity:1;stroke:none"/>
    <path style="fill:#ffffff;fill-opacity:1;stroke:none" id="path4986-3-7-0"
          d="m 345.5,1032.9247 c 0,0.7249 -0.36377,1.3125 -0.8125,1.3125 -0.44873,0 -0.8125,-0.5876 -0.8125,-1.3125 0,-0.7249 0.36377,-1.3125 0.8125,-1.3125 0.44873,0 0.8125,0.5876 0.8125,1.3125 z"
          transform="matrix(3.6923078,-7.0710678e-8,7.0710678e-8,2.2857143,4186.5846,-907.25475)"/>
    <path transform="matrix(3.6923078,-7.0710678e-8,7.0710678e-8,2.2857143,4207.7975,-886.04202)"
          d="m 345.5,1032.9247 c 0,0.7249 -0.36377,1.3125 -0.8125,1.3125 -0.44873,0 -0.8125,-0.5876 -0.8125,-1.3125 0,-0.7249 0.36377,-1.3125 0.8125,-1.3125 0.44873,0 0.8125,0.5876 0.8125,1.3125 z"
          id="path6166-3-7" style="fill:#ffffff;fill-opacity:1;stroke:none"/>
    <path style="fill:#ffffff;fill-opacity:1;stroke:none" id="path6172-2-4"
          d="m 345.5,1032.9247 c 0,0.7249 -0.36377,1.3125 -0.8125,1.3125 -0.44873,0 -0.8125,-0.5876 -0.8125,-1.3125 0,-0.7249 0.36377,-1.3125 0.8125,-1.3125 0.44873,0 0.8125,0.5876 0.8125,1.3125 z"
          transform="matrix(3.6923078,-7.0710678e-8,7.0710678e-8,2.2857143,4229.0105,-864.82872)"/>
    <path transform="matrix(3.6923078,-7.0710678e-8,7.0710678e-8,2.2857143,4250.2237,-843.61565)"
          d="m 345.5,1032.9247 c 0,0.7249 -0.36377,1.3125 -0.8125,1.3125 -0.44873,0 -0.8125,-0.5876 -0.8125,-1.3125 0,-0.7249 0.36377,-1.3125 0.8125,-1.3125 0.44873,0 0.8125,0.5876 0.8125,1.3125 z"
          id="path6178-7-6" style="fill:#ffffff;fill-opacity:1;stroke:none"/>
    <path style="fill:#ffffff;fill-opacity:1;stroke:none" id="path6184-5-7"
          d="m 345.5,1032.9247 c 0,0.7249 -0.36377,1.3125 -0.8125,1.3125 -0.44873,0 -0.8125,-0.5876 -0.8125,-1.3125 0,-0.7249 0.36377,-1.3125 0.8125,-1.3125 0.44873,0 0.8125,0.5876 0.8125,1.3125 z"
          transform="matrix(3.6923078,-7.0710678e-8,7.0710678e-8,2.2857143,4271.4369,-822.4022)"/>
    <path transform="matrix(3.6923078,-7.0710678e-8,7.0710678e-8,2.2857143,4292.6503,-801.18905)"
          d="m 345.5,1032.9247 c 0,0.7249 -0.36377,1.3125 -0.8125,1.3125 -0.44873,0 -0.8125,-0.5876 -0.8125,-1.3125 0,-0.7249 0.36377,-1.3125 0.8125,-1.3125 0.44873,0 0.8125,0.5876 0.8125,1.3125 z"
          id="path6190-2-7" style="fill:#ffffff;fill-opacity:1;stroke:none"/>
    <path style="fill:#ffffff;fill-opacity:1;stroke:none" id="path6196-6-3"
          d="m 345.5,1032.9247 c 0,0.7249 -0.36377,1.3125 -0.8125,1.3125 -0.44873,0 -0.8125,-0.5876 -0.8125,-1.3125 0,-0.7249 0.36377,-1.3125 0.8125,-1.3125 0.44873,0 0.8125,0.5876 0.8125,1.3125 z"
          transform="matrix(3.6923078,-7.0710678e-8,7.0710678e-8,2.2857143,4313.8633,-779.97592)"/>
    <path transform="matrix(3.6923078,-7.0710678e-8,7.0710678e-8,2.2857143,4335.0765,-758.76285)"
          d="m 345.5,1032.9247 c 0,0.7249 -0.36377,1.3125 -0.8125,1.3125 -0.44873,0 -0.8125,-0.5876 -0.8125,-1.3125 0,-0.7249 0.36377,-1.3125 0.8125,-1.3125 0.44873,0 0.8125,0.5876 0.8125,1.3125 z"
          id="path6202-1-2" style="fill:#ffffff;fill-opacity:1;stroke:none"/>
    <path style="fill:#ffffff;fill-opacity:1;stroke:none" id="path6208-0-7"
          d="m 345.5,1032.9247 c 0,0.7249 -0.36377,1.3125 -0.8125,1.3125 -0.44873,0 -0.8125,-0.5876 -0.8125,-1.3125 0,-0.7249 0.36377,-1.3125 0.8125,-1.3125 0.44873,0 0.8125,0.5876 0.8125,1.3125 z"
          transform="matrix(3.6923078,-7.0710678e-8,7.0710678e-8,2.2857143,4356.2898,-737.54964)"/>
    <path transform="matrix(3.6923078,-7.0710678e-8,7.0710678e-8,2.2857143,4377.5029,-716.33679)"
          d="m 345.5,1032.9247 c 0,0.7249 -0.36377,1.3125 -0.8125,1.3125 -0.44873,0 -0.8125,-0.5876 -0.8125,-1.3125 0,-0.7249 0.36377,-1.3125 0.8125,-1.3125 0.44873,0 0.8125,0.5876 0.8125,1.3125 z"
          id="path6214-8-5" style="fill:#ffffff;fill-opacity:1;stroke:none"/>
    <path style="fill:#ffffff;fill-opacity:1;stroke:none" id="path6220-1-2"
          d="m 345.5,1032.9247 c 0,0.7249 -0.36377,1.3125 -0.8125,1.3125 -0.44873,0 -0.8125,-0.5876 -0.8125,-1.3125 0,-0.7249 0.36377,-1.3125 0.8125,-1.3125 0.44873,0 0.8125,0.5876 0.8125,1.3125 z"
          transform="matrix(3.6923078,-7.0710678e-8,7.0710678e-8,2.2857143,4398.7159,-695.12345)"/>
    <path transform="matrix(0.77241381,0,0,0.77241381,5480.6542,892.373)"
          d="m 285,1031.7372 c 0,4.2901 -3.47778,7.7678 -7.76785,7.7678 -4.29007,0 -7.76786,-3.4777 -7.76786,-7.7678 0,-4.2901 3.47779,-7.7679 7.76786,-7.7679 4.29007,0 7.76785,3.4778 7.76785,7.7679 z"
          id="path5070-54-8-1"
          style="fill:#ffffff;fill-opacity:1;stroke:#000000;stroke-width:2.58928561;stroke-linejoin:round;stroke-miterlimit:4;stroke-opacity:1;stroke-dasharray:none"/>
    <path style="fill:#528dba;fill-opacity:1;stroke:none" id="path4946-9-2-8-1"
          d="m 285,1031.7372 c 0,4.2901 -3.47778,7.7678 -7.76785,7.7678 -4.29007,0 -7.76786,-3.4777 -7.76786,-7.7678 0,-4.2901 3.47779,-7.7679 7.76786,-7.7679 4.29007,0 7.76785,3.4778 7.76785,7.7679 z"
          transform="matrix(0.3862069,0,0,0.3862069,5587.7229,1290.8375)"/>
    <path
      style="fill:#ffffff;fill-opacity:1;stroke:#000000;stroke-width:2.58928561;stroke-linejoin:round;stroke-miterlimit:4;stroke-opacity:1;stroke-dasharray:none"
      id="path4227-0-5-7"
      d="m 285,1031.7372 c 0,4.2901 -3.47778,7.7678 -7.76785,7.7678 -4.29007,0 -7.76786,-3.4777 -7.76786,-7.7678 0,-4.2901 3.47779,-7.7679 7.76786,-7.7679 4.29007,0 7.76785,3.4778 7.76785,7.7679 z"
      transform="matrix(0.77241381,0,0,0.77241381,4588.7894,463.54802)"/>
    <path transform="matrix(3.6923078,-7.0710678e-8,7.0710678e-8,2.2857143,3633.8702,-1100.5389)"
          d="m 345.5,1032.9247 c 0,0.7249 -0.36377,1.3125 -0.8125,1.3125 -0.44873,0 -0.8125,-0.5876 -0.8125,-1.3125 0,-0.7249 0.36377,-1.3125 0.8125,-1.3125 0.44873,0 0.8125,0.5876 0.8125,1.3125 z"
          id="path4358-9-7-3" style="fill:#ffffff;fill-opacity:1;stroke:none"/>
    <path style="fill:#ffffff;fill-opacity:1;stroke:none" id="path6313-9-8"
          d="m 345.5,1032.9247 c 0,0.7249 -0.36377,1.3125 -0.8125,1.3125 -0.44873,0 -0.8125,-0.5876 -0.8125,-1.3125 0,-0.7249 0.36377,-1.3125 0.8125,-1.3125 0.44873,0 0.8125,0.5876 0.8125,1.3125 z"
          transform="matrix(3.6923078,-7.0710678e-8,7.0710678e-8,2.2857143,3588.9689,-1100.5388)"/>
    <path transform="matrix(3.6923078,-7.0710678e-8,7.0710678e-8,2.2857143,3488.2062,-1100.5389)"
          d="m 345.5,1032.9247 c 0,0.7249 -0.36377,1.3125 -0.8125,1.3125 -0.44873,0 -0.8125,-0.5876 -0.8125,-1.3125 0,-0.7249 0.36377,-1.3125 0.8125,-1.3125 0.44873,0 0.8125,0.5876 0.8125,1.3125 z"
          id="path6341-3-3" style="fill:#ffffff;fill-opacity:1;stroke:none"/>
    <path style="fill:#ffffff;fill-opacity:1;stroke:none" id="path6351-8-7"
          d="m 345.5,1032.9247 c 0,0.7249 -0.36377,1.3125 -0.8125,1.3125 -0.44873,0 -0.8125,-0.5876 -0.8125,-1.3125 0,-0.7249 0.36377,-1.3125 0.8125,-1.3125 0.44873,0 0.8125,0.5876 0.8125,1.3125 z"
          transform="matrix(3.6923078,-7.0710678e-8,7.0710678e-8,2.2857143,3448.2064,-1100.5388)"/>
    <path style="fill:#ffffff;fill-opacity:1;stroke:none" id="path6359-0-3"
          d="m 345.5,1032.9247 c 0,0.7249 -0.36377,1.3125 -0.8125,1.3125 -0.44873,0 -0.8125,-0.5876 -0.8125,-1.3125 0,-0.7249 0.36377,-1.3125 0.8125,-1.3125 0.44873,0 0.8125,0.5876 0.8125,1.3125 z"
          transform="matrix(3.6923078,-7.0710678e-8,7.0710678e-8,2.2857143,3408.2061,-1100.5388)"/>
    <path style="fill:#ffffff;fill-opacity:1;stroke:none" id="path6377-2-8"
          d="m 345.5,1032.9247 c 0,0.7249 -0.36377,1.3125 -0.8125,1.3125 -0.44873,0 -0.8125,-0.5876 -0.8125,-1.3125 0,-0.7249 0.36377,-1.3125 0.8125,-1.3125 0.44873,0 0.8125,0.5876 0.8125,1.3125 z"
          transform="matrix(3.6923078,-7.0710678e-8,7.0710678e-8,2.2857143,3530.2164,-1027.8162)"/>
    <path transform="matrix(3.6923078,-7.0710678e-8,7.0710678e-8,2.2857143,3374.7986,-1119.9432)"
          d="m 345.5,1032.9247 c 0,0.7249 -0.36377,1.3125 -0.8125,1.3125 -0.44873,0 -0.8125,-0.5876 -0.8125,-1.3125 0,-0.7249 0.36377,-1.3125 0.8125,-1.3125 0.44873,0 0.8125,0.5876 0.8125,1.3125 z"
          id="path6383-5-1" style="fill:#ffffff;fill-opacity:1;stroke:none"/>
    <path transform="matrix(0.77241381,0,0,0.77241381,4375.4144,386.13029)"
          d="m 285,1031.7372 c 0,4.2901 -3.47778,7.7678 -7.76785,7.7678 -4.29007,0 -7.76786,-3.4777 -7.76786,-7.7678 0,-4.2901 3.47779,-7.7679 7.76786,-7.7679 4.29007,0 7.76785,3.4778 7.76785,7.7679 z"
          id="path4577-2-8-2-6-8"
          style="fill:#ffffff;fill-opacity:1;stroke:#000000;stroke-width:2.58928561;stroke-linejoin:round;stroke-miterlimit:4;stroke-opacity:1;stroke-dasharray:none"/>
    <path style="fill:#da421e;fill-opacity:1;stroke:none" id="path4946-9-3-6-7-3"
          d="m 285,1031.7372 c 0,4.2901 -3.47778,7.7678 -7.76785,7.7678 -4.29007,0 -7.76786,-3.4777 -7.76786,-7.7678 0,-4.2901 3.47779,-7.7679 7.76786,-7.7679 4.29007,0 7.76785,3.4778 7.76785,7.7679 z"
          transform="matrix(0.3862069,0,0,0.3862069,4482.4836,784.59452)"/>
    <path transform="matrix(3.6923078,-7.0710678e-8,7.0710678e-8,2.2857143,3530.2164,-1138.4781)"
          d="m 345.5,1032.9247 c 0,0.7249 -0.36377,1.3125 -0.8125,1.3125 -0.44873,0 -0.8125,-0.5876 -0.8125,-1.3125 0,-0.7249 0.36377,-1.3125 0.8125,-1.3125 0.44873,0 0.8125,0.5876 0.8125,1.3125 z"
          id="path6440-6-4" style="fill:#ffffff;fill-opacity:1;stroke:none"/>
    <path style="fill:#ffffff;fill-opacity:1;stroke:none" id="path6481-1-1"
          d="m 345.5,1032.9247 c 0,0.7249 -0.36377,1.3125 -0.8125,1.3125 -0.44873,0 -0.8125,-0.5876 -0.8125,-1.3125 0,-0.7249 0.36377,-1.3125 0.8125,-1.3125 0.44873,0 0.8125,0.5876 0.8125,1.3125 z"
          transform="matrix(3.6923078,-7.0710678e-8,7.0710678e-8,2.2857143,3530.2164,-1168.4781)"/>
    <path style="fill:#ffffff;fill-opacity:1;stroke:none" id="path6483-9-4"
          d="m 345.5,1032.9247 c 0,0.7249 -0.36377,1.3125 -0.8125,1.3125 -0.44873,0 -0.8125,-0.5876 -0.8125,-1.3125 0,-0.7249 0.36377,-1.3125 0.8125,-1.3125 0.44873,0 0.8125,0.5876 0.8125,1.3125 z"
          transform="matrix(3.6923078,-7.0710678e-8,7.0710678e-8,2.2857143,3530.2163,-1198.4785)"/>
    <path transform="matrix(3.6923078,-7.0710678e-8,7.0710678e-8,2.2857143,3503.3607,-1221.7569)"
          d="m 345.5,1032.9247 c 0,0.7249 -0.36377,1.3125 -0.8125,1.3125 -0.44873,0 -0.8125,-0.5876 -0.8125,-1.3125 0,-0.7249 0.36377,-1.3125 0.8125,-1.3125 0.44873,0 0.8125,0.5876 0.8125,1.3125 z"
          id="path6531-2-2" style="fill:#ffffff;fill-opacity:1;stroke:none"/>
    <path transform="matrix(3.6923078,-7.0710678e-8,7.0710678e-8,2.2857143,3463.3605,-1221.7569)"
          d="m 345.5,1032.9247 c 0,0.7249 -0.36377,1.3125 -0.8125,1.3125 -0.44873,0 -0.8125,-0.5876 -0.8125,-1.3125 0,-0.7249 0.36377,-1.3125 0.8125,-1.3125 0.44873,0 0.8125,0.5876 0.8125,1.3125 z"
          id="path6539-5-6" style="fill:#ffffff;fill-opacity:1;stroke:none"/>
    <path style="fill:#ffffff;fill-opacity:1;stroke:none" id="path6549-9-6"
          d="m 345.5,1032.9247 c 0,0.7249 -0.36377,1.3125 -0.8125,1.3125 -0.44873,0 -0.8125,-0.5876 -0.8125,-1.3125 0,-0.7249 0.36377,-1.3125 0.8125,-1.3125 0.44873,0 0.8125,0.5876 0.8125,1.3125 z"
          transform="matrix(3.6923078,-7.0710678e-8,7.0710678e-8,2.2857143,3423.3606,-1221.7569)"/>
    <path style="fill:#ffffff;fill-opacity:1;stroke:none" id="path6557-2-9"
          d="m 345.5,1032.9247 c 0,0.7249 -0.36377,1.3125 -0.8125,1.3125 -0.44873,0 -0.8125,-0.5876 -0.8125,-1.3125 0,-0.7249 0.36377,-1.3125 0.8125,-1.3125 0.44873,0 0.8125,0.5876 0.8125,1.3125 z"
          transform="matrix(3.6923078,-7.0710678e-8,7.0710678e-8,2.2857143,3383.36,-1221.7569)"/>
    <path transform="matrix(3.6923078,-7.0710678e-8,7.0710678e-8,2.2857143,3343.3604,-1221.7568)"
          d="m 345.5,1032.9247 c 0,0.7249 -0.36377,1.3125 -0.8125,1.3125 -0.44873,0 -0.8125,-0.5876 -0.8125,-1.3125 0,-0.7249 0.36377,-1.3125 0.8125,-1.3125 0.44873,0 0.8125,0.5876 0.8125,1.3125 z"
          id="path6582-4-7" style="fill:#ffffff;fill-opacity:1;stroke:none"/>
    <path transform="matrix(3.6923078,-7.0710678e-8,7.0710678e-8,2.2857143,3303.3599,-1221.7569)"
          d="m 345.5,1032.9247 c 0,0.7249 -0.36377,1.3125 -0.8125,1.3125 -0.44873,0 -0.8125,-0.5876 -0.8125,-1.3125 0,-0.7249 0.36377,-1.3125 0.8125,-1.3125 0.44873,0 0.8125,0.5876 0.8125,1.3125 z"
          id="path6590-9-3" style="fill:#ffffff;fill-opacity:1;stroke:none"/>
    <path style="fill:#ffffff;fill-opacity:1;stroke:none" id="path6596-7-5"
          d="m 345.5,1032.9247 c 0,0.7249 -0.36377,1.3125 -0.8125,1.3125 -0.44873,0 -0.8125,-0.5876 -0.8125,-1.3125 0,-0.7249 0.36377,-1.3125 0.8125,-1.3125 0.44873,0 0.8125,0.5876 0.8125,1.3125 z"
          transform="matrix(3.6923078,-7.0710678e-8,7.0710678e-8,2.2857143,3263.3604,-1221.7571)"/>
    <path style="fill:#ffffff;fill-opacity:1;stroke:none" id="path6604-5-6"
          d="m 345.5,1032.9247 c 0,0.7249 -0.36377,1.3125 -0.8125,1.3125 -0.44873,0 -0.8125,-0.5876 -0.8125,-1.3125 0,-0.7249 0.36377,-1.3125 0.8125,-1.3125 0.44873,0 0.8125,0.5876 0.8125,1.3125 z"
          transform="matrix(3.6923078,-7.0710678e-8,7.0710678e-8,2.2857143,3223.36,-1221.7568)"/>
    <path style="fill:#ffffff;fill-opacity:1;stroke:none" id="path6626-2-4"
          d="m 345.5,1032.9247 c 0,0.7249 -0.36377,1.3125 -0.8125,1.3125 -0.44873,0 -0.8125,-0.5876 -0.8125,-1.3125 0,-0.7249 0.36377,-1.3125 0.8125,-1.3125 0.44873,0 0.8125,0.5876 0.8125,1.3125 z"
          transform="matrix(3.6923078,-7.0710678e-8,7.0710678e-8,2.2857143,3350.0497,-1144.6922)"/>
    <path transform="matrix(0.77241381,0,0,0.77241381,4230.206,342.27948)"
          d="m 285,1031.7372 c 0,4.2901 -3.47778,7.7678 -7.76785,7.7678 -4.29007,0 -7.76786,-3.4777 -7.76786,-7.7678 0,-4.2901 3.47779,-7.7679 7.76786,-7.7679 4.29007,0 7.76785,3.4778 7.76785,7.7679 z"
          id="path5070-54-6-9-9"
          style="fill:#ffffff;fill-opacity:1;stroke:#000000;stroke-width:2.58928561;stroke-linejoin:round;stroke-miterlimit:4;stroke-opacity:1;stroke-dasharray:none"/>
    <path style="fill:#528dba;fill-opacity:1;stroke:none" id="path4946-9-2-5-5-2"
          d="m 285,1031.7372 c 0,4.2901 -3.47778,7.7678 -7.76785,7.7678 -4.29007,0 -7.76786,-3.4777 -7.76786,-7.7678 0,-4.2901 3.47779,-7.7679 7.76786,-7.7679 4.29007,0 7.76785,3.4778 7.76785,7.7679 z"
          transform="matrix(0.3862069,0,0,0.3862069,4337.2748,740.74394)"/>
    <path style="fill:#ffffff;fill-opacity:1;stroke:none" id="path5569-2-4-1"
          d="m 345.5,1032.9247 c 0,0.7249 -0.36377,1.3125 -0.8125,1.3125 -0.44873,0 -0.8125,-0.5876 -0.8125,-1.3125 0,-0.7249 0.36377,-1.3125 0.8125,-1.3125 0.44873,0 0.8125,0.5876 0.8125,1.3125 z"
          transform="matrix(3.6923078,-7.0710678e-8,7.0710678e-8,2.2857143,4503.6055,-1127.9048)"/>
    <path style="fill:#ffffff;fill-opacity:1;stroke:none" id="path5581-1-0-8"
          d="m 345.5,1032.9247 c 0,0.7249 -0.36377,1.3125 -0.8125,1.3125 -0.44873,0 -0.8125,-0.5876 -0.8125,-1.3125 0,-0.7249 0.36377,-1.3125 0.8125,-1.3125 0.44873,0 0.8125,0.5876 0.8125,1.3125 z"
          transform="matrix(3.6923078,-7.0710678e-8,7.0710678e-8,2.2857143,4483.232,-1148.2781)"/>
    <path transform="matrix(3.6923078,-7.0710678e-8,7.0710678e-8,2.2857143,4462.814,-1168.6958)"
          d="m 345.5,1032.9247 c 0,0.7249 -0.36377,1.3125 -0.8125,1.3125 -0.44873,0 -0.8125,-0.5876 -0.8125,-1.3125 0,-0.7249 0.36377,-1.3125 0.8125,-1.3125 0.44873,0 0.8125,0.5876 0.8125,1.3125 z"
          id="path5583-4-8-5" style="fill:#ffffff;fill-opacity:1;stroke:none"/>
    <path transform="matrix(3.6923078,-7.0710678e-8,7.0710678e-8,2.2857143,4539.1056,-1127.9048)"
          d="m 345.5,1032.9247 c 0,0.7249 -0.36377,1.3125 -0.8125,1.3125 -0.44873,0 -0.8125,-0.5876 -0.8125,-1.3125 0,-0.7249 0.36377,-1.3125 0.8125,-1.3125 0.44873,0 0.8125,0.5876 0.8125,1.3125 z"
          id="path6780-7-1" style="fill:#ffffff;fill-opacity:1;stroke:none"/>
    <path transform="matrix(3.6923078,-7.0710678e-8,7.0710678e-8,2.2857143,4559.4086,-1148.2784)"
          d="m 345.5,1032.9247 c 0,0.7249 -0.36377,1.3125 -0.8125,1.3125 -0.44873,0 -0.8125,-0.5876 -0.8125,-1.3125 0,-0.7249 0.36377,-1.3125 0.8125,-1.3125 0.44873,0 0.8125,0.5876 0.8125,1.3125 z"
          id="path6782-4-1" style="fill:#ffffff;fill-opacity:1;stroke:none"/>
    <path style="fill:#ffffff;fill-opacity:1;stroke:none" id="path6784-6-5"
          d="m 345.5,1032.9247 c 0,0.7249 -0.36377,1.3125 -0.8125,1.3125 -0.44873,0 -0.8125,-0.5876 -0.8125,-1.3125 0,-0.7249 0.36377,-1.3125 0.8125,-1.3125 0.44873,0 0.8125,0.5876 0.8125,1.3125 z"
          transform="matrix(3.6923078,-7.0710678e-8,7.0710678e-8,2.2857143,4579.8188,-1168.696)"/>
    <path style="fill:#ffffff;fill-opacity:1;stroke:none" id="path6817-0-5"
          d="m 345.5,1032.9247 c 0,0.7249 -0.36377,1.3125 -0.8125,1.3125 -0.44873,0 -0.8125,-0.5876 -0.8125,-1.3125 0,-0.7249 0.36377,-1.3125 0.8125,-1.3125 0.44873,0 0.8125,0.5876 0.8125,1.3125 z"
          transform="matrix(3.6923078,-7.0710678e-8,7.0710678e-8,2.2857143,4600.2441,-1189.1137)"/>
    <path transform="matrix(3.6923078,-7.0710678e-8,7.0710678e-8,2.2857143,4620.6545,-1209.5314)"
          d="m 345.5,1032.9247 c 0,0.7249 -0.36377,1.3125 -0.8125,1.3125 -0.44873,0 -0.8125,-0.5876 -0.8125,-1.3125 0,-0.7249 0.36377,-1.3125 0.8125,-1.3125 0.44873,0 0.8125,0.5876 0.8125,1.3125 z"
          id="path6819-3-3" style="fill:#ffffff;fill-opacity:1;stroke:none"/>
    <path transform="matrix(3.6923078,-7.0710678e-8,7.0710678e-8,2.2857143,4641.1626,-1230.0396)"
          d="m 345.5,1032.9247 c 0,0.7249 -0.36377,1.3125 -0.8125,1.3125 -0.44873,0 -0.8125,-0.5876 -0.8125,-1.3125 0,-0.7249 0.36377,-1.3125 0.8125,-1.3125 0.44873,0 0.8125,0.5876 0.8125,1.3125 z"
          id="path6837-1-4" style="fill:#ffffff;fill-opacity:1;stroke:none"/>
    <path transform="matrix(3.6923078,-7.0710678e-8,7.0710678e-8,2.2857143,4661.5879,-1250.4575)"
          d="m 345.5,1032.9247 c 0,0.7249 -0.36377,1.3125 -0.8125,1.3125 -0.44873,0 -0.8125,-0.5876 -0.8125,-1.3125 0,-0.7249 0.36377,-1.3125 0.8125,-1.3125 0.44873,0 0.8125,0.5876 0.8125,1.3125 z"
          id="path6839-7-7" style="fill:#ffffff;fill-opacity:1;stroke:none"/>
    <path style="fill:#ffffff;fill-opacity:1;stroke:none" id="path6841-4-4"
          d="m 345.5,1032.9247 c 0,0.7249 -0.36377,1.3125 -0.8125,1.3125 -0.44873,0 -0.8125,-0.5876 -0.8125,-1.3125 0,-0.7249 0.36377,-1.3125 0.8125,-1.3125 0.44873,0 0.8125,0.5876 0.8125,1.3125 z"
          transform="matrix(3.6923078,-7.0710678e-8,7.0710678e-8,2.2857143,4682,-1270.8751)"/>
    <path transform="matrix(0.77241381,0,0,0.77241381,5765.3359,268.61214)"
          d="m 285,1031.7372 c 0,4.2901 -3.47778,7.7678 -7.76785,7.7678 -4.29007,0 -7.76786,-3.4777 -7.76786,-7.7678 0,-4.2901 3.47779,-7.7679 7.76786,-7.7679 4.29007,0 7.76785,3.4778 7.76785,7.7679 z"
          id="path5360-3-2-3"
          style="fill:#ffffff;fill-opacity:1;stroke:#000000;stroke-width:2.58928561;stroke-linejoin:round;stroke-miterlimit:4;stroke-opacity:1;stroke-dasharray:none"/>
    <path style="fill:#7e5330;fill-opacity:1;stroke:none" id="path4946-8-2-3-8-1"
          d="m 285,1031.7372 c 0,4.2901 -3.47778,7.7678 -7.76785,7.7678 -4.29007,0 -7.76786,-3.4777 -7.76786,-7.7678 0,-4.2901 3.47779,-7.7679 7.76786,-7.7679 4.29007,0 7.76785,3.4778 7.76785,7.7679 z"
          transform="matrix(0.3862069,0,0,0.3862069,5872.4051,667.07662)"/>
    <path transform="matrix(3.6923078,-7.0710678e-8,7.0710678e-8,2.2857143,3818.7881,-1510.6801)"
          d="m 345.5,1032.9247 c 0,0.7249 -0.36377,1.3125 -0.8125,1.3125 -0.44873,0 -0.8125,-0.5876 -0.8125,-1.3125 0,-0.7249 0.36377,-1.3125 0.8125,-1.3125 0.44873,0 0.8125,0.5876 0.8125,1.3125 z"
          id="path7283-7-7" style="fill:#ffffff;fill-opacity:1;stroke:none"/>
    <path transform="matrix(3.6923078,-7.0710678e-8,7.0710678e-8,2.2857143,3811.3914,-1545.4144)"
          d="m 345.5,1032.9247 c 0,0.7249 -0.36377,1.3125 -0.8125,1.3125 -0.44873,0 -0.8125,-0.5876 -0.8125,-1.3125 0,-0.7249 0.36377,-1.3125 0.8125,-1.3125 0.44873,0 0.8125,0.5876 0.8125,1.3125 z"
          id="path7283-1-4-7" style="fill:#ffffff;fill-opacity:1;stroke:none"/>
    <path style="fill:#ffffff;fill-opacity:1;stroke:none" id="path7313-3-0"
          d="m 345.5,1032.9247 c 0,0.7249 -0.36377,1.3125 -0.8125,1.3125 -0.44873,0 -0.8125,-0.5876 -0.8125,-1.3125 0,-0.7249 0.36377,-1.3125 0.8125,-1.3125 0.44873,0 0.8125,0.5876 0.8125,1.3125 z"
          transform="matrix(3.6923078,-7.0710678e-8,7.0710678e-8,2.2857143,3811.3914,-1570.4139)"/>
    <path transform="matrix(3.6923078,-7.0710678e-8,7.0710678e-8,2.2857143,3675.1842,-870.24876)"
          d="m 345.5,1032.9247 c 0,0.7249 -0.36377,1.3125 -0.8125,1.3125 -0.44873,0 -0.8125,-0.5876 -0.8125,-1.3125 0,-0.7249 0.36377,-1.3125 0.8125,-1.3125 0.44873,0 0.8125,0.5876 0.8125,1.3125 z"
          id="path6509" style="fill:#ffffff;fill-opacity:1;stroke:none"/>
    <path style="fill:#ffffff;fill-opacity:1;stroke:none" id="path6515"
          d="m 345.5,1032.9247 c 0,0.7249 -0.36377,1.3125 -0.8125,1.3125 -0.44873,0 -0.8125,-0.5876 -0.8125,-1.3125 0,-0.7249 0.36377,-1.3125 0.8125,-1.3125 0.44873,0 0.8125,0.5876 0.8125,1.3125 z"
          transform="matrix(3.6923078,-7.0710678e-8,7.0710678e-8,2.2857143,3675.1842,-832.10601)"/>
    <path transform="matrix(3.6923078,-7.0710678e-8,7.0710678e-8,2.2857143,3675.1842,-793.98093)"
          d="m 345.5,1032.9247 c 0,0.7249 -0.36377,1.3125 -0.8125,1.3125 -0.44873,0 -0.8125,-0.5876 -0.8125,-1.3125 0,-0.7249 0.36377,-1.3125 0.8125,-1.3125 0.44873,0 0.8125,0.5876 0.8125,1.3125 z"
          id="path6532" style="fill:#ffffff;fill-opacity:1;stroke:none"/>
    <path
      style="fill:#ffffff;fill-opacity:1;stroke:#000000;stroke-width:2.58928561;stroke-linejoin:round;stroke-miterlimit:4;stroke-opacity:1;stroke-dasharray:none"
      id="path5723"
      d="m 285,1031.7372 c 0,4.2901 -3.47778,7.7678 -7.76785,7.7678 -4.29007,0 -7.76786,-3.4777 -7.76786,-7.7678 0,-4.2901 3.47779,-7.7679 7.76786,-7.7679 4.29007,0 7.76785,3.4778 7.76785,7.7679 z"
      transform="matrix(0.77241381,0,0,0.77241381,5054.883,377.32445)"/>
    <path transform="matrix(0.77241381,0,0,0.77241381,4895.0769,377.32445)"
          d="m 285,1031.7372 c 0,4.2901 -3.47778,7.7678 -7.76785,7.7678 -4.29007,0 -7.76786,-3.4777 -7.76786,-7.7678 0,-4.2901 3.47779,-7.7679 7.76786,-7.7679 4.29007,0 7.76785,3.4778 7.76785,7.7679 z"
          id="path5733"
          style="fill:#ffffff;fill-opacity:1;stroke:#000000;stroke-width:2.58928561;stroke-linejoin:round;stroke-miterlimit:4;stroke-opacity:1;stroke-dasharray:none"/>
    <path style="fill:#7e5330;fill-opacity:1;stroke:none" id="path4946-8-1-2-4"
          d="m 285,1031.7372 c 0,4.2901 -3.47778,7.7678 -7.76785,7.7678 -4.29007,0 -7.76786,-3.4777 -7.76786,-7.7678 0,-4.2901 3.47779,-7.7679 7.76786,-7.7679 4.29007,0 7.76785,3.4778 7.76785,7.7679 z"
          transform="matrix(0.3862069,0,0,0.3862069,5002.1457,775.78848)"/>
    <path style="fill:#ffffff;fill-opacity:1;stroke:none" id="path5992"
          d="m 345.5,1032.9247 a 0.8125,1.3125 0 1 1 -1.625,0 0.8125,1.3125 0 1 1 1.625,0 z"
          transform="matrix(3.6923078,-7.0710678e-8,7.0710678e-8,2.2857143,4030.2195,-1186.778)"/>
  </g>
</svg>