<svg xmlns="http://www.w3.org/2000/svg" width="1660.0938" height="1003.6875" version="1.1" style="background: gray;">
  <g transform="translate(100,550)">
    <g id="lines" fill="none" stroke-width="8">
      <path id="U1" stroke="#7dad4c" d="M511.5498 607.35L1170.7998 607.35"/>
      <path id="U2" stroke-linejoin="round" stroke="#da421e"
            d="M220.8392 454.778C220.8392 454.778 285.7779 519.7167 292.4512 526.39S306.5982 532.2024 306.5982 532.2024L432.8982 532.2024L434.6661 532.2024C505.3161 532.2024 548.5248 532.2024 552.2261 532.2024S566.3641 538.0307 566.3641 538.0307L618.4801 590.1467C618.4801 590.1467 623.745 596.0161 632.6511 596.0161C634.9881 596.0161 672.8491 596.0161 700.7951 596.0161C700.7951 596.0161 707.9911 595.8606 713.5911 601.459L751.7891 639.657C751.7891 639.657 756.9658 645.5211 765.9031 645.5211C774.8411 645.5211 779.5911 640.1461 780.0911 639.6461C780.5912 639.1461 785.9033 634.3335 785.9033 625.5211C785.9033 621.8152 785.9913 611.8661 785.9913 611.9071L785.9043 607.9071L785.9043 547.9691C785.9043 547.9691 785.6491 539.92 791.7426 533.8261C797.8368 527.7324 804.8681 527.9512 805.9306 527.9512L899.3486 527.9512C915.7516 527.9512 927.7916 527.9512 927.7916 527.9512S935.7717 528.2772 941.8966 522.152C948.0166 516.032 1064.3666 399.682 1064.3666 399.682S1070.1998 394.5414 1070.1998 385.57S1070.1998 256.03 1070.1998 256.03"/>
      <path id="U3" stroke-linejoin="round" stroke="#007a5b"
            d="M296.0888 943.0095L613.8788 625.2195C613.8788 625.2195 619.1435 619.35 628.0498 619.35L1170.1998 619.35"/>
      <path id="U4" stroke="#f0d722" d="M685.0998 802.55L685.0998 620.61"/>
      <path id="U5" stroke="#7e5330"
            d="M740.2848 445.9638C740.2848 445.9638 1331.4138 445.9638 1340.5148 445.9638S1354.6158 451.7722 1354.6158 451.7722L1411.2368 508.3932C1411.2368 508.3932 1415.9706 514.2021 1425.3398 514.2021S1439.5698 508.28 1439.5698 508.28L1611.3998 336.45"/>
      <path id="U6" stroke="#8c6dab"
            d="m562.2998,93.66s325.74,325.74 332.17,332.17s5.8635,14.078 5.8635,14.078l0,498.68"/>
      <path id="U7" stroke-linejoin="round" stroke="#528dba"
            d="M1328.0299 962.844C1328.0299 962.844 1077.9638 712.7776 1071.6199 706.434C1065.2763 700.0901 1057.4839 700.5945 1057.4839 700.5945C1057.4839 700.5945 938.344 700.5945 929.0939 700.5945C919.8443 700.5948 914.9549 694.7679 914.9549 694.7679C914.9549 694.7679 863.8646 643.3244 857.5519 637.0119C851.2398 630.6995 843.4059 631.1174 843.4059 631.1174C834.3022 631.1174 829.2419 636.9657 829.2419 636.9657C829.2419 636.9657 779.2039 687.0027 752.8209 713.3867C746.3407 719.8669 738.6939 719.2535 738.6939 719.2535C721.96015 719.2535 711.9199 719.2535 685.1459 719.2535C620.69278 719.24947 582.0209 719.24705 478.8959 719.2406C478.8959 719.2406 471.1521 719.8101 464.7219 713.38C458.2919 706.95 440.1349 688.793 440.1349 688.793C440.1349 688.793 434.2414 683.8046 434.2414 674.617C434.2414 598.467 434.2414 552.777 434.2414 430.937C434.2414 430.937 434.7054 423.1475 428.4298 416.872C422.1547 410.5964 415.8792 410.95 414.1998 410.95C412.5198 410.95 75.4998 410.95 75.4998 410.95"/>
      <path id="U8" stroke="#224f86"
            d="m715.3998,27.84l0,78.562s-0.574,7.6404 5.8635,14.078c3.2842,3.2842 0.4636,0.4634 100.24,100.24l2.148,2.1692c99.781,99.781 185.29,185.29 188.58,188.58c6.4375,6.4375 5.8635,14.078 5.8635,14.078l0,384.03"/>
      <path id="U9" stroke="#f3791d"
            d="M532.6033 895.295C532.6033 895.295 567.0591 860.839 573.4343 854.464S579.2664 840.352 579.2664 840.352L579.2664 473.242C579.2664 473.242 578.6034 465.6065 585.1 459.11L823 221.21"/>
    </g>
    <g id="stations" transform="translate(-4368.7187,-728.25)">

      <path transform="matrix(0.77241381,0,0,0.77241381,4733.7589,650.56973)"
            d="m 285,1031.7372 c 0,4.2901 -3.47778,7.7678 -7.76785,7.7678 -4.29007,0 -7.76786,-3.4777 -7.76786,-7.7678 0,-4.2901 3.47779,-7.7679 7.76786,-7.7679 4.29007,0 7.76785,3.4778 7.76785,7.7679 z"
            id="de:11000:900044201"
            style="fill:#ffffff;fill-opacity:1;stroke:#000000;stroke-width:2.58928561;stroke-linejoin:round;stroke-miterlimit:4;stroke-opacity:1;stroke-dasharray:none"/>
      <path style="fill:#ffffff;fill-opacity:1;stroke:none" id="de:11000:900041102"
            d="m 345.5,1032.9247 c 0,0.7249 -0.36377,1.3125 -0.8125,1.3125 -0.44873,0 -0.8125,-0.5876 -0.8125,-1.3125 0,-0.7249 0.36377,-1.3125 0.8125,-1.3125 0.44873,0 0.8125,0.5876 0.8125,1.3125 z"
            transform="matrix(3.6923078,-7.0710678e-8,7.0710678e-8,2.2857143,3648.5916,-913.47441)"/>
      <path
        style="fill:#ffffff;fill-opacity:1;stroke:#000000;stroke-width:2.58928561;stroke-linejoin:round;stroke-miterlimit:4;stroke-opacity:1;stroke-dasharray:none"
        id="de:11000:900042101"
        d="m 285,1031.7372 c 0,4.2901 -3.47778,7.7678 -7.76785,7.7678 -4.29007,0 -7.76786,-3.4777 -7.76786,-7.7678 0,-4.2901 3.47779,-7.7679 7.76786,-7.7679 4.29007,0 7.76785,3.4778 7.76785,7.7679 z"
        transform="matrix(0.77241381,0,0,0.77241381,4733.7589,591.14113)"/>
      <path transform="matrix(3.6923078,-7.0710678e-8,7.0710678e-8,2.2857143,3656.9353,-765.79481)"
            d="m 345.5,1032.9247 c 0,0.7249 -0.36377,1.3125 -0.8125,1.3125 -0.44873,0 -0.8125,-0.5876 -0.8125,-1.3125 0,-0.7249 0.36377,-1.3125 0.8125,-1.3125 0.44873,0 0.8125,0.5876 0.8125,1.3125 z"
            id="de:11000:900062203" style="fill:#ffffff;fill-opacity:1;stroke:none"/>
      <path transform="matrix(0.77241381,0,0,0.77241381,4733.7589,538.73703)"
            d="m 285,1031.7372 c 0,4.2901 -3.47778,7.7678 -7.76785,7.7678 -4.29007,0 -7.76786,-3.4777 -7.76786,-7.7678 0,-4.2901 3.47779,-7.7679 7.76786,-7.7679 4.29007,0 7.76785,3.4778 7.76785,7.7679 z"
            id="de:11000:900023203"
            style="fill:#ffffff;fill-opacity:1;stroke:#000000;stroke-width:2.58928561;stroke-linejoin:round;stroke-miterlimit:4;stroke-opacity:1;stroke-dasharray:none"/>
      <path transform="matrix(3.6923078,-7.0710678e-8,7.0710678e-8,2.2857143,3548.2994,-931.68969)"
            d="m 345.5,1032.9247 c 0,0.7249 -0.36377,1.3125 -0.8125,1.3125 -0.44873,0 -0.8125,-0.5876 -0.8125,-1.3125 0,-0.7249 0.36377,-1.3125 0.8125,-1.3125 0.44873,0 0.8125,0.5876 0.8125,1.3125 z"
            id="de:11000:900041201" style="fill:#ffffff;fill-opacity:1;stroke:none"/>
      <path style="fill:#ffffff;fill-opacity:1;stroke:none" id="de:11000:900045102"
            d="m 345.5,1032.9247 c 0,0.7249 -0.36377,1.3125 -0.8125,1.3125 -0.44873,0 -0.8125,-0.5876 -0.8125,-1.3125 0,-0.7249 0.36377,-1.3125 0.8125,-1.3125 0.44873,0 0.8125,0.5876 0.8125,1.3125 z"
            transform="matrix(3.6923078,-7.0710678e-8,7.0710678e-8,2.2857143,3589.3432,-887.03696)"/>
      <path transform="matrix(3.6923078,-7.0710678e-8,7.0710678e-8,2.2857143,3564.8433,-862.53705)"
            d="m 345.5,1032.9247 c 0,0.7249 -0.36377,1.3125 -0.8125,1.3125 -0.44873,0 -0.8125,-0.5876 -0.8125,-1.3125 0,-0.7249 0.36377,-1.3125 0.8125,-1.3125 0.44873,0 0.8125,0.5876 0.8125,1.3125 z"
            id="de:11000:900045101" style="fill:#ffffff;fill-opacity:1;stroke:none"/>
      <path style="fill:#ffffff;fill-opacity:1;stroke:none" id="de:11000:900051202"
            d="m 345.5,1032.9247 c 0,0.7249 -0.36377,1.3125 -0.8125,1.3125 -0.44873,0 -0.8125,-0.5876 -0.8125,-1.3125 0,-0.7249 0.36377,-1.3125 0.8125,-1.3125 0.44873,0 0.8125,0.5876 0.8125,1.3125 z"
            transform="matrix(3.6923078,-7.0710678e-8,7.0710678e-8,2.2857143,3540.345,-838.03877)"/>
      <path style="fill:#ffffff;fill-opacity:1;stroke:none" id="de:11000:900051302"
            d="m 345.5,1032.9247 c 0,0.7249 -0.36377,1.3125 -0.8125,1.3125 -0.44873,0 -0.8125,-0.5876 -0.8125,-1.3125 0,-0.7249 0.36377,-1.3125 0.8125,-1.3125 0.44873,0 0.8125,0.5876 0.8125,1.3125 z"
            transform="matrix(3.6923078,-7.0710678e-8,7.0710678e-8,2.2857143,3515.8408,-813.53484)"/>
      <path transform="matrix(3.6923078,-7.0710678e-8,7.0710678e-8,2.2857143,3491.3426,-789.03649)"
            d="m 345.5,1032.9247 c 0,0.7249 -0.36377,1.3125 -0.8125,1.3125 -0.44873,0 -0.8125,-0.5876 -0.8125,-1.3125 0,-0.7249 0.36377,-1.3125 0.8125,-1.3125 0.44873,0 0.8125,0.5876 0.8125,1.3125 z"
            id="de:11000:900051303" style="fill:#ffffff;fill-opacity:1;stroke:none"/>
      <path style="fill:#ffffff;fill-opacity:1;stroke:none" id="de:11000:900051201"
            d="m 345.5,1032.9247 c 0,0.7249 -0.36377,1.3125 -0.8125,1.3125 -0.44873,0 -0.8125,-0.5876 -0.8125,-1.3125 0,-0.7249 0.36377,-1.3125 0.8125,-1.3125 0.44873,0 0.8125,0.5876 0.8125,1.3125 z"
            transform="matrix(3.6923078,-7.0710678e-8,7.0710678e-8,2.2857143,3466.8205,-764.51409)"/>
      <path transform="matrix(3.6923078,-7.0710678e-8,7.0710678e-8,2.2857143,3442.3224,-740.01596)"
            d="m 345.5,1032.9247 c 0,0.7249 -0.36377,1.3125 -0.8125,1.3125 -0.44873,0 -0.8125,-0.5876 -0.8125,-1.3125 0,-0.7249 0.36377,-1.3125 0.8125,-1.3125 0.44873,0 0.8125,0.5876 0.8125,1.3125 z"
            id="de:11000:900051301" style="fill:#ffffff;fill-opacity:1;stroke:none"/>
      <path transform="matrix(3.6923078,-7.0710678e-8,7.0710678e-8,2.2857143,3417.8182,-715.51195)"
            d="m 345.5,1032.9247 c 0,0.7249 -0.36377,1.3125 -0.8125,1.3125 -0.44873,0 -0.8125,-0.5876 -0.8125,-1.3125 0,-0.7249 0.36377,-1.3125 0.8125,-1.3125 0.44873,0 0.8125,0.5876 0.8125,1.3125 z"
            id="de:11000:900050282" style="fill:#ffffff;fill-opacity:1;stroke:none"/>
      <path style="fill:#ffffff;fill-opacity:1;stroke:none" id="de:11000:900023202"
            d="m 345.5,1032.9247 c 0,0.7249 -0.36377,1.3125 -0.8125,1.3125 -0.44873,0 -0.8125,-0.5876 -0.8125,-1.3125 0,-0.7249 0.36377,-1.3125 0.8125,-1.3125 0.44873,0 0.8125,0.5876 0.8125,1.3125 z"
            transform="matrix(3.6923078,-7.0710678e-8,7.0710678e-8,2.2857143,3700.5915,-998.28522)"/>
      <path
        style="fill:#ffffff;fill-opacity:1;stroke:#000000;stroke-width:2.58928561;stroke-linejoin:round;stroke-miterlimit:4;stroke-opacity:1;stroke-dasharray:none"
        id="de:11000:900023201"
        d="m 285,1031.7372 c 0,4.2901 -3.47778,7.7678 -7.76785,7.7678 -4.29007,0 -7.76786,-3.4777 -7.76786,-7.7678 0,-4.2901 3.47779,-7.7679 7.76786,-7.7679 4.29007,0 7.76785,3.4778 7.76785,7.7679 z"
        transform="matrix(0.77241381,0,0,0.77241381,4733.7589,482.23388)"/>
      <rect
        style="fill:#ffffff;fill-opacity:1;stroke:#000000;stroke-width:2stroke-linejoin:round;stroke-miterlimit:4;stroke-opacity:1;stroke-dasharray:none"
        id="de:11000:900056101" width="36" height="12" x="-1353.6605" y="4998.4639" ry="6" rx="6"
        transform="matrix(0,-1,1,0,0,0)"/>
      <rect rx="6" ry="6" y="5047.8452" x="-1353.6605" height="12" width="36" id="de:11000:900056102"
            style="fill:#ffffff;fill-opacity:1;stroke:#000000;stroke-width:2stroke-linejoin:round;stroke-miterlimit:4;stroke-opacity:1;stroke-dasharray:none"
            transform="matrix(0,-1,1,0,0,0)"/>
      <path
        style="fill:#ffffff;fill-opacity:1;stroke:#000000;stroke-width:2.58928561;stroke-linejoin:round;stroke-miterlimit:4;stroke-opacity:1;stroke-dasharray:none"
        id="de:11000:900055102"
        d="m 285,1031.7372 c 0,4.2901 -3.47778,7.7678 -7.76785,7.7678 -4.29007,0 -7.76786,-3.4777 -7.76786,-7.7678 0,-4.2901 3.47779,-7.7679 7.76786,-7.7679 4.29007,0 7.76785,3.4778 7.76785,7.7679 z"
        transform="matrix(0.77241381,0,0,0.77241381,4839.7365,650.56971)"/>
      <path transform="matrix(3.6923078,-7.0710678e-8,7.0710678e-8,2.2857143,3781.1662,-963.24235)"
            d="m 345.5,1032.9247 c 0,0.7249 -0.36377,1.3125 -0.8125,1.3125 -0.44873,0 -0.8125,-0.5876 -0.8125,-1.3125 0,-0.7249 0.36377,-1.3125 0.8125,-1.3125 0.44873,0 0.8125,0.5876 0.8125,1.3125 z"
            id="de:11000:900055101" style="fill:#ffffff;fill-opacity:1;stroke:none"/>
      <path style="fill:#ffffff;fill-opacity:1;stroke:none" id="de:11000:900054101"
            d="m 345.5,1032.9247 c 0,0.7249 -0.36377,1.3125 -0.8125,1.3125 -0.44873,0 -0.8125,-0.5876 -0.8125,-1.3125 0,-0.7249 0.36377,-1.3125 0.8125,-1.3125 0.44873,0 0.8125,0.5876 0.8125,1.3125 z"
            transform="matrix(3.6923078,-7.0710678e-8,7.0710678e-8,2.2857143,3781.1664,-870.36572)"/>
      <path transform="matrix(3.6923078,-7.0710678e-8,7.0710678e-8,2.2857143,3675.2547,-1141.013)"
            d="m 345.5,1032.9247 c 0,0.7249 -0.36377,1.3125 -0.8125,1.3125 -0.44873,0 -0.8125,-0.5876 -0.8125,-1.3125 0,-0.7249 0.36377,-1.3125 0.8125,-1.3125 0.44873,0 0.8125,0.5876 0.8125,1.3125 z"
            id="de:11000:900003101" style="fill:#ffffff;fill-opacity:1;stroke:none"/>
      <rect
        style="fill:#ffffff;fill-opacity:1;stroke:#000000;stroke-width:2stroke-linejoin:round;stroke-miterlimit:4;stroke-opacity:1;stroke-dasharray:none"
        id="de:11000:900017103" width="24" height="12" x="-1353.6605" y="5148.583" ry="6" rx="6"
        transform="matrix(0,-1,1,0,0,0)"/>
      <path transform="matrix(3.6923078,-7.0710678e-8,7.0710678e-8,2.2857143,3861.9406,-987.20903)"
            d="m 345.5,1032.9247 c 0,0.7249 -0.36377,1.3125 -0.8125,1.3125 -0.44873,0 -0.8125,-0.5876 -0.8125,-1.3125 0,-0.7249 0.36377,-1.3125 0.8125,-1.3125 0.44873,0 0.8125,0.5876 0.8125,1.3125 z"
            id="de:11000:900056104" style="fill:#ffffff;fill-opacity:1;stroke:none"/>
      <path transform="matrix(3.6923078,-7.0710678e-8,7.0710678e-8,2.2857143,3848.069,-1013.3877)"
            d="m 345.5,1032.9247 c 0,0.7249 -0.36377,1.3125 -0.8125,1.3125 -0.44873,0 -0.8125,-0.5876 -0.8125,-1.3125 0,-0.7249 0.36377,-1.3125 0.8125,-1.3125 0.44873,0 0.8125,0.5876 0.8125,1.3125 z"
            id="de:11000:900005201" style="fill:#ffffff;fill-opacity:1;stroke:none"/>
      <path style="fill:#ffffff;fill-opacity:1;stroke:none" id="de:11000:900005201"
            d="m 345.5,1032.9247 c 0,0.7249 -0.36377,1.3125 -0.8125,1.3125 -0.44873,0 -0.8125,-0.5876 -0.8125,-1.3125 0,-0.7249 0.36377,-1.3125 0.8125,-1.3125 0.44873,0 0.8125,0.5876 0.8125,1.3125 z"
            transform="matrix(3.6923078,-7.0710678e-8,7.0710678e-8,2.2857143,3848.0693,-1025.3252)"/>
      <path transform="matrix(3.6923078,-7.0710678e-8,7.0710678e-8,2.2857143,3881.9098,-1078.1215)"
            d="m 345.5,1032.9247 c 0,0.7249 -0.36377,1.3125 -0.8125,1.3125 -0.44873,0 -0.8125,-0.5876 -0.8125,-1.3125 0,-0.7249 0.36377,-1.3125 0.8125,-1.3125 0.44873,0 0.8125,0.5876 0.8125,1.3125 z"
            id="de:11000:900005252" style="fill:#ffffff;fill-opacity:1;stroke:none"/>
      <rect transform="matrix(0,-1,1,0,0,0)"
            style="fill:#ffffff;fill-opacity:1;stroke:#000000;stroke-width:2stroke-linejoin:round;stroke-miterlimit:4;stroke-opacity:1;stroke-dasharray:none"
            id="de:11000:900017104" width="36" height="12" x="-1365.6603" y="5205.8428" ry="6" rx="6"/>
      <rect transform="matrix(0,-1,1,0,0,0)" rx="6" ry="6" y="5263.0024" x="-1353.6605" height="12" width="24"
            id="de:11000:900012103"
            style="fill:#ffffff;fill-opacity:1;stroke:#000000;stroke-width:2stroke-linejoin:round;stroke-miterlimit:4;stroke-opacity:1;stroke-dasharray:none"/>
      <path
        style="fill:#ffffff;fill-opacity:1;stroke:#000000;stroke-width:2.58928561;stroke-linejoin:round;stroke-miterlimit:4;stroke-opacity:1;stroke-dasharray:none"
        id="de:11000:900017101"
        d="m 285,1031.7372 c 0,4.2901 -3.47778,7.7678 -7.76785,7.7678 -4.29007,0 -7.76786,-3.4777 -7.76786,-7.7678 0,-4.2901 3.47779,-7.7679 7.76786,-7.7679 4.29007,0 7.76785,3.4778 7.76785,7.7679 z"
        transform="matrix(0.77241381,0,0,0.77241381,5054.8726,611.47632)"/>
      <path style="fill:#ffffff;fill-opacity:1;stroke:none" id="de:11000:900058103"
            d="m 345.5,1032.9247 c 0,0.7249 -0.36377,1.3125 -0.8125,1.3125 -0.44873,0 -0.8125,-0.5876 -0.8125,-1.3125 0,-0.7249 0.36377,-1.3125 0.8125,-1.3125 0.44873,0 0.8125,0.5876 0.8125,1.3125 z"
            transform="matrix(3.6923078,-7.0710678e-8,7.0710678e-8,2.2857143,3905.037,-975.6245)"/>
      <path transform="matrix(3.6923078,-7.0710678e-8,7.0710678e-8,2.2857143,3877.8134,-948.40124)"
            d="m 345.5,1032.9247 c 0,0.7249 -0.36377,1.3125 -0.8125,1.3125 -0.44873,0 -0.8125,-0.5876 -0.8125,-1.3125 0,-0.7249 0.36377,-1.3125 0.8125,-1.3125 0.44873,0 0.8125,0.5876 0.8125,1.3125 z"
            id="de:11000:900054102" style="fill:#ffffff;fill-opacity:1;stroke:none"/>
      <path transform="matrix(3.6923078,-7.0710678e-8,7.0710678e-8,2.2857143,3851.9714,-922.55882)"
            d="m 345.5,1032.9247 c 0,0.7249 -0.36377,1.3125 -0.8125,1.3125 -0.44873,0 -0.8125,-0.5876 -0.8125,-1.3125 0,-0.7249 0.36377,-1.3125 0.8125,-1.3125 0.44873,0 0.8125,0.5876 0.8125,1.3125 z"
            id="de:11000:900054103" style="fill:#ffffff;fill-opacity:1;stroke:none"/>
      <path transform="matrix(0.77241381,0,0,0.77241381,5054.8726,459.27158)"
            d="m 285,1031.7372 c 0,4.2901 -3.47778,7.7678 -7.76785,7.7678 -4.29007,0 -7.76786,-3.4777 -7.76786,-7.7678 0,-4.2901 3.47779,-7.7679 7.76786,-7.7679 4.29007,0 7.76785,3.4778 7.76785,7.7679 z"
            id="de:11000:900100011"
            style="fill:#ffffff;fill-opacity:1;stroke:#000000;stroke-width:2.58928561;stroke-linejoin:round;stroke-miterlimit:4;stroke-opacity:1;stroke-dasharray:none"/>
      <path style="fill:#ffffff;fill-opacity:1;stroke:none" id="de:11000:900012102"
            d="m 345.5,1032.9247 c 0,0.7249 -0.36377,1.3125 -0.8125,1.3125 -0.44873,0 -0.8125,-0.5876 -0.8125,-1.3125 0,-0.7249 0.36377,-1.3125 0.8125,-1.3125 0.44873,0 0.8125,0.5876 0.8125,1.3125 z"
            transform="matrix(3.6923078,-7.0710678e-8,7.0710678e-8,2.2857143,3996.316,-1065.5995)"/>
      <path style="fill:#ffffff;fill-opacity:1;stroke:none" id="de:11000:900100010"
            d="m 345.5,1032.9247 c 0,0.7249 -0.36377,1.3125 -0.8125,1.3125 -0.44873,0 -0.8125,-0.5876 -0.8125,-1.3125 0,-0.7249 0.36377,-1.3125 0.8125,-1.3125 0.44873,0 0.8125,0.5876 0.8125,1.3125 z"
            transform="matrix(3.6923078,-7.0710678e-8,7.0710678e-8,2.2857143,3942.6276,-1104.8027)"/>
      <path transform="matrix(3.6923078,-7.0710678e-8,7.0710678e-8,2.2857143,3905.9611,-1104.8027)"
            d="m 345.5,1032.9247 c 0,0.7249 -0.36377,1.3125 -0.8125,1.3125 -0.44873,0 -0.8125,-0.5876 -0.8125,-1.3125 0,-0.7249 0.36377,-1.3125 0.8125,-1.3125 0.44873,0 0.8125,0.5876 0.8125,1.3125 z"
            id="de:11000:900100020" style="fill:#ffffff;fill-opacity:1;stroke:none"/>
      <path style="fill:#ffffff;fill-opacity:1;stroke:none" id="de:11000:900043201"
            d="m 345.5,1032.9247 c 0,0.7249 -0.36377,1.3125 -0.8125,1.3125 -0.44873,0 -0.8125,-0.5876 -0.8125,-1.3125 0,-0.7249 0.36377,-1.3125 0.8125,-1.3125 0.44873,0 0.8125,0.5876 0.8125,1.3125 z"
            transform="matrix(3.6923078,-7.0710678e-8,7.0710678e-8,2.2857143,3675.1843,-941.66831)"/>
      <path transform="matrix(3.6923078,-7.0710678e-8,7.0710678e-8,2.2857143,3649.1982,-946.90352)"
            d="m 345.5,1032.9247 c 0,0.7249 -0.36377,1.3125 -0.8125,1.3125 -0.44873,0 -0.8125,-0.5876 -0.8125,-1.3125 0,-0.7249 0.36377,-1.3125 0.8125,-1.3125 0.44873,0 0.8125,0.5876 0.8125,1.3125 z"
            id="de:11000:900043101" style="fill:#ffffff;fill-opacity:1;stroke:none"/>
      <path
        style="fill:#ffffff;fill-opacity:1;stroke:#000000;stroke-width:2.58928561;stroke-linejoin:round;stroke-miterlimit:4;stroke-opacity:1;stroke-dasharray:none"
        id="de:11000:900041101"
        d="m 285,1031.7372 c 0,4.2901 -3.47778,7.7678 -7.76785,7.7678 -4.29007,0 -7.76786,-3.4777 -7.76786,-7.7678 0,-4.2901 3.47779,-7.7679 7.76786,-7.7679 4.29007,0 7.76785,3.4778 7.76785,7.7679 z"
        transform="matrix(0.77241381,0,0,0.77241381,4674.5087,650.56971)"/>
      <path style="fill:#ffffff;fill-opacity:1;stroke:none" id="de:11000:900100012"
            d="m 345.5,1032.9247 c 0,0.7249 -0.36377,1.3125 -0.8125,1.3125 -0.44873,0 -0.8125,-0.5876 -0.8125,-1.3125 0,-0.7249 0.36377,-1.3125 0.8125,-1.3125 0.44873,0 0.8125,0.5876 0.8125,1.3125 z"
            transform="matrix(3.6923078,-7.0710678e-8,7.0710678e-8,2.2857143,4022.8801,-1104.8027)"/>
      <path style="fill:#ffffff;fill-opacity:1;stroke:none" id="de:11000:900013103"
            d="m 345.5,1032.9247 c 0,0.7249 -0.36377,1.3125 -0.8125,1.3125 -0.44873,0 -0.8125,-0.5876 -0.8125,-1.3125 0,-0.7249 0.36377,-1.3125 0.8125,-1.3125 0.44873,0 0.8125,0.5876 0.8125,1.3125 z"
            transform="matrix(3.6923078,-7.0710678e-8,7.0710678e-8,2.2857143,4055.6697,-1013.3878)"/>
      <path transform="matrix(3.6923078,-7.0710678e-8,7.0710678e-8,2.2857143,4055.6697,-1025.3252)"
            d="m 345.5,1032.9247 c 0,0.7249 -0.36377,1.3125 -0.8125,1.3125 -0.44873,0 -0.8125,-0.5876 -0.8125,-1.3125 0,-0.7249 0.36377,-1.3125 0.8125,-1.3125 0.44873,0 0.8125,0.5876 0.8125,1.3125 z"
            id="de:11000:900013103" style="fill:#ffffff;fill-opacity:1;stroke:none"/>
      <path style="fill:#ffffff;fill-opacity:1;stroke:none" id="de:11000:900100013"
            d="m 345.5,1032.9247 c 0,0.7249 -0.36377,1.3125 -0.8125,1.3125 -0.44873,0 -0.8125,-0.5876 -0.8125,-1.3125 0,-0.7249 0.36377,-1.3125 0.8125,-1.3125 0.44873,0 0.8125,0.5876 0.8125,1.3125 z"
            transform="matrix(3.6923078,-7.0710678e-8,7.0710678e-8,2.2857143,4048.4396,-1121.1496)"/>
      <path transform="matrix(3.6923078,-7.0710678e-8,7.0710678e-8,2.2857143,4066.8243,-1139.5343)"
            d="m 345.5,1032.9247 c 0,0.7249 -0.36377,1.3125 -0.8125,1.3125 -0.44873,0 -0.8125,-0.5876 -0.8125,-1.3125 0,-0.7249 0.36377,-1.3125 0.8125,-1.3125 0.44873,0 0.8125,0.5876 0.8125,1.3125 z"
            id="de:11000:900100014" style="fill:#ffffff;fill-opacity:1;stroke:none"/>
      <path style="fill:#ffffff;fill-opacity:1;stroke:none" id="de:11000:900100015"
            d="m 345.5,1032.9247 c 0,0.7249 -0.36377,1.3125 -0.8125,1.3125 -0.44873,0 -0.8125,-0.5876 -0.8125,-1.3125 0,-0.7249 0.36377,-1.3125 0.8125,-1.3125 0.44873,0 0.8125,0.5876 0.8125,1.3125 z"
            transform="matrix(3.6923078,-7.0710678e-8,7.0710678e-8,2.2857143,4085.209,-1157.9192)"/>
      <path transform="matrix(0.77241381,0,0,0.77241381,5172.4931,377.32445)"
            d="m 285,1031.7372 c 0,4.2901 -3.47778,7.7678 -7.76785,7.7678 -4.29007,0 -7.76786,-3.4777 -7.76786,-7.7678 0,-4.2901 3.47779,-7.7679 7.76786,-7.7679 4.29007,0 7.76785,3.4778 7.76785,7.7679 z"
            id="de:11000:900100003"
            style="fill:#ffffff;fill-opacity:1;stroke:#000000;stroke-width:2.58928561;stroke-linejoin:round;stroke-miterlimit:4;stroke-opacity:1;stroke-dasharray:none"/>
      <path transform="matrix(3.6923078,-7.0710678e-8,7.0710678e-8,2.2857143,4079.9821,-1186.778)"
            d="m 345.5,1032.9247 c 0,0.7249 -0.36377,1.3125 -0.8125,1.3125 -0.44873,0 -0.8125,-0.5876 -0.8125,-1.3125 0,-0.7249 0.36377,-1.3125 0.8125,-1.3125 0.44873,0 0.8125,0.5876 0.8125,1.3125 z"
            id="de:11000:900100045"
            style="fill:#ffffff;fill-opacity:1;stroke:none;stroke-width:0.34422314;stroke-miterlimit:4;stroke-opacity:1;stroke-dasharray:none"/>
      <path transform="matrix(3.6923078,-7.0710678e-8,7.0710678e-8,2.2857143,3935.9711,-1186.7778)"
            d="m 345.5,1032.9247 c 0,0.7249 -0.36377,1.3125 -0.8125,1.3125 -0.44873,0 -0.8125,-0.5876 -0.8125,-1.3125 0,-0.7249 0.36377,-1.3125 0.8125,-1.3125 0.44873,0 0.8125,0.5876 0.8125,1.3125 z"
            id="de:11000:900100025"
            style="fill:#ffffff;fill-opacity:1;stroke:none;stroke-width:0.34422314;stroke-miterlimit:4;stroke-opacity:1;stroke-dasharray:none"/>
      <path
        style="fill:#ffffff;fill-opacity:1;stroke:none;stroke-width:0.34422314;stroke-miterlimit:4;stroke-opacity:1;stroke-dasharray:none"
        id="de:11000:900003254"
        d="m 345.5,1032.9247 c 0,0.7249 -0.36377,1.3125 -0.8125,1.3125 -0.44873,0 -0.8125,-0.5876 -0.8125,-1.3125 0,-0.7249 0.36377,-1.3125 0.8125,-1.3125 0.44873,0 0.8125,0.5876 0.8125,1.3125 z"
        transform="matrix(3.6923078,-7.0710678e-8,7.0710678e-8,2.2857143,3887.8497,-1186.778)"/>
      <rect
        style="fill:#ffffff;fill-opacity:1;stroke:#000000;stroke-width:2stroke-linejoin:round;stroke-miterlimit:4;stroke-opacity:1;stroke-dasharray:none"
        id="de:11000:900013102" width="24" height="12" x="-1353.6605" y="5380.6914" ry="6" rx="6"
        transform="matrix(0,-1,1,0,0,0)"/>
      <path transform="matrix(3.6923078,-7.0710678e-8,7.0710678e-8,2.2857143,4165.9196,-1013.3875)"
            d="m 345.5,1032.9247 c 0,0.7249 -0.36377,1.3125 -0.8125,1.3125 -0.44873,0 -0.8125,-0.5876 -0.8125,-1.3125 0,-0.7249 0.36377,-1.3125 0.8125,-1.3125 0.44873,0 0.8125,0.5876 0.8125,1.3125 z"
            id="de:11000:900014101" style="fill:#ffffff;fill-opacity:1;stroke:none"/>
      <path style="fill:#ffffff;fill-opacity:1;stroke:none" id="de:11000:900014101"
            d="m 345.5,1032.9247 c 0,0.7249 -0.36377,1.3125 -0.8125,1.3125 -0.44873,0 -0.8125,-0.5876 -0.8125,-1.3125 0,-0.7249 0.36377,-1.3125 0.8125,-1.3125 0.44873,0 0.8125,0.5876 0.8125,1.3125 z"
            transform="matrix(3.6923078,-7.0710678e-8,7.0710678e-8,2.2857143,4165.9196,-1025.3252)"/>
      <path style="fill:#ffffff;fill-opacity:1;stroke:none" id="de:11000:900014102"
            d="m 345.5,1032.9247 c 0,0.7249 -0.36377,1.3125 -0.8125,1.3125 -0.44873,0 -0.8125,-0.5876 -0.8125,-1.3125 0,-0.7249 0.36377,-1.3125 0.8125,-1.3125 0.44873,0 0.8125,0.5876 0.8125,1.3125 z"
            transform="matrix(3.6923078,-7.0710678e-8,7.0710678e-8,2.2857143,4213.6697,-1013.3878)"/>
      <path transform="matrix(3.6923078,-7.0710678e-8,7.0710678e-8,2.2857143,4213.6696,-1025.3252)"
            d="m 345.5,1032.9247 c 0,0.7249 -0.36377,1.3125 -0.8125,1.3125 -0.44873,0 -0.8125,-0.5876 -0.8125,-1.3125 0,-0.7249 0.36377,-1.3125 0.8125,-1.3125 0.44873,0 0.8125,0.5876 0.8125,1.3125 z"
            id="de:11000:900014102" style="fill:#ffffff;fill-opacity:1;stroke:none"/>
      <rect transform="matrix(0,-1,1,0,0,0)" rx="6" ry="6" y="5533.4414" x="-1353.6605" height="12" width="24"
            id="de:11000:900120004"
            style="fill:#ffffff;fill-opacity:1;stroke:#000000;stroke-width:2stroke-linejoin:round;stroke-miterlimit:4;stroke-opacity:1;stroke-dasharray:none"/>
      <path
        style="fill:#ffffff;fill-opacity:1;stroke:#000000;stroke-width:2.58928561;stroke-linejoin:round;stroke-miterlimit:4;stroke-opacity:1;stroke-dasharray:none"
        id="de:11000:900023301"
        d="m 285,1031.7372 c 0,4.2901 -3.47778,7.7678 -7.76785,7.7678 -4.29007,0 -7.76786,-3.4777 -7.76786,-7.7678 0,-4.2901 3.47779,-7.7679 7.76786,-7.7679 4.29007,0 7.76785,3.4778 7.76785,7.7679 z"
        transform="matrix(0.77241381,0,0,0.77241381,4667.0087,538.7371)"/>
      <path transform="matrix(0.77241381,0,0,0.77241381,4839.7365,732.06966)"
            d="m 285,1031.7372 c 0,4.2901 -3.47778,7.7678 -7.76785,7.7678 -4.29007,0 -7.76786,-3.4777 -7.76786,-7.7678 0,-4.2901 3.47779,-7.7679 7.76786,-7.7679 4.29007,0 7.76785,3.4778 7.76785,7.7679 z"
            id="de:11000:900054105"
            style="fill:#ffffff;fill-opacity:1;stroke:#000000;stroke-width:2.58928561;stroke-linejoin:round;stroke-miterlimit:4;stroke-opacity:1;stroke-dasharray:none"/>
      <path style="fill:#f0d722;fill-opacity:1;stroke:none" id="de:11000:900054105"
            d="m 285,1031.7372 c 0,4.2901 -3.47778,7.7678 -7.76785,7.7678 -4.29007,0 -7.76786,-3.4777 -7.76786,-7.7678 0,-4.2901 3.47779,-7.7679 7.76786,-7.7679 4.29007,0 7.76785,3.4778 7.76785,7.7679 z"
            transform="matrix(0.3862069,0,0,0.3862069,4946.8058,1130.5335)"/>
      <path transform="matrix(0.3862069,0,0,0.3862069,4946.8059,949.1965)"
            d="m 285,1031.7372 c 0,4.2901 -3.47778,7.7678 -7.76785,7.7678 -4.29007,0 -7.76786,-3.4777 -7.76786,-7.7678 0,-4.2901 3.47779,-7.7679 7.76786,-7.7679 4.29007,0 7.76785,3.4778 7.76785,7.7679 z"
            id="de:11000:900056102" style="fill:#f0d722;fill-opacity:1;stroke:none"/>
      <path style="fill:#7dad4c;fill-opacity:1;stroke:none" id="de:11000:900023301"
            d="m 285,1031.7372 c 0,4.2901 -3.47778,7.7678 -7.76785,7.7678 -4.29007,0 -7.76786,-3.4777 -7.76786,-7.7678 0,-4.2901 3.47779,-7.7679 7.76786,-7.7679 4.29007,0 7.76785,3.4778 7.76785,7.7679 z"
            transform="matrix(0.3862069,0,0,0.3862069,4774.0778,937.20141)"/>
      <path transform="matrix(0.3862069,0,0,0.3862069,5432.3728,937.20124)"
            d="m 285,1031.7372 c 0,4.2901 -3.47778,7.7678 -7.76785,7.7678 -4.29007,0 -7.76786,-3.4777 -7.76786,-7.7678 0,-4.2901 3.47779,-7.7679 7.76786,-7.7679 4.29007,0 7.76785,3.4778 7.76785,7.7679 z"
            id="de:11000:900120004" style="fill:#7dad4c;fill-opacity:1;stroke:none"/>
      <path style="fill:#007a5b;fill-opacity:1;stroke:none" id="de:11000:900120004"
            d="m 285,1031.7372 c 0,4.2901 -3.47778,7.7678 -7.76785,7.7678 -4.29007,0 -7.76786,-3.4777 -7.76786,-7.7678 0,-4.2901 3.47779,-7.7679 7.76786,-7.7679 4.29007,0 7.76785,3.4778 7.76785,7.7679 z"
            transform="matrix(0.3862069,0,0,0.3862069,5432.3729,949.19645)"/>
      <path transform="matrix(3.6923078,-7.0710678e-8,7.0710678e-8,2.2857143,4037.0726,-932.04869)"
            d="m 345.5,1032.9247 c 0,0.7249 -0.36377,1.3125 -0.8125,1.3125 -0.44873,0 -0.8125,-0.5876 -0.8125,-1.3125 0,-0.7249 0.36377,-1.3125 0.8125,-1.3125 0.44873,0 0.8125,0.5876 0.8125,1.3125 z"
            id="de:11000:900016101" style="fill:#ffffff;fill-opacity:1;stroke:none"/>
      <path style="fill:#ffffff;fill-opacity:1;stroke:none" id="de:11000:900016202"
            d="m 345.5,1032.9247 c 0,0.7249 -0.36377,1.3125 -0.8125,1.3125 -0.44873,0 -0.8125,-0.5876 -0.8125,-1.3125 0,-0.7249 0.36377,-1.3125 0.8125,-1.3125 0.44873,0 0.8125,0.5876 0.8125,1.3125 z"
            transform="matrix(3.6923078,-7.0710678e-8,7.0710678e-8,2.2857143,4074.5728,-932.04869)"/>
      <path
        style="fill:#ffffff;fill-opacity:1;stroke:#000000;stroke-width:2.58928561;stroke-linejoin:round;stroke-miterlimit:4;stroke-opacity:1;stroke-dasharray:none"
        id="de:11000:900078101"
        d="m 285,1031.7372 c 0,4.2901 -3.47778,7.7678 -7.76785,7.7678 -4.29007,0 -7.76786,-3.4777 -7.76786,-7.7678 0,-4.2901 3.47779,-7.7679 7.76786,-7.7679 4.29007,0 7.76785,3.4778 7.76785,7.7679 z"
        transform="matrix(0.77241381,0,0,0.77241381,5172.4932,631.88707)"/>
      <path style="fill:#ffffff;fill-opacity:1;stroke:none" id="de:11000:900016201"
            d="m 345.5,1032.9247 c 0,0.7249 -0.36377,1.3125 -0.8125,1.3125 -0.44873,0 -0.8125,-0.5876 -0.8125,-1.3125 0,-0.7249 0.36377,-1.3125 0.8125,-1.3125 0.44873,0 0.8125,0.5876 0.8125,1.3125 z"
            transform="matrix(3.6923078,-7.0710678e-8,7.0710678e-8,2.2857143,4114.0836,-967.17069)"/>
      <path transform="matrix(3.6923078,-7.0710678e-8,7.0710678e-8,2.2857143,4114.0836,-884.43933)"
            d="m 345.5,1032.9247 c 0,0.7249 -0.36377,1.3125 -0.8125,1.3125 -0.44873,0 -0.8125,-0.5876 -0.8125,-1.3125 0,-0.7249 0.36377,-1.3125 0.8125,-1.3125 0.44873,0 0.8125,0.5876 0.8125,1.3125 z"
            id="de:11000:900079202" style="fill:#ffffff;fill-opacity:1;stroke:none"/>
      <path style="fill:#ffffff;fill-opacity:1;stroke:none" id="de:11000:900079201"
            d="m 345.5,1032.9247 c 0,0.7249 -0.36377,1.3125 -0.8125,1.3125 -0.44873,0 -0.8125,-0.5876 -0.8125,-1.3125 0,-0.7249 0.36377,-1.3125 0.8125,-1.3125 0.44873,0 0.8125,0.5876 0.8125,1.3125 z"
            transform="matrix(3.6923078,-7.0710678e-8,7.0710678e-8,2.2857143,4114.0837,-855.44788)"/>
      <path transform="matrix(0.77241381,0,0,0.77241381,5172.4931,740.88694)"
            d="m 285,1031.7372 c 0,4.2901 -3.47778,7.7678 -7.76785,7.7678 -4.29007,0 -7.76786,-3.4777 -7.76786,-7.7678 0,-4.2901 3.47779,-7.7679 7.76786,-7.7679 4.29007,0 7.76785,3.4778 7.76785,7.7679 z"
            id="de:11000:900079221"
            style="fill:#ffffff;fill-opacity:1;stroke:#000000;stroke-width:2.58928561;stroke-linejoin:round;stroke-miterlimit:4;stroke-opacity:1;stroke-dasharray:none"/>
      <path transform="matrix(3.6923078,-7.0710678e-8,7.0710678e-8,2.2857143,4155.0359,-1227.746)"
            d="m 345.5,1032.9247 c 0,0.7249 -0.36377,1.3125 -0.8125,1.3125 -0.44873,0 -0.8125,-0.5876 -0.8125,-1.3125 0,-0.7249 0.36377,-1.3125 0.8125,-1.3125 0.44873,0 0.8125,0.5876 0.8125,1.3125 z"
            id="de:11000:900100016" style="fill:#ffffff;fill-opacity:1;stroke:none"/>
      <path transform="matrix(3.6923078,-7.0710678e-8,7.0710678e-8,2.2857143,4114.0838,-1067.6961)"
            d="m 345.5,1032.9247 c 0,0.7249 -0.36377,1.3125 -0.8125,1.3125 -0.44873,0 -0.8125,-0.5876 -0.8125,-1.3125 0,-0.7249 0.36377,-1.3125 0.8125,-1.3125 0.44873,0 0.8125,0.5876 0.8125,1.3125 z"
            id="de:11000:900013101" style="fill:#ffffff;fill-opacity:1;stroke:none"/>
      <path style="fill:#ffffff;fill-opacity:1;stroke:none" id="de:11000:900100004"
            d="m 345.5,1032.9247 c 0,0.7249 -0.36377,1.3125 -0.8125,1.3125 -0.44873,0 -0.8125,-0.5876 -0.8125,-1.3125 0,-0.7249 0.36377,-1.3125 0.8125,-1.3125 0.44873,0 0.8125,0.5876 0.8125,1.3125 z"
            transform="matrix(3.6923078,-7.0710678e-8,7.0710678e-8,2.2857143,4114.0838,-1135.2963)"/>
      <path transform="matrix(3.6923078,-7.0710678e-8,7.0710678e-8,2.2857143,4114.0838,-1101.5393)"
            d="m 345.5,1032.9247 c 0,0.7249 -0.36377,1.3125 -0.8125,1.3125 -0.44873,0 -0.8125,-0.5876 -0.8125,-1.3125 0,-0.7249 0.36377,-1.3125 0.8125,-1.3125 0.44873,0 0.8125,0.5876 0.8125,1.3125 z"
            id="de:11000:900100008" style="fill:#ffffff;fill-opacity:1;stroke:none"/>
      <path transform="matrix(3.6923078,-7.0710678e-8,7.0710678e-8,2.2857143,4166.2163,-1255.0662)"
            d="m 345.5,1032.9247 c 0,0.7249 -0.36377,1.3125 -0.8125,1.3125 -0.44873,0 -0.8125,-0.5876 -0.8125,-1.3125 0,-0.7249 0.36377,-1.3125 0.8125,-1.3125 0.44873,0 0.8125,0.5876 0.8125,1.3125 z"
            id="de:11000:900110005" style="fill:#ffffff;fill-opacity:1;stroke:none"/>
      <path style="fill:#ffffff;fill-opacity:1;stroke:none" id="de:11000:900110006"
            d="m 345.5,1032.9247 c 0,0.7249 -0.36377,1.3125 -0.8125,1.3125 -0.44873,0 -0.8125,-0.5876 -0.8125,-1.3125 0,-0.7249 0.36377,-1.3125 0.8125,-1.3125 0.44873,0 0.8125,0.5876 0.8125,1.3125 z"
            transform="matrix(3.6923078,-7.0710678e-8,7.0710678e-8,2.2857143,4166.2162,-1285.5662)"/>
      <path transform="matrix(3.6923078,-7.0710678e-8,7.0710678e-8,2.2857143,4166.2163,-1316.0662)"
            d="m 345.5,1032.9247 c 0,0.7249 -0.36377,1.3125 -0.8125,1.3125 -0.44873,0 -0.8125,-0.5876 -0.8125,-1.3125 0,-0.7249 0.36377,-1.3125 0.8125,-1.3125 0.44873,0 0.8125,0.5876 0.8125,1.3125 z"
            id="de:11000:900110001" style="fill:#ffffff;fill-opacity:1;stroke:none"/>
      <path transform="matrix(3.6923078,-7.0710678e-8,7.0710678e-8,2.2857143,4166.2163,-1346.5986)"
            d="m 345.5,1032.9247 c 0,0.7249 -0.36377,1.3125 -0.8125,1.3125 -0.44873,0 -0.8125,-0.5876 -0.8125,-1.3125 0,-0.7249 0.36377,-1.3125 0.8125,-1.3125 0.44873,0 0.8125,0.5876 0.8125,1.3125 z"
            id="de:11000:900130011" style="fill:#ffffff;fill-opacity:1;stroke:none"/>
      <path transform="matrix(0.77241381,0,0,0.77241381,5224.8537,186.91537)"
            d="m 285,1031.7372 c 0,4.2901 -3.47778,7.7678 -7.76785,7.7678 -4.29007,0 -7.76786,-3.4777 -7.76786,-7.7678 0,-4.2901 3.47779,-7.7679 7.76786,-7.7679 4.29007,0 7.76785,3.4778 7.76785,7.7679 z"
            id="de:11000:900130002"
            style="fill:#ffffff;fill-opacity:1;stroke:#000000;stroke-width:2.58928561;stroke-linejoin:round;stroke-miterlimit:4;stroke-opacity:1;stroke-dasharray:none"/>
      <path style="fill:#224f86;fill-opacity:1;stroke:none" id="de:11000:900079221"
            d="m 285,1031.7372 c 0,4.2901 -3.47778,7.7678 -7.76785,7.7678 -4.29007,0 -7.76786,-3.4777 -7.76786,-7.7678 0,-4.2901 3.47779,-7.7679 7.76786,-7.7679 4.29007,0 7.76785,3.4778 7.76785,7.7679 z"
            transform="matrix(0.3862069,0,0,0.3862069,5279.5618,1139.3515)"/>
      <path style="fill:#da421e;fill-opacity:1;stroke:none" id="de:11000:900130002"
            d="m 285,1031.7372 c 0,4.2901 -3.47778,7.7678 -7.76785,7.7678 -4.29007,0 -7.76786,-3.4777 -7.76786,-7.7678 0,-4.2901 3.47779,-7.7679 7.76786,-7.7679 4.29007,0 7.76785,3.4778 7.76785,7.7679 z"
            transform="matrix(0.3862069,0,0,0.3862069,5331.9227,585.37941)"/>
      <path style="fill:#ffffff;fill-opacity:1;stroke:none" id="de:11000:900100017"
            d="m 345.5,1032.9247 c 0,0.7249 -0.36377,1.3125 -0.8125,1.3125 -0.44873,0 -0.8125,-0.5876 -0.8125,-1.3125 0,-0.7249 0.36377,-1.3125 0.8125,-1.3125 0.44873,0 0.8125,0.5876 0.8125,1.3125 z"
            transform="matrix(3.6923078,-7.0710678e-8,7.0710678e-8,2.2857143,4183.3568,-1186.778)"/>
      <path transform="matrix(3.6923078,-7.0710678e-8,7.0710678e-8,2.2857143,4224.857,-1186.7778)"
            d="m 345.5,1032.9247 c 0,0.7249 -0.36377,1.3125 -0.8125,1.3125 -0.44873,0 -0.8125,-0.5876 -0.8125,-1.3125 0,-0.7249 0.36377,-1.3125 0.8125,-1.3125 0.44873,0 0.8125,0.5876 0.8125,1.3125 z"
            id="de:11000:900120006" style="fill:#ffffff;fill-opacity:1;stroke:none"/>
      <path style="fill:#ffffff;fill-opacity:1;stroke:none" id="de:11000:900120025"
            d="m 345.5,1032.9247 c 0,0.7249 -0.36377,1.3125 -0.8125,1.3125 -0.44873,0 -0.8125,-0.5876 -0.8125,-1.3125 0,-0.7249 0.36377,-1.3125 0.8125,-1.3125 0.44873,0 0.8125,0.5876 0.8125,1.3125 z"
            transform="matrix(3.6923078,-7.0710678e-8,7.0710678e-8,2.2857143,4266.3569,-1186.778)"/>
      <path style="fill:#ffffff;fill-opacity:1;stroke:none" id="de:11000:900120008"
            d="m 345.5,1032.9247 c 0,0.7249 -0.36377,1.3125 -0.8125,1.3125 -0.44873,0 -0.8125,-0.5876 -0.8125,-1.3125 0,-0.7249 0.36377,-1.3125 0.8125,-1.3125 0.44873,0 0.8125,0.5876 0.8125,1.3125 z"
            transform="matrix(3.6923078,-7.0710678e-8,7.0710678e-8,2.2857143,4307.8567,-1186.778)"/>
      <path transform="matrix(3.6923078,-7.0710678e-8,7.0710678e-8,2.2857143,4349.3568,-1186.778)"
            d="m 345.5,1032.9247 c 0,0.7249 -0.36377,1.3125 -0.8125,1.3125 -0.44873,0 -0.8125,-0.5876 -0.8125,-1.3125 0,-0.7249 0.36377,-1.3125 0.8125,-1.3125 0.44873,0 0.8125,0.5876 0.8125,1.3125 z"
            id="de:11000:900120009" style="fill:#ffffff;fill-opacity:1;stroke:none"/>
      <path transform="matrix(3.6923078,-7.0710678e-8,7.0710678e-8,2.2857143,4390.8569,-1186.778)"
            d="m 345.5,1032.9247 c 0,0.7249 -0.36377,1.3125 -0.8125,1.3125 -0.44873,0 -0.8125,-0.5876 -0.8125,-1.3125 0,-0.7249 0.36377,-1.3125 0.8125,-1.3125 0.44873,0 0.8125,0.5876 0.8125,1.3125 z"
            id="de:11000:900120001" style="fill:#ffffff;fill-opacity:1;stroke:none"/>
      <path style="fill:#ffffff;fill-opacity:1;stroke:none" id="de:11000:900160005"
            d="m 345.5,1032.9247 c 0,0.7249 -0.36377,1.3125 -0.8125,1.3125 -0.44873,0 -0.8125,-0.5876 -0.8125,-1.3125 0,-0.7249 0.36377,-1.3125 0.8125,-1.3125 0.44873,0 0.8125,0.5876 0.8125,1.3125 z"
            transform="matrix(3.6923078,-7.0710678e-8,7.0710678e-8,2.2857143,4432.3568,-1186.7781)"/>
      <path transform="matrix(0.77241381,0,0,0.77241381,4686.5584,827.1808)"
            d="m 285,1031.7372 c 0,4.2901 -3.47778,7.7678 -7.76785,7.7678 -4.29007,0 -7.76786,-3.4777 -7.76786,-7.7678 0,-4.2901 3.47779,-7.7679 7.76786,-7.7679 4.29007,0 7.76785,3.4778 7.76785,7.7679 z"
            id="de:11000:900062202"
            style="fill:#ffffff;fill-opacity:1;stroke:#000000;stroke-width:2.58928561;stroke-linejoin:round;stroke-miterlimit:4;stroke-opacity:1;stroke-dasharray:none"/>
      <path style="fill:#f3791d;fill-opacity:1;stroke:none" id="de:11000:900062202"
            d="m 285,1031.7372 c 0,4.2901 -3.47778,7.7678 -7.76785,7.7678 -4.29007,0 -7.76786,-3.4777 -7.76786,-7.7678 0,-4.2901 3.47779,-7.7679 7.76786,-7.7679 4.29007,0 7.76785,3.4778 7.76785,7.7679 z"
            transform="matrix(0.3862069,0,0,0.3862069,4793.6277,1225.6445)"/>
      <path transform="matrix(3.6923078,-7.0710678e-8,7.0710678e-8,2.2857143,3981.7184,-1215.6561)"
            d="m 345.5,1032.9247 c 0,0.7249 -0.36377,1.3125 -0.8125,1.3125 -0.44873,0 -0.8125,-0.5876 -0.8125,-1.3125 0,-0.7249 0.36377,-1.3125 0.8125,-1.3125 0.44873,0 0.8125,0.5876 0.8125,1.3125 z"
            id="de:11000:900100001" style="fill:#ffffff;fill-opacity:1;stroke:none"/>
      <path style="fill:#ffffff;fill-opacity:1;stroke:none" id="de:11000:900100019"
            d="m 345.5,1032.9247 c 0,0.7249 -0.36377,1.3125 -0.8125,1.3125 -0.44873,0 -0.8125,-0.5876 -0.8125,-1.3125 0,-0.7249 0.36377,-1.3125 0.8125,-1.3125 0.44873,0 0.8125,0.5876 0.8125,1.3125 z"
            transform="matrix(3.6923078,-7.0710678e-8,7.0710678e-8,2.2857143,3961.3196,-1236.055)"/>
      <path transform="matrix(3.6923078,-7.0710678e-8,7.0710678e-8,2.2857143,3940.9231,-1256.4516)"
            d="m 345.5,1032.9247 c 0,0.7249 -0.36377,1.3125 -0.8125,1.3125 -0.44873,0 -0.8125,-0.5876 -0.8125,-1.3125 0,-0.7249 0.36377,-1.3125 0.8125,-1.3125 0.44873,0 0.8125,0.5876 0.8125,1.3125 z"
            id="de:11000:900100009" style="fill:#ffffff;fill-opacity:1;stroke:none"/>
      <path transform="matrix(3.6923078,-7.0710678e-8,7.0710678e-8,2.2857143,3920.5382,-1276.8361)"
            d="m 345.5,1032.9247 c 0,0.7249 -0.36377,1.3125 -0.8125,1.3125 -0.44873,0 -0.8125,-0.5876 -0.8125,-1.3125 0,-0.7249 0.36377,-1.3125 0.8125,-1.3125 0.44873,0 0.8125,0.5876 0.8125,1.3125 z"
            id="de:11000:900100501" style="fill:#ffffff;fill-opacity:1;stroke:none"/>
      <path style="fill:#ffffff;fill-opacity:1;stroke:none" id="de:11000:900008102"
            d="m 345.5,1032.9247 c 0,0.7249 -0.36377,1.3125 -0.8125,1.3125 -0.44873,0 -0.8125,-0.5876 -0.8125,-1.3125 0,-0.7249 0.36377,-1.3125 0.8125,-1.3125 0.44873,0 0.8125,0.5876 0.8125,1.3125 z"
            transform="matrix(3.6923078,-7.0710678e-8,7.0710678e-8,2.2857143,3900.1418,-1297.233)"/>
      <path transform="matrix(3.6923078,-7.0710678e-8,7.0710678e-8,2.2857143,3879.7166,-1317.6581)"
            d="m 345.5,1032.9247 c 0,0.7249 -0.36377,1.3125 -0.8125,1.3125 -0.44873,0 -0.8125,-0.5876 -0.8125,-1.3125 0,-0.7249 0.36377,-1.3125 0.8125,-1.3125 0.44873,0 0.8125,0.5876 0.8125,1.3125 z"
            id="de:11000:900009104" style="fill:#ffffff;fill-opacity:1;stroke:none"/>
      <path transform="matrix(0.77241381,0,0,0.77241381,4910.7171,218.93328)"
            d="m 285,1031.7372 c 0,4.2901 -3.47778,7.7678 -7.76785,7.7678 -4.29007,0 -7.76786,-3.4777 -7.76786,-7.7678 0,-4.2901 3.47779,-7.7679 7.76786,-7.7679 4.29007,0 7.76785,3.4778 7.76785,7.7679 z"
            id="de:11000:900009102"
            style="fill:#ffffff;fill-opacity:1;stroke:#000000;stroke-width:2.58928561;stroke-linejoin:round;stroke-miterlimit:4;stroke-opacity:1;stroke-dasharray:none"/>
      <path style="fill:#ffffff;fill-opacity:1;stroke:none" id="de:11000:900009103"
            d="m 345.5,1032.9247 c 0,0.7249 -0.36377,1.3125 -0.8125,1.3125 -0.44873,0 -0.8125,-0.5876 -0.8125,-1.3125 0,-0.7249 0.36377,-1.3125 0.8125,-1.3125 0.44873,0 0.8125,0.5876 0.8125,1.3125 z"
            transform="matrix(3.6923078,-7.0710678e-8,7.0710678e-8,2.2857143,3825.4354,-1371.9393)"/>
      <path transform="matrix(3.6923078,-7.0710678e-8,7.0710678e-8,2.2857143,3805.0389,-1392.3357)"
            d="m 345.5,1032.9247 c 0,0.7249 -0.36377,1.3125 -0.8125,1.3125 -0.44873,0 -0.8125,-0.5876 -0.8125,-1.3125 0,-0.7249 0.36377,-1.3125 0.8125,-1.3125 0.44873,0 0.8125,0.5876 0.8125,1.3125 z"
            id="de:11000:900011101" style="fill:#ffffff;fill-opacity:1;stroke:none"/>
      <path style="fill:#ffffff;fill-opacity:1;stroke:none" id="de:11000:900011102"
            d="m 345.5,1032.9247 c 0,0.7249 -0.36377,1.3125 -0.8125,1.3125 -0.44873,0 -0.8125,-0.5876 -0.8125,-1.3125 0,-0.7249 0.36377,-1.3125 0.8125,-1.3125 0.44873,0 0.8125,0.5876 0.8125,1.3125 z"
            transform="matrix(3.6923078,-7.0710678e-8,7.0710678e-8,2.2857143,3784.6214,-1412.7534)"/>
      <path style="fill:#ffffff;fill-opacity:1;stroke:none" id="de:11000:900086102"
            d="m 345.5,1032.9247 c 0,0.7249 -0.36377,1.3125 -0.8125,1.3125 -0.44873,0 -0.8125,-0.5876 -0.8125,-1.3125 0,-0.7249 0.36377,-1.3125 0.8125,-1.3125 0.44873,0 0.8125,0.5876 0.8125,1.3125 z"
            transform="matrix(3.6923078,-7.0710678e-8,7.0710678e-8,2.2857143,3764.2479,-1433.1268)"/>
      <path transform="matrix(3.6923078,-7.0710678e-8,7.0710678e-8,2.2857143,3743.8301,-1453.5443)"
            d="m 345.5,1032.9247 c 0,0.7249 -0.36377,1.3125 -0.8125,1.3125 -0.44873,0 -0.8125,-0.5876 -0.8125,-1.3125 0,-0.7249 0.36377,-1.3125 0.8125,-1.3125 0.44873,0 0.8125,0.5876 0.8125,1.3125 z"
            id="de:11000:900087101" style="fill:#ffffff;fill-opacity:1;stroke:none"/>
      <path style="fill:#ffffff;fill-opacity:1;stroke:none" id="de:11000:900086101"
            d="m 345.5,1032.9247 c 0,0.7249 -0.36377,1.3125 -0.8125,1.3125 -0.44873,0 -0.8125,-0.5876 -0.8125,-1.3125 0,-0.7249 0.36377,-1.3125 0.8125,-1.3125 0.44873,0 0.8125,0.5876 0.8125,1.3125 z"
            transform="matrix(3.6923078,-7.0710678e-8,7.0710678e-8,2.2857143,3723.4344,-1473.9403)"/>
      <path transform="matrix(3.6923078,-7.0710678e-8,7.0710678e-8,2.2857143,3703.0169,-1494.3578)"
            d="m 345.5,1032.9247 c 0,0.7249 -0.36377,1.3125 -0.8125,1.3125 -0.44873,0 -0.8125,-0.5876 -0.8125,-1.3125 0,-0.7249 0.36377,-1.3125 0.8125,-1.3125 0.44873,0 0.8125,0.5876 0.8125,1.3125 z"
            id="de:11000:900088201" style="fill:#ffffff;fill-opacity:1;stroke:none"/>
      <path transform="matrix(3.6923078,-7.0710678e-8,7.0710678e-8,2.2857143,3682.6432,-1514.7313)"
            d="m 345.5,1032.9247 c 0,0.7249 -0.36377,1.3125 -0.8125,1.3125 -0.44873,0 -0.8125,-0.5876 -0.8125,-1.3125 0,-0.7249 0.36377,-1.3125 0.8125,-1.3125 0.44873,0 0.8125,0.5876 0.8125,1.3125 z"
            id="de:11000:900088202" style="fill:#ffffff;fill-opacity:1;stroke:none"/>
      <path
        style="fill:#ffffff;fill-opacity:1;stroke:#000000;stroke-width:2.58928561;stroke-linejoin:round;stroke-miterlimit:4;stroke-opacity:1;stroke-dasharray:none"
        id="de:11000:900089301"
        d="m 285,1031.7372 c 0,4.2901 -3.47778,7.7678 -7.76785,7.7678 -4.29007,0 -7.76786,-3.4777 -7.76786,-7.7678 0,-4.2901 3.47779,-7.7679 7.76786,-7.7679 4.29007,0 7.76785,3.4778 7.76785,7.7679 z"
        transform="matrix(0.77241381,0,0,0.77241381,4716.9674,25.183451)"/>
      <path
        style="fill:#ffffff;fill-opacity:1;stroke:#000000;stroke-width:2.58928561;stroke-linejoin:round;stroke-miterlimit:4;stroke-opacity:1;stroke-dasharray:none"
        id="de:11000:900009202"
        d="m 285,1031.7372 c 0,4.2901 -3.47778,7.7678 -7.76785,7.7678 -4.29007,0 -7.76786,-3.4777 -7.76786,-7.7678 0,-4.2901 3.47779,-7.7679 7.76786,-7.7679 4.29007,0 7.76785,3.4778 7.76785,7.7679 z"
        transform="matrix(0.77241381,0,0,0.77241381,4976.8424,152.80809)"/>
      <path transform="matrix(3.6923078,-7.0710678e-8,7.0710678e-8,2.2857143,3887.0051,-1379.5634)"
            d="m 345.5,1032.9247 c 0,0.7249 -0.36377,1.3125 -0.8125,1.3125 -0.44873,0 -0.8125,-0.5876 -0.8125,-1.3125 0,-0.7249 0.36377,-1.3125 0.8125,-1.3125 0.44873,0 0.8125,0.5876 0.8125,1.3125 z"
            id="de:11000:900009201" style="fill:#ffffff;fill-opacity:1;stroke:none"/>
      <path style="fill:#ffffff;fill-opacity:1;stroke:none" id="de:11000:900100051"
            d="m 345.5,1032.9247 c 0,0.7249 -0.36377,1.3125 -0.8125,1.3125 -0.44873,0 -0.8125,-0.5876 -0.8125,-1.3125 0,-0.7249 0.36377,-1.3125 0.8125,-1.3125 0.44873,0 0.8125,0.5876 0.8125,1.3125 z"
            transform="matrix(3.6923078,-7.0710678e-8,7.0710678e-8,2.2857143,4088.5173,-1240.9512)"/>
      <path style="fill:#ffffff;fill-opacity:1;stroke:none" id="de:11000:900100023"
            d="m 345.5,1032.9247 c 0,0.7249 -0.36377,1.3125 -0.8125,1.3125 -0.44873,0 -0.8125,-0.5876 -0.8125,-1.3125 0,-0.7249 0.36377,-1.3125 0.8125,-1.3125 0.44873,0 0.8125,0.5876 0.8125,1.3125 z"
            transform="matrix(3.6923078,-7.0710678e-8,7.0710678e-8,2.2857143,4060.8663,-1268.6021)"/>
      <path transform="matrix(3.6923078,-7.0710678e-8,7.0710678e-8,2.2857143,4033.2337,-1296.2344)"
            d="m 345.5,1032.9247 c 0,0.7249 -0.36377,1.3125 -0.8125,1.3125 -0.44873,0 -0.8125,-0.5876 -0.8125,-1.3125 0,-0.7249 0.36377,-1.3125 0.8125,-1.3125 0.44873,0 0.8125,0.5876 0.8125,1.3125 z"
            id="de:11000:900007110" style="fill:#ffffff;fill-opacity:1;stroke:none"/>
      <path transform="matrix(3.6923078,-7.0710678e-8,7.0710678e-8,2.2857143,4005.5796,-1323.8889)"
            d="m 345.5,1032.9247 c 0,0.7249 -0.36377,1.3125 -0.8125,1.3125 -0.44873,0 -0.8125,-0.5876 -0.8125,-1.3125 0,-0.7249 0.36377,-1.3125 0.8125,-1.3125 0.44873,0 0.8125,0.5876 0.8125,1.3125 z"
            id="de:11000:900007103" style="fill:#ffffff;fill-opacity:1;stroke:none"/>
      <path style="fill:#ffffff;fill-opacity:1;stroke:none" id="de:11000:900007102"
            d="m 345.5,1032.9247 c 0,0.7249 -0.36377,1.3125 -0.8125,1.3125 -0.44873,0 -0.8125,-0.5876 -0.8125,-1.3125 0,-0.7249 0.36377,-1.3125 0.8125,-1.3125 0.44873,0 0.8125,0.5876 0.8125,1.3125 z"
            transform="matrix(3.6923078,-7.0710678e-8,7.0710678e-8,2.2857143,3977.9469,-1351.5215)"/>
      <path style="fill:#ffffff;fill-opacity:1;stroke:none" id="de:11000:900009203"
            d="m 345.5,1032.9247 c 0,0.7249 -0.36377,1.3125 -0.8125,1.3125 -0.44873,0 -0.8125,-0.5876 -0.8125,-1.3125 0,-0.7249 0.36377,-1.3125 0.8125,-1.3125 0.44873,0 0.8125,0.5876 0.8125,1.3125 z"
            transform="matrix(3.6923078,-7.0710678e-8,7.0710678e-8,2.2857143,3950.3183,-1379.1501)"/>
      <path transform="matrix(0.77241381,0,0,0.77241381,4869.9392,-39.237242)"
            d="m 285,1031.7372 c 0,4.2901 -3.47778,7.7678 -7.76785,7.7678 -4.29007,0 -7.76786,-3.4777 -7.76786,-7.7678 0,-4.2901 3.47779,-7.7679 7.76786,-7.7679 4.29007,0 7.76785,3.4778 7.76785,7.7679 z"
            id="de:11000:900096101"
            style="fill:#ffffff;fill-opacity:1;stroke:#000000;stroke-width:2.58928561;stroke-linejoin:round;stroke-miterlimit:4;stroke-opacity:1;stroke-dasharray:none"/>
      <path transform="matrix(3.6923078,-7.0710678e-8,7.0710678e-8,2.2857143,3886.8903,-1442.578)"
            d="m 345.5,1032.9247 c 0,0.7249 -0.36377,1.3125 -0.8125,1.3125 -0.44873,0 -0.8125,-0.5876 -0.8125,-1.3125 0,-0.7249 0.36377,-1.3125 0.8125,-1.3125 0.44873,0 0.8125,0.5876 0.8125,1.3125 z"
            id="de:11000:900085202" style="fill:#ffffff;fill-opacity:1;stroke:none"/>
      <path transform="matrix(3.6923078,-7.0710678e-8,7.0710678e-8,2.2857143,3864.1893,-1465.279)"
            d="m 345.5,1032.9247 c 0,0.7249 -0.36377,1.3125 -0.8125,1.3125 -0.44873,0 -0.8125,-0.5876 -0.8125,-1.3125 0,-0.7249 0.36377,-1.3125 0.8125,-1.3125 0.44873,0 0.8125,0.5876 0.8125,1.3125 z"
            id="de:11000:900085203" style="fill:#ffffff;fill-opacity:1;stroke:none"/>
      <path style="fill:#ffffff;fill-opacity:1;stroke:none" id="de:11000:900085104"
            d="m 345.5,1032.9247 c 0,0.7249 -0.36377,1.3125 -0.8125,1.3125 -0.44873,0 -0.8125,-0.5876 -0.8125,-1.3125 0,-0.7249 0.36377,-1.3125 0.8125,-1.3125 0.44873,0 0.8125,0.5876 0.8125,1.3125 z"
            transform="matrix(3.6923078,-7.0710678e-8,7.0710678e-8,2.2857143,3841.5068,-1487.9616)"/>
      <path style="fill:#f3791d;fill-opacity:1;stroke:none" id="de:11000:900009202"
            d="m 285,1031.7372 c 0,4.2901 -3.47778,7.7678 -7.76785,7.7678 -4.29007,0 -7.76786,-3.4777 -7.76786,-7.7678 0,-4.2901 3.47779,-7.7679 7.76786,-7.7679 4.29007,0 7.76785,3.4778 7.76785,7.7679 z"
            transform="matrix(0.3862069,0,0,0.3862069,5083.9115,551.27254)"/>
      <path transform="matrix(0.3862069,0,0,0.3862069,4977.0082,359.22736)"
            d="m 285,1031.7372 c 0,4.2901 -3.47778,7.7678 -7.76785,7.7678 -4.29007,0 -7.76786,-3.4777 -7.76786,-7.7678 0,-4.2901 3.47779,-7.7679 7.76786,-7.7679 4.29007,0 7.76785,3.4778 7.76785,7.7679 z"
            id="de:11000:900096101" style="fill:#224f86;fill-opacity:1;stroke:none"/>
      <path transform="matrix(0.3862069,0,0,0.3862069,4824.0365,423.64749)"
            d="m 285,1031.7372 c 0,4.2901 -3.47778,7.7678 -7.76785,7.7678 -4.29007,0 -7.76786,-3.4777 -7.76786,-7.7678 0,-4.2901 3.47779,-7.7679 7.76786,-7.7679 4.29007,0 7.76785,3.4778 7.76785,7.7679 z"
            id="de:11000:900089301" style="fill:#8c6dab;fill-opacity:1;stroke:none"/>
      <path style="fill:#ffffff;fill-opacity:1;stroke:none" id="de:11000:900009101"
            d="m 345.5,1032.9247 c 0,0.7249 -0.36377,1.3125 -0.8125,1.3125 -0.44873,0 -0.8125,-0.5876 -0.8125,-1.3125 0,-0.7249 0.36377,-1.3125 0.8125,-1.3125 0.44873,0 0.8125,0.5876 0.8125,1.3125 z"
            transform="matrix(3.6923078,-7.0710678e-8,7.0710678e-8,2.2857143,3807.456,-1300.0143)"/>
      <path transform="matrix(3.6923078,-7.0710678e-8,7.0710678e-8,2.2857143,3772.1004,-1264.6589)"
            d="m 345.5,1032.9247 c 0,0.7249 -0.36377,1.3125 -0.8125,1.3125 -0.44873,0 -0.8125,-0.5876 -0.8125,-1.3125 0,-0.7249 0.36377,-1.3125 0.8125,-1.3125 0.44873,0 0.8125,0.5876 0.8125,1.3125 z"
            id="de:11000:900001201" style="fill:#ffffff;fill-opacity:1;stroke:none"/>
      <path style="fill:#ffffff;fill-opacity:1;stroke:none" id="de:11000:900002201"
            d="m 345.5,1032.9247 c 0,0.7249 -0.36377,1.3125 -0.8125,1.3125 -0.44873,0 -0.8125,-0.5876 -0.8125,-1.3125 0,-0.7249 0.36377,-1.3125 0.8125,-1.3125 0.44873,0 0.8125,0.5876 0.8125,1.3125 z"
            transform="matrix(3.6923078,-7.0710678e-8,7.0710678e-8,2.2857143,3736.7451,-1229.3032)"/>
      <path transform="matrix(3.6923078,-7.0710678e-8,7.0710678e-8,2.2857143,3701.3898,-1193.9482)"
            d="m 345.5,1032.9247 c 0,0.7249 -0.36377,1.3125 -0.8125,1.3125 -0.44873,0 -0.8125,-0.5876 -0.8125,-1.3125 0,-0.7249 0.36377,-1.3125 0.8125,-1.3125 0.44873,0 0.8125,0.5876 0.8125,1.3125 z"
            id="de:11000:900003104" style="fill:#ffffff;fill-opacity:1;stroke:none"/>
      <path transform="matrix(3.6923078,-7.0710678e-8,7.0710678e-8,2.2857143,3996.3161,-908.09955)"
            d="m 345.5,1032.9247 c 0,0.7249 -0.36377,1.3125 -0.8125,1.3125 -0.44873,0 -0.8125,-0.5876 -0.8125,-1.3125 0,-0.7249 0.36377,-1.3125 0.8125,-1.3125 0.44873,0 0.8125,0.5876 0.8125,1.3125 z"
            id="de:11000:900017102" style="fill:#ffffff;fill-opacity:1;stroke:none"/>
      <path style="fill:#ffffff;fill-opacity:1;stroke:none" id="de:11000:900068101"
            d="m 345.5,1032.9247 c 0,0.7249 -0.36377,1.3125 -0.8125,1.3125 -0.44873,0 -0.8125,-0.5876 -0.8125,-1.3125 0,-0.7249 0.36377,-1.3125 0.8125,-1.3125 0.44873,0 0.8125,0.5876 0.8125,1.3125 z"
            transform="matrix(3.6923078,-7.0710678e-8,7.0710678e-8,2.2857143,3996.3162,-878.09948)"/>
      <path transform="matrix(3.6923078,-7.0710678e-8,7.0710678e-8,2.2857143,3996.3163,-848.09914)"
            d="m 345.5,1032.9247 c 0,0.7249 -0.36377,1.3125 -0.8125,1.3125 -0.44873,0 -0.8125,-0.5876 -0.8125,-1.3125 0,-0.7249 0.36377,-1.3125 0.8125,-1.3125 0.44873,0 0.8125,0.5876 0.8125,1.3125 z"
            id="de:11000:900068201" style="fill:#ffffff;fill-opacity:1;stroke:none"/>
      <path style="fill:#ffffff;fill-opacity:1;stroke:none" id="de:11000:900068202"
            d="m 345.5,1032.9247 c 0,0.7249 -0.36377,1.3125 -0.8125,1.3125 -0.44873,0 -0.8125,-0.5876 -0.8125,-1.3125 0,-0.7249 0.36377,-1.3125 0.8125,-1.3125 0.44873,0 0.8125,0.5876 0.8125,1.3125 z"
            transform="matrix(3.6923078,-7.0710678e-8,7.0710678e-8,2.2857143,3996.3161,-818.09914)"/>
      <path transform="matrix(3.6923078,-7.0710678e-8,7.0710678e-8,2.2857143,3996.3161,-788.09915)"
            d="m 345.5,1032.9247 c 0,0.7249 -0.36377,1.3125 -0.8125,1.3125 -0.44873,0 -0.8125,-0.5876 -0.8125,-1.3125 0,-0.7249 0.36377,-1.3125 0.8125,-1.3125 0.44873,0 0.8125,0.5876 0.8125,1.3125 z"
            id="de:11000:900068302" style="fill:#ffffff;fill-opacity:1;stroke:none"/>
      <path style="fill:#ffffff;fill-opacity:1;stroke:none" id="de:11000:900069271"
            d="m 345.5,1032.9247 c 0,0.7249 -0.36377,1.3125 -0.8125,1.3125 -0.44873,0 -0.8125,-0.5876 -0.8125,-1.3125 0,-0.7249 0.36377,-1.3125 0.8125,-1.3125 0.44873,0 0.8125,0.5876 0.8125,1.3125 z"
            transform="matrix(3.6923078,-7.0710678e-8,7.0710678e-8,2.2857143,3996.3161,-758.09915)"/>
      <path transform="matrix(3.6923078,-7.0710678e-8,7.0710678e-8,2.2857143,3996.3161,-728.09944)"
            d="m 345.5,1032.9247 c 0,0.7249 -0.36377,1.3125 -0.8125,1.3125 -0.44873,0 -0.8125,-0.5876 -0.8125,-1.3125 0,-0.7249 0.36377,-1.3125 0.8125,-1.3125 0.44873,0 0.8125,0.5876 0.8125,1.3125 z"
            id="de:11000:900070101" style="fill:#ffffff;fill-opacity:1;stroke:none"/>
      <path transform="matrix(0.77241381,0,0,0.77241381,5054.7708,869.85144)"
            d="m 285,1031.7372 c 0,4.2901 -3.47778,7.7678 -7.76785,7.7678 -4.29007,0 -7.76786,-3.4777 -7.76786,-7.7678 0,-4.2901 3.47779,-7.7679 7.76786,-7.7679 4.29007,0 7.76785,3.4778 7.76785,7.7679 z"
            id="de:11000:900070301"
            style="fill:#ffffff;fill-opacity:1;stroke:#000000;stroke-width:2.58928561;stroke-linejoin:round;stroke-miterlimit:4;stroke-opacity:1;stroke-dasharray:none"/>
      <path style="fill:#8c6dab;fill-opacity:1;stroke:none" id="de:11000:900070301"
            d="m 285,1031.7372 c 0,4.2901 -3.47778,7.7678 -7.76785,7.7678 -4.29007,0 -7.76786,-3.4777 -7.76786,-7.7678 0,-4.2901 3.47779,-7.7679 7.76786,-7.7679 4.29007,0 7.76785,3.4778 7.76785,7.7679 z"
            transform="matrix(0.3862069,0,0,0.3862069,5161.8395,1268.3159)"/>
      <path transform="matrix(0.77241381,0,0,0.77241381,4450.8603,874.04877)"
            d="m 285,1031.7372 c 0,4.2901 -3.47778,7.7678 -7.76785,7.7678 -4.29007,0 -7.76786,-3.4777 -7.76786,-7.7678 0,-4.2901 3.47779,-7.7679 7.76786,-7.7679 4.29007,0 7.76785,3.4778 7.76785,7.7679 z"
            id="de:11000:900050201"
            style="fill:#ffffff;fill-opacity:1;stroke:#000000;stroke-width:2.58928561;stroke-linejoin:round;stroke-miterlimit:4;stroke-opacity:1;stroke-dasharray:none"/>
      <path style="fill:#007a5b;fill-opacity:1;stroke:none" id="de:11000:900050201"
            d="m 285,1031.7372 c 0,4.2901 -3.47778,7.7678 -7.76785,7.7678 -4.29007,0 -7.76786,-3.4777 -7.76786,-7.7678 0,-4.2901 3.47779,-7.7679 7.76786,-7.7679 4.29007,0 7.76785,3.4778 7.76785,7.7679 z"
            transform="matrix(0.3862069,0,0,0.3862069,4557.9296,1272.5124)"/>
      <path transform="matrix(3.6923078,-7.0710678e-8,7.0710678e-8,2.2857143,3530.2164,-978.56621)"
            d="m 345.5,1032.9247 c 0,0.7249 -0.36377,1.3125 -0.8125,1.3125 -0.44873,0 -0.8125,-0.5876 -0.8125,-1.3125 0,-0.7249 0.36377,-1.3125 0.8125,-1.3125 0.44873,0 0.8125,0.5876 0.8125,1.3125 z"
            id="de:11000:900023302" style="fill:#ffffff;fill-opacity:1;stroke:none"/>
      <path style="fill:#ffffff;fill-opacity:1;stroke:none" id="de:11000:900078102"
            d="m 345.5,1032.9247 c 0,0.7249 -0.36377,1.3125 -0.8125,1.3125 -0.44873,0 -0.8125,-0.5876 -0.8125,-1.3125 0,-0.7249 0.36377,-1.3125 0.8125,-1.3125 0.44873,0 0.8125,0.5876 0.8125,1.3125 z"
            transform="matrix(3.6923078,-7.0710678e-8,7.0710678e-8,2.2857143,4186.5846,-907.25475)"/>
      <path transform="matrix(3.6923078,-7.0710678e-8,7.0710678e-8,2.2857143,4207.7975,-886.04202)"
            d="m 345.5,1032.9247 c 0,0.7249 -0.36377,1.3125 -0.8125,1.3125 -0.44873,0 -0.8125,-0.5876 -0.8125,-1.3125 0,-0.7249 0.36377,-1.3125 0.8125,-1.3125 0.44873,0 0.8125,0.5876 0.8125,1.3125 z"
            id="de:11000:900078103" style="fill:#ffffff;fill-opacity:1;stroke:none"/>
      <path style="fill:#ffffff;fill-opacity:1;stroke:none" id="de:11000:900078201"
            d="m 345.5,1032.9247 c 0,0.7249 -0.36377,1.3125 -0.8125,1.3125 -0.44873,0 -0.8125,-0.5876 -0.8125,-1.3125 0,-0.7249 0.36377,-1.3125 0.8125,-1.3125 0.44873,0 0.8125,0.5876 0.8125,1.3125 z"
            transform="matrix(3.6923078,-7.0710678e-8,7.0710678e-8,2.2857143,4229.0105,-864.82872)"/>
      <path transform="matrix(3.6923078,-7.0710678e-8,7.0710678e-8,2.2857143,4250.2237,-843.61565)"
            d="m 345.5,1032.9247 c 0,0.7249 -0.36377,1.3125 -0.8125,1.3125 -0.44873,0 -0.8125,-0.5876 -0.8125,-1.3125 0,-0.7249 0.36377,-1.3125 0.8125,-1.3125 0.44873,0 0.8125,0.5876 0.8125,1.3125 z"
            id="de:11000:900080202" style="fill:#ffffff;fill-opacity:1;stroke:none"/>
      <path style="fill:#ffffff;fill-opacity:1;stroke:none" id="de:11000:900080201"
            d="m 345.5,1032.9247 c 0,0.7249 -0.36377,1.3125 -0.8125,1.3125 -0.44873,0 -0.8125,-0.5876 -0.8125,-1.3125 0,-0.7249 0.36377,-1.3125 0.8125,-1.3125 0.44873,0 0.8125,0.5876 0.8125,1.3125 z"
            transform="matrix(3.6923078,-7.0710678e-8,7.0710678e-8,2.2857143,4271.4369,-822.4022)"/>
      <path transform="matrix(3.6923078,-7.0710678e-8,7.0710678e-8,2.2857143,4292.6503,-801.18905)"
            d="m 345.5,1032.9247 c 0,0.7249 -0.36377,1.3125 -0.8125,1.3125 -0.44873,0 -0.8125,-0.5876 -0.8125,-1.3125 0,-0.7249 0.36377,-1.3125 0.8125,-1.3125 0.44873,0 0.8125,0.5876 0.8125,1.3125 z"
            id="de:11000:900080401" style="fill:#ffffff;fill-opacity:1;stroke:none"/>
      <path style="fill:#ffffff;fill-opacity:1;stroke:none" id="de:11000:900080402"
            d="m 345.5,1032.9247 c 0,0.7249 -0.36377,1.3125 -0.8125,1.3125 -0.44873,0 -0.8125,-0.5876 -0.8125,-1.3125 0,-0.7249 0.36377,-1.3125 0.8125,-1.3125 0.44873,0 0.8125,0.5876 0.8125,1.3125 z"
            transform="matrix(3.6923078,-7.0710678e-8,7.0710678e-8,2.2857143,4313.8633,-779.97592)"/>
      <path transform="matrix(3.6923078,-7.0710678e-8,7.0710678e-8,2.2857143,4335.0765,-758.76285)"
            d="m 345.5,1032.9247 c 0,0.7249 -0.36377,1.3125 -0.8125,1.3125 -0.44873,0 -0.8125,-0.5876 -0.8125,-1.3125 0,-0.7249 0.36377,-1.3125 0.8125,-1.3125 0.44873,0 0.8125,0.5876 0.8125,1.3125 z"
            id="de:11000:900082202" style="fill:#ffffff;fill-opacity:1;stroke:none"/>
      <path style="fill:#ffffff;fill-opacity:1;stroke:none" id="de:11000:900082201"
            d="m 345.5,1032.9247 c 0,0.7249 -0.36377,1.3125 -0.8125,1.3125 -0.44873,0 -0.8125,-0.5876 -0.8125,-1.3125 0,-0.7249 0.36377,-1.3125 0.8125,-1.3125 0.44873,0 0.8125,0.5876 0.8125,1.3125 z"
            transform="matrix(3.6923078,-7.0710678e-8,7.0710678e-8,2.2857143,4356.2898,-737.54964)"/>
      <path transform="matrix(3.6923078,-7.0710678e-8,7.0710678e-8,2.2857143,4377.5029,-716.33679)"
            d="m 345.5,1032.9247 c 0,0.7249 -0.36377,1.3125 -0.8125,1.3125 -0.44873,0 -0.8125,-0.5876 -0.8125,-1.3125 0,-0.7249 0.36377,-1.3125 0.8125,-1.3125 0.44873,0 0.8125,0.5876 0.8125,1.3125 z"
            id="de:11000:900083102" style="fill:#ffffff;fill-opacity:1;stroke:none"/>
      <path style="fill:#ffffff;fill-opacity:1;stroke:none" id="de:11000:900083101"
            d="m 345.5,1032.9247 c 0,0.7249 -0.36377,1.3125 -0.8125,1.3125 -0.44873,0 -0.8125,-0.5876 -0.8125,-1.3125 0,-0.7249 0.36377,-1.3125 0.8125,-1.3125 0.44873,0 0.8125,0.5876 0.8125,1.3125 z"
            transform="matrix(3.6923078,-7.0710678e-8,7.0710678e-8,2.2857143,4398.7159,-695.12345)"/>
      <path transform="matrix(0.77241381,0,0,0.77241381,5480.6542,892.373)"
            d="m 285,1031.7372 c 0,4.2901 -3.47778,7.7678 -7.76785,7.7678 -4.29007,0 -7.76786,-3.4777 -7.76786,-7.7678 0,-4.2901 3.47779,-7.7679 7.76786,-7.7679 4.29007,0 7.76785,3.4778 7.76785,7.7679 z"
            id="de:11000:900083201"
            style="fill:#ffffff;fill-opacity:1;stroke:#000000;stroke-width:2.58928561;stroke-linejoin:round;stroke-miterlimit:4;stroke-opacity:1;stroke-dasharray:none"/>
      <path style="fill:#528dba;fill-opacity:1;stroke:none" id="de:11000:900083201"
            d="m 285,1031.7372 c 0,4.2901 -3.47778,7.7678 -7.76785,7.7678 -4.29007,0 -7.76786,-3.4777 -7.76786,-7.7678 0,-4.2901 3.47779,-7.7679 7.76786,-7.7679 4.29007,0 7.76785,3.4778 7.76785,7.7679 z"
            transform="matrix(0.3862069,0,0,0.3862069,5587.7229,1290.8375)"/>
      <path
        style="fill:#ffffff;fill-opacity:1;stroke:#000000;stroke-width:2.58928561;stroke-linejoin:round;stroke-miterlimit:4;stroke-opacity:1;stroke-dasharray:none"
        id="de:11000:900024201"
        d="m 285,1031.7372 c 0,4.2901 -3.47778,7.7678 -7.76785,7.7678 -4.29007,0 -7.76786,-3.4777 -7.76786,-7.7678 0,-4.2901 3.47779,-7.7679 7.76786,-7.7679 4.29007,0 7.76785,3.4778 7.76785,7.7679 z"
        transform="matrix(0.77241381,0,0,0.77241381,4588.7894,463.54802)"/>
      <path transform="matrix(3.6923078,-7.0710678e-8,7.0710678e-8,2.2857143,3633.8702,-1100.5389)"
            d="m 345.5,1032.9247 c 0,0.7249 -0.36377,1.3125 -0.8125,1.3125 -0.44873,0 -0.8125,-0.5876 -0.8125,-1.3125 0,-0.7249 0.36377,-1.3125 0.8125,-1.3125 0.44873,0 0.8125,0.5876 0.8125,1.3125 z"
            id="de:11000:900023101" style="fill:#ffffff;fill-opacity:1;stroke:none"/>
      <path style="fill:#ffffff;fill-opacity:1;stroke:none" id="de:11000:900022201"
            d="m 345.5,1032.9247 c 0,0.7249 -0.36377,1.3125 -0.8125,1.3125 -0.44873,0 -0.8125,-0.5876 -0.8125,-1.3125 0,-0.7249 0.36377,-1.3125 0.8125,-1.3125 0.44873,0 0.8125,0.5876 0.8125,1.3125 z"
            transform="matrix(3.6923078,-7.0710678e-8,7.0710678e-8,2.2857143,3588.9689,-1100.5388)"/>
      <path transform="matrix(3.6923078,-7.0710678e-8,7.0710678e-8,2.2857143,3488.2062,-1100.5389)"
            d="m 345.5,1032.9247 c 0,0.7249 -0.36377,1.3125 -0.8125,1.3125 -0.44873,0 -0.8125,-0.5876 -0.8125,-1.3125 0,-0.7249 0.36377,-1.3125 0.8125,-1.3125 0.44873,0 0.8125,0.5876 0.8125,1.3125 z"
            id="de:11000:900022101" style="fill:#ffffff;fill-opacity:1;stroke:none"/>
      <path style="fill:#ffffff;fill-opacity:1;stroke:none" id="de:11000:900026202"
            d="m 345.5,1032.9247 c 0,0.7249 -0.36377,1.3125 -0.8125,1.3125 -0.44873,0 -0.8125,-0.5876 -0.8125,-1.3125 0,-0.7249 0.36377,-1.3125 0.8125,-1.3125 0.44873,0 0.8125,0.5876 0.8125,1.3125 z"
            transform="matrix(3.6923078,-7.0710678e-8,7.0710678e-8,2.2857143,3448.2064,-1100.5388)"/>
      <path style="fill:#ffffff;fill-opacity:1;stroke:none" id="de:11000:900026201"
            d="m 345.5,1032.9247 c 0,0.7249 -0.36377,1.3125 -0.8125,1.3125 -0.44873,0 -0.8125,-0.5876 -0.8125,-1.3125 0,-0.7249 0.36377,-1.3125 0.8125,-1.3125 0.44873,0 0.8125,0.5876 0.8125,1.3125 z"
            transform="matrix(3.6923078,-7.0710678e-8,7.0710678e-8,2.2857143,3408.2061,-1100.5388)"/>
      <path style="fill:#ffffff;fill-opacity:1;stroke:none" id="de:11000:900024202"
            d="m 345.5,1032.9247 c 0,0.7249 -0.36377,1.3125 -0.8125,1.3125 -0.44873,0 -0.8125,-0.5876 -0.8125,-1.3125 0,-0.7249 0.36377,-1.3125 0.8125,-1.3125 0.44873,0 0.8125,0.5876 0.8125,1.3125 z"
            transform="matrix(3.6923078,-7.0710678e-8,7.0710678e-8,2.2857143,3530.2164,-1027.8162)"/>
      <path transform="matrix(3.6923078,-7.0710678e-8,7.0710678e-8,2.2857143,3374.7986,-1119.9432)"
            d="m 345.5,1032.9247 c 0,0.7249 -0.36377,1.3125 -0.8125,1.3125 -0.44873,0 -0.8125,-0.5876 -0.8125,-1.3125 0,-0.7249 0.36377,-1.3125 0.8125,-1.3125 0.44873,0 0.8125,0.5876 0.8125,1.3125 z"
            id="de:11000:900026101" style="fill:#ffffff;fill-opacity:1;stroke:none"/>
      <path transform="matrix(0.77241381,0,0,0.77241381,4375.4144,386.13029)"
            d="m 285,1031.7372 c 0,4.2901 -3.47778,7.7678 -7.76785,7.7678 -4.29007,0 -7.76786,-3.4777 -7.76786,-7.7678 0,-4.2901 3.47779,-7.7679 7.76786,-7.7679 4.29007,0 7.76785,3.4778 7.76785,7.7679 z"
            id="de:11000:900025202"
            style="fill:#ffffff;fill-opacity:1;stroke:#000000;stroke-width:2.58928561;stroke-linejoin:round;stroke-miterlimit:4;stroke-opacity:1;stroke-dasharray:none"/>
      <path style="fill:#da421e;fill-opacity:1;stroke:none" id="de:11000:900025202"
            d="m 285,1031.7372 c 0,4.2901 -3.47778,7.7678 -7.76785,7.7678 -4.29007,0 -7.76786,-3.4777 -7.76786,-7.7678 0,-4.2901 3.47779,-7.7679 7.76786,-7.7679 4.29007,0 7.76785,3.4778 7.76785,7.7679 z"
            transform="matrix(0.3862069,0,0,0.3862069,4482.4836,784.59452)"/>
      <path transform="matrix(3.6923078,-7.0710678e-8,7.0710678e-8,2.2857143,3530.2164,-1138.4781)"
            d="m 345.5,1032.9247 c 0,0.7249 -0.36377,1.3125 -0.8125,1.3125 -0.44873,0 -0.8125,-0.5876 -0.8125,-1.3125 0,-0.7249 0.36377,-1.3125 0.8125,-1.3125 0.44873,0 0.8125,0.5876 0.8125,1.3125 z"
            id="de:11000:900022202" style="fill:#ffffff;fill-opacity:1;stroke:none"/>
      <path style="fill:#ffffff;fill-opacity:1;stroke:none" id="de:11000:900019204"
            d="m 345.5,1032.9247 c 0,0.7249 -0.36377,1.3125 -0.8125,1.3125 -0.44873,0 -0.8125,-0.5876 -0.8125,-1.3125 0,-0.7249 0.36377,-1.3125 0.8125,-1.3125 0.44873,0 0.8125,0.5876 0.8125,1.3125 z"
            transform="matrix(3.6923078,-7.0710678e-8,7.0710678e-8,2.2857143,3530.2164,-1168.4781)"/>
      <path style="fill:#ffffff;fill-opacity:1;stroke:none" id="de:11000:900020201"
            d="m 345.5,1032.9247 c 0,0.7249 -0.36377,1.3125 -0.8125,1.3125 -0.44873,0 -0.8125,-0.5876 -0.8125,-1.3125 0,-0.7249 0.36377,-1.3125 0.8125,-1.3125 0.44873,0 0.8125,0.5876 0.8125,1.3125 z"
            transform="matrix(3.6923078,-7.0710678e-8,7.0710678e-8,2.2857143,3530.2163,-1198.4785)"/>
      <path transform="matrix(3.6923078,-7.0710678e-8,7.0710678e-8,2.2857143,3503.3607,-1221.7569)"
            d="m 345.5,1032.9247 c 0,0.7249 -0.36377,1.3125 -0.8125,1.3125 -0.44873,0 -0.8125,-0.5876 -0.8125,-1.3125 0,-0.7249 0.36377,-1.3125 0.8125,-1.3125 0.44873,0 0.8125,0.5876 0.8125,1.3125 z"
            id="de:11000:900018101" style="fill:#ffffff;fill-opacity:1;stroke:none"/>
      <path transform="matrix(3.6923078,-7.0710678e-8,7.0710678e-8,2.2857143,3463.3605,-1221.7569)"
            d="m 345.5,1032.9247 c 0,0.7249 -0.36377,1.3125 -0.8125,1.3125 -0.44873,0 -0.8125,-0.5876 -0.8125,-1.3125 0,-0.7249 0.36377,-1.3125 0.8125,-1.3125 0.44873,0 0.8125,0.5876 0.8125,1.3125 z"
            id="de:11000:900018102" style="fill:#ffffff;fill-opacity:1;stroke:none"/>
      <path style="fill:#ffffff;fill-opacity:1;stroke:none" id="de:11000:900035101"
            d="m 345.5,1032.9247 c 0,0.7249 -0.36377,1.3125 -0.8125,1.3125 -0.44873,0 -0.8125,-0.5876 -0.8125,-1.3125 0,-0.7249 0.36377,-1.3125 0.8125,-1.3125 0.44873,0 0.8125,0.5876 0.8125,1.3125 z"
            transform="matrix(3.6923078,-7.0710678e-8,7.0710678e-8,2.2857143,3423.3606,-1221.7569)"/>
      <path style="fill:#ffffff;fill-opacity:1;stroke:none" id="de:11000:900036101"
            d="m 345.5,1032.9247 c 0,0.7249 -0.36377,1.3125 -0.8125,1.3125 -0.44873,0 -0.8125,-0.5876 -0.8125,-1.3125 0,-0.7249 0.36377,-1.3125 0.8125,-1.3125 0.44873,0 0.8125,0.5876 0.8125,1.3125 z"
            transform="matrix(3.6923078,-7.0710678e-8,7.0710678e-8,2.2857143,3383.36,-1221.7569)"/>
      <path transform="matrix(3.6923078,-7.0710678e-8,7.0710678e-8,2.2857143,3343.3604,-1221.7568)"
            d="m 345.5,1032.9247 c 0,0.7249 -0.36377,1.3125 -0.8125,1.3125 -0.44873,0 -0.8125,-0.5876 -0.8125,-1.3125 0,-0.7249 0.36377,-1.3125 0.8125,-1.3125 0.44873,0 0.8125,0.5876 0.8125,1.3125 z"
            id="de:11000:900034101" style="fill:#ffffff;fill-opacity:1;stroke:none"/>
      <path transform="matrix(3.6923078,-7.0710678e-8,7.0710678e-8,2.2857143,3303.3599,-1221.7569)"
            d="m 345.5,1032.9247 c 0,0.7249 -0.36377,1.3125 -0.8125,1.3125 -0.44873,0 -0.8125,-0.5876 -0.8125,-1.3125 0,-0.7249 0.36377,-1.3125 0.8125,-1.3125 0.44873,0 0.8125,0.5876 0.8125,1.3125 z"
            id="de:11000:900034102" style="fill:#ffffff;fill-opacity:1;stroke:none"/>
      <path style="fill:#ffffff;fill-opacity:1;stroke:none" id="de:11000:900033101"
            d="m 345.5,1032.9247 c 0,0.7249 -0.36377,1.3125 -0.8125,1.3125 -0.44873,0 -0.8125,-0.5876 -0.8125,-1.3125 0,-0.7249 0.36377,-1.3125 0.8125,-1.3125 0.44873,0 0.8125,0.5876 0.8125,1.3125 z"
            transform="matrix(3.6923078,-7.0710678e-8,7.0710678e-8,2.2857143,3263.3604,-1221.7571)"/>
      <path style="fill:#ffffff;fill-opacity:1;stroke:none" id="de:11000:900029301"
            d="m 345.5,1032.9247 c 0,0.7249 -0.36377,1.3125 -0.8125,1.3125 -0.44873,0 -0.8125,-0.5876 -0.8125,-1.3125 0,-0.7249 0.36377,-1.3125 0.8125,-1.3125 0.44873,0 0.8125,0.5876 0.8125,1.3125 z"
            transform="matrix(3.6923078,-7.0710678e-8,7.0710678e-8,2.2857143,3223.36,-1221.7568)"/>
      <path style="fill:#ffffff;fill-opacity:1;stroke:none" id="de:11000:900025203"
            d="m 345.5,1032.9247 c 0,0.7249 -0.36377,1.3125 -0.8125,1.3125 -0.44873,0 -0.8125,-0.5876 -0.8125,-1.3125 0,-0.7249 0.36377,-1.3125 0.8125,-1.3125 0.44873,0 0.8125,0.5876 0.8125,1.3125 z"
            transform="matrix(3.6923078,-7.0710678e-8,7.0710678e-8,2.2857143,3350.0497,-1144.6922)"/>
      <path transform="matrix(0.77241381,0,0,0.77241381,4230.206,342.27948)"
            d="m 285,1031.7372 c 0,4.2901 -3.47778,7.7678 -7.76785,7.7678 -4.29007,0 -7.76786,-3.4777 -7.76786,-7.7678 0,-4.2901 3.47779,-7.7679 7.76786,-7.7679 4.29007,0 7.76785,3.4778 7.76785,7.7679 z"
            id="de:11000:900029302"
            style="fill:#ffffff;fill-opacity:1;stroke:#000000;stroke-width:2.58928561;stroke-linejoin:round;stroke-miterlimit:4;stroke-opacity:1;stroke-dasharray:none"/>
      <path style="fill:#528dba;fill-opacity:1;stroke:none" id="de:11000:900029302"
            d="m 285,1031.7372 c 0,4.2901 -3.47778,7.7678 -7.76785,7.7678 -4.29007,0 -7.76786,-3.4777 -7.76786,-7.7678 0,-4.2901 3.47779,-7.7679 7.76786,-7.7679 4.29007,0 7.76785,3.4778 7.76785,7.7679 z"
            transform="matrix(0.3862069,0,0,0.3862069,4337.2748,740.74394)"/>
      <path style="fill:#ffffff;fill-opacity:1;stroke:none" id="de:11000:900161002"
            d="m 345.5,1032.9247 c 0,0.7249 -0.36377,1.3125 -0.8125,1.3125 -0.44873,0 -0.8125,-0.5876 -0.8125,-1.3125 0,-0.7249 0.36377,-1.3125 0.8125,-1.3125 0.44873,0 0.8125,0.5876 0.8125,1.3125 z"
            transform="matrix(3.6923078,-7.0710678e-8,7.0710678e-8,2.2857143,4503.6055,-1127.9048)"/>
      <path style="fill:#ffffff;fill-opacity:1;stroke:none" id="de:11000:900161512"
            d="m 345.5,1032.9247 c 0,0.7249 -0.36377,1.3125 -0.8125,1.3125 -0.44873,0 -0.8125,-0.5876 -0.8125,-1.3125 0,-0.7249 0.36377,-1.3125 0.8125,-1.3125 0.44873,0 0.8125,0.5876 0.8125,1.3125 z"
            transform="matrix(3.6923078,-7.0710678e-8,7.0710678e-8,2.2857143,4483.232,-1148.2781)"/>
      <path transform="matrix(3.6923078,-7.0710678e-8,7.0710678e-8,2.2857143,4462.814,-1168.6958)"
            d="m 345.5,1032.9247 c 0,0.7249 -0.36377,1.3125 -0.8125,1.3125 -0.44873,0 -0.8125,-0.5876 -0.8125,-1.3125 0,-0.7249 0.36377,-1.3125 0.8125,-1.3125 0.44873,0 0.8125,0.5876 0.8125,1.3125 z"
            id="de:11000:900160004" style="fill:#ffffff;fill-opacity:1;stroke:none"/>
      <path transform="matrix(3.6923078,-7.0710678e-8,7.0710678e-8,2.2857143,4539.1056,-1127.9048)"
            d="m 345.5,1032.9247 c 0,0.7249 -0.36377,1.3125 -0.8125,1.3125 -0.44873,0 -0.8125,-0.5876 -0.8125,-1.3125 0,-0.7249 0.36377,-1.3125 0.8125,-1.3125 0.44873,0 0.8125,0.5876 0.8125,1.3125 z"
            id="de:11000:900171005" style="fill:#ffffff;fill-opacity:1;stroke:none"/>
      <path transform="matrix(3.6923078,-7.0710678e-8,7.0710678e-8,2.2857143,4559.4086,-1148.2784)"
            d="m 345.5,1032.9247 c 0,0.7249 -0.36377,1.3125 -0.8125,1.3125 -0.44873,0 -0.8125,-0.5876 -0.8125,-1.3125 0,-0.7249 0.36377,-1.3125 0.8125,-1.3125 0.44873,0 0.8125,0.5876 0.8125,1.3125 z"
            id="de:11000:900171006" style="fill:#ffffff;fill-opacity:1;stroke:none"/>
      <path style="fill:#ffffff;fill-opacity:1;stroke:none" id="de:11000:900175001"
            d="m 345.5,1032.9247 c 0,0.7249 -0.36377,1.3125 -0.8125,1.3125 -0.44873,0 -0.8125,-0.5876 -0.8125,-1.3125 0,-0.7249 0.36377,-1.3125 0.8125,-1.3125 0.44873,0 0.8125,0.5876 0.8125,1.3125 z"
            transform="matrix(3.6923078,-7.0710678e-8,7.0710678e-8,2.2857143,4579.8188,-1168.696)"/>
      <path style="fill:#ffffff;fill-opacity:1;stroke:none" id="de:11000:900175004"
            d="m 345.5,1032.9247 c 0,0.7249 -0.36377,1.3125 -0.8125,1.3125 -0.44873,0 -0.8125,-0.5876 -0.8125,-1.3125 0,-0.7249 0.36377,-1.3125 0.8125,-1.3125 0.44873,0 0.8125,0.5876 0.8125,1.3125 z"
            transform="matrix(3.6923078,-7.0710678e-8,7.0710678e-8,2.2857143,4600.2441,-1189.1137)"/>
      <path transform="matrix(3.6923078,-7.0710678e-8,7.0710678e-8,2.2857143,4620.6545,-1209.5314)"
            d="m 345.5,1032.9247 c 0,0.7249 -0.36377,1.3125 -0.8125,1.3125 -0.44873,0 -0.8125,-0.5876 -0.8125,-1.3125 0,-0.7249 0.36377,-1.3125 0.8125,-1.3125 0.44873,0 0.8125,0.5876 0.8125,1.3125 z"
            id="de:11000:900175005" style="fill:#ffffff;fill-opacity:1;stroke:none"/>
      <path transform="matrix(3.6923078,-7.0710678e-8,7.0710678e-8,2.2857143,4641.1626,-1230.0396)"
            d="m 345.5,1032.9247 c 0,0.7249 -0.36377,1.3125 -0.8125,1.3125 -0.44873,0 -0.8125,-0.5876 -0.8125,-1.3125 0,-0.7249 0.36377,-1.3125 0.8125,-1.3125 0.44873,0 0.8125,0.5876 0.8125,1.3125 z"
            id="de:11000:900175006" style="fill:#ffffff;fill-opacity:1;stroke:none"/>
      <path transform="matrix(3.6923078,-7.0710678e-8,7.0710678e-8,2.2857143,4661.5879,-1250.4575)"
            d="m 345.5,1032.9247 c 0,0.7249 -0.36377,1.3125 -0.8125,1.3125 -0.44873,0 -0.8125,-0.5876 -0.8125,-1.3125 0,-0.7249 0.36377,-1.3125 0.8125,-1.3125 0.44873,0 0.8125,0.5876 0.8125,1.3125 z"
            id="de:11000:900175007" style="fill:#ffffff;fill-opacity:1;stroke:none"/>
      <path style="fill:#ffffff;fill-opacity:1;stroke:none" id="de:11000:900175015"
            d="m 345.5,1032.9247 c 0,0.7249 -0.36377,1.3125 -0.8125,1.3125 -0.44873,0 -0.8125,-0.5876 -0.8125,-1.3125 0,-0.7249 0.36377,-1.3125 0.8125,-1.3125 0.44873,0 0.8125,0.5876 0.8125,1.3125 z"
            transform="matrix(3.6923078,-7.0710678e-8,7.0710678e-8,2.2857143,4682,-1270.8751)"/>
      <path transform="matrix(0.77241381,0,0,0.77241381,5765.3359,268.61214)"
            d="m 285,1031.7372 c 0,4.2901 -3.47778,7.7678 -7.76785,7.7678 -4.29007,0 -7.76786,-3.4777 -7.76786,-7.7678 0,-4.2901 3.47779,-7.7679 7.76786,-7.7679 4.29007,0 7.76785,3.4778 7.76785,7.7679 z"
            id="de:11000:900175010"
            style="fill:#ffffff;fill-opacity:1;stroke:#000000;stroke-width:2.58928561;stroke-linejoin:round;stroke-miterlimit:4;stroke-opacity:1;stroke-dasharray:none"/>
      <path style="fill:#7e5330;fill-opacity:1;stroke:none" id="de:11000:900175010"
            d="m 285,1031.7372 c 0,4.2901 -3.47778,7.7678 -7.76785,7.7678 -4.29007,0 -7.76786,-3.4777 -7.76786,-7.7678 0,-4.2901 3.47779,-7.7679 7.76786,-7.7679 4.29007,0 7.76785,3.4778 7.76785,7.7679 z"
            transform="matrix(0.3862069,0,0,0.3862069,5872.4051,667.07662)"/>
      <path transform="matrix(3.6923078,-7.0710678e-8,7.0710678e-8,2.2857143,3818.7881,-1510.6801)"
            d="m 345.5,1032.9247 c 0,0.7249 -0.36377,1.3125 -0.8125,1.3125 -0.44873,0 -0.8125,-0.5876 -0.8125,-1.3125 0,-0.7249 0.36377,-1.3125 0.8125,-1.3125 0.44873,0 0.8125,0.5876 0.8125,1.3125 z"
            id="de:11000:900086160" style="fill:#ffffff;fill-opacity:1;stroke:none"/>
      <path transform="matrix(3.6923078,-7.0710678e-8,7.0710678e-8,2.2857143,3811.3914,-1545.4144)"
            d="m 345.5,1032.9247 c 0,0.7249 -0.36377,1.3125 -0.8125,1.3125 -0.44873,0 -0.8125,-0.5876 -0.8125,-1.3125 0,-0.7249 0.36377,-1.3125 0.8125,-1.3125 0.44873,0 0.8125,0.5876 0.8125,1.3125 z"
            id="de:11000:900096458" style="fill:#ffffff;fill-opacity:1;stroke:none"/>
      <path style="fill:#ffffff;fill-opacity:1;stroke:none" id="de:11000:900096410"
            d="m 345.5,1032.9247 c 0,0.7249 -0.36377,1.3125 -0.8125,1.3125 -0.44873,0 -0.8125,-0.5876 -0.8125,-1.3125 0,-0.7249 0.36377,-1.3125 0.8125,-1.3125 0.44873,0 0.8125,0.5876 0.8125,1.3125 z"
            transform="matrix(3.6923078,-7.0710678e-8,7.0710678e-8,2.2857143,3811.3914,-1570.4139)"/>
      <path transform="matrix(3.6923078,-7.0710678e-8,7.0710678e-8,2.2857143,3675.1842,-870.24876)"
            d="m 345.5,1032.9247 c 0,0.7249 -0.36377,1.3125 -0.8125,1.3125 -0.44873,0 -0.8125,-0.5876 -0.8125,-1.3125 0,-0.7249 0.36377,-1.3125 0.8125,-1.3125 0.44873,0 0.8125,0.5876 0.8125,1.3125 z"
            id="de:11000:900044202" style="fill:#ffffff;fill-opacity:1;stroke:none"/>
      <path style="fill:#ffffff;fill-opacity:1;stroke:none" id="de:11000:900061102"
            d="m 345.5,1032.9247 c 0,0.7249 -0.36377,1.3125 -0.8125,1.3125 -0.44873,0 -0.8125,-0.5876 -0.8125,-1.3125 0,-0.7249 0.36377,-1.3125 0.8125,-1.3125 0.44873,0 0.8125,0.5876 0.8125,1.3125 z"
            transform="matrix(3.6923078,-7.0710678e-8,7.0710678e-8,2.2857143,3675.1842,-832.10601)"/>
      <path transform="matrix(3.6923078,-7.0710678e-8,7.0710678e-8,2.2857143,3675.1842,-793.98093)"
            d="m 345.5,1032.9247 c 0,0.7249 -0.36377,1.3125 -0.8125,1.3125 -0.44873,0 -0.8125,-0.5876 -0.8125,-1.3125 0,-0.7249 0.36377,-1.3125 0.8125,-1.3125 0.44873,0 0.8125,0.5876 0.8125,1.3125 z"
            id="de:11000:900061101" style="fill:#ffffff;fill-opacity:1;stroke:none"/>
      <path
        style="fill:#ffffff;fill-opacity:1;stroke:#000000;stroke-width:2.58928561;stroke-linejoin:round;stroke-miterlimit:4;stroke-opacity:1;stroke-dasharray:none"
        id="de:11000:900100513"
        d="m 285,1031.7372 c 0,4.2901 -3.47778,7.7678 -7.76785,7.7678 -4.29007,0 -7.76786,-3.4777 -7.76786,-7.7678 0,-4.2901 3.47779,-7.7679 7.76786,-7.7679 4.29007,0 7.76785,3.4778 7.76785,7.7679 z"
        transform="matrix(0.77241381,0,0,0.77241381,5054.883,377.32445)"/>
      <path transform="matrix(0.77241381,0,0,0.77241381,4895.0769,377.32445)"
            d="m 285,1031.7372 c 0,4.2901 -3.47778,7.7678 -7.76785,7.7678 -4.29007,0 -7.76786,-3.4777 -7.76786,-7.7678 0,-4.2901 3.47779,-7.7679 7.76786,-7.7679 4.29007,0 7.76785,3.4778 7.76785,7.7679 z"
            id="de:11000:900003201"
            style="fill:#ffffff;fill-opacity:1;stroke:#000000;stroke-width:2.58928561;stroke-linejoin:round;stroke-miterlimit:4;stroke-opacity:1;stroke-dasharray:none"/>
      <path style="fill:#7e5330;fill-opacity:1;stroke:none" id="de:11000:900003201"
            d="m 285,1031.7372 c 0,4.2901 -3.47778,7.7678 -7.76785,7.7678 -4.29007,0 -7.76786,-3.4777 -7.76786,-7.7678 0,-4.2901 3.47779,-7.7679 7.76786,-7.7679 4.29007,0 7.76785,3.4778 7.76785,7.7679 z"
            transform="matrix(0.3862069,0,0,0.3862069,5002.1457,775.78848)"/>
      <path style="fill:#ffffff;fill-opacity:1;stroke:none" id="de:11000:900100537"
            d="m 345.5,1032.9247 a 0.8125,1.3125 0 1 1 -1.625,0 0.8125,1.3125 0 1 1 1.625,0 z"
            transform="matrix(3.6923078,-7.0710678e-8,7.0710678e-8,2.2857143,4030.2195,-1186.778)"/>
    </g>
  </g>
</svg>