<svg xmlns="http://www.w3.org/2000/svg" width="1661" height="1004" fill="none">
  <path stroke="#7E5330" stroke-width="8"
        d="M740.26 445.98h600.22c9.11 0 14.1 5.8 14.1 5.8l56.62 56.63s4.74 5.8 14.11 5.8 14.23-5.91 14.23-5.91l171.82-171.83"
        data-ubhnchn="3"/>
  <path stroke="#224F86" stroke-width="8" d="M1018.06 809.58V425.54s.58-7.64-5.86-14.07L823.62 222.89"
        data-ubhnchn="4"/>
  <path stroke="#8C6DAB" stroke-width="8" d="M900.3 938.59V439.91s.58-7.64-5.86-14.08L668.27 199.66" data-ubhnchn="5"/>
  <path stroke="#528DBA" stroke-width="8"
        d="M685.09 719.29h53.55s7.64.6 14.12-5.87L829.18 637s5.07-5.85 14.17-5.85c0 0 7.83-.42 14.14 5.9 6.32 6.3 57.4 57.75 57.4 57.75s4.9 5.83 14.15 5.83h128.39s7.79-.5 14.13 5.84l256.42 256.41"
        data-ubhnchn="7"/>
  <path stroke="#528DBA" stroke-linejoin="round" stroke-width="8"
        d="M711.52 719.27H478.84s-7.74.57-14.17-5.86l-24.59-24.58s-5.9-5-5.9-14.18V430.97s.47-7.8-5.8-14.07c-6.28-6.27-12.56-5.92-14.24-5.92H75.44"
        data-ubhnchn="8"/>
  <path stroke="#F3791D" stroke-width="8" d="m532.55 895.29 40.83-40.83c6.37-6.38 5.83-14.12 5.83-14.12V594.94"
        data-ubhnchn="9"/>
  <path stroke="#F3791D" stroke-width="8" d="M579.2 606.34v-133.1s-.65-7.64 5.84-14.13l237.9-237.9" data-ubhnchn="10"/>
  <path stroke="#224F86" stroke-width="8" d="M715.37 27.84v78.56s-.58 7.64 5.86 14.08l100.25 100.24" data-ubhnchn="11"/>
  <path stroke="#007A5B" stroke-linejoin="round" stroke-width="8"
        d="m296.02 942.99 317.79-317.8s5.26-5.86 14.17-5.86h542.15" data-ubhnchn="12"/>
  <path stroke="#7DAD4C" stroke-width="8" d="M511.57 607.4h659.26" data-ubhnchn="20"/>
  <path stroke="#DA421E" stroke-linejoin="round" stroke-width="8"
        d="M434.65 532.2h117.56c9.13 0 14.14 5.83 14.14 5.83l52.11 52.12s5.27 5.87 14.17 5.87h68.15s7.2-.16 12.8 5.44l38.2 38.2s5.17 5.86 14.1 5.86c8.94 0 13.7-5.37 14.2-5.87s5.8-5.31 5.8-14.13c0-3.7.1-13.65.1-13.61M432.88 532.2h-126.3s-7.47.87-14.15-5.8l-71.6-71.62M785.89 607.9v-59.93s-.26-8.05 5.84-14.14c6.09-6.1 13.12-5.88 14.18-5.88h93.42"
        data-ubhnchn="41"/>
  <path stroke="#DA421E" stroke-linejoin="round" stroke-width="8"
        d="M884.04 527.95h43.73s7.98.33 14.1-5.8l122.48-122.47s5.83-5.14 5.83-14.11V256.03" data-ubhnchn="42"/>
  <path stroke="#F0D722" stroke-width="8" d="M685.12 620.57V802.5" data-ubhnchn="44"/>
</svg>