<svg xmlns="http://www.w3.org/2000/svg" width="1661" height="1004" fill="none">
  <path stroke="#7E5330" stroke-width="8" d="M740.26 445.98h600.22c9.11 0 14.1 5.8 14.1 5.8l56.62 56.63s4.74 5.8 14.11 5.8 14.23-5.91 14.23-5.91l171.82-171.83" id="3"/>
  <path stroke="#224F86" stroke-width="8" d="M715.37,27.84v78.56c0,0 -0.58,7.64 5.86,14.08l100.25,100.24l2.14,2.17l188.58,188.58c6.44,6.43 5.86,14.07 5.86,14.07v384.04" id="4"/>
  <path stroke="#8C6DAB" stroke-width="8" d="M900.3 938.59V439.91s.58-7.64-5.86-14.08L668.27 199.66" id="5"/>
  <path stroke="#528DBA" stroke-width="8" d="M75.44,410.98h338.7c1.68,0 7.96,-0.35 14.24,5.92c6.27,6.27 5.8,14.07 5.8,14.07v243.68c0,9.18 5.9,14.18 5.9,14.18l24.59,24.58c6.43,6.43 14.17,5.86 14.17,5.86h232.68l-26.43,0.02h53.55c0,0 7.64,0.6 14.12,-5.87l76.42,-76.42c0,0 5.07,-5.85 14.17,-5.85c0,0 7.83,-0.42 14.14,5.9c6.32,6.3 57.4,57.75 57.4,57.75c0,0 4.9,5.83 14.15,5.83h128.39c0,0 7.79,-0.5 14.13,5.84l256.42,256.41" id="7"/>
  <path stroke="#F3791D" stroke-width="8" d="M532.55,895.29l40.83,-40.83c6.37,-6.38 5.83,-14.12 5.83,-14.12v-245.4l-0.01,11.4v-133.1c0,0 -0.65,-7.64 5.84,-14.13l237.9,-237.9" id="9"/>
  <path stroke="#007A5B" stroke-linejoin="round" stroke-width="8" d="m296.02 942.99 317.79-317.8s5.26-5.86 14.17-5.86h542.15" id="12"/>
  <path stroke="#7DAD4C" stroke-width="8" d="M511.57 607.4h659.26" id="20"/>
  <path stroke="#DA421E" stroke-linejoin="round" stroke-width="8" d="M220.83,454.78l71.6,71.62c6.68,6.67 14.15,5.8 14.15,5.8h126.3l1.77,0h117.56c9.13,0 14.14,5.83 14.14,5.83l52.11,52.12c0,0 5.27,5.87 14.17,5.87h68.15c0,0 7.2,-0.16 12.8,5.44l38.2,38.2c0,0 5.17,5.86 14.1,5.86c8.94,0 13.7,-5.37 14.2,-5.87c0.5,-0.5 5.8,-5.31 5.8,-14.13c0,-3.7 0.1,-13.65 0.1,-13.61l-0.09,-4.01v-59.93c0,0 -0.26,-8.05 5.84,-14.14c6.09,-6.1 13.12,-5.88 14.18,-5.88h93.42h-15.29h43.73c0,0 7.98,0.33 14.1,-5.8l122.48,-122.47c0,0 5.83,-5.14 5.83,-14.11v-129.54" id="41"/>
  <path stroke="#F0D722" stroke-width="8" d="M685.12 620.57V802.5" id="44"/>
<g id="layer1" transform="translate(-4368.7187,-728.25)">


    <circle transform="matrix(0.77241381,0,0,0.77241381,4733.7589,650.56973)" id="path3772-4-5" style="fill:#ffffff;fill-opacity:1;stroke:#000000;stroke-width:2.58929;stroke-linejoin:round;stroke-miterlimit:4;stroke-dasharray:none;stroke-opacity:1" cx="277.23215" cy="1031.7372" r="7.7678571"/>
    <ellipse style="fill:#ffffff;fill-opacity:1;stroke:none" id="path3774-5-5" transform="matrix(3.6923078,-7.0710678e-8,7.0710678e-8,2.2857143,3648.5916,-913.47441)" cx="344.6875" cy="1032.9247" rx="0.8125" ry="1.3125"/>


    <circle style="fill:#ffffff;fill-opacity:1;stroke:#000000;stroke-width:2.58929;stroke-linejoin:round;stroke-miterlimit:4;stroke-dasharray:none;stroke-opacity:1" id="path3857-2-2" transform="matrix(0.77241381,0,0,0.77241381,4733.7589,591.14113)" cx="277.23215" cy="1031.7372" r="7.7678571"/>

    <ellipse transform="matrix(3.6923078,-7.0710678e-8,7.0710678e-8,2.2857143,3656.9353,-765.79481)" id="path3799-8-5-5" style="fill:#ffffff;fill-opacity:1;stroke:none" cx="344.6875" cy="1032.9247" rx="0.8125" ry="1.3125"/>


    <circle transform="matrix(0.77241381,0,0,0.77241381,4733.7589,538.73703)" id="path3948-8-8" style="fill:#ffffff;fill-opacity:1;stroke:#000000;stroke-width:2.58929;stroke-linejoin:round;stroke-miterlimit:4;stroke-dasharray:none;stroke-opacity:1" cx="277.23215" cy="1031.7372" r="7.7678571"/>
    <ellipse style="fill:#ffffff;fill-opacity:1;stroke:none" id="path3801-5-9-9" transform="matrix(3.6923078,-7.0710678e-8,7.0710678e-8,2.2857143,3619.6539,-1049.1913)" cx="344.6875" cy="1032.9247" rx="0.8125" ry="1.3125"/>
    <ellipse transform="matrix(3.6923078,-7.0710678e-8,7.0710678e-8,2.2857143,3548.2994,-931.68969)" id="path3799-4-2-2" style="fill:#ffffff;fill-opacity:1;stroke:none" cx="344.6875" cy="1032.9247" rx="0.8125" ry="1.3125"/>

    <ellipse style="fill:#ffffff;fill-opacity:1;stroke:none" id="path4073-4-5" transform="matrix(3.6923078,-7.0710678e-8,7.0710678e-8,2.2857143,3589.3432,-887.03696)" cx="344.6875" cy="1032.9247" rx="0.8125" ry="1.3125"/>

    <ellipse transform="matrix(3.6923078,-7.0710678e-8,7.0710678e-8,2.2857143,3564.8433,-862.53705)" id="path4079-2-1" style="fill:#ffffff;fill-opacity:1;stroke:none" cx="344.6875" cy="1032.9247" rx="0.8125" ry="1.3125"/>

    <ellipse style="fill:#ffffff;fill-opacity:1;stroke:none" id="path4087-4-3" transform="matrix(3.6923078,-7.0710678e-8,7.0710678e-8,2.2857143,3540.345,-838.03877)" cx="344.6875" cy="1032.9247" rx="0.8125" ry="1.3125"/>

    <ellipse style="fill:#ffffff;fill-opacity:1;stroke:none" id="path4095-3-1" transform="matrix(3.6923078,-7.0710678e-8,7.0710678e-8,2.2857143,3515.8408,-813.53484)" cx="344.6875" cy="1032.9247" rx="0.8125" ry="1.3125"/>

    <ellipse transform="matrix(3.6923078,-7.0710678e-8,7.0710678e-8,2.2857143,3491.3426,-789.03649)" id="path4101-4-7" style="fill:#ffffff;fill-opacity:1;stroke:none" cx="344.6875" cy="1032.9247" rx="0.8125" ry="1.3125"/>

    <ellipse style="fill:#ffffff;fill-opacity:1;stroke:none" id="path4109-7-7" transform="matrix(3.6923078,-7.0710678e-8,7.0710678e-8,2.2857143,3466.8205,-764.51409)" cx="344.6875" cy="1032.9247" rx="0.8125" ry="1.3125"/>
    <ellipse transform="matrix(3.6923078,-7.0710678e-8,7.0710678e-8,2.2857143,3442.3224,-740.01596)" id="path4115-1-3" style="fill:#ffffff;fill-opacity:1;stroke:none" cx="344.6875" cy="1032.9247" rx="0.8125" ry="1.3125"/>

    <ellipse transform="matrix(3.6923078,-7.0710678e-8,7.0710678e-8,2.2857143,3417.8182,-715.51195)" id="path4121-6-8" style="fill:#ffffff;fill-opacity:1;stroke:none" cx="344.6875" cy="1032.9247" rx="0.8125" ry="1.3125"/>


    <ellipse style="fill:#ffffff;fill-opacity:1;stroke:none" id="path4167-3-1" transform="matrix(3.6923078,-7.0710678e-8,7.0710678e-8,2.2857143,3700.5915,-998.28522)" cx="344.6875" cy="1032.9247" rx="0.8125" ry="1.3125"/>


    <circle style="fill:#ffffff;fill-opacity:1;stroke:#000000;stroke-width:2.58929;stroke-linejoin:round;stroke-miterlimit:4;stroke-dasharray:none;stroke-opacity:1" id="path4227-6-0" transform="matrix(0.77241381,0,0,0.77241381,4733.7589,482.23388)" cx="277.23215" cy="1031.7372" r="7.7678571"/>
    <rect style="fill:#ffffff;fill-opacity:1;stroke:#000000;stroke-width:2;stroke-linejoin:round;stroke-miterlimit:4;stroke-dasharray:none;stroke-opacity:1" id="rect4229-1-6" width="36" height="12" x="-1353.6605" y="4998.4639" ry="6" rx="6" transform="rotate(-90)"/>

    <rect rx="6" ry="6" y="5047.8452" x="-1353.6605" height="12" width="36" id="rect4264-4-1" style="fill:#ffffff;fill-opacity:1;stroke:#000000;stroke-width:2;stroke-linejoin:round;stroke-miterlimit:4;stroke-dasharray:none;stroke-opacity:1" transform="rotate(-90)"/>
    <circle style="fill:#ffffff;fill-opacity:1;stroke:#000000;stroke-width:2.58929;stroke-linejoin:round;stroke-miterlimit:4;stroke-dasharray:none;stroke-opacity:1" id="path4266-9-8" transform="matrix(0.77241381,0,0,0.77241381,4839.7365,650.56971)" cx="277.23215" cy="1031.7372" r="7.7678571"/>
    <ellipse transform="matrix(3.6923078,-7.0710678e-8,7.0710678e-8,2.2857143,3781.1662,-963.24235)" id="path4268-6-4" style="fill:#ffffff;fill-opacity:1;stroke:none" cx="344.6875" cy="1032.9247" rx="0.8125" ry="1.3125"/>

    <ellipse style="fill:#ffffff;fill-opacity:1;stroke:none" id="path4276-2-8" transform="matrix(3.6923078,-7.0710678e-8,7.0710678e-8,2.2857143,3781.1664,-870.36572)" cx="344.6875" cy="1032.9247" rx="0.8125" ry="1.3125"/>


    <ellipse transform="matrix(3.6923078,-7.0710678e-8,7.0710678e-8,2.2857143,3675.2547,-1141.013)" id="path4358-37-0" style="fill:#ffffff;fill-opacity:1;stroke:none" cx="344.6875" cy="1032.9247" rx="0.8125" ry="1.3125"/>

    <rect style="fill:#ffffff;fill-opacity:1;stroke:#000000;stroke-width:2;stroke-linejoin:round;stroke-miterlimit:4;stroke-dasharray:none;stroke-opacity:1" id="rect4364-0-3" width="24" height="12" x="-1353.6605" y="5148.583" ry="6" rx="6" transform="rotate(-90)"/>
    <ellipse transform="matrix(3.6923078,-7.0710678e-8,7.0710678e-8,2.2857143,3861.9406,-987.20903)" id="path4268-4-1-7" style="fill:#ffffff;fill-opacity:1;stroke:none" cx="344.6875" cy="1032.9247" rx="0.8125" ry="1.3125"/>
    <ellipse transform="matrix(3.6923078,-7.0710678e-8,7.0710678e-8,2.2857143,3848.069,-1013.3877)" id="path4268-4-3-6-2" style="fill:#ffffff;fill-opacity:1;stroke:none" cx="344.6875" cy="1032.9247" rx="0.8125" ry="1.3125"/>
    <ellipse style="fill:#ffffff;fill-opacity:1;stroke:none" id="path4402-5-6" transform="matrix(3.6923078,-7.0710678e-8,7.0710678e-8,2.2857143,3848.0693,-1025.3252)" cx="344.6875" cy="1032.9247" rx="0.8125" ry="1.3125"/>


    <ellipse transform="matrix(3.6923078,-7.0710678e-8,7.0710678e-8,2.2857143,3881.9098,-1078.1215)" id="path4358-3-6-0" style="fill:#ffffff;fill-opacity:1;stroke:none" cx="344.6875" cy="1032.9247" rx="0.8125" ry="1.3125"/>

    <rect transform="rotate(-90)" style="fill:#ffffff;fill-opacity:1;stroke:#000000;stroke-width:2;stroke-linejoin:round;stroke-miterlimit:4;stroke-dasharray:none;stroke-opacity:1" id="rect4489-7-0" width="36" height="12" x="-1365.6603" y="5205.8428" ry="6" rx="6"/>
    <rect transform="rotate(-90)" rx="6" ry="6" y="5263.0024" x="-1353.6605" height="12" width="24" id="rect4491-7-7" style="fill:#ffffff;fill-opacity:1;stroke:#000000;stroke-width:2;stroke-linejoin:round;stroke-miterlimit:4;stroke-dasharray:none;stroke-opacity:1"/>
    <circle style="fill:#ffffff;fill-opacity:1;stroke:#000000;stroke-width:2.58929;stroke-linejoin:round;stroke-miterlimit:4;stroke-dasharray:none;stroke-opacity:1" id="path4266-3-7-1" transform="matrix(0.77241381,0,0,0.77241381,5054.8726,611.47632)" cx="277.23215" cy="1031.7372" r="7.7678571"/>


    <ellipse style="fill:#ffffff;fill-opacity:1;stroke:none" id="path4551-3-2" transform="matrix(3.6923078,-7.0710678e-8,7.0710678e-8,2.2857143,3905.037,-975.6245)" cx="344.6875" cy="1032.9247" rx="0.8125" ry="1.3125"/>

    <ellipse transform="matrix(3.6923078,-7.0710678e-8,7.0710678e-8,2.2857143,3877.8134,-948.40124)" id="path4557-2-3" style="fill:#ffffff;fill-opacity:1;stroke:none" cx="344.6875" cy="1032.9247" rx="0.8125" ry="1.3125"/>

    <ellipse transform="matrix(3.6923078,-7.0710678e-8,7.0710678e-8,2.2857143,3851.9714,-922.55882)" id="path4565-9-1" style="fill:#ffffff;fill-opacity:1;stroke:none" cx="344.6875" cy="1032.9247" rx="0.8125" ry="1.3125"/>

    <circle transform="matrix(0.77241381,0,0,0.77241381,5054.8726,459.27158)" id="path4577-3-9" style="fill:#ffffff;fill-opacity:1;stroke:#000000;stroke-width:2.58929;stroke-linejoin:round;stroke-miterlimit:4;stroke-dasharray:none;stroke-opacity:1" cx="277.23215" cy="1031.7372" r="7.7678571"/>
    <ellipse style="fill:#ffffff;fill-opacity:1;stroke:none" id="path4579-5-4" transform="matrix(3.6923078,-7.0710678e-8,7.0710678e-8,2.2857143,3996.316,-1065.5995)" cx="344.6875" cy="1032.9247" rx="0.8125" ry="1.3125"/>
    <ellipse style="fill:#ffffff;fill-opacity:1;stroke:none" id="path4579-8-0-3" transform="matrix(3.6923078,-7.0710678e-8,7.0710678e-8,2.2857143,3942.6276,-1104.8027)" cx="344.6875" cy="1032.9247" rx="0.8125" ry="1.3125"/>

    <ellipse transform="matrix(3.6923078,-7.0710678e-8,7.0710678e-8,2.2857143,3905.9611,-1104.8027)" id="path4631-0-0" style="fill:#ffffff;fill-opacity:1;stroke:none" cx="344.6875" cy="1032.9247" rx="0.8125" ry="1.3125"/>

    <ellipse style="fill:#ffffff;fill-opacity:1;stroke:none" id="path4661-8-0" transform="matrix(3.6923078,-7.0710678e-8,7.0710678e-8,2.2857143,3675.1843,-941.66831)" cx="344.6875" cy="1032.9247" rx="0.8125" ry="1.3125"/>
    <ellipse transform="matrix(3.6923078,-7.0710678e-8,7.0710678e-8,2.2857143,3649.1982,-946.90352)" id="path4663-4-6" style="fill:#ffffff;fill-opacity:1;stroke:none" cx="344.6875" cy="1032.9247" rx="0.8125" ry="1.3125"/>
    <circle style="fill:#ffffff;fill-opacity:1;stroke:#000000;stroke-width:2.58929;stroke-linejoin:round;stroke-miterlimit:4;stroke-dasharray:none;stroke-opacity:1" id="path4665-1-1" transform="matrix(0.77241381,0,0,0.77241381,4674.5087,650.56971)" cx="277.23215" cy="1031.7372" r="7.7678571"/>

    <ellipse style="fill:#ffffff;fill-opacity:1;stroke:none" id="path4681-8-4" transform="matrix(3.6923078,-7.0710678e-8,7.0710678e-8,2.2857143,4022.8801,-1104.8027)" cx="344.6875" cy="1032.9247" rx="0.8125" ry="1.3125"/>

    <ellipse style="fill:#ffffff;fill-opacity:1;stroke:none" id="path4691-7-9" transform="matrix(3.6923078,-7.0710678e-8,7.0710678e-8,2.2857143,4055.6697,-1013.3878)" cx="344.6875" cy="1032.9247" rx="0.8125" ry="1.3125"/>
    <ellipse transform="matrix(3.6923078,-7.0710678e-8,7.0710678e-8,2.2857143,4055.6697,-1025.3252)" id="path4693-8-8" style="fill:#ffffff;fill-opacity:1;stroke:none" cx="344.6875" cy="1032.9247" rx="0.8125" ry="1.3125"/>

    <ellipse style="fill:#ffffff;fill-opacity:1;stroke:none" id="path4681-3-7-7" transform="matrix(3.6923078,-7.0710678e-8,7.0710678e-8,2.2857143,4048.4396,-1121.1496)" cx="344.6875" cy="1032.9247" rx="0.8125" ry="1.3125"/>

    <ellipse transform="matrix(3.6923078,-7.0710678e-8,7.0710678e-8,2.2857143,4066.8243,-1139.5343)" id="path4745-7-3" style="fill:#ffffff;fill-opacity:1;stroke:none" cx="344.6875" cy="1032.9247" rx="0.8125" ry="1.3125"/>

    <ellipse style="fill:#ffffff;fill-opacity:1;stroke:none" id="path4773-6-1" transform="matrix(3.6923078,-7.0710678e-8,7.0710678e-8,2.2857143,4085.209,-1157.9192)" cx="344.6875" cy="1032.9247" rx="0.8125" ry="1.3125"/>

    <circle transform="matrix(0.77241381,0,0,0.77241381,5172.4931,377.32445)" id="path4577-2-0-3" style="fill:#ffffff;fill-opacity:1;stroke:#000000;stroke-width:2.58929;stroke-linejoin:round;stroke-miterlimit:4;stroke-dasharray:none;stroke-opacity:1" cx="277.23215" cy="1031.7372" r="7.7678571"/>
    <ellipse transform="matrix(3.6923078,-7.0710678e-8,7.0710678e-8,2.2857143,4079.9821,-1186.778)" id="path4805-9-9" style="fill:#ffffff;fill-opacity:1;stroke:none;stroke-width:0.344223;stroke-miterlimit:4;stroke-dasharray:none;stroke-opacity:1" cx="344.6875" cy="1032.9247" rx="0.8125" ry="1.3125"/>
    <ellipse transform="matrix(3.6923078,-7.0710678e-8,7.0710678e-8,2.2857143,3935.9711,-1186.7778)" id="path4809-8-5" style="fill:#ffffff;fill-opacity:1;stroke:none;stroke-width:0.344223;stroke-miterlimit:4;stroke-dasharray:none;stroke-opacity:1" cx="344.6875" cy="1032.9247" rx="0.8125" ry="1.3125"/>
    <ellipse style="fill:#ffffff;fill-opacity:1;stroke:none;stroke-width:0.344223;stroke-miterlimit:4;stroke-dasharray:none;stroke-opacity:1" id="path4878-7-2" transform="matrix(3.6923078,-7.0710678e-8,7.0710678e-8,2.2857143,3887.8497,-1186.778)" cx="344.6875" cy="1032.9247" rx="0.8125" ry="1.3125"/>
    <rect style="fill:#ffffff;fill-opacity:1;stroke:#000000;stroke-width:2;stroke-linejoin:round;stroke-miterlimit:4;stroke-dasharray:none;stroke-opacity:1" id="rect4902-8-3" width="24" height="12" x="-1353.6605" y="5380.6914" ry="6" rx="6" transform="rotate(-90)"/>
    <ellipse transform="matrix(3.6923078,-7.0710678e-8,7.0710678e-8,2.2857143,4165.9196,-1013.3875)" id="path4904-8-7" style="fill:#ffffff;fill-opacity:1;stroke:none" cx="344.6875" cy="1032.9247" rx="0.8125" ry="1.3125"/>
    <ellipse style="fill:#ffffff;fill-opacity:1;stroke:none" id="path4906-0-4" transform="matrix(3.6923078,-7.0710678e-8,7.0710678e-8,2.2857143,4165.9196,-1025.3252)" cx="344.6875" cy="1032.9247" rx="0.8125" ry="1.3125"/>

    <ellipse style="fill:#ffffff;fill-opacity:1;stroke:none" id="path4914-9-8" transform="matrix(3.6923078,-7.0710678e-8,7.0710678e-8,2.2857143,4213.6697,-1013.3878)" cx="344.6875" cy="1032.9247" rx="0.8125" ry="1.3125"/>
    <ellipse transform="matrix(3.6923078,-7.0710678e-8,7.0710678e-8,2.2857143,4213.6696,-1025.3252)" id="path4916-8-8" style="fill:#ffffff;fill-opacity:1;stroke:none" cx="344.6875" cy="1032.9247" rx="0.8125" ry="1.3125"/>

    <rect transform="rotate(-90)" rx="6" ry="6" y="5533.4414" x="-1353.6605" height="12" width="24" id="rect4936-2-1" style="fill:#ffffff;fill-opacity:1;stroke:#000000;stroke-width:2;stroke-linejoin:round;stroke-miterlimit:4;stroke-dasharray:none;stroke-opacity:1"/>

    <circle style="fill:#ffffff;fill-opacity:1;stroke:#000000;stroke-width:2.58929;stroke-linejoin:round;stroke-miterlimit:4;stroke-dasharray:none;stroke-opacity:1" id="path4942-9-7" transform="matrix(0.77241381,0,0,0.77241381,4667.0087,538.7371)" cx="277.23215" cy="1031.7372" r="7.7678571"/>
    <circle transform="matrix(0.77241381,0,0,0.77241381,4839.7365,732.06966)" id="path4944-0-2" style="fill:#ffffff;fill-opacity:1;stroke:#000000;stroke-width:2.58929;stroke-linejoin:round;stroke-miterlimit:4;stroke-dasharray:none;stroke-opacity:1" cx="277.23215" cy="1031.7372" r="7.7678571"/>
    <circle style="fill:#f0d722;fill-opacity:1;stroke:none" id="path4946-7-2" transform="matrix(0.3862069,0,0,0.3862069,4946.8058,1130.5335)" cx="277.23215" cy="1031.7372" r="7.7678571"/>
    <circle transform="matrix(0.3862069,0,0,0.3862069,4946.8059,949.1965)" id="path4948-8-8" style="fill:#f0d722;fill-opacity:1;stroke:none" cx="277.23215" cy="1031.7372" r="7.7678571"/>
    <circle style="fill:#7dad4c;fill-opacity:1;stroke:none" id="path4946-8-1-2" transform="matrix(0.3862069,0,0,0.3862069,4774.0778,937.20141)" cx="277.23215" cy="1031.7372" r="7.7678571"/>
    <circle transform="matrix(0.3862069,0,0,0.3862069,5432.3728,937.20124)" id="path4968-5-8" style="fill:#7dad4c;fill-opacity:1;stroke:none" cx="277.23215" cy="1031.7372" r="7.7678571"/>
    <circle style="fill:#007a5b;fill-opacity:1;stroke:none" id="path4970-8-9" transform="matrix(0.3862069,0,0,0.3862069,5432.3729,949.19645)" cx="277.23215" cy="1031.7372" r="7.7678571"/>


    <ellipse transform="matrix(3.6923078,-7.0710678e-8,7.0710678e-8,2.2857143,4037.0726,-932.04869)" id="path4984-5-8" style="fill:#ffffff;fill-opacity:1;stroke:none" cx="344.6875" cy="1032.9247" rx="0.8125" ry="1.3125"/>
    <ellipse style="fill:#ffffff;fill-opacity:1;stroke:none" id="path4986-8-6" transform="matrix(3.6923078,-7.0710678e-8,7.0710678e-8,2.2857143,4074.5728,-932.04869)" cx="344.6875" cy="1032.9247" rx="0.8125" ry="1.3125"/>
    <circle style="fill:#ffffff;fill-opacity:1;stroke:#000000;stroke-width:2.58929;stroke-linejoin:round;stroke-miterlimit:4;stroke-dasharray:none;stroke-opacity:1" id="path4988-6-1" transform="matrix(0.77241381,0,0,0.77241381,5172.4932,631.88707)" cx="277.23215" cy="1031.7372" r="7.7678571"/>


    <ellipse style="fill:#ffffff;fill-opacity:1;stroke:none" id="path4276-0-2-6" transform="matrix(3.6923078,-7.0710678e-8,7.0710678e-8,2.2857143,4114.0836,-967.17069)" cx="344.6875" cy="1032.9247" rx="0.8125" ry="1.3125"/>


    <ellipse transform="matrix(3.6923078,-7.0710678e-8,7.0710678e-8,2.2857143,4114.0836,-884.43933)" id="path5054-1-4" style="fill:#ffffff;fill-opacity:1;stroke:none" cx="344.6875" cy="1032.9247" rx="0.8125" ry="1.3125"/>

    <ellipse style="fill:#ffffff;fill-opacity:1;stroke:none" id="path5062-6-8" transform="matrix(3.6923078,-7.0710678e-8,7.0710678e-8,2.2857143,4114.0837,-855.44788)" cx="344.6875" cy="1032.9247" rx="0.8125" ry="1.3125"/>

    <circle transform="matrix(0.77241381,0,0,0.77241381,5172.4931,740.88694)" id="path5070-52-1" style="fill:#ffffff;fill-opacity:1;stroke:#000000;stroke-width:2.58929;stroke-linejoin:round;stroke-miterlimit:4;stroke-dasharray:none;stroke-opacity:1" cx="277.23215" cy="1031.7372" r="7.7678571"/>

    <ellipse transform="matrix(3.6923078,-7.0710678e-8,7.0710678e-8,2.2857143,4155.0359,-1227.746)" id="path5119-39-6" style="fill:#ffffff;fill-opacity:1;stroke:none" cx="344.6875" cy="1032.9247" rx="0.8125" ry="1.3125"/>

    <ellipse transform="matrix(3.6923078,-7.0710678e-8,7.0710678e-8,2.2857143,4114.0838,-1067.6961)" id="path5144-9-2" style="fill:#ffffff;fill-opacity:1;stroke:none" cx="344.6875" cy="1032.9247" rx="0.8125" ry="1.3125"/>

    <ellipse style="fill:#ffffff;fill-opacity:1;stroke:none" id="path5152-5-9" transform="matrix(3.6923078,-7.0710678e-8,7.0710678e-8,2.2857143,4114.0838,-1135.2963)" cx="344.6875" cy="1032.9247" rx="0.8125" ry="1.3125"/>

    <ellipse transform="matrix(3.6923078,-7.0710678e-8,7.0710678e-8,2.2857143,4114.0838,-1101.5393)" id="path5160-6-9" style="fill:#ffffff;fill-opacity:1;stroke:none" cx="344.6875" cy="1032.9247" rx="0.8125" ry="1.3125"/>


    <ellipse transform="matrix(3.6923078,-7.0710678e-8,7.0710678e-8,2.2857143,4166.2163,-1255.0662)" id="path5119-3-1-8" style="fill:#ffffff;fill-opacity:1;stroke:none" cx="344.6875" cy="1032.9247" rx="0.8125" ry="1.3125"/>

    <ellipse style="fill:#ffffff;fill-opacity:1;stroke:none" id="path5206-9-7" transform="matrix(3.6923078,-7.0710678e-8,7.0710678e-8,2.2857143,4166.2162,-1285.5662)" cx="344.6875" cy="1032.9247" rx="0.8125" ry="1.3125"/>

    <ellipse transform="matrix(3.6923078,-7.0710678e-8,7.0710678e-8,2.2857143,4166.2163,-1316.0662)" id="path5214-5-9" style="fill:#ffffff;fill-opacity:1;stroke:none" cx="344.6875" cy="1032.9247" rx="0.8125" ry="1.3125"/>

    <ellipse transform="matrix(3.6923078,-7.0710678e-8,7.0710678e-8,2.2857143,4166.2163,-1346.5986)" id="path5222-9-9" style="fill:#ffffff;fill-opacity:1;stroke:none" cx="344.6875" cy="1032.9247" rx="0.8125" ry="1.3125"/>

    <circle transform="matrix(0.77241381,0,0,0.77241381,5224.8537,186.91537)" id="path4577-2-8-5-8" style="fill:#ffffff;fill-opacity:1;stroke:#000000;stroke-width:2.58929;stroke-linejoin:round;stroke-miterlimit:4;stroke-dasharray:none;stroke-opacity:1" cx="277.23215" cy="1031.7372" r="7.7678571"/>

    <circle style="fill:#224f86;fill-opacity:1;stroke:none" id="path4946-9-39-5" transform="matrix(0.3862069,0,0,0.3862069,5279.5618,1139.3515)" cx="277.23215" cy="1031.7372" r="7.7678571"/>
    <circle style="fill:#da421e;fill-opacity:1;stroke:none" id="path4946-9-3-3-4" transform="matrix(0.3862069,0,0,0.3862069,5331.9227,585.37941)" cx="277.23215" cy="1031.7372" r="7.7678571"/>
    <ellipse style="fill:#ffffff;fill-opacity:1;stroke:none" id="path5288-9-9" transform="matrix(3.6923078,-7.0710678e-8,7.0710678e-8,2.2857143,4183.3568,-1186.778)" cx="344.6875" cy="1032.9247" rx="0.8125" ry="1.3125"/>

    <ellipse transform="matrix(3.6923078,-7.0710678e-8,7.0710678e-8,2.2857143,4224.857,-1186.7778)" id="path5298-9-5" style="fill:#ffffff;fill-opacity:1;stroke:none" cx="344.6875" cy="1032.9247" rx="0.8125" ry="1.3125"/>

    <ellipse style="fill:#ffffff;fill-opacity:1;stroke:none" id="path5316-9-9" transform="matrix(3.6923078,-7.0710678e-8,7.0710678e-8,2.2857143,4266.3569,-1186.778)" cx="344.6875" cy="1032.9247" rx="0.8125" ry="1.3125"/>

    <ellipse style="fill:#ffffff;fill-opacity:1;stroke:none" id="path5326-6-7" transform="matrix(3.6923078,-7.0710678e-8,7.0710678e-8,2.2857143,4307.8567,-1186.778)" cx="344.6875" cy="1032.9247" rx="0.8125" ry="1.3125"/>

    <ellipse transform="matrix(3.6923078,-7.0710678e-8,7.0710678e-8,2.2857143,4349.3568,-1186.778)" id="path5334-2-6" style="fill:#ffffff;fill-opacity:1;stroke:none" cx="344.6875" cy="1032.9247" rx="0.8125" ry="1.3125"/>

    <ellipse transform="matrix(3.6923078,-7.0710678e-8,7.0710678e-8,2.2857143,4390.8569,-1186.778)" id="path5344-1-7" style="fill:#ffffff;fill-opacity:1;stroke:none" cx="344.6875" cy="1032.9247" rx="0.8125" ry="1.3125"/>

    <ellipse style="fill:#ffffff;fill-opacity:1;stroke:none" id="path5352-3-8" transform="matrix(3.6923078,-7.0710678e-8,7.0710678e-8,2.2857143,4432.3568,-1186.7781)" cx="344.6875" cy="1032.9247" rx="0.8125" ry="1.3125"/>

    <circle transform="matrix(0.77241381,0,0,0.77241381,4686.5584,827.1808)" id="path4944-4-82-4" style="fill:#ffffff;fill-opacity:1;stroke:#000000;stroke-width:2.58929;stroke-linejoin:round;stroke-miterlimit:4;stroke-dasharray:none;stroke-opacity:1" cx="277.23215" cy="1031.7372" r="7.7678571"/>
    <circle style="fill:#f3791d;fill-opacity:1;stroke:none" id="path4946-4-5-1" transform="matrix(0.3862069,0,0,0.3862069,4793.6277,1225.6445)" cx="277.23215" cy="1031.7372" r="7.7678571"/>
    <ellipse transform="matrix(3.6923078,-7.0710678e-8,7.0710678e-8,2.2857143,3981.7184,-1215.6561)" id="path4809-6-3-6" style="fill:#ffffff;fill-opacity:1;stroke:none" cx="344.6875" cy="1032.9247" rx="0.8125" ry="1.3125"/>

    <ellipse style="fill:#ffffff;fill-opacity:1;stroke:none" id="path5424-8-3" transform="matrix(3.6923078,-7.0710678e-8,7.0710678e-8,2.2857143,3961.3196,-1236.055)" cx="344.6875" cy="1032.9247" rx="0.8125" ry="1.3125"/>

    <ellipse transform="matrix(3.6923078,-7.0710678e-8,7.0710678e-8,2.2857143,3940.9231,-1256.4516)" id="path5462-4-3" style="fill:#ffffff;fill-opacity:1;stroke:none" cx="344.6875" cy="1032.9247" rx="0.8125" ry="1.3125"/>

    <ellipse transform="matrix(3.6923078,-7.0710678e-8,7.0710678e-8,2.2857143,3920.5382,-1276.8361)" id="path5472-1-5" style="fill:#ffffff;fill-opacity:1;stroke:none" cx="344.6875" cy="1032.9247" rx="0.8125" ry="1.3125"/>

    <ellipse style="fill:#ffffff;fill-opacity:1;stroke:none" id="path5480-6-8" transform="matrix(3.6923078,-7.0710678e-8,7.0710678e-8,2.2857143,3900.1418,-1297.233)" cx="344.6875" cy="1032.9247" rx="0.8125" ry="1.3125"/>

    <ellipse transform="matrix(3.6923078,-7.0710678e-8,7.0710678e-8,2.2857143,3879.7166,-1317.6581)" id="path5490-93-4" style="fill:#ffffff;fill-opacity:1;stroke:none" cx="344.6875" cy="1032.9247" rx="0.8125" ry="1.3125"/>

    <circle transform="matrix(0.77241381,0,0,0.77241381,4910.7171,218.93328)" id="path5360-1-0-9" style="fill:#ffffff;fill-opacity:1;stroke:#000000;stroke-width:2.58929;stroke-linejoin:round;stroke-miterlimit:4;stroke-dasharray:none;stroke-opacity:1" cx="277.23215" cy="1031.7372" r="7.7678571"/>
    <ellipse style="fill:#ffffff;fill-opacity:1;stroke:none" id="path5506-6-0" transform="matrix(3.6923078,-7.0710678e-8,7.0710678e-8,2.2857143,3825.4354,-1371.9393)" cx="344.6875" cy="1032.9247" rx="0.8125" ry="1.3125"/>
    <ellipse transform="matrix(3.6923078,-7.0710678e-8,7.0710678e-8,2.2857143,3805.0389,-1392.3357)" id="path5514-3-3" style="fill:#ffffff;fill-opacity:1;stroke:none" cx="344.6875" cy="1032.9247" rx="0.8125" ry="1.3125"/>

    <ellipse style="fill:#ffffff;fill-opacity:1;stroke:none" id="path5569-8-9" transform="matrix(3.6923078,-7.0710678e-8,7.0710678e-8,2.2857143,3784.6214,-1412.7534)" cx="344.6875" cy="1032.9247" rx="0.8125" ry="1.3125"/>


    <ellipse style="fill:#ffffff;fill-opacity:1;stroke:none" id="path5581-12-4" transform="matrix(3.6923078,-7.0710678e-8,7.0710678e-8,2.2857143,3764.2479,-1433.1268)" cx="344.6875" cy="1032.9247" rx="0.8125" ry="1.3125"/>
    <circle style="fill:#ffffff;fill-opacity:1;stroke:#000000;stroke-width:2;stroke-linejoin:round;stroke-miterlimit:4;stroke-dasharray:none;stroke-opacity:1" id="path5619-0-4-0" cx="5036.9424" cy="927.84106" r="6"/>
    <circle id="path5835-8-1-2-5" style="fill:#8c6dab;fill-opacity:1;stroke:none;stroke-width:0.386207" cx="5036.9424" cy="927.84106" r="3"/>


    <circle style="fill:#ffffff;fill-opacity:1;stroke:#000000;stroke-width:2.58929;stroke-linejoin:round;stroke-miterlimit:4;stroke-dasharray:none;stroke-opacity:1" id="path5621-3-4" transform="matrix(0.77241381,0,0,0.77241381,4976.8424,152.80809)" cx="277.23215" cy="1031.7372" r="7.7678571"/>
    <ellipse transform="matrix(3.6923078,-7.0710678e-8,7.0710678e-8,2.2857143,3887.0051,-1379.5634)" id="path5490-9-8-4" style="fill:#ffffff;fill-opacity:1;stroke:none" cx="344.6875" cy="1032.9247" rx="0.8125" ry="1.3125"/>

    <ellipse style="fill:#ffffff;fill-opacity:1;stroke:none" id="path5665-0-9" transform="matrix(3.6923078,-7.0710678e-8,7.0710678e-8,2.2857143,4088.5173,-1240.9512)" cx="344.6875" cy="1032.9247" rx="0.8125" ry="1.3125"/>


    <ellipse style="fill:#ffffff;fill-opacity:1;stroke:none" id="path5737-5-7" transform="matrix(3.6923078,-7.0710678e-8,7.0710678e-8,2.2857143,4060.8663,-1268.6021)" cx="344.6875" cy="1032.9247" rx="0.8125" ry="1.3125"/>

    <ellipse transform="matrix(3.6923078,-7.0710678e-8,7.0710678e-8,2.2857143,4033.2337,-1296.2344)" id="path5745-3-3" style="fill:#ffffff;fill-opacity:1;stroke:none" cx="344.6875" cy="1032.9247" rx="0.8125" ry="1.3125"/>

    <ellipse transform="matrix(3.6923078,-7.0710678e-8,7.0710678e-8,2.2857143,4005.5796,-1323.8889)" id="path5753-1-5" style="fill:#ffffff;fill-opacity:1;stroke:none" cx="344.6875" cy="1032.9247" rx="0.8125" ry="1.3125"/>

    <ellipse style="fill:#ffffff;fill-opacity:1;stroke:none" id="path5759-5-3" transform="matrix(3.6923078,-7.0710678e-8,7.0710678e-8,2.2857143,3977.9469,-1351.5215)" cx="344.6875" cy="1032.9247" rx="0.8125" ry="1.3125"/>

    <ellipse style="fill:#ffffff;fill-opacity:1;stroke:none" id="path5767-1-9" transform="matrix(3.6923078,-7.0710678e-8,7.0710678e-8,2.2857143,3950.3183,-1379.1501)" cx="344.6875" cy="1032.9247" rx="0.8125" ry="1.3125"/>
    <circle transform="matrix(0.77241381,0,0,0.77241381,4869.9392,-39.237242)" id="path5769-2-7" style="fill:#ffffff;fill-opacity:1;stroke:#000000;stroke-width:2.58929;stroke-linejoin:round;stroke-miterlimit:4;stroke-dasharray:none;stroke-opacity:1" cx="277.23215" cy="1031.7372" r="7.7678571"/>
    <ellipse transform="matrix(3.6923078,-7.0710678e-8,7.0710678e-8,2.2857143,3886.8903,-1442.578)" id="path5771-2-5" style="fill:#ffffff;fill-opacity:1;stroke:none" cx="344.6875" cy="1032.9247" rx="0.8125" ry="1.3125"/>


    <ellipse transform="matrix(3.6923078,-7.0710678e-8,7.0710678e-8,2.2857143,3864.1893,-1465.279)" id="path5783-7-1" style="fill:#ffffff;fill-opacity:1;stroke:none" cx="344.6875" cy="1032.9247" rx="0.8125" ry="1.3125"/>

    <ellipse style="fill:#ffffff;fill-opacity:1;stroke:none" id="path5789-4-2" transform="matrix(3.6923078,-7.0710678e-8,7.0710678e-8,2.2857143,3841.5068,-1487.9616)" cx="344.6875" cy="1032.9247" rx="0.8125" ry="1.3125"/>

    <circle style="fill:#f3791d;fill-opacity:1;stroke:none" id="path4946-9-3-8-5-5" transform="matrix(0.3862069,0,0,0.3862069,5083.9115,551.27254)" cx="277.23215" cy="1031.7372" r="7.7678571"/>
    <circle transform="matrix(0.3862069,0,0,0.3862069,4977.0082,359.22736)" id="path5835-3-1" style="fill:#224f86;fill-opacity:1;stroke:none" cx="277.23215" cy="1031.7372" r="7.7678571"/>
    <ellipse style="fill:#ffffff;fill-opacity:1;stroke:none" id="path5873-6-2" transform="matrix(3.6923078,-7.0710678e-8,7.0710678e-8,2.2857143,3807.456,-1300.0143)" cx="344.6875" cy="1032.9247" rx="0.8125" ry="1.3125"/>

    <ellipse transform="matrix(3.6923078,-7.0710678e-8,7.0710678e-8,2.2857143,3772.1004,-1264.6589)" id="path5883-0-4" style="fill:#ffffff;fill-opacity:1;stroke:none" cx="344.6875" cy="1032.9247" rx="0.8125" ry="1.3125"/>

    <ellipse style="fill:#ffffff;fill-opacity:1;stroke:none" id="path5889-5-0" transform="matrix(3.6923078,-7.0710678e-8,7.0710678e-8,2.2857143,3736.7451,-1229.3032)" cx="344.6875" cy="1032.9247" rx="0.8125" ry="1.3125"/>

    <ellipse transform="matrix(3.6923078,-7.0710678e-8,7.0710678e-8,2.2857143,3701.3898,-1193.9482)" id="path5895-5-0" style="fill:#ffffff;fill-opacity:1;stroke:none" cx="344.6875" cy="1032.9247" rx="0.8125" ry="1.3125"/>

    <ellipse transform="matrix(3.6923078,-7.0710678e-8,7.0710678e-8,2.2857143,3996.3161,-908.09955)" id="path5901-8-3" style="fill:#ffffff;fill-opacity:1;stroke:none" cx="344.6875" cy="1032.9247" rx="0.8125" ry="1.3125"/>

    <ellipse style="fill:#ffffff;fill-opacity:1;stroke:none" id="path5939-8-7" transform="matrix(3.6923078,-7.0710678e-8,7.0710678e-8,2.2857143,3996.3162,-878.09948)" cx="344.6875" cy="1032.9247" rx="0.8125" ry="1.3125"/>

    <ellipse transform="matrix(3.6923078,-7.0710678e-8,7.0710678e-8,2.2857143,3996.3163,-848.09914)" id="path5947-8-4" style="fill:#ffffff;fill-opacity:1;stroke:none" cx="344.6875" cy="1032.9247" rx="0.8125" ry="1.3125"/>
    <ellipse style="fill:#ffffff;fill-opacity:1;stroke:none" id="path5955-0-5" transform="matrix(3.6923078,-7.0710678e-8,7.0710678e-8,2.2857143,3996.3161,-818.09914)" cx="344.6875" cy="1032.9247" rx="0.8125" ry="1.3125"/>

    <ellipse transform="matrix(3.6923078,-7.0710678e-8,7.0710678e-8,2.2857143,3996.3161,-788.09915)" id="path5963-6-8" style="fill:#ffffff;fill-opacity:1;stroke:none" cx="344.6875" cy="1032.9247" rx="0.8125" ry="1.3125"/>

    <ellipse style="fill:#ffffff;fill-opacity:1;stroke:none" id="path5971-0-6" transform="matrix(3.6923078,-7.0710678e-8,7.0710678e-8,2.2857143,3996.3161,-758.09915)" cx="344.6875" cy="1032.9247" rx="0.8125" ry="1.3125"/>

    <ellipse transform="matrix(3.6923078,-7.0710678e-8,7.0710678e-8,2.2857143,3996.3161,-728.09944)" id="path5979-7-1" style="fill:#ffffff;fill-opacity:1;stroke:none" cx="344.6875" cy="1032.9247" rx="0.8125" ry="1.3125"/>


    <circle transform="matrix(0.77241381,0,0,0.77241381,5054.7708,869.85144)" id="path5070-5-2-2" style="fill:#ffffff;fill-opacity:1;stroke:#000000;stroke-width:2.58929;stroke-linejoin:round;stroke-miterlimit:4;stroke-dasharray:none;stroke-opacity:1" cx="277.23215" cy="1031.7372" r="7.7678571"/>
    <circle style="fill:#8c6dab;fill-opacity:1;stroke:none" id="path4946-9-9-6-0" transform="matrix(0.3862069,0,0,0.3862069,5161.8395,1268.3159)" cx="277.23215" cy="1031.7372" r="7.7678571"/>
    <circle transform="matrix(0.77241381,0,0,0.77241381,4450.8603,874.04877)" id="path4944-4-8-5-7" style="fill:#ffffff;fill-opacity:1;stroke:#000000;stroke-width:2.58929;stroke-linejoin:round;stroke-miterlimit:4;stroke-dasharray:none;stroke-opacity:1" cx="277.23215" cy="1031.7372" r="7.7678571"/>
    <circle style="fill:#007a5b;fill-opacity:1;stroke:none" id="path4946-4-4-7-0" transform="matrix(0.3862069,0,0,0.3862069,4557.9296,1272.5124)" cx="277.23215" cy="1031.7372" r="7.7678571"/>
    <ellipse transform="matrix(3.6923078,-7.0710678e-8,7.0710678e-8,2.2857143,3530.2164,-978.56621)" id="path3799-4-0-7-6" style="fill:#ffffff;fill-opacity:1;stroke:none" cx="344.6875" cy="1032.9247" rx="0.8125" ry="1.3125"/>

    <ellipse style="fill:#ffffff;fill-opacity:1;stroke:none" id="path4986-3-7-0" transform="matrix(3.6923078,-7.0710678e-8,7.0710678e-8,2.2857143,4186.5846,-907.25475)" cx="344.6875" cy="1032.9247" rx="0.8125" ry="1.3125"/>

    <ellipse transform="matrix(3.6923078,-7.0710678e-8,7.0710678e-8,2.2857143,4207.7975,-886.04202)" id="path6166-3-7" style="fill:#ffffff;fill-opacity:1;stroke:none" cx="344.6875" cy="1032.9247" rx="0.8125" ry="1.3125"/>

    <ellipse style="fill:#ffffff;fill-opacity:1;stroke:none" id="path6172-2-4" transform="matrix(3.6923078,-7.0710678e-8,7.0710678e-8,2.2857143,4229.0105,-864.82872)" cx="344.6875" cy="1032.9247" rx="0.8125" ry="1.3125"/>
    <ellipse transform="matrix(3.6923078,-7.0710678e-8,7.0710678e-8,2.2857143,4250.2237,-843.61565)" id="path6178-7-6" style="fill:#ffffff;fill-opacity:1;stroke:none" cx="344.6875" cy="1032.9247" rx="0.8125" ry="1.3125"/>

    <ellipse style="fill:#ffffff;fill-opacity:1;stroke:none" id="path6184-5-7" transform="matrix(3.6923078,-7.0710678e-8,7.0710678e-8,2.2857143,4271.4369,-822.4022)" cx="344.6875" cy="1032.9247" rx="0.8125" ry="1.3125"/>

    <ellipse transform="matrix(3.6923078,-7.0710678e-8,7.0710678e-8,2.2857143,4292.6503,-801.18905)" id="path6190-2-7" style="fill:#ffffff;fill-opacity:1;stroke:none" cx="344.6875" cy="1032.9247" rx="0.8125" ry="1.3125"/>

    <ellipse style="fill:#ffffff;fill-opacity:1;stroke:none" id="path6196-6-3" transform="matrix(3.6923078,-7.0710678e-8,7.0710678e-8,2.2857143,4313.8633,-779.97592)" cx="344.6875" cy="1032.9247" rx="0.8125" ry="1.3125"/>

    <ellipse transform="matrix(3.6923078,-7.0710678e-8,7.0710678e-8,2.2857143,4335.0765,-758.76285)" id="path6202-1-2" style="fill:#ffffff;fill-opacity:1;stroke:none" cx="344.6875" cy="1032.9247" rx="0.8125" ry="1.3125"/>

    <ellipse style="fill:#ffffff;fill-opacity:1;stroke:none" id="path6208-0-7" transform="matrix(3.6923078,-7.0710678e-8,7.0710678e-8,2.2857143,4356.2898,-737.54964)" cx="344.6875" cy="1032.9247" rx="0.8125" ry="1.3125"/>

    <ellipse transform="matrix(3.6923078,-7.0710678e-8,7.0710678e-8,2.2857143,4377.5029,-716.33679)" id="path6214-8-5" style="fill:#ffffff;fill-opacity:1;stroke:none" cx="344.6875" cy="1032.9247" rx="0.8125" ry="1.3125"/>

    <ellipse style="fill:#ffffff;fill-opacity:1;stroke:none" id="path6220-1-2" transform="matrix(3.6923078,-7.0710678e-8,7.0710678e-8,2.2857143,4398.7159,-695.12345)" cx="344.6875" cy="1032.9247" rx="0.8125" ry="1.3125"/>


    <circle transform="matrix(0.77241381,0,0,0.77241381,5480.6542,892.373)" id="path5070-54-8-1" style="fill:#ffffff;fill-opacity:1;stroke:#000000;stroke-width:2.58929;stroke-linejoin:round;stroke-miterlimit:4;stroke-dasharray:none;stroke-opacity:1" cx="277.23215" cy="1031.7372" r="7.7678571"/>
    <circle style="fill:#528dba;fill-opacity:1;stroke:none" id="path4946-9-2-8-1" transform="matrix(0.3862069,0,0,0.3862069,5587.7229,1290.8375)" cx="277.23215" cy="1031.7372" r="7.7678571"/>
    <circle style="fill:#ffffff;fill-opacity:1;stroke:#000000;stroke-width:2.58929;stroke-linejoin:round;stroke-miterlimit:4;stroke-dasharray:none;stroke-opacity:1" id="path4227-0-5-7" transform="matrix(0.77241381,0,0,0.77241381,4588.7894,463.54802)" cx="277.23215" cy="1031.7372" r="7.7678571"/>
    <ellipse transform="matrix(3.6923078,-7.0710678e-8,7.0710678e-8,2.2857143,3633.8702,-1100.5389)" id="path4358-9-7-3" style="fill:#ffffff;fill-opacity:1;stroke:none" cx="344.6875" cy="1032.9247" rx="0.8125" ry="1.3125"/>

    <ellipse style="fill:#ffffff;fill-opacity:1;stroke:none" id="path6313-9-8" transform="matrix(3.6923078,-7.0710678e-8,7.0710678e-8,2.2857143,3588.9689,-1100.5388)" cx="344.6875" cy="1032.9247" rx="0.8125" ry="1.3125"/>


    <ellipse transform="matrix(3.6923078,-7.0710678e-8,7.0710678e-8,2.2857143,3488.2062,-1100.5389)" id="path6341-3-3" style="fill:#ffffff;fill-opacity:1;stroke:none" cx="344.6875" cy="1032.9247" rx="0.8125" ry="1.3125"/>

    <ellipse style="fill:#ffffff;fill-opacity:1;stroke:none" id="path6351-8-7" transform="matrix(3.6923078,-7.0710678e-8,7.0710678e-8,2.2857143,3448.2064,-1100.5388)" cx="344.6875" cy="1032.9247" rx="0.8125" ry="1.3125"/>

    <ellipse style="fill:#ffffff;fill-opacity:1;stroke:none" id="path6359-0-3" transform="matrix(3.6923078,-7.0710678e-8,7.0710678e-8,2.2857143,3408.2061,-1100.5388)" cx="344.6875" cy="1032.9247" rx="0.8125" ry="1.3125"/>

    <ellipse style="fill:#ffffff;fill-opacity:1;stroke:none" id="path6377-2-8" transform="matrix(3.6923078,-7.0710678e-8,7.0710678e-8,2.2857143,3530.2164,-1027.8162)" cx="344.6875" cy="1032.9247" rx="0.8125" ry="1.3125"/>

    <ellipse transform="matrix(3.6923078,-7.0710678e-8,7.0710678e-8,2.2857143,3374.7986,-1119.9432)" id="path6383-5-1" style="fill:#ffffff;fill-opacity:1;stroke:none" cx="344.6875" cy="1032.9247" rx="0.8125" ry="1.3125"/>

    <circle transform="matrix(0.77241381,0,0,0.77241381,4375.4144,386.13029)" id="path4577-2-8-2-6-8" style="fill:#ffffff;fill-opacity:1;stroke:#000000;stroke-width:2.58929;stroke-linejoin:round;stroke-miterlimit:4;stroke-dasharray:none;stroke-opacity:1" cx="277.23215" cy="1031.7372" r="7.7678571"/>
    <circle style="fill:#da421e;fill-opacity:1;stroke:none" id="path4946-9-3-6-7-3" transform="matrix(0.3862069,0,0,0.3862069,4482.4836,784.59452)" cx="277.23215" cy="1031.7372" r="7.7678571"/>
    <ellipse transform="matrix(3.6923078,-7.0710678e-8,7.0710678e-8,2.2857143,3530.2164,-1138.4781)" id="path6440-6-4" style="fill:#ffffff;fill-opacity:1;stroke:none" cx="344.6875" cy="1032.9247" rx="0.8125" ry="1.3125"/>

    <ellipse style="fill:#ffffff;fill-opacity:1;stroke:none" id="path6481-1-1" transform="matrix(3.6923078,-7.0710678e-8,7.0710678e-8,2.2857143,3530.2164,-1168.4781)" cx="344.6875" cy="1032.9247" rx="0.8125" ry="1.3125"/>
    <ellipse style="fill:#ffffff;fill-opacity:1;stroke:none" id="path6483-9-4" transform="matrix(3.6923078,-7.0710678e-8,7.0710678e-8,2.2857143,3530.2163,-1198.4785)" cx="344.6875" cy="1032.9247" rx="0.8125" ry="1.3125"/>

    <ellipse transform="matrix(3.6923078,-7.0710678e-8,7.0710678e-8,2.2857143,3503.3607,-1221.7569)" id="path6531-2-2" style="fill:#ffffff;fill-opacity:1;stroke:none" cx="344.6875" cy="1032.9247" rx="0.8125" ry="1.3125"/>

    <ellipse transform="matrix(3.6923078,-7.0710678e-8,7.0710678e-8,2.2857143,3463.3605,-1221.7569)" id="path6539-5-6" style="fill:#ffffff;fill-opacity:1;stroke:none" cx="344.6875" cy="1032.9247" rx="0.8125" ry="1.3125"/>

    <ellipse style="fill:#ffffff;fill-opacity:1;stroke:none" id="path6549-9-6" transform="matrix(3.6923078,-7.0710678e-8,7.0710678e-8,2.2857143,3423.3606,-1221.7569)" cx="344.6875" cy="1032.9247" rx="0.8125" ry="1.3125"/>

    <ellipse style="fill:#ffffff;fill-opacity:1;stroke:none" id="path6557-2-9" transform="matrix(3.6923078,-7.0710678e-8,7.0710678e-8,2.2857143,3383.36,-1221.7569)" cx="344.6875" cy="1032.9247" rx="0.8125" ry="1.3125"/>


    <ellipse transform="matrix(3.6923078,-7.0710678e-8,7.0710678e-8,2.2857143,3343.3604,-1221.7568)" id="path6582-4-7" style="fill:#ffffff;fill-opacity:1;stroke:none" cx="344.6875" cy="1032.9247" rx="0.8125" ry="1.3125"/>

    <ellipse transform="matrix(3.6923078,-7.0710678e-8,7.0710678e-8,2.2857143,3303.3599,-1221.7569)" id="path6590-9-3" style="fill:#ffffff;fill-opacity:1;stroke:none" cx="344.6875" cy="1032.9247" rx="0.8125" ry="1.3125"/>

    <ellipse style="fill:#ffffff;fill-opacity:1;stroke:none" id="path6596-7-5" transform="matrix(3.6923078,-7.0710678e-8,7.0710678e-8,2.2857143,3263.3604,-1221.7571)" cx="344.6875" cy="1032.9247" rx="0.8125" ry="1.3125"/>

    <ellipse style="fill:#ffffff;fill-opacity:1;stroke:none" id="path6604-5-6" transform="matrix(3.6923078,-7.0710678e-8,7.0710678e-8,2.2857143,3223.36,-1221.7568)" cx="344.6875" cy="1032.9247" rx="0.8125" ry="1.3125"/>

    <ellipse style="fill:#ffffff;fill-opacity:1;stroke:none" id="path6626-2-4" transform="matrix(3.6923078,-7.0710678e-8,7.0710678e-8,2.2857143,3350.0497,-1144.6922)" cx="344.6875" cy="1032.9247" rx="0.8125" ry="1.3125"/>


    <circle transform="matrix(0.77241381,0,0,0.77241381,4230.206,342.27948)" id="path5070-54-6-9-9" style="fill:#ffffff;fill-opacity:1;stroke:#000000;stroke-width:2.58929;stroke-linejoin:round;stroke-miterlimit:4;stroke-dasharray:none;stroke-opacity:1" cx="277.23215" cy="1031.7372" r="7.7678571"/>
    <circle style="fill:#528dba;fill-opacity:1;stroke:none" id="path4946-9-2-5-5-2" transform="matrix(0.3862069,0,0,0.3862069,4337.2748,740.74394)" cx="277.23215" cy="1031.7372" r="7.7678571"/>

    <ellipse style="fill:#ffffff;fill-opacity:1;stroke:none" id="path5569-2-4-1" transform="matrix(3.6923078,-7.0710678e-8,7.0710678e-8,2.2857143,4503.6055,-1127.9048)" cx="344.6875" cy="1032.9247" rx="0.8125" ry="1.3125"/>

    <ellipse style="fill:#ffffff;fill-opacity:1;stroke:none" id="path5581-1-0-8" transform="matrix(3.6923078,-7.0710678e-8,7.0710678e-8,2.2857143,4483.232,-1148.2781)" cx="344.6875" cy="1032.9247" rx="0.8125" ry="1.3125"/>
    <ellipse transform="matrix(3.6923078,-7.0710678e-8,7.0710678e-8,2.2857143,4462.814,-1168.6958)" id="path5583-4-8-5" style="fill:#ffffff;fill-opacity:1;stroke:none" cx="344.6875" cy="1032.9247" rx="0.8125" ry="1.3125"/>


    <ellipse transform="matrix(3.6923078,-7.0710678e-8,7.0710678e-8,2.2857143,4539.1056,-1127.9048)" id="path6780-7-1" style="fill:#ffffff;fill-opacity:1;stroke:none" cx="344.6875" cy="1032.9247" rx="0.8125" ry="1.3125"/>
    <ellipse transform="matrix(3.6923078,-7.0710678e-8,7.0710678e-8,2.2857143,4559.4086,-1148.2784)" id="path6782-4-1" style="fill:#ffffff;fill-opacity:1;stroke:none" cx="344.6875" cy="1032.9247" rx="0.8125" ry="1.3125"/>
    <ellipse style="fill:#ffffff;fill-opacity:1;stroke:none" id="path6784-6-5" transform="matrix(3.6923078,-7.0710678e-8,7.0710678e-8,2.2857143,4579.8188,-1168.696)" cx="344.6875" cy="1032.9247" rx="0.8125" ry="1.3125"/>


    <ellipse style="fill:#ffffff;fill-opacity:1;stroke:none" id="path6817-0-5" transform="matrix(3.6923078,-7.0710678e-8,7.0710678e-8,2.2857143,4600.2441,-1189.1137)" cx="344.6875" cy="1032.9247" rx="0.8125" ry="1.3125"/>
    <ellipse transform="matrix(3.6923078,-7.0710678e-8,7.0710678e-8,2.2857143,4620.6545,-1209.5314)" id="path6819-3-3" style="fill:#ffffff;fill-opacity:1;stroke:none" cx="344.6875" cy="1032.9247" rx="0.8125" ry="1.3125"/>

    <ellipse transform="matrix(3.6923078,-7.0710678e-8,7.0710678e-8,2.2857143,4641.1626,-1230.0396)" id="path6837-1-4" style="fill:#ffffff;fill-opacity:1;stroke:none" cx="344.6875" cy="1032.9247" rx="0.8125" ry="1.3125"/>
    <ellipse transform="matrix(3.6923078,-7.0710678e-8,7.0710678e-8,2.2857143,4661.5879,-1250.4575)" id="path6839-7-7" style="fill:#ffffff;fill-opacity:1;stroke:none" cx="344.6875" cy="1032.9247" rx="0.8125" ry="1.3125"/>
    <ellipse style="fill:#ffffff;fill-opacity:1;stroke:none" id="path6841-4-4" transform="matrix(3.6923078,-7.0710678e-8,7.0710678e-8,2.2857143,4681.998,-1270.8751)" cx="344.6875" cy="1032.9247" rx="0.8125" ry="1.3125"/>


    <circle transform="matrix(0.77241381,0,0,0.77241381,5765.3359,268.61214)" id="path5360-3-2-3" style="fill:#ffffff;fill-opacity:1;stroke:#000000;stroke-width:2.58929;stroke-linejoin:round;stroke-miterlimit:4;stroke-dasharray:none;stroke-opacity:1" cx="277.23215" cy="1031.7372" r="7.7678571"/>
    <circle style="fill:#7e5330;fill-opacity:1;stroke:none" id="path4946-8-2-3-8-1" transform="matrix(0.3862069,0,0,0.3862069,5872.4051,667.07662)" cx="277.23215" cy="1031.7372" r="7.7678571"/>


    <ellipse transform="matrix(3.6923078,-7.0710678e-8,7.0710678e-8,2.2857143,3818.7881,-1510.6801)" id="path7283-7-7" style="fill:#ffffff;fill-opacity:1;stroke:none" cx="344.6875" cy="1032.9247" rx="0.8125" ry="1.3125"/>
    <ellipse transform="matrix(3.6923078,-7.0710678e-8,7.0710678e-8,2.2857143,3811.3914,-1545.4144)" id="path7283-1-4-7" style="fill:#ffffff;fill-opacity:1;stroke:none" cx="344.6875" cy="1032.9247" rx="0.8125" ry="1.3125"/>

    <circle style="fill:#ffffff;fill-opacity:1;stroke:none;stroke-width:2.90509" id="path7313-3-0" cx="5084.084" cy="786.55688" r="3"/>


    <ellipse transform="matrix(3.6923078,-7.0710678e-8,7.0710678e-8,2.2857143,3675.1842,-870.24876)" id="path6509" style="fill:#ffffff;fill-opacity:1;stroke:none" cx="344.6875" cy="1032.9247" rx="0.8125" ry="1.3125"/>

    <ellipse style="fill:#ffffff;fill-opacity:1;stroke:none" id="path6515" transform="matrix(3.6923078,-7.0710678e-8,7.0710678e-8,2.2857143,3675.1842,-832.10601)" cx="344.6875" cy="1032.9247" rx="0.8125" ry="1.3125"/>

    <ellipse transform="matrix(3.6923078,-7.0710678e-8,7.0710678e-8,2.2857143,3675.1842,-793.98093)" id="path6532" style="fill:#ffffff;fill-opacity:1;stroke:none" cx="344.6875" cy="1032.9247" rx="0.8125" ry="1.3125"/>

    <circle style="fill:#ffffff;fill-opacity:1;stroke:#000000;stroke-width:2.58929;stroke-linejoin:round;stroke-miterlimit:4;stroke-dasharray:none;stroke-opacity:1" id="path5723" transform="matrix(0.77241381,0,0,0.77241381,5054.883,377.32445)" cx="277.23215" cy="1031.7372" r="7.7678571"/>
    <circle transform="matrix(0.77241381,0,0,0.77241381,4895.0769,377.32445)" id="path5733" style="fill:#ffffff;fill-opacity:1;stroke:#000000;stroke-width:2.58929;stroke-linejoin:round;stroke-miterlimit:4;stroke-dasharray:none;stroke-opacity:1" cx="277.23215" cy="1031.7372" r="7.7678571"/>
    <circle style="fill:#7e5330;fill-opacity:1;stroke:none" id="path4946-8-1-2-4" transform="matrix(0.3862069,0,0,0.3862069,5002.1457,775.78848)" cx="277.23215" cy="1031.7372" r="7.7678571"/>


    <ellipse style="fill:#ffffff;fill-opacity:1;stroke:none" id="path5992" transform="matrix(3.6923078,-7.0710678e-8,7.0710678e-8,2.2857143,4030.2195,-1186.778)" cx="344.6875" cy="1032.9247" rx="0.8125" ry="1.3125"/>

    <circle id="path5607-7-8-1-79" style="fill:#000000;fill-opacity:1;stroke:#000000;stroke-width:0;stroke-dasharray:none;stroke-opacity:1;paint-order:normal" cx="4931.1006" cy="822.10938" r="3.9999995"/>
    <circle id="path5607-7-8-93" style="fill:#ffffff;fill-opacity:1;stroke:#000000;stroke-width:0;stroke-dasharray:none;stroke-opacity:1;paint-order:normal" cx="4931.1006" cy="822.11481" r="3"/>


    <circle id="path5607-7-8-1-79-0" style="fill:#000000;fill-opacity:1;stroke:#000000;stroke-width:0;stroke-dasharray:none;stroke-opacity:1;paint-order:normal" cx="4953.3403" cy="844.23499" r="3.9999995"/>
    <circle id="path5607-7-8-93-2" style="fill:#ffffff;fill-opacity:1;stroke:#000000;stroke-width:0;stroke-dasharray:none;stroke-opacity:1;paint-order:normal" cx="4953.3403" cy="844.24042" r="3"/>
    <circle id="path5607-7-8-1-79-6" style="fill:#000000;fill-opacity:1;stroke:#000000;stroke-width:0;stroke-dasharray:none;stroke-opacity:1;paint-order:normal" cx="4975.707" cy="866.6145" r="3.9999995"/>
    <circle id="path5607-7-8-93-4" style="fill:#ffffff;fill-opacity:1;stroke:#000000;stroke-width:0;stroke-dasharray:none;stroke-opacity:1;paint-order:normal" cx="4975.707" cy="866.61993" r="3"/>
    <circle id="path5607-7-8-1-79-8" style="fill:#000000;fill-opacity:1;stroke:#000000;stroke-width:0;stroke-dasharray:none;stroke-opacity:1;paint-order:normal" cx="4996.1318" cy="887.02643" r="3.9999995"/>
    <circle id="path5607-7-8-93-0" style="fill:#ffffff;fill-opacity:1;stroke:#000000;stroke-width:0;stroke-dasharray:none;stroke-opacity:1;paint-order:normal" cx="4996.1318" cy="887.03186" r="3"/>
    <circle id="path5607-7-8-1-79-2" style="fill:#000000;fill-opacity:1;stroke:#000000;stroke-width:0;stroke-dasharray:none;stroke-opacity:1;paint-order:normal" cx="5016.5186" cy="907.42566" r="3.9999995"/>
    <circle id="path5607-7-8-93-07" style="fill:#ffffff;fill-opacity:1;stroke:#000000;stroke-width:0;stroke-dasharray:none;stroke-opacity:1;paint-order:normal" cx="5016.5186" cy="907.43109" r="3"/>
  </g></svg>