<svg xmlns="http://www.w3.org/2000/svg"  id="target-ubhchn" height="1003.688" width="1660.094" viewBox="4368.719 728.25 1660.094 1003.688">
    <g>
        <path xmlns="http://www.w3.org/2000/svg"
              d="M5108.975 1174.23h600.226c9.104 0 14.101 5.808 14.101 5.808l56.621 56.621s4.734 5.809 14.103 5.809 14.23-5.922 14.23-5.922l171.827-171.827"
              data-ubhchn="12"
              style="fill: none; stroke: rgb(126, 83, 48); stroke-width: 8; stroke-linecap: butt; stroke-linejoin: miter; stroke-miterlimit: 4; stroke-dasharray: none; stroke-opacity: 1;"></path>
        <path xmlns="http://www.w3.org/2000/svg" d="M5386.781 1537.828v-384.033s.574-7.64-5.863-14.078l-188.576-188.576"
              data-ubhchn="13"
              style="fill: none; stroke: rgb(34, 79, 134); stroke-width: 8; stroke-linecap: butt; stroke-linejoin: miter; stroke-miterlimit: 4; stroke-dasharray: none; stroke-opacity: 1;"></path>
        <path xmlns="http://www.w3.org/2000/svg" d="M5269.022 1666.84V1168.16s.574-7.64-5.863-14.078l-226.174-226.174"
              data-ubhchn="14"
              style="fill: none; stroke: rgb(140, 109, 171); stroke-width: 8; stroke-linecap: butt; stroke-linejoin: miter; stroke-miterlimit: 4; stroke-dasharray: none; stroke-opacity: 1;"></path>
        <path xmlns="http://www.w3.org/2000/svg" d="M5038.774 929.928 4930.6 821.754" data-ubhchn="15"
              style="fill: none; stroke: rgb(140, 109, 171); stroke-width: 4; stroke-linecap: butt; stroke-linejoin: miter; stroke-miterlimit: 4; stroke-dasharray: 4, 4; stroke-dashoffset: 0; stroke-opacity: 1;"></path>
        <path xmlns="http://www.w3.org/2000/svg"
              d="M5053.807 1447.536h53.548s7.647.613 14.127-5.867l76.421-76.42s5.06-5.849 14.165-5.849c0 0 7.834-.418 14.146 5.894 6.313 6.313 57.403 57.757 57.403 57.757s4.89 5.827 14.139 5.826h128.392s7.792-.504 14.136 5.84l256.414 256.414"
              data-ubhchn="16"
              style="fill: none; stroke: rgb(82, 141, 186); stroke-width: 8; stroke-linecap: butt; stroke-linejoin: miter; stroke-miterlimit: 4; stroke-dasharray: none; stroke-opacity: 1;"></path>
        <path xmlns="http://www.w3.org/2000/svg"
              d="M5080.24 1447.523h-232.68s-7.744.57-14.174-5.86l-24.587-24.588s-5.894-4.988-5.894-14.176v-243.682s.464-7.79-5.811-14.065c-6.276-6.275-12.552-5.922-14.23-5.922h-338.705"
              data-ubhchn="17"
              style="fill: none; stroke: rgb(82, 141, 186); stroke-width: 8; stroke-linecap: butt; stroke-linejoin: round; stroke-miterlimit: 4; stroke-dasharray: none; stroke-opacity: 1;"></path>
        <path xmlns="http://www.w3.org/2000/svg"
              d="m4901.265 1623.538 40.831-40.83c6.375-6.376 5.832-14.113 5.832-14.113V1323.18" data-ubhchn="18"
              style="fill: none; stroke: rgb(243, 121, 29); stroke-width: 8; stroke-linecap: butt; stroke-linejoin: miter; stroke-miterlimit: 4; stroke-dasharray: none; stroke-opacity: 1;"></path>
        <path xmlns="http://www.w3.org/2000/svg"
              d="M4947.928 1334.594v-133.105s-.663-7.635 5.834-14.131l237.897-237.898" data-ubhchn="19"
              style="fill: none; stroke: rgb(243, 121, 29); stroke-width: 8; stroke-linecap: butt; stroke-linejoin: miter; stroke-miterlimit: 4; stroke-dasharray: none; stroke-opacity: 1;"></path>
        <path xmlns="http://www.w3.org/2000/svg" d="M5084.086 756.087v78.562s-.574 7.64 5.863 14.078l100.245 100.245"
              data-ubhchn="20"
              style="fill: none; stroke: rgb(34, 79, 134); stroke-width: 8; stroke-linecap: butt; stroke-linejoin: miter; stroke-miterlimit: 4; stroke-dasharray: none; stroke-opacity: 1;"></path>
        <path xmlns="http://www.w3.org/2000/svg" d="m4664.738 1671.236 317.788-317.788s5.264-5.87 14.17-5.87h542.156"
              data-ubhchn="21"
              style="fill: none; stroke: rgb(0, 122, 91); stroke-width: 8; stroke-linecap: butt; stroke-linejoin: round; stroke-miterlimit: 4; stroke-dasharray: none; stroke-opacity: 1;"></path>
        <path xmlns="http://www.w3.org/2000/svg" d="M4880.294 1335.644h659.25" data-ubhchn="134"
              style="fill: none; stroke: rgb(125, 173, 76); stroke-width: 8; stroke-linecap: butt; stroke-linejoin: miter; stroke-miterlimit: 4; stroke-dasharray: none; stroke-opacity: 1;"></path>
        <path xmlns="http://www.w3.org/2000/svg"
              d="M4803.37 1260.455h117.558c9.125 0 14.139 5.828 14.139 5.828l52.115 52.116s5.265 5.87 14.171 5.87h68.143s7.196-.156 12.797 5.442l38.197 38.198s5.177 5.864 14.114 5.864c8.938 0 13.688-5.375 14.188-5.875s5.812-5.313 5.812-14.125c0-3.705.088-13.655.088-13.614"
              data-ubhchn="322"
              style="fill: none; stroke: rgb(218, 66, 30); stroke-width: 8; stroke-linecap: butt; stroke-linejoin: round; stroke-miterlimit: 4; stroke-dasharray: none; stroke-opacity: 1;"></path>
        <path xmlns="http://www.w3.org/2000/svg" d="M4801.601 1260.455H4675.3s-7.473.86-14.147-5.813l-71.611-71.612"
              data-ubhchn="323"
              style="fill: none; stroke: rgb(218, 66, 30); stroke-width: 8; stroke-linecap: butt; stroke-linejoin: round; stroke-miterlimit: 4; stroke-dasharray: none; stroke-opacity: 1;"></path>
        <path xmlns="http://www.w3.org/2000/svg"
              d="M5154.605 1336.16v-59.939s-.255-8.049 5.838-14.143c6.094-6.093 13.125-5.874 14.188-5.874h93.417"
              data-ubhchn="324"
              style="fill: none; stroke: rgb(218, 66, 30); stroke-width: 8; stroke-linecap: butt; stroke-linejoin: round; stroke-miterlimit: 4; stroke-dasharray: none; stroke-opacity: 1;"></path>
        <path xmlns="http://www.w3.org/2000/svg"
              d="M5252.76 1256.204h43.731s7.98.326 14.105-5.8l122.474-122.473s5.833-5.141 5.833-14.112v-129.54"
              data-ubhchn="325"
              style="fill: none; stroke: rgb(218, 66, 30); stroke-width: 8; stroke-linecap: butt; stroke-linejoin: round; stroke-miterlimit: 4; stroke-dasharray: none; stroke-opacity: 1;"></path>
        <path xmlns="http://www.w3.org/2000/svg" d="M5053.842 1348.815v181.936" data-ubhchn="328"
              style="fill: none; stroke: rgb(240, 215, 34); stroke-width: 8; stroke-linecap: butt; stroke-linejoin: miter; stroke-miterlimit: 4; stroke-dasharray: none; stroke-opacity: 1;"></path>
    </g>
</svg>