<svg id="target-ubhchn" height="1004" width="1661" xmlns="http://www.w3.org/2000/svg"
     style="fill:none;stroke-width:8;stroke-linecap:butt;stroke-linejoin:miter;stroke-miterlimit:4;stroke-dasharray:none;stroke-opacity:1">
    <g>
        <path id="U5" stroke="#7E5330"
              d="M740.256 445.979h600.224c9.11 0 14.1 5.809 14.1 5.809l56.62 56.621s4.74 5.809 14.11 5.809 14.23-5.922 14.23-5.922l171.82-171.827"
        ></path>
        <path id="U8" stroke="#224F86"
              d="
              M1018.06 809.578V425.545s.58-7.64-5.86-14.078c-3.29-3.284-88.796-88.795-188.577-188.576
L 721.23 120.47800000000001 C 714.793 114.04100000000001 715.367 106.4 715.367 106.4 L 715.367 27.837

"
        ></path>
        <path id="U6" stroke="#8C6DAB"
              d="M900.304 938.59V439.909s.573-7.64-5.864-14.078L668.266 199.657"></path>
        <path id="U6-ext" stroke="#8C6DAB" stroke-dasharray="4 4" stroke-width="4" d="M670.055 201.678 561.881 93.504" data-ubhchn="7"/>
        <path id="U7" stroke="#528DBA"
              d="
              M 1327.9800000000002 962.881 C 1327.9800000000002 962.881 1077.91 712.811 1071.5600000000002 706.467 C 1065.22 700.1229999999999 1057.43 700.627 1057.43 700.627 L 929.037 700.627 C 919.787 700.6279999999999 914.898 694.8009999999999 914.898 694.8009999999999 C 914.898 694.8009999999999 863.808 643.357 857.495 637.045 C 851.183 630.732 843.349 631.15 843.349 631.15 C 834.245 631.15 829.1850000000001 636.9979999999999 829.1850000000001 636.9979999999999 L 752.764 713.419 C 746.2840000000001 719.899 738.6370000000001 719.286 738.6370000000001 719.286
L 478.84099999999995 719.273 C 478.84099999999995 719.273 471.097 719.8430000000001 464.667 713.412 L 440.08 688.825 C 440.08 688.825 434.187 683.837 434.187 674.649 L 434.187 430.967 C 434.187 430.967 434.65000000000003 423.178 428.375 416.902 C 422.099 410.627 415.824 410.97999999999996 414.145 410.97999999999996 L 75.44 410.97999999999996
"
        ></path>
        <path id="U9" stroke="#F3791D"
              d="

             m532.546 895.288 40.831-40.831c6.375-6.375 5.832-14.112 5.832-14.112V594.93

L 579.209 606.344 L 579.209 473.239 C 579.209 473.239 578.5469999999999 465.604 585.0429999999999 459.10799999999995 L 822.94 221.211
"></path>

        <path id="U3" stroke="#007A5B" stroke-linejoin="round"
              d="m296.02 942.985 317.787-317.787s5.265-5.87 14.171-5.87h542.152"></path>
        <path id="U1" stroke="#7DAD4C" d="M511.575 607.394h659.255"
        ></path>
        <path id="U2" stroke="#DA421E" stroke-linejoin="round"
              d="
              M220.823 454.78L292.434 526.392C299.108 533.065 306.581 532.205 306.581 532.205H552.209C561.334 532.205 566.348 538.033 566.348 538.033L618.463 590.149C618.463 590.149 623.728 596.019 632.634 596.019H700.777C700.777 596.019 707.973 595.863 713.574 601.461L751.771 639.659C751.771 639.659 756.948 645.523 765.885 645.523C774.823 645.523 779.573 640.148 780.073 639.648C780.573 639.148 785.885 634.335 785.885 625.523C785.885 621.818 785.973 611.868 785.973 611.909L785.886 607.91V547.971C785.886 547.971 785.631 539.922 791.724 533.828C797.818 527.735 804.849 527.954 805.912 527.954H899.329H884.041H927.772C927.772 527.954 935.752 528.28 941.877 522.154L1064.35 399.681C1064.35 399.681 1070.18 394.54 1070.18 385.569V256.029
"


        ></path>

        <path id="U4" stroke="#F0D722" d="M685.124 620.566v181.935"
        ></path>
    </g>
</svg>