<svg xmlns="http://www.w3.org/2000/svg" width="1660.094" height="1003.688" viewBox="4368.719 728.25 1660.094 1003.688">
    <path xmlns="http://www.w3.org/2000/svg"
          d="M5108.975 1174.23h600.226c9.104 0 14.101 5.808 14.101 5.808l56.621 56.621s4.734 5.809 14.103 5.809 14.23-5.922 14.23-5.922l171.827-171.827"
          data-ubhchn="12"
          style="fill:none;stroke:#7e5330;stroke-width:8;stroke-linecap:butt;stroke-linejoin:miter;stroke-miterlimit:4;stroke-dasharray:none;stroke-opacity:1"/>
    <path xmlns="http://www.w3.org/2000/svg"
          d="M5386.781 1537.828v-384.033s.574-7.64-5.863-14.078l-190.724-190.745-100.245-100.245c-6.437-6.438-5.863-14.078-5.863-14.078v-78.562"
          data-ubhchn="13"
          style="fill:none;stroke:#224f86;stroke-width:8;stroke-linecap:butt;stroke-linejoin:miter;stroke-miterlimit:4;stroke-dasharray:none;stroke-opacity:1"/>
    <path xmlns="http://www.w3.org/2000/svg"
          d="m4901.265 1623.538 40.831-40.83c6.375-6.376 5.832-14.113 5.832-14.113v-367.106s-.663-7.635 5.834-14.131l237.897-237.898"
          data-ubhchn="18"
          style="fill:none;stroke:#f3791d;stroke-width:8;stroke-linecap:butt;stroke-linejoin:miter;stroke-miterlimit:4;stroke-dasharray:none;stroke-opacity:1"/>
    <path xmlns="http://www.w3.org/2000/svg"
          d="m5696.698 1691.131-256.414-256.414c-6.344-6.344-14.136-5.84-14.136-5.84h-128.392c-9.249.001-14.139-5.826-14.139-5.826s-51.09-51.444-57.403-57.757c-6.312-6.312-14.146-5.894-14.146-5.894-9.105 0-14.165 5.849-14.165 5.849l-76.421 76.42c-6.48 6.48-14.127 5.867-14.127 5.867l-259.795-.013s-7.744.57-14.174-5.86l-24.587-24.588s-5.894-4.988-5.894-14.176v-243.682s.464-7.79-5.811-14.065c-6.276-6.275-12.552-5.922-14.23-5.922h-338.705"
          data-ubhchn="16"
          style="fill:none;stroke:#528dba;stroke-width:8;stroke-linecap:butt;stroke-linejoin:miter;stroke-miterlimit:4;stroke-dasharray:none;stroke-opacity:1"/>
    <path xmlns="http://www.w3.org/2000/svg" d="M5269.022 1666.84v-498.68s.574-7.64-5.863-14.078l-226.174-226.174"
          data-ubhchn="14"
          style="fill:none;stroke:#8c6dab;stroke-width:8;stroke-linecap:butt;stroke-linejoin:miter;stroke-miterlimit:4;stroke-dasharray:none;stroke-opacity:1"/>
    <path xmlns="http://www.w3.org/2000/svg" d="M5038.774 929.928 4930.6 821.754" data-ubhchn="15"
          style="fill:none;stroke:#8c6dab;stroke-width:4;stroke-linecap:butt;stroke-linejoin:miter;stroke-miterlimit:4;stroke-dasharray:4,4;stroke-dashoffset:0;stroke-opacity:1"/>
    <path xmlns="http://www.w3.org/2000/svg" d="M5053.842 1348.815v181.936" data-ubhchn="328"
          style="fill:none;stroke:#f0d722;stroke-width:8;stroke-linecap:butt;stroke-linejoin:miter;stroke-miterlimit:4;stroke-dasharray:none;stroke-opacity:1"/>
    <path xmlns="http://www.w3.org/2000/svg" d="m4664.738 1671.236 317.788-317.788s5.264-5.87 14.17-5.87h542.156"
          data-ubhchn="21"
          style="fill:none;stroke:#007a5b;stroke-width:8;stroke-linecap:butt;stroke-linejoin:round;stroke-miterlimit:4;stroke-dasharray:none;stroke-opacity:1"/>
    <path xmlns="http://www.w3.org/2000/svg" d="M4880.294 1335.644h659.25" data-ubhchn="134"
          style="fill:none;stroke:#7dad4c;stroke-width:8;stroke-linecap:butt;stroke-linejoin:miter;stroke-miterlimit:4;stroke-dasharray:none;stroke-opacity:1"/>
    <path xmlns="http://www.w3.org/2000/svg"
          d="m4589.542 1183.03 71.611 71.612c6.674 6.673 14.147 5.813 14.147 5.813h245.628c9.125 0 14.139 5.828 14.139 5.828l52.115 52.116s5.265 5.87 14.171 5.87h68.143s7.196-.156 12.797 5.442l38.197 38.198s5.177 5.864 14.114 5.864c8.938 0 13.688-5.375 14.188-5.875s5.812-5.313 5.812-14.125c0-3.705.088-13.655.088-13.614l-.087-3.999v-59.939s-.255-8.049 5.838-14.143c6.094-6.093 13.125-5.874 14.188-5.874h93.417-15.288 43.731s7.98.326 14.105-5.8l122.474-122.473s5.833-5.141 5.833-14.112v-129.54"
          data-ubhchn="325"
          style="fill:none;stroke:#da421e;stroke-width:8;stroke-linecap:butt;stroke-linejoin:round;stroke-miterlimit:4;stroke-dasharray:none;stroke-opacity:1"/>
</svg>