<svg id="target-ubhchn" width="1660.094" height="1003.688" viewBox="4368.7187 728.25 1660.094 1003.688"
     inkscape:export-ydpi="119.26023" xmlns:inkscape="http://www.inkscape.org/namespaces/inkscape"
     xmlns="http://www.w3.org/2000/svg">

    <g>
        <path xmlns="http://www.w3.org/2000/svg"
              d="M5108.975 1174.23h600.226c9.104 0 14.101 5.808 14.101 5.808l56.621 56.621s4.734 5.809 14.103 5.809 14.23-5.922 14.23-5.922l171.827-171.827"
              data-ubhchn="12"
              style="fill: none; stroke: rgb(126, 83, 48); stroke-width: 8; stroke-linecap: butt; stroke-linejoin: miter; stroke-miterlimit: 4; stroke-dasharray: none; stroke-opacity: 1;"></path>
        <path xmlns="http://www.w3.org/2000/svg" d="
        M5386.781 1537.828v-384.033s.574-7.64-5.863-14.078
L 5190.194 948.972 L 5089.9490000000005 848.727 C 5083.512000000001 842.289 5084.086 834.649 5084.086 834.649 L 5084.086 756.087
"
              data-ubhchn="13"
              style="fill: none; stroke: rgb(34, 79, 134); stroke-width: 8; stroke-linecap: butt; stroke-linejoin: miter; stroke-miterlimit: 4; stroke-dasharray: none; stroke-opacity: 1;"/>

        <path xmlns="http://www.w3.org/2000/svg" d="

        m4901.265 1623.538 40.831-40.83c6.375-6.376 5.832-14.113 5.832-14.113

         L 4947.928 1201.489 C 4947.928 1201.489 4947.265 1193.854 4953.762 1187.358 L 5191.659 949.4599999999999
" data-ubhchn="18" style="fill: none; stroke: rgb(243, 121, 29); stroke-width: 8; stroke-linecap: butt; stroke-linejoin: miter; stroke-miterlimit: 4; stroke-dasharray: none; stroke-opacity: 1;"/>

        <path xmlns="http://www.w3.org/2000/svg" d="
        M 5696.698 1691.131 L 5440.284000000001 1434.717 C 5433.9400000000005 1428.3730000000003 5426.148 1428.8770000000002 5426.148 1428.8770000000002 L 5297.756 1428.8770000000002 C 5288.5070000000005 1428.8780000000002 5283.617 1423.0510000000002 5283.617 1423.0510000000002 C 5283.617 1423.0510000000002 5232.527 1371.6070000000002 5226.214 1365.294 C 5219.902 1358.9820000000002 5212.068 1359.4 5212.068 1359.4 C 5202.963000000001 1359.4 5197.903 1365.249 5197.903 1365.249 L 5121.482 1441.669 C 5115.0019999999995 1448.1490000000001 5107.355 1447.536 5107.355 1447.536
 L 4847.5599999999995 1447.523 C 4847.5599999999995 1447.523 4839.816 1448.0929999999998 4833.3859999999995 1441.663 L 4808.798999999999 1417.075 C 4808.798999999999 1417.075 4802.904999999999 1412.087 4802.904999999999 1402.8990000000001 L 4802.904999999999 1159.217 C 4802.904999999999 1159.217 4803.368999999999 1151.4270000000001 4797.093999999999 1145.152 C 4790.817999999999 1138.877 4784.5419999999995 1139.23 4782.864 1139.23 L 4444.159 1139.23

" data-ubhchn="16"
              style="fill: none; stroke: rgb(82, 141, 186); stroke-width: 8; stroke-linecap: butt; stroke-linejoin: miter; stroke-miterlimit: 4; stroke-dasharray: none; stroke-opacity: 1;"/>
        <path xmlns="http://www.w3.org/2000/svg" d="M5269.022 1666.84V1168.16s.574-7.64-5.863-14.078l-226.174-226.174"
              data-ubhchn="14"
              style="fill: none; stroke: rgb(140, 109, 171); stroke-width: 8; stroke-linecap: butt; stroke-linejoin: miter; stroke-miterlimit: 4; stroke-dasharray: none; stroke-opacity: 1;"></path>
        <path xmlns="http://www.w3.org/2000/svg" d="M5038.774 929.928 4930.6 821.754" data-ubhchn="15"
              style="fill: none; stroke: rgb(140, 109, 171); stroke-width: 4; stroke-linecap: butt; stroke-linejoin: miter; stroke-miterlimit: 4; stroke-dasharray: 4, 4; stroke-dashoffset: 0; stroke-opacity: 1;"></path>
        <path xmlns="http://www.w3.org/2000/svg" d="M5053.842 1348.815v181.936" data-ubhchn="328"
              style="fill: none; stroke: rgb(240, 215, 34); stroke-width: 8; stroke-linecap: butt; stroke-linejoin: miter; stroke-miterlimit: 4; stroke-dasharray: none; stroke-opacity: 1;"></path>
        <path xmlns="http://www.w3.org/2000/svg" d="m4664.738 1671.236 317.788-317.788s5.264-5.87 14.17-5.87h542.156" data-ubhchn="21" style="fill: none; stroke: rgb(0, 122, 91); stroke-width: 8; stroke-linecap: butt; stroke-linejoin: round; stroke-miterlimit: 4; stroke-dasharray: none; stroke-opacity: 1;"/>
        <path xmlns="http://www.w3.org/2000/svg" d="M4880.294 1335.644h659.25" data-ubhchn="134" style="fill: none; stroke: rgb(125, 173, 76); stroke-width: 8; stroke-linecap: butt; stroke-linejoin: miter; stroke-miterlimit: 4; stroke-dasharray: none; stroke-opacity: 1;"/>
        <path xmlns="http://www.w3.org/2000/svg"
              d="
M 4589.542 1183.0299999999997 L 4661.153 1254.6419999999998 C 4667.827 1261.3149999999998 4675.3 1260.455 4675.3 1260.455

L 4803.37 1260.455h117.558c9.125 0 14.139 5.828 14.139 5.828l52.115 52.116s5.265 5.87 14.171 5.87h68.143s7.196-.156 12.797 5.442l38.197 38.198s5.177 5.864 14.114 5.864c8.938 0 13.688-5.375 14.188-5.875s5.812-5.313 5.812-14.125c0-3.705.088-13.655.088-13.614

L 5154.605 1336.16 L 5154.605 1276.221 C 5154.605 1276.221 5154.349999999999 1268.172 5160.442999999999 1262.078 C 5166.536999999999 1255.985 5173.567999999999 1256.204 5174.630999999999 1256.204 L 5268.048 1256.204

L 5252.76 1256.204h43.731s7.98.326 14.105-5.8l122.474-122.473s5.833-5.141 5.833-14.112v-129.54
"
              data-ubhchn="325"
              style="fill: none; stroke: rgb(218, 66, 30); stroke-width: 8; stroke-linecap: butt; stroke-linejoin: round; stroke-miterlimit: 4; stroke-dasharray: none; stroke-opacity: 1;"></path>
    </g>
</svg>