<svg xmlns="http://www.w3.org/2000/svg" width="1661" height="1004" fill="none">
    <path stroke="#7E5330" stroke-width="8"
          d="M740.26 445.98h600.22c9.11 0 14.1 5.8 14.1 5.8l56.62 56.63s4.74 5.8 14.11 5.8 14.23-5.91 14.23-5.91l171.82-171.83"
          id="id-3" data-ubhnchn="3"/>
    <path stroke="#224F86" stroke-width="8"
          d="M715.37,27.84v78.56c0,0 -0.58,7.64 5.86,14.08l100.25,100.24l2.14,2.17l188.58,188.58c6.44,6.43 5.86,14.07 5.86,14.07v384.04"
          id="id-4" data-ubhnchn="4"/>
    <path stroke="#8C6DAB" stroke-width="8" d="M900.3 938.59V439.91s.58-7.64-5.86-14.08L668.27 199.66"
          id="id-5" data-ubhnchn="5"/>
    <path stroke="#528DBA" stroke-width="8"
          d="M 75.44 410.98 H 414.14 C 415.82 410.98 422.1 410.63 428.38 416.9 C 434.65 423.17 434.18 430.97 434.18 430.97 V 674.65 C 434.18 683.83 440.08 688.83 440.08 688.83 L 464.67 713.41 C 471.1 719.84 478.84 719.27 478.84 719.27 H 738.64 C 738.64 719.29 746.28 719.89 752.76 713.42 L 829.18 637 C 829.18 637 834.25 631.15 843.35 631.15 C 843.35 631.15 851.18 630.73 857.49 637.05 C 863.81 643.35 914.89 694.8 914.89 694.8 C 914.89 694.8 919.79 700.63 929.04 700.63 H 1057.43 C 1057.43 700.63 1065.22 700.13 1071.56 706.47 L 1327.98 962.88"
          id="id-7" data-ubhnchn="7"/>
    <path stroke="#F3791D" stroke-width="8"
          d="M 532.55 895.29 L 573.38 854.46 C 579.75 848.08 579.21 840.34 579.21 840.34 V 473.24 C 579.2 473.24 578.55 465.6 585.04 459.11 L 822.94 221.21"
          id="id-9" data-ubhnchn="9"/>
    <path stroke="#007A5B" stroke-linejoin="round" stroke-width="8"
          d="m296.02 942.99 317.79-317.8s5.26-5.86 14.17-5.86h542.15" id="id-12" data-ubhnchn="12"/>
    <path stroke="#7DAD4C" stroke-width="8" d="M511.57 607.4h659.26" id="id-20" data-ubhnchn="20"/>
    <path stroke="#DA421E" stroke-linejoin="round" stroke-width="8"
          d="M 220.83 454.78 L 292.43 526.4 C 299.11 533.07 306.58 532.2 306.58 532.2 H 432.88 L 434.65 532.2 H 552.21 C 561.34 532.2 566.35 538.03 566.35 538.03 L 618.46 590.15 C 618.46 590.15 623.73 596.02 632.63 596.02 H 700.78 C 700.78 596.02 707.98 595.86 713.58 601.46 L 751.78 639.66 C 751.78 639.66 756.95 645.52 765.88 645.52 C 774.82 645.52 779.58 640.15 780.08 639.65 C 780.58 639.15 785.88 634.34 785.88 625.52 C 785.88 621.82 785.98 611.87 785.98 611.91 L 785.89 607.9 V 547.97 C 785.89 547.97 785.63 539.92 791.73 533.83 C 797.82 527.73 804.85 527.95 805.91 527.95 H 927.77 C 927.77 527.95 935.75 528.28 941.87 522.15 L 1064.35 399.68 C 1064.35 399.68 1070.18 394.54 1070.18 385.57 V 256.03"
          id="id-41" data-ubhnchn="41"/>
    <path stroke="#F0D722" stroke-width="8" d="M685.12 620.57V802.5" id="id-44" data-ubhnchn="44"/>
</svg>