<svg version="1.1" viewBox="0 0 1660.1 1003.7" xmlns="http://www.w3.org/2000/svg">
    <g transform="translate(-4368.7 -728.25)">
        <g fill="none" stroke-width="8">
            <path d="m5109 1174.2s591.12 2e-4 600.23 2e-4 14.101 5.8084 14.101 5.8084l56.621 56.621s4.7336 5.8088 14.103 5.8089c9.3692 0 14.23-5.9221 14.23-5.9221l171.83-171.83"
                  stroke="#7e5330"/>
            <path d="m5386.8 1537.8v-384.03s0.574-7.6404-5.8635-14.078c-3.2842-3.2841-88.795-88.795-188.58-188.58"
                  stroke="#224f86"/>
            <path d="m5269 1666.8v-498.68s0.574-7.6403-5.8635-14.078-332.17-332.17-332.17-332.17" stroke="#8c6dab"/>
            <path d="m5053.8 1447.5 53.548-2e-4s7.6468 0.6134 14.127-5.8668c26.383-26.384 76.421-76.421 76.421-76.421s5.0603-5.8483 14.164-5.8483c0 0 7.8339-0.4179 14.146 5.8945 6.3127 6.3125 57.403 57.756 57.403 57.756s4.8894 5.8269 14.139 5.8266c9.2501 3e-4 128.39 1e-4 128.39 1e-4s7.7924-0.5044 14.136 5.8395c6.3439 6.3436 256.41 256.41 256.41 256.41"
                  stroke="#528dba"/>
            <path d="m5080.2 1447.5h-232.68s-7.7436 0.5695-14.174-5.8606c-6.4304-6.4305-24.587-24.587-24.587-24.587s-5.8935-4.9886-5.8935-14.176v-243.68s0.464-7.7892-5.8116-14.065c-6.2755-6.2756-12.551-5.9221-14.23-5.922-1.6795-1e-4 -338.7-1e-4 -338.7-1e-4"
                  stroke="#528dba" stroke-linejoin="round"/>
            <path d="m4901.3 1623.5s34.456-34.456 40.831-40.831c6.375-6.375 5.8321-14.112 5.8321-14.112v-245.42"
                  stroke="#f3791d"/>
            <path d="m4947.9 1334.6v-133.1s-0.663-7.635 5.8336-14.132l237.9-237.9" stroke="#f3791d"/>
            <path d="m5084.1 756.09v78.562s-0.574 7.6404 5.8635 14.078c3.2842 3.2842 0.4636 0.46339 100.24 100.24"
                  stroke="#224f86"/>
            <path d="m4664.7 1671.2 317.79-317.79s5.2643-5.8695 14.171-5.8695h542.15" stroke="#007a5b"
                  stroke-linejoin="round"/>
            <path d="m4880.3 1335.6 659.25 2e-4" stroke="#7dad4c"/>
            <path d="m4803.4 1260.5c70.649-1e-4 113.86-1e-4 117.56-1e-4 9.1251-1e-4 14.138 5.8283 14.138 5.8283l52.116 52.116s5.2646 5.8696 14.171 5.8694c2.3364 1e-4 40.197 2e-4 68.144 2e-4 0 0 7.1953-0.1555 12.796 5.4429l38.198 38.198s5.1767 5.864 14.114 5.8641c8.9374 0 13.687-5.375 14.188-5.875 0.5001-0.5001 5.8126-5.3125 5.8122-14.125 0-3.7054 0.088-13.654 0.088-13.614"
                  stroke="#da421e" stroke-linejoin="round"/>
            <path d="m4801.6 1260.5h-126.3s-7.4734 0.861-14.147-5.8124c-6.6733-6.6733-71.612-71.612-71.612-71.612"
                  stroke="#da421e" stroke-linejoin="round"/>
            <path d="m5154.6 1336.2v-59.938s-0.2552-8.049 5.8383-14.143c6.0938-6.0937 13.125-5.8749 14.188-5.8749h93.418"
                  stroke="#da421e" stroke-linejoin="round"/>
            <path d="m5252.8 1256.2c31.691 1e-4 43.731 0 43.731 0s7.9799 0.326 14.105-5.7992c6.1249-6.1251 122.47-122.47 122.47-122.47s5.8331-5.1409 5.8332-14.112c0-8.9715-1e-4 -129.54-1e-4 -129.54"
                  stroke="#da421e" stroke-linejoin="round"/>
            <path d="m5053.8 1348.8 3e-4 181.94" stroke="#f0d722"/>
        </g>
        <g>
            <path transform="matrix(.77241 0 0 .77241 4733.8 650.57)"
                  d="m285 1031.7c0 4.2901-3.4778 7.7678-7.7678 7.7678s-7.7679-3.4777-7.7679-7.7678 3.4778-7.7679 7.7679-7.7679 7.7678 3.4778 7.7678 7.7679z"
                  fill="#fff" stroke="#000" stroke-linejoin="round" stroke-width="2.5893"/>
            <path transform="matrix(3.6923 -7.0711e-8 7.0711e-8 2.2857 3648.6 -913.47)"
                  d="m345.5 1032.9c0 0.7249-0.36377 1.3125-0.8125 1.3125s-0.8125-0.5876-0.8125-1.3125 0.36377-1.3125 0.8125-1.3125 0.8125 0.5876 0.8125 1.3125z"
                  fill="#fff"/>
            <path transform="matrix(.77241 0 0 .77241 4733.8 591.14)"
                  d="m285 1031.7c0 4.2901-3.4778 7.7678-7.7678 7.7678s-7.7679-3.4777-7.7679-7.7678 3.4778-7.7679 7.7679-7.7679 7.7678 3.4778 7.7678 7.7679z"
                  fill="#fff" stroke="#000" stroke-linejoin="round" stroke-width="2.5893"/>
            <path transform="matrix(3.6923 -7.0711e-8 7.0711e-8 2.2857 3656.9 -765.79)"
                  d="m345.5 1032.9c0 0.7249-0.36377 1.3125-0.8125 1.3125s-0.8125-0.5876-0.8125-1.3125 0.36377-1.3125 0.8125-1.3125 0.8125 0.5876 0.8125 1.3125z"
                  fill="#fff"/>
            <path transform="matrix(.77241 0 0 .77241 4733.8 538.74)"
                  d="m285 1031.7c0 4.2901-3.4778 7.7678-7.7678 7.7678s-7.7679-3.4777-7.7679-7.7678 3.4778-7.7679 7.7679-7.7679 7.7678 3.4778 7.7678 7.7679z"
                  fill="#fff" stroke="#000" stroke-linejoin="round" stroke-width="2.5893"/>
            <path transform="matrix(3.6923 -7.0711e-8 7.0711e-8 2.2857 3619.7 -1049.2)"
                  d="m345.5 1032.9c0 0.7249-0.36377 1.3125-0.8125 1.3125s-0.8125-0.5876-0.8125-1.3125 0.36377-1.3125 0.8125-1.3125 0.8125 0.5876 0.8125 1.3125z"
                  fill="#fff"/>
            <path transform="matrix(3.6923 -7.0711e-8 7.0711e-8 2.2857 3548.3 -931.69)"
                  d="m345.5 1032.9c0 0.7249-0.36377 1.3125-0.8125 1.3125s-0.8125-0.5876-0.8125-1.3125 0.36377-1.3125 0.8125-1.3125 0.8125 0.5876 0.8125 1.3125z"
                  fill="#fff"/>
            <path transform="matrix(3.6923 -7.0711e-8 7.0711e-8 2.2857 3589.3 -887.04)"
                  d="m345.5 1032.9c0 0.7249-0.36377 1.3125-0.8125 1.3125s-0.8125-0.5876-0.8125-1.3125 0.36377-1.3125 0.8125-1.3125 0.8125 0.5876 0.8125 1.3125z"
                  fill="#fff"/>
            <path transform="matrix(3.6923 -7.0711e-8 7.0711e-8 2.2857 3564.8 -862.54)"
                  d="m345.5 1032.9c0 0.7249-0.36377 1.3125-0.8125 1.3125s-0.8125-0.5876-0.8125-1.3125 0.36377-1.3125 0.8125-1.3125 0.8125 0.5876 0.8125 1.3125z"
                  fill="#fff"/>
            <path transform="matrix(3.6923 -7.0711e-8 7.0711e-8 2.2857 3540.3 -838.04)"
                  d="m345.5 1032.9c0 0.7249-0.36377 1.3125-0.8125 1.3125s-0.8125-0.5876-0.8125-1.3125 0.36377-1.3125 0.8125-1.3125 0.8125 0.5876 0.8125 1.3125z"
                  fill="#fff"/>
            <path transform="matrix(3.6923 -7.0711e-8 7.0711e-8 2.2857 3515.8 -813.53)"
                  d="m345.5 1032.9c0 0.7249-0.36377 1.3125-0.8125 1.3125s-0.8125-0.5876-0.8125-1.3125 0.36377-1.3125 0.8125-1.3125 0.8125 0.5876 0.8125 1.3125z"
                  fill="#fff"/>
            <path transform="matrix(3.6923 -7.0711e-8 7.0711e-8 2.2857 3491.3 -789.04)"
                  d="m345.5 1032.9c0 0.7249-0.36377 1.3125-0.8125 1.3125s-0.8125-0.5876-0.8125-1.3125 0.36377-1.3125 0.8125-1.3125 0.8125 0.5876 0.8125 1.3125z"
                  fill="#fff"/>
            <path transform="matrix(3.6923 -7.0711e-8 7.0711e-8 2.2857 3466.8 -764.51)"
                  d="m345.5 1032.9c0 0.7249-0.36377 1.3125-0.8125 1.3125s-0.8125-0.5876-0.8125-1.3125 0.36377-1.3125 0.8125-1.3125 0.8125 0.5876 0.8125 1.3125z"
                  fill="#fff"/>
            <path transform="matrix(3.6923 -7.0711e-8 7.0711e-8 2.2857 3442.3 -740.02)"
                  d="m345.5 1032.9c0 0.7249-0.36377 1.3125-0.8125 1.3125s-0.8125-0.5876-0.8125-1.3125 0.36377-1.3125 0.8125-1.3125 0.8125 0.5876 0.8125 1.3125z"
                  fill="#fff"/>
            <path transform="matrix(3.6923 -7.0711e-8 7.0711e-8 2.2857 3417.8 -715.51)"
                  d="m345.5 1032.9c0 0.7249-0.36377 1.3125-0.8125 1.3125s-0.8125-0.5876-0.8125-1.3125 0.36377-1.3125 0.8125-1.3125 0.8125 0.5876 0.8125 1.3125z"
                  fill="#fff"/>
            <path transform="matrix(3.6923 -7.0711e-8 7.0711e-8 2.2857 3700.6 -998.29)"
                  d="m345.5 1032.9c0 0.7249-0.36377 1.3125-0.8125 1.3125s-0.8125-0.5876-0.8125-1.3125 0.36377-1.3125 0.8125-1.3125 0.8125 0.5876 0.8125 1.3125z"
                  fill="#fff"/>
            <path transform="matrix(.77241 0 0 .77241 4733.8 482.23)"
                  d="m285 1031.7c0 4.2901-3.4778 7.7678-7.7678 7.7678s-7.7679-3.4777-7.7679-7.7678 3.4778-7.7679 7.7679-7.7679 7.7678 3.4778 7.7678 7.7679z"
                  fill="#fff" stroke="#000" stroke-linejoin="round" stroke-width="2.5893"/>
            <path transform="matrix(.77241 0 0 .77241 4839.7 650.57)"
                  d="m285 1031.7c0 4.2901-3.4778 7.7678-7.7678 7.7678s-7.7679-3.4777-7.7679-7.7678 3.4778-7.7679 7.7679-7.7679 7.7678 3.4778 7.7678 7.7679z"
                  fill="#fff" stroke="#000" stroke-linejoin="round" stroke-width="2.5893"/>
            <path transform="matrix(3.6923 -7.0711e-8 7.0711e-8 2.2857 3781.2 -963.24)"
                  d="m345.5 1032.9c0 0.7249-0.36377 1.3125-0.8125 1.3125s-0.8125-0.5876-0.8125-1.3125 0.36377-1.3125 0.8125-1.3125 0.8125 0.5876 0.8125 1.3125z"
                  fill="#fff"/>
            <path transform="matrix(3.6923 -7.0711e-8 7.0711e-8 2.2857 3781.2 -870.37)"
                  d="m345.5 1032.9c0 0.7249-0.36377 1.3125-0.8125 1.3125s-0.8125-0.5876-0.8125-1.3125 0.36377-1.3125 0.8125-1.3125 0.8125 0.5876 0.8125 1.3125z"
                  fill="#fff"/>
            <path transform="matrix(3.6923 -7.0711e-8 7.0711e-8 2.2857 3675.3 -1141)"
                  d="m345.5 1032.9c0 0.7249-0.36377 1.3125-0.8125 1.3125s-0.8125-0.5876-0.8125-1.3125 0.36377-1.3125 0.8125-1.3125 0.8125 0.5876 0.8125 1.3125z"
                  fill="#fff"/>
            <path transform="matrix(3.6923 -7.0711e-8 7.0711e-8 2.2857 3861.9 -987.21)"
                  d="m345.5 1032.9c0 0.7249-0.36377 1.3125-0.8125 1.3125s-0.8125-0.5876-0.8125-1.3125 0.36377-1.3125 0.8125-1.3125 0.8125 0.5876 0.8125 1.3125z"
                  fill="#fff"/>
            <path transform="matrix(3.6923 -7.0711e-8 7.0711e-8 2.2857 3848.1 -1013.4)"
                  d="m345.5 1032.9c0 0.7249-0.36377 1.3125-0.8125 1.3125s-0.8125-0.5876-0.8125-1.3125 0.36377-1.3125 0.8125-1.3125 0.8125 0.5876 0.8125 1.3125z"
                  fill="#fff"/>
            <path transform="matrix(3.6923 -7.0711e-8 7.0711e-8 2.2857 3848.1 -1025.3)"
                  d="m345.5 1032.9c0 0.7249-0.36377 1.3125-0.8125 1.3125s-0.8125-0.5876-0.8125-1.3125 0.36377-1.3125 0.8125-1.3125 0.8125 0.5876 0.8125 1.3125z"
                  fill="#fff"/>
            <path transform="matrix(3.6923 -7.0711e-8 7.0711e-8 2.2857 3881.9 -1078.1)"
                  d="m345.5 1032.9c0 0.7249-0.36377 1.3125-0.8125 1.3125s-0.8125-0.5876-0.8125-1.3125 0.36377-1.3125 0.8125-1.3125 0.8125 0.5876 0.8125 1.3125z"
                  fill="#fff"/>
            <path transform="matrix(.77241 0 0 .77241 5054.9 611.48)"
                  d="m285 1031.7c0 4.2901-3.4778 7.7678-7.7678 7.7678s-7.7679-3.4777-7.7679-7.7678 3.4778-7.7679 7.7679-7.7679 7.7678 3.4778 7.7678 7.7679z"
                  fill="#fff" stroke="#000" stroke-linejoin="round" stroke-width="2.5893"/>
            <path transform="matrix(3.6923 -7.0711e-8 7.0711e-8 2.2857 3905 -975.62)"
                  d="m345.5 1032.9c0 0.7249-0.36377 1.3125-0.8125 1.3125s-0.8125-0.5876-0.8125-1.3125 0.36377-1.3125 0.8125-1.3125 0.8125 0.5876 0.8125 1.3125z"
                  fill="#fff"/>
            <path transform="matrix(3.6923 -7.0711e-8 7.0711e-8 2.2857 3877.8 -948.4)"
                  d="m345.5 1032.9c0 0.7249-0.36377 1.3125-0.8125 1.3125s-0.8125-0.5876-0.8125-1.3125 0.36377-1.3125 0.8125-1.3125 0.8125 0.5876 0.8125 1.3125z"
                  fill="#fff"/>
            <path transform="matrix(3.6923 -7.0711e-8 7.0711e-8 2.2857 3852 -922.56)"
                  d="m345.5 1032.9c0 0.7249-0.36377 1.3125-0.8125 1.3125s-0.8125-0.5876-0.8125-1.3125 0.36377-1.3125 0.8125-1.3125 0.8125 0.5876 0.8125 1.3125z"
                  fill="#fff"/>
            <path transform="matrix(.77241 0 0 .77241 5054.9 459.27)"
                  d="m285 1031.7c0 4.2901-3.4778 7.7678-7.7678 7.7678s-7.7679-3.4777-7.7679-7.7678 3.4778-7.7679 7.7679-7.7679 7.7678 3.4778 7.7678 7.7679z"
                  fill="#fff" stroke="#000" stroke-linejoin="round" stroke-width="2.5893"/>
            <path transform="matrix(3.6923 -7.0711e-8 7.0711e-8 2.2857 3996.3 -1065.6)"
                  d="m345.5 1032.9c0 0.7249-0.36377 1.3125-0.8125 1.3125s-0.8125-0.5876-0.8125-1.3125 0.36377-1.3125 0.8125-1.3125 0.8125 0.5876 0.8125 1.3125z"
                  fill="#fff"/>
            <path transform="matrix(3.6923 -7.0711e-8 7.0711e-8 2.2857 3942.6 -1104.8)"
                  d="m345.5 1032.9c0 0.7249-0.36377 1.3125-0.8125 1.3125s-0.8125-0.5876-0.8125-1.3125 0.36377-1.3125 0.8125-1.3125 0.8125 0.5876 0.8125 1.3125z"
                  fill="#fff"/>
            <path transform="matrix(3.6923 -7.0711e-8 7.0711e-8 2.2857 3906 -1104.8)"
                  d="m345.5 1032.9c0 0.7249-0.36377 1.3125-0.8125 1.3125s-0.8125-0.5876-0.8125-1.3125 0.36377-1.3125 0.8125-1.3125 0.8125 0.5876 0.8125 1.3125z"
                  fill="#fff"/>
            <path transform="matrix(3.6923 -7.0711e-8 7.0711e-8 2.2857 3675.2 -941.67)"
                  d="m345.5 1032.9c0 0.7249-0.36377 1.3125-0.8125 1.3125s-0.8125-0.5876-0.8125-1.3125 0.36377-1.3125 0.8125-1.3125 0.8125 0.5876 0.8125 1.3125z"
                  fill="#fff"/>
            <path transform="matrix(3.6923 -7.0711e-8 7.0711e-8 2.2857 3649.2 -946.9)"
                  d="m345.5 1032.9c0 0.7249-0.36377 1.3125-0.8125 1.3125s-0.8125-0.5876-0.8125-1.3125 0.36377-1.3125 0.8125-1.3125 0.8125 0.5876 0.8125 1.3125z"
                  fill="#fff"/>
            <path transform="matrix(.77241 0 0 .77241 4674.5 650.57)"
                  d="m285 1031.7c0 4.2901-3.4778 7.7678-7.7678 7.7678s-7.7679-3.4777-7.7679-7.7678 3.4778-7.7679 7.7679-7.7679 7.7678 3.4778 7.7678 7.7679z"
                  fill="#fff" stroke="#000" stroke-linejoin="round" stroke-width="2.5893"/>
            <path transform="matrix(3.6923 -7.0711e-8 7.0711e-8 2.2857 4022.9 -1104.8)"
                  d="m345.5 1032.9c0 0.7249-0.36377 1.3125-0.8125 1.3125s-0.8125-0.5876-0.8125-1.3125 0.36377-1.3125 0.8125-1.3125 0.8125 0.5876 0.8125 1.3125z"
                  fill="#fff"/>
            <path transform="matrix(3.6923 -7.0711e-8 7.0711e-8 2.2857 4055.7 -1013.4)"
                  d="m345.5 1032.9c0 0.7249-0.36377 1.3125-0.8125 1.3125s-0.8125-0.5876-0.8125-1.3125 0.36377-1.3125 0.8125-1.3125 0.8125 0.5876 0.8125 1.3125z"
                  fill="#fff"/>
            <path transform="matrix(3.6923 -7.0711e-8 7.0711e-8 2.2857 4055.7 -1025.3)"
                  d="m345.5 1032.9c0 0.7249-0.36377 1.3125-0.8125 1.3125s-0.8125-0.5876-0.8125-1.3125 0.36377-1.3125 0.8125-1.3125 0.8125 0.5876 0.8125 1.3125z"
                  fill="#fff"/>
            <path transform="matrix(3.6923 -7.0711e-8 7.0711e-8 2.2857 4048.4 -1121.1)"
                  d="m345.5 1032.9c0 0.7249-0.36377 1.3125-0.8125 1.3125s-0.8125-0.5876-0.8125-1.3125 0.36377-1.3125 0.8125-1.3125 0.8125 0.5876 0.8125 1.3125z"
                  fill="#fff"/>
            <path transform="matrix(3.6923 -7.0711e-8 7.0711e-8 2.2857 4066.8 -1139.5)"
                  d="m345.5 1032.9c0 0.7249-0.36377 1.3125-0.8125 1.3125s-0.8125-0.5876-0.8125-1.3125 0.36377-1.3125 0.8125-1.3125 0.8125 0.5876 0.8125 1.3125z"
                  fill="#fff"/>
            <path transform="matrix(3.6923 -7.0711e-8 7.0711e-8 2.2857 4085.2 -1157.9)"
                  d="m345.5 1032.9c0 0.7249-0.36377 1.3125-0.8125 1.3125s-0.8125-0.5876-0.8125-1.3125 0.36377-1.3125 0.8125-1.3125 0.8125 0.5876 0.8125 1.3125z"
                  fill="#fff"/>
            <path transform="matrix(.77241 0 0 .77241 5172.5 377.32)"
                  d="m285 1031.7c0 4.2901-3.4778 7.7678-7.7678 7.7678s-7.7679-3.4777-7.7679-7.7678 3.4778-7.7679 7.7679-7.7679 7.7678 3.4778 7.7678 7.7679z"
                  fill="#fff" stroke="#000" stroke-linejoin="round" stroke-width="2.5893"/>
            <path transform="matrix(3.6923 -7.0711e-8 7.0711e-8 2.2857 4080 -1186.8)"
                  d="m345.5 1032.9c0 0.7249-0.36377 1.3125-0.8125 1.3125s-0.8125-0.5876-0.8125-1.3125 0.36377-1.3125 0.8125-1.3125 0.8125 0.5876 0.8125 1.3125z"
                  fill="#fff"/>
            <path transform="matrix(3.6923 -7.0711e-8 7.0711e-8 2.2857 3936 -1186.8)"
                  d="m345.5 1032.9c0 0.7249-0.36377 1.3125-0.8125 1.3125s-0.8125-0.5876-0.8125-1.3125 0.36377-1.3125 0.8125-1.3125 0.8125 0.5876 0.8125 1.3125z"
                  fill="#fff"/>
            <path transform="matrix(3.6923 -7.0711e-8 7.0711e-8 2.2857 3887.8 -1186.8)"
                  d="m345.5 1032.9c0 0.7249-0.36377 1.3125-0.8125 1.3125s-0.8125-0.5876-0.8125-1.3125 0.36377-1.3125 0.8125-1.3125 0.8125 0.5876 0.8125 1.3125z"
                  fill="#fff"/>
            <path transform="matrix(3.6923 -7.0711e-8 7.0711e-8 2.2857 4165.9 -1013.4)"
                  d="m345.5 1032.9c0 0.7249-0.36377 1.3125-0.8125 1.3125s-0.8125-0.5876-0.8125-1.3125 0.36377-1.3125 0.8125-1.3125 0.8125 0.5876 0.8125 1.3125z"
                  fill="#fff"/>
            <path transform="matrix(3.6923 -7.0711e-8 7.0711e-8 2.2857 4165.9 -1025.3)"
                  d="m345.5 1032.9c0 0.7249-0.36377 1.3125-0.8125 1.3125s-0.8125-0.5876-0.8125-1.3125 0.36377-1.3125 0.8125-1.3125 0.8125 0.5876 0.8125 1.3125z"
                  fill="#fff"/>
            <path transform="matrix(3.6923 -7.0711e-8 7.0711e-8 2.2857 4213.7 -1013.4)"
                  d="m345.5 1032.9c0 0.7249-0.36377 1.3125-0.8125 1.3125s-0.8125-0.5876-0.8125-1.3125 0.36377-1.3125 0.8125-1.3125 0.8125 0.5876 0.8125 1.3125z"
                  fill="#fff"/>
            <path transform="matrix(3.6923 -7.0711e-8 7.0711e-8 2.2857 4213.7 -1025.3)"
                  d="m345.5 1032.9c0 0.7249-0.36377 1.3125-0.8125 1.3125s-0.8125-0.5876-0.8125-1.3125 0.36377-1.3125 0.8125-1.3125 0.8125 0.5876 0.8125 1.3125z"
                  fill="#fff"/>
            <path transform="matrix(.77241 0 0 .77241 4667 538.74)"
                  d="m285 1031.7c0 4.2901-3.4778 7.7678-7.7678 7.7678s-7.7679-3.4777-7.7679-7.7678 3.4778-7.7679 7.7679-7.7679 7.7678 3.4778 7.7678 7.7679z"
                  fill="#fff" stroke="#000" stroke-linejoin="round" stroke-width="2.5893"/>
            <path transform="matrix(.77241 0 0 .77241 4839.7 732.07)"
                  d="m285 1031.7c0 4.2901-3.4778 7.7678-7.7678 7.7678s-7.7679-3.4777-7.7679-7.7678 3.4778-7.7679 7.7679-7.7679 7.7678 3.4778 7.7678 7.7679z"
                  fill="#fff" stroke="#000" stroke-linejoin="round" stroke-width="2.5893"/>
            <path transform="matrix(.38621 0 0 .38621 4946.8 1130.5)"
                  d="m285 1031.7c0 4.2901-3.4778 7.7678-7.7678 7.7678s-7.7679-3.4777-7.7679-7.7678 3.4778-7.7679 7.7679-7.7679 7.7678 3.4778 7.7678 7.7679z"
                  fill="#f0d722"/>
            <path transform="matrix(.38621 0 0 .38621 4946.8 949.2)"
                  d="m285 1031.7c0 4.2901-3.4778 7.7678-7.7678 7.7678s-7.7679-3.4777-7.7679-7.7678 3.4778-7.7679 7.7679-7.7679 7.7678 3.4778 7.7678 7.7679z"
                  fill="#f0d722"/>
            <path transform="matrix(.38621 0 0 .38621 4774.1 937.2)"
                  d="m285 1031.7c0 4.2901-3.4778 7.7678-7.7678 7.7678s-7.7679-3.4777-7.7679-7.7678 3.4778-7.7679 7.7679-7.7679 7.7678 3.4778 7.7678 7.7679z"
                  fill="#7dad4c"/>
            <path transform="matrix(.38621 0 0 .38621 5432.4 937.2)"
                  d="m285 1031.7c0 4.2901-3.4778 7.7678-7.7678 7.7678s-7.7679-3.4777-7.7679-7.7678 3.4778-7.7679 7.7679-7.7679 7.7678 3.4778 7.7678 7.7679z"
                  fill="#7dad4c"/>
            <path transform="matrix(.38621 0 0 .38621 5432.4 949.2)"
                  d="m285 1031.7c0 4.2901-3.4778 7.7678-7.7678 7.7678s-7.7679-3.4777-7.7679-7.7678 3.4778-7.7679 7.7679-7.7679 7.7678 3.4778 7.7678 7.7679z"
                  fill="#007a5b"/>
            <path transform="matrix(3.6923 -7.0711e-8 7.0711e-8 2.2857 4037.1 -932.05)"
                  d="m345.5 1032.9c0 0.7249-0.36377 1.3125-0.8125 1.3125s-0.8125-0.5876-0.8125-1.3125 0.36377-1.3125 0.8125-1.3125 0.8125 0.5876 0.8125 1.3125z"
                  fill="#fff"/>
            <path transform="matrix(3.6923 -7.0711e-8 7.0711e-8 2.2857 4074.6 -932.05)"
                  d="m345.5 1032.9c0 0.7249-0.36377 1.3125-0.8125 1.3125s-0.8125-0.5876-0.8125-1.3125 0.36377-1.3125 0.8125-1.3125 0.8125 0.5876 0.8125 1.3125z"
                  fill="#fff"/>
            <path transform="matrix(.77241 0 0 .77241 5172.5 631.89)"
                  d="m285 1031.7c0 4.2901-3.4778 7.7678-7.7678 7.7678s-7.7679-3.4777-7.7679-7.7678 3.4778-7.7679 7.7679-7.7679 7.7678 3.4778 7.7678 7.7679z"
                  fill="#fff" stroke="#000" stroke-linejoin="round" stroke-width="2.5893"/>
            <path transform="matrix(3.6923 -7.0711e-8 7.0711e-8 2.2857 4114.1 -967.17)"
                  d="m345.5 1032.9c0 0.7249-0.36377 1.3125-0.8125 1.3125s-0.8125-0.5876-0.8125-1.3125 0.36377-1.3125 0.8125-1.3125 0.8125 0.5876 0.8125 1.3125z"
                  fill="#fff"/>
            <path transform="matrix(3.6923 -7.0711e-8 7.0711e-8 2.2857 4114.1 -884.44)"
                  d="m345.5 1032.9c0 0.7249-0.36377 1.3125-0.8125 1.3125s-0.8125-0.5876-0.8125-1.3125 0.36377-1.3125 0.8125-1.3125 0.8125 0.5876 0.8125 1.3125z"
                  fill="#fff"/>
            <path transform="matrix(3.6923 -7.0711e-8 7.0711e-8 2.2857 4114.1 -855.45)"
                  d="m345.5 1032.9c0 0.7249-0.36377 1.3125-0.8125 1.3125s-0.8125-0.5876-0.8125-1.3125 0.36377-1.3125 0.8125-1.3125 0.8125 0.5876 0.8125 1.3125z"
                  fill="#fff"/>
            <path transform="matrix(.77241 0 0 .77241 5172.5 740.89)"
                  d="m285 1031.7c0 4.2901-3.4778 7.7678-7.7678 7.7678s-7.7679-3.4777-7.7679-7.7678 3.4778-7.7679 7.7679-7.7679 7.7678 3.4778 7.7678 7.7679z"
                  fill="#fff" stroke="#000" stroke-linejoin="round" stroke-width="2.5893"/>
            <path transform="matrix(3.6923 -7.0711e-8 7.0711e-8 2.2857 4155 -1227.7)"
                  d="m345.5 1032.9c0 0.7249-0.36377 1.3125-0.8125 1.3125s-0.8125-0.5876-0.8125-1.3125 0.36377-1.3125 0.8125-1.3125 0.8125 0.5876 0.8125 1.3125z"
                  fill="#fff"/>
            <path transform="matrix(3.6923 -7.0711e-8 7.0711e-8 2.2857 4114.1 -1067.7)"
                  d="m345.5 1032.9c0 0.7249-0.36377 1.3125-0.8125 1.3125s-0.8125-0.5876-0.8125-1.3125 0.36377-1.3125 0.8125-1.3125 0.8125 0.5876 0.8125 1.3125z"
                  fill="#fff"/>
            <path transform="matrix(3.6923 -7.0711e-8 7.0711e-8 2.2857 4114.1 -1135.3)"
                  d="m345.5 1032.9c0 0.7249-0.36377 1.3125-0.8125 1.3125s-0.8125-0.5876-0.8125-1.3125 0.36377-1.3125 0.8125-1.3125 0.8125 0.5876 0.8125 1.3125z"
                  fill="#fff"/>
            <path transform="matrix(3.6923 -7.0711e-8 7.0711e-8 2.2857 4114.1 -1101.5)"
                  d="m345.5 1032.9c0 0.7249-0.36377 1.3125-0.8125 1.3125s-0.8125-0.5876-0.8125-1.3125 0.36377-1.3125 0.8125-1.3125 0.8125 0.5876 0.8125 1.3125z"
                  fill="#fff"/>
            <path transform="matrix(3.6923 -7.0711e-8 7.0711e-8 2.2857 4166.2 -1255.1)"
                  d="m345.5 1032.9c0 0.7249-0.36377 1.3125-0.8125 1.3125s-0.8125-0.5876-0.8125-1.3125 0.36377-1.3125 0.8125-1.3125 0.8125 0.5876 0.8125 1.3125z"
                  fill="#fff"/>
            <path transform="matrix(3.6923 -7.0711e-8 7.0711e-8 2.2857 4166.2 -1285.6)"
                  d="m345.5 1032.9c0 0.7249-0.36377 1.3125-0.8125 1.3125s-0.8125-0.5876-0.8125-1.3125 0.36377-1.3125 0.8125-1.3125 0.8125 0.5876 0.8125 1.3125z"
                  fill="#fff"/>
            <path transform="matrix(3.6923 -7.0711e-8 7.0711e-8 2.2857 4166.2 -1316.1)"
                  d="m345.5 1032.9c0 0.7249-0.36377 1.3125-0.8125 1.3125s-0.8125-0.5876-0.8125-1.3125 0.36377-1.3125 0.8125-1.3125 0.8125 0.5876 0.8125 1.3125z"
                  fill="#fff"/>
            <path transform="matrix(3.6923 -7.0711e-8 7.0711e-8 2.2857 4166.2 -1346.6)"
                  d="m345.5 1032.9c0 0.7249-0.36377 1.3125-0.8125 1.3125s-0.8125-0.5876-0.8125-1.3125 0.36377-1.3125 0.8125-1.3125 0.8125 0.5876 0.8125 1.3125z"
                  fill="#fff"/>
            <path transform="matrix(.77241 0 0 .77241 5224.9 186.92)"
                  d="m285 1031.7c0 4.2901-3.4778 7.7678-7.7678 7.7678s-7.7679-3.4777-7.7679-7.7678 3.4778-7.7679 7.7679-7.7679 7.7678 3.4778 7.7678 7.7679z"
                  fill="#fff" stroke="#000" stroke-linejoin="round" stroke-width="2.5893"/>
            <path transform="matrix(.38621 0 0 .38621 5279.6 1139.4)"
                  d="m285 1031.7c0 4.2901-3.4778 7.7678-7.7678 7.7678s-7.7679-3.4777-7.7679-7.7678 3.4778-7.7679 7.7679-7.7679 7.7678 3.4778 7.7678 7.7679z"
                  fill="#224f86"/>
            <path transform="matrix(.38621 0 0 .38621 5331.9 585.38)"
                  d="m285 1031.7c0 4.2901-3.4778 7.7678-7.7678 7.7678s-7.7679-3.4777-7.7679-7.7678 3.4778-7.7679 7.7679-7.7679 7.7678 3.4778 7.7678 7.7679z"
                  fill="#da421e"/>
            <path transform="matrix(3.6923 -7.0711e-8 7.0711e-8 2.2857 4183.4 -1186.8)"
                  d="m345.5 1032.9c0 0.7249-0.36377 1.3125-0.8125 1.3125s-0.8125-0.5876-0.8125-1.3125 0.36377-1.3125 0.8125-1.3125 0.8125 0.5876 0.8125 1.3125z"
                  fill="#fff"/>
            <path transform="matrix(3.6923 -7.0711e-8 7.0711e-8 2.2857 4224.9 -1186.8)"
                  d="m345.5 1032.9c0 0.7249-0.36377 1.3125-0.8125 1.3125s-0.8125-0.5876-0.8125-1.3125 0.36377-1.3125 0.8125-1.3125 0.8125 0.5876 0.8125 1.3125z"
                  fill="#fff"/>
            <path transform="matrix(3.6923 -7.0711e-8 7.0711e-8 2.2857 4266.4 -1186.8)"
                  d="m345.5 1032.9c0 0.7249-0.36377 1.3125-0.8125 1.3125s-0.8125-0.5876-0.8125-1.3125 0.36377-1.3125 0.8125-1.3125 0.8125 0.5876 0.8125 1.3125z"
                  fill="#fff"/>
            <path transform="matrix(3.6923 -7.0711e-8 7.0711e-8 2.2857 4307.9 -1186.8)"
                  d="m345.5 1032.9c0 0.7249-0.36377 1.3125-0.8125 1.3125s-0.8125-0.5876-0.8125-1.3125 0.36377-1.3125 0.8125-1.3125 0.8125 0.5876 0.8125 1.3125z"
                  fill="#fff"/>
            <path transform="matrix(3.6923 -7.0711e-8 7.0711e-8 2.2857 4349.4 -1186.8)"
                  d="m345.5 1032.9c0 0.7249-0.36377 1.3125-0.8125 1.3125s-0.8125-0.5876-0.8125-1.3125 0.36377-1.3125 0.8125-1.3125 0.8125 0.5876 0.8125 1.3125z"
                  fill="#fff"/>
            <path transform="matrix(3.6923 -7.0711e-8 7.0711e-8 2.2857 4390.9 -1186.8)"
                  d="m345.5 1032.9c0 0.7249-0.36377 1.3125-0.8125 1.3125s-0.8125-0.5876-0.8125-1.3125 0.36377-1.3125 0.8125-1.3125 0.8125 0.5876 0.8125 1.3125z"
                  fill="#fff"/>
            <path transform="matrix(3.6923 -7.0711e-8 7.0711e-8 2.2857 4432.4 -1186.8)"
                  d="m345.5 1032.9c0 0.7249-0.36377 1.3125-0.8125 1.3125s-0.8125-0.5876-0.8125-1.3125 0.36377-1.3125 0.8125-1.3125 0.8125 0.5876 0.8125 1.3125z"
                  fill="#fff"/>
            <path transform="matrix(.77241 0 0 .77241 4686.6 827.18)"
                  d="m285 1031.7c0 4.2901-3.4778 7.7678-7.7678 7.7678s-7.7679-3.4777-7.7679-7.7678 3.4778-7.7679 7.7679-7.7679 7.7678 3.4778 7.7678 7.7679z"
                  fill="#fff" stroke="#000" stroke-linejoin="round" stroke-width="2.5893"/>
            <path transform="matrix(.38621 0 0 .38621 4793.6 1225.6)"
                  d="m285 1031.7c0 4.2901-3.4778 7.7678-7.7678 7.7678s-7.7679-3.4777-7.7679-7.7678 3.4778-7.7679 7.7679-7.7679 7.7678 3.4778 7.7678 7.7679z"
                  fill="#f3791d"/>
            <path transform="matrix(3.6923 -7.0711e-8 7.0711e-8 2.2857 3981.7 -1215.7)"
                  d="m345.5 1032.9c0 0.7249-0.36377 1.3125-0.8125 1.3125s-0.8125-0.5876-0.8125-1.3125 0.36377-1.3125 0.8125-1.3125 0.8125 0.5876 0.8125 1.3125z"
                  fill="#fff"/>
            <path transform="matrix(3.6923 -7.0711e-8 7.0711e-8 2.2857 3961.3 -1236.1)"
                  d="m345.5 1032.9c0 0.7249-0.36377 1.3125-0.8125 1.3125s-0.8125-0.5876-0.8125-1.3125 0.36377-1.3125 0.8125-1.3125 0.8125 0.5876 0.8125 1.3125z"
                  fill="#fff"/>
            <path transform="matrix(3.6923 -7.0711e-8 7.0711e-8 2.2857 3940.9 -1256.5)"
                  d="m345.5 1032.9c0 0.7249-0.36377 1.3125-0.8125 1.3125s-0.8125-0.5876-0.8125-1.3125 0.36377-1.3125 0.8125-1.3125 0.8125 0.5876 0.8125 1.3125z"
                  fill="#fff"/>
            <path transform="matrix(3.6923 -7.0711e-8 7.0711e-8 2.2857 3920.5 -1276.8)"
                  d="m345.5 1032.9c0 0.7249-0.36377 1.3125-0.8125 1.3125s-0.8125-0.5876-0.8125-1.3125 0.36377-1.3125 0.8125-1.3125 0.8125 0.5876 0.8125 1.3125z"
                  fill="#fff"/>
            <path transform="matrix(3.6923 -7.0711e-8 7.0711e-8 2.2857 3900.1 -1297.2)"
                  d="m345.5 1032.9c0 0.7249-0.36377 1.3125-0.8125 1.3125s-0.8125-0.5876-0.8125-1.3125 0.36377-1.3125 0.8125-1.3125 0.8125 0.5876 0.8125 1.3125z"
                  fill="#fff"/>
            <path transform="matrix(3.6923 -7.0711e-8 7.0711e-8 2.2857 3879.7 -1317.7)"
                  d="m345.5 1032.9c0 0.7249-0.36377 1.3125-0.8125 1.3125s-0.8125-0.5876-0.8125-1.3125 0.36377-1.3125 0.8125-1.3125 0.8125 0.5876 0.8125 1.3125z"
                  fill="#fff"/>
            <path transform="matrix(.77241 0 0 .77241 4910.7 218.93)"
                  d="m285 1031.7c0 4.2901-3.4778 7.7678-7.7678 7.7678s-7.7679-3.4777-7.7679-7.7678 3.4778-7.7679 7.7679-7.7679 7.7678 3.4778 7.7678 7.7679z"
                  fill="#fff" stroke="#000" stroke-linejoin="round" stroke-width="2.5893"/>
            <path transform="matrix(3.6923 -7.0711e-8 7.0711e-8 2.2857 3825.4 -1371.9)"
                  d="m345.5 1032.9c0 0.7249-0.36377 1.3125-0.8125 1.3125s-0.8125-0.5876-0.8125-1.3125 0.36377-1.3125 0.8125-1.3125 0.8125 0.5876 0.8125 1.3125z"
                  fill="#fff"/>
            <path transform="matrix(3.6923 -7.0711e-8 7.0711e-8 2.2857 3805 -1392.3)"
                  d="m345.5 1032.9c0 0.7249-0.36377 1.3125-0.8125 1.3125s-0.8125-0.5876-0.8125-1.3125 0.36377-1.3125 0.8125-1.3125 0.8125 0.5876 0.8125 1.3125z"
                  fill="#fff"/>
            <path transform="matrix(3.6923 -7.0711e-8 7.0711e-8 2.2857 3784.6 -1412.8)"
                  d="m345.5 1032.9c0 0.7249-0.36377 1.3125-0.8125 1.3125s-0.8125-0.5876-0.8125-1.3125 0.36377-1.3125 0.8125-1.3125 0.8125 0.5876 0.8125 1.3125z"
                  fill="#fff"/>
            <path transform="matrix(3.6923 -7.0711e-8 7.0711e-8 2.2857 3764.2 -1433.1)"
                  d="m345.5 1032.9c0 0.7249-0.36377 1.3125-0.8125 1.3125s-0.8125-0.5876-0.8125-1.3125 0.36377-1.3125 0.8125-1.3125 0.8125 0.5876 0.8125 1.3125z"
                  fill="#fff"/>
            <path transform="matrix(3.6923 -7.0711e-8 7.0711e-8 2.2857 3743.8 -1453.5)"
                  d="m345.5 1032.9c0 0.7249-0.36377 1.3125-0.8125 1.3125s-0.8125-0.5876-0.8125-1.3125 0.36377-1.3125 0.8125-1.3125 0.8125 0.5876 0.8125 1.3125z"
                  fill="#fff"/>
            <path transform="matrix(3.6923 -7.0711e-8 7.0711e-8 2.2857 3723.4 -1473.9)"
                  d="m345.5 1032.9c0 0.7249-0.36377 1.3125-0.8125 1.3125s-0.8125-0.5876-0.8125-1.3125 0.36377-1.3125 0.8125-1.3125 0.8125 0.5876 0.8125 1.3125z"
                  fill="#fff"/>
            <path transform="matrix(3.6923 -7.0711e-8 7.0711e-8 2.2857 3703 -1494.4)"
                  d="m345.5 1032.9c0 0.7249-0.36377 1.3125-0.8125 1.3125s-0.8125-0.5876-0.8125-1.3125 0.36377-1.3125 0.8125-1.3125 0.8125 0.5876 0.8125 1.3125z"
                  fill="#fff"/>
            <path transform="matrix(3.6923 -7.0711e-8 7.0711e-8 2.2857 3682.6 -1514.7)"
                  d="m345.5 1032.9c0 0.7249-0.36377 1.3125-0.8125 1.3125s-0.8125-0.5876-0.8125-1.3125 0.36377-1.3125 0.8125-1.3125 0.8125 0.5876 0.8125 1.3125z"
                  fill="#fff"/>
            <path transform="matrix(.77241 0 0 .77241 4717 25.183)"
                  d="m285 1031.7c0 4.2901-3.4778 7.7678-7.7678 7.7678s-7.7679-3.4777-7.7679-7.7678 3.4778-7.7679 7.7679-7.7679 7.7678 3.4778 7.7678 7.7679z"
                  fill="#fff" stroke="#000" stroke-linejoin="round" stroke-width="2.5893"/>
            <path transform="matrix(.77241 0 0 .77241 4976.8 152.81)"
                  d="m285 1031.7c0 4.2901-3.4778 7.7678-7.7678 7.7678s-7.7679-3.4777-7.7679-7.7678 3.4778-7.7679 7.7679-7.7679 7.7678 3.4778 7.7678 7.7679z"
                  fill="#fff" stroke="#000" stroke-linejoin="round" stroke-width="2.5893"/>
            <path transform="matrix(3.6923 -7.0711e-8 7.0711e-8 2.2857 3887 -1379.6)"
                  d="m345.5 1032.9c0 0.7249-0.36377 1.3125-0.8125 1.3125s-0.8125-0.5876-0.8125-1.3125 0.36377-1.3125 0.8125-1.3125 0.8125 0.5876 0.8125 1.3125z"
                  fill="#fff"/>
            <path transform="matrix(3.6923 -7.0711e-8 7.0711e-8 2.2857 4088.5 -1241)"
                  d="m345.5 1032.9c0 0.7249-0.36377 1.3125-0.8125 1.3125s-0.8125-0.5876-0.8125-1.3125 0.36377-1.3125 0.8125-1.3125 0.8125 0.5876 0.8125 1.3125z"
                  fill="#fff"/>
            <path transform="matrix(3.6923 -7.0711e-8 7.0711e-8 2.2857 4060.9 -1268.6)"
                  d="m345.5 1032.9c0 0.7249-0.36377 1.3125-0.8125 1.3125s-0.8125-0.5876-0.8125-1.3125 0.36377-1.3125 0.8125-1.3125 0.8125 0.5876 0.8125 1.3125z"
                  fill="#fff"/>
            <path transform="matrix(3.6923 -7.0711e-8 7.0711e-8 2.2857 4033.2 -1296.2)"
                  d="m345.5 1032.9c0 0.7249-0.36377 1.3125-0.8125 1.3125s-0.8125-0.5876-0.8125-1.3125 0.36377-1.3125 0.8125-1.3125 0.8125 0.5876 0.8125 1.3125z"
                  fill="#fff"/>
            <path transform="matrix(3.6923 -7.0711e-8 7.0711e-8 2.2857 4005.6 -1323.9)"
                  d="m345.5 1032.9c0 0.7249-0.36377 1.3125-0.8125 1.3125s-0.8125-0.5876-0.8125-1.3125 0.36377-1.3125 0.8125-1.3125 0.8125 0.5876 0.8125 1.3125z"
                  fill="#fff"/>
            <path transform="matrix(3.6923 -7.0711e-8 7.0711e-8 2.2857 3977.9 -1351.5)"
                  d="m345.5 1032.9c0 0.7249-0.36377 1.3125-0.8125 1.3125s-0.8125-0.5876-0.8125-1.3125 0.36377-1.3125 0.8125-1.3125 0.8125 0.5876 0.8125 1.3125z"
                  fill="#fff"/>
            <path transform="matrix(3.6923 -7.0711e-8 7.0711e-8 2.2857 3950.3 -1379.2)"
                  d="m345.5 1032.9c0 0.7249-0.36377 1.3125-0.8125 1.3125s-0.8125-0.5876-0.8125-1.3125 0.36377-1.3125 0.8125-1.3125 0.8125 0.5876 0.8125 1.3125z"
                  fill="#fff"/>
            <path transform="matrix(.77241 0 0 .77241 4869.9 -39.237)"
                  d="m285 1031.7c0 4.2901-3.4778 7.7678-7.7678 7.7678s-7.7679-3.4777-7.7679-7.7678 3.4778-7.7679 7.7679-7.7679 7.7678 3.4778 7.7678 7.7679z"
                  fill="#fff" stroke="#000" stroke-linejoin="round" stroke-width="2.5893"/>
            <path transform="matrix(3.6923 -7.0711e-8 7.0711e-8 2.2857 3886.9 -1442.6)"
                  d="m345.5 1032.9c0 0.7249-0.36377 1.3125-0.8125 1.3125s-0.8125-0.5876-0.8125-1.3125 0.36377-1.3125 0.8125-1.3125 0.8125 0.5876 0.8125 1.3125z"
                  fill="#fff"/>
            <path transform="matrix(3.6923 -7.0711e-8 7.0711e-8 2.2857 3864.2 -1465.3)"
                  d="m345.5 1032.9c0 0.7249-0.36377 1.3125-0.8125 1.3125s-0.8125-0.5876-0.8125-1.3125 0.36377-1.3125 0.8125-1.3125 0.8125 0.5876 0.8125 1.3125z"
                  fill="#fff"/>
            <path transform="matrix(3.6923 -7.0711e-8 7.0711e-8 2.2857 3841.5 -1488)"
                  d="m345.5 1032.9c0 0.7249-0.36377 1.3125-0.8125 1.3125s-0.8125-0.5876-0.8125-1.3125 0.36377-1.3125 0.8125-1.3125 0.8125 0.5876 0.8125 1.3125z"
                  fill="#fff"/>
            <path transform="matrix(.38621 0 0 .38621 5083.9 551.27)"
                  d="m285 1031.7c0 4.2901-3.4778 7.7678-7.7678 7.7678s-7.7679-3.4777-7.7679-7.7678 3.4778-7.7679 7.7679-7.7679 7.7678 3.4778 7.7678 7.7679z"
                  fill="#f3791d"/>
            <path transform="matrix(.38621 0 0 .38621 4977 359.23)"
                  d="m285 1031.7c0 4.2901-3.4778 7.7678-7.7678 7.7678s-7.7679-3.4777-7.7679-7.7678 3.4778-7.7679 7.7679-7.7679 7.7678 3.4778 7.7678 7.7679z"
                  fill="#224f86"/>
            <path transform="matrix(.38621 0 0 .38621 4824 423.65)"
                  d="m285 1031.7c0 4.2901-3.4778 7.7678-7.7678 7.7678s-7.7679-3.4777-7.7679-7.7678 3.4778-7.7679 7.7679-7.7679 7.7678 3.4778 7.7678 7.7679z"
                  fill="#8c6dab"/>
            <path transform="matrix(3.6923 -7.0711e-8 7.0711e-8 2.2857 3807.5 -1300)"
                  d="m345.5 1032.9c0 0.7249-0.36377 1.3125-0.8125 1.3125s-0.8125-0.5876-0.8125-1.3125 0.36377-1.3125 0.8125-1.3125 0.8125 0.5876 0.8125 1.3125z"
                  fill="#fff"/>
            <path transform="matrix(3.6923 -7.0711e-8 7.0711e-8 2.2857 3772.1 -1264.7)"
                  d="m345.5 1032.9c0 0.7249-0.36377 1.3125-0.8125 1.3125s-0.8125-0.5876-0.8125-1.3125 0.36377-1.3125 0.8125-1.3125 0.8125 0.5876 0.8125 1.3125z"
                  fill="#fff"/>
            <path transform="matrix(3.6923 -7.0711e-8 7.0711e-8 2.2857 3736.7 -1229.3)"
                  d="m345.5 1032.9c0 0.7249-0.36377 1.3125-0.8125 1.3125s-0.8125-0.5876-0.8125-1.3125 0.36377-1.3125 0.8125-1.3125 0.8125 0.5876 0.8125 1.3125z"
                  fill="#fff"/>
            <path transform="matrix(3.6923 -7.0711e-8 7.0711e-8 2.2857 3701.4 -1193.9)"
                  d="m345.5 1032.9c0 0.7249-0.36377 1.3125-0.8125 1.3125s-0.8125-0.5876-0.8125-1.3125 0.36377-1.3125 0.8125-1.3125 0.8125 0.5876 0.8125 1.3125z"
                  fill="#fff"/>
            <path transform="matrix(3.6923 -7.0711e-8 7.0711e-8 2.2857 3996.3 -908.1)"
                  d="m345.5 1032.9c0 0.7249-0.36377 1.3125-0.8125 1.3125s-0.8125-0.5876-0.8125-1.3125 0.36377-1.3125 0.8125-1.3125 0.8125 0.5876 0.8125 1.3125z"
                  fill="#fff"/>
            <path transform="matrix(3.6923 -7.0711e-8 7.0711e-8 2.2857 3996.3 -878.1)"
                  d="m345.5 1032.9c0 0.7249-0.36377 1.3125-0.8125 1.3125s-0.8125-0.5876-0.8125-1.3125 0.36377-1.3125 0.8125-1.3125 0.8125 0.5876 0.8125 1.3125z"
                  fill="#fff"/>
            <path transform="matrix(3.6923 -7.0711e-8 7.0711e-8 2.2857 3996.3 -848.1)"
                  d="m345.5 1032.9c0 0.7249-0.36377 1.3125-0.8125 1.3125s-0.8125-0.5876-0.8125-1.3125 0.36377-1.3125 0.8125-1.3125 0.8125 0.5876 0.8125 1.3125z"
                  fill="#fff"/>
            <path transform="matrix(3.6923 -7.0711e-8 7.0711e-8 2.2857 3996.3 -818.1)"
                  d="m345.5 1032.9c0 0.7249-0.36377 1.3125-0.8125 1.3125s-0.8125-0.5876-0.8125-1.3125 0.36377-1.3125 0.8125-1.3125 0.8125 0.5876 0.8125 1.3125z"
                  fill="#fff"/>
            <path transform="matrix(3.6923 -7.0711e-8 7.0711e-8 2.2857 3996.3 -788.1)"
                  d="m345.5 1032.9c0 0.7249-0.36377 1.3125-0.8125 1.3125s-0.8125-0.5876-0.8125-1.3125 0.36377-1.3125 0.8125-1.3125 0.8125 0.5876 0.8125 1.3125z"
                  fill="#fff"/>
            <path transform="matrix(3.6923 -7.0711e-8 7.0711e-8 2.2857 3996.3 -758.1)"
                  d="m345.5 1032.9c0 0.7249-0.36377 1.3125-0.8125 1.3125s-0.8125-0.5876-0.8125-1.3125 0.36377-1.3125 0.8125-1.3125 0.8125 0.5876 0.8125 1.3125z"
                  fill="#fff"/>
            <path transform="matrix(3.6923 -7.0711e-8 7.0711e-8 2.2857 3996.3 -728.1)"
                  d="m345.5 1032.9c0 0.7249-0.36377 1.3125-0.8125 1.3125s-0.8125-0.5876-0.8125-1.3125 0.36377-1.3125 0.8125-1.3125 0.8125 0.5876 0.8125 1.3125z"
                  fill="#fff"/>
            <path transform="matrix(.77241 0 0 .77241 5054.8 869.85)"
                  d="m285 1031.7c0 4.2901-3.4778 7.7678-7.7678 7.7678s-7.7679-3.4777-7.7679-7.7678 3.4778-7.7679 7.7679-7.7679 7.7678 3.4778 7.7678 7.7679z"
                  fill="#fff" stroke="#000" stroke-linejoin="round" stroke-width="2.5893"/>
            <path transform="matrix(.38621 0 0 .38621 5161.8 1268.3)"
                  d="m285 1031.7c0 4.2901-3.4778 7.7678-7.7678 7.7678s-7.7679-3.4777-7.7679-7.7678 3.4778-7.7679 7.7679-7.7679 7.7678 3.4778 7.7678 7.7679z"
                  fill="#8c6dab"/>
            <path transform="matrix(.77241 0 0 .77241 4450.9 874.05)"
                  d="m285 1031.7c0 4.2901-3.4778 7.7678-7.7678 7.7678s-7.7679-3.4777-7.7679-7.7678 3.4778-7.7679 7.7679-7.7679 7.7678 3.4778 7.7678 7.7679z"
                  fill="#fff" stroke="#000" stroke-linejoin="round" stroke-width="2.5893"/>
            <path transform="matrix(.38621 0 0 .38621 4557.9 1272.5)"
                  d="m285 1031.7c0 4.2901-3.4778 7.7678-7.7678 7.7678s-7.7679-3.4777-7.7679-7.7678 3.4778-7.7679 7.7679-7.7679 7.7678 3.4778 7.7678 7.7679z"
                  fill="#007a5b"/>
            <path transform="matrix(3.6923 -7.0711e-8 7.0711e-8 2.2857 3530.2 -978.57)"
                  d="m345.5 1032.9c0 0.7249-0.36377 1.3125-0.8125 1.3125s-0.8125-0.5876-0.8125-1.3125 0.36377-1.3125 0.8125-1.3125 0.8125 0.5876 0.8125 1.3125z"
                  fill="#fff"/>
            <path transform="matrix(3.6923 -7.0711e-8 7.0711e-8 2.2857 4186.6 -907.25)"
                  d="m345.5 1032.9c0 0.7249-0.36377 1.3125-0.8125 1.3125s-0.8125-0.5876-0.8125-1.3125 0.36377-1.3125 0.8125-1.3125 0.8125 0.5876 0.8125 1.3125z"
                  fill="#fff"/>
            <path transform="matrix(3.6923 -7.0711e-8 7.0711e-8 2.2857 4207.8 -886.04)"
                  d="m345.5 1032.9c0 0.7249-0.36377 1.3125-0.8125 1.3125s-0.8125-0.5876-0.8125-1.3125 0.36377-1.3125 0.8125-1.3125 0.8125 0.5876 0.8125 1.3125z"
                  fill="#fff"/>
            <path transform="matrix(3.6923 -7.0711e-8 7.0711e-8 2.2857 4229 -864.83)"
                  d="m345.5 1032.9c0 0.7249-0.36377 1.3125-0.8125 1.3125s-0.8125-0.5876-0.8125-1.3125 0.36377-1.3125 0.8125-1.3125 0.8125 0.5876 0.8125 1.3125z"
                  fill="#fff"/>
            <path transform="matrix(3.6923 -7.0711e-8 7.0711e-8 2.2857 4250.2 -843.62)"
                  d="m345.5 1032.9c0 0.7249-0.36377 1.3125-0.8125 1.3125s-0.8125-0.5876-0.8125-1.3125 0.36377-1.3125 0.8125-1.3125 0.8125 0.5876 0.8125 1.3125z"
                  fill="#fff"/>
            <path transform="matrix(3.6923 -7.0711e-8 7.0711e-8 2.2857 4271.4 -822.4)"
                  d="m345.5 1032.9c0 0.7249-0.36377 1.3125-0.8125 1.3125s-0.8125-0.5876-0.8125-1.3125 0.36377-1.3125 0.8125-1.3125 0.8125 0.5876 0.8125 1.3125z"
                  fill="#fff"/>
            <path transform="matrix(3.6923 -7.0711e-8 7.0711e-8 2.2857 4292.7 -801.19)"
                  d="m345.5 1032.9c0 0.7249-0.36377 1.3125-0.8125 1.3125s-0.8125-0.5876-0.8125-1.3125 0.36377-1.3125 0.8125-1.3125 0.8125 0.5876 0.8125 1.3125z"
                  fill="#fff"/>
            <path transform="matrix(3.6923 -7.0711e-8 7.0711e-8 2.2857 4313.9 -779.98)"
                  d="m345.5 1032.9c0 0.7249-0.36377 1.3125-0.8125 1.3125s-0.8125-0.5876-0.8125-1.3125 0.36377-1.3125 0.8125-1.3125 0.8125 0.5876 0.8125 1.3125z"
                  fill="#fff"/>
            <path transform="matrix(3.6923 -7.0711e-8 7.0711e-8 2.2857 4335.1 -758.76)"
                  d="m345.5 1032.9c0 0.7249-0.36377 1.3125-0.8125 1.3125s-0.8125-0.5876-0.8125-1.3125 0.36377-1.3125 0.8125-1.3125 0.8125 0.5876 0.8125 1.3125z"
                  fill="#fff"/>
            <path transform="matrix(3.6923 -7.0711e-8 7.0711e-8 2.2857 4356.3 -737.55)"
                  d="m345.5 1032.9c0 0.7249-0.36377 1.3125-0.8125 1.3125s-0.8125-0.5876-0.8125-1.3125 0.36377-1.3125 0.8125-1.3125 0.8125 0.5876 0.8125 1.3125z"
                  fill="#fff"/>
            <path transform="matrix(3.6923 -7.0711e-8 7.0711e-8 2.2857 4377.5 -716.34)"
                  d="m345.5 1032.9c0 0.7249-0.36377 1.3125-0.8125 1.3125s-0.8125-0.5876-0.8125-1.3125 0.36377-1.3125 0.8125-1.3125 0.8125 0.5876 0.8125 1.3125z"
                  fill="#fff"/>
            <path transform="matrix(3.6923 -7.0711e-8 7.0711e-8 2.2857 4398.7 -695.12)"
                  d="m345.5 1032.9c0 0.7249-0.36377 1.3125-0.8125 1.3125s-0.8125-0.5876-0.8125-1.3125 0.36377-1.3125 0.8125-1.3125 0.8125 0.5876 0.8125 1.3125z"
                  fill="#fff"/>
            <path transform="matrix(.77241 0 0 .77241 5480.7 892.37)"
                  d="m285 1031.7c0 4.2901-3.4778 7.7678-7.7678 7.7678s-7.7679-3.4777-7.7679-7.7678 3.4778-7.7679 7.7679-7.7679 7.7678 3.4778 7.7678 7.7679z"
                  fill="#fff" stroke="#000" stroke-linejoin="round" stroke-width="2.5893"/>
            <path transform="matrix(.38621 0 0 .38621 5587.7 1290.8)"
                  d="m285 1031.7c0 4.2901-3.4778 7.7678-7.7678 7.7678s-7.7679-3.4777-7.7679-7.7678 3.4778-7.7679 7.7679-7.7679 7.7678 3.4778 7.7678 7.7679z"
                  fill="#528dba"/>
            <path transform="matrix(.77241 0 0 .77241 4588.8 463.55)"
                  d="m285 1031.7c0 4.2901-3.4778 7.7678-7.7678 7.7678s-7.7679-3.4777-7.7679-7.7678 3.4778-7.7679 7.7679-7.7679 7.7678 3.4778 7.7678 7.7679z"
                  fill="#fff" stroke="#000" stroke-linejoin="round" stroke-width="2.5893"/>
            <path transform="matrix(3.6923 -7.0711e-8 7.0711e-8 2.2857 3633.9 -1100.5)"
                  d="m345.5 1032.9c0 0.7249-0.36377 1.3125-0.8125 1.3125s-0.8125-0.5876-0.8125-1.3125 0.36377-1.3125 0.8125-1.3125 0.8125 0.5876 0.8125 1.3125z"
                  fill="#fff"/>
            <path transform="matrix(3.6923 -7.0711e-8 7.0711e-8 2.2857 3589 -1100.5)"
                  d="m345.5 1032.9c0 0.7249-0.36377 1.3125-0.8125 1.3125s-0.8125-0.5876-0.8125-1.3125 0.36377-1.3125 0.8125-1.3125 0.8125 0.5876 0.8125 1.3125z"
                  fill="#fff"/>
            <path transform="matrix(3.6923 -7.0711e-8 7.0711e-8 2.2857 3488.2 -1100.5)"
                  d="m345.5 1032.9c0 0.7249-0.36377 1.3125-0.8125 1.3125s-0.8125-0.5876-0.8125-1.3125 0.36377-1.3125 0.8125-1.3125 0.8125 0.5876 0.8125 1.3125z"
                  fill="#fff"/>
            <path transform="matrix(3.6923 -7.0711e-8 7.0711e-8 2.2857 3448.2 -1100.5)"
                  d="m345.5 1032.9c0 0.7249-0.36377 1.3125-0.8125 1.3125s-0.8125-0.5876-0.8125-1.3125 0.36377-1.3125 0.8125-1.3125 0.8125 0.5876 0.8125 1.3125z"
                  fill="#fff"/>
            <path transform="matrix(3.6923 -7.0711e-8 7.0711e-8 2.2857 3408.2 -1100.5)"
                  d="m345.5 1032.9c0 0.7249-0.36377 1.3125-0.8125 1.3125s-0.8125-0.5876-0.8125-1.3125 0.36377-1.3125 0.8125-1.3125 0.8125 0.5876 0.8125 1.3125z"
                  fill="#fff"/>
            <path transform="matrix(3.6923 -7.0711e-8 7.0711e-8 2.2857 3530.2 -1027.8)"
                  d="m345.5 1032.9c0 0.7249-0.36377 1.3125-0.8125 1.3125s-0.8125-0.5876-0.8125-1.3125 0.36377-1.3125 0.8125-1.3125 0.8125 0.5876 0.8125 1.3125z"
                  fill="#fff"/>
            <path transform="matrix(3.6923 -7.0711e-8 7.0711e-8 2.2857 3374.8 -1119.9)"
                  d="m345.5 1032.9c0 0.7249-0.36377 1.3125-0.8125 1.3125s-0.8125-0.5876-0.8125-1.3125 0.36377-1.3125 0.8125-1.3125 0.8125 0.5876 0.8125 1.3125z"
                  fill="#fff"/>
            <path transform="matrix(.77241 0 0 .77241 4375.4 386.13)"
                  d="m285 1031.7c0 4.2901-3.4778 7.7678-7.7678 7.7678s-7.7679-3.4777-7.7679-7.7678 3.4778-7.7679 7.7679-7.7679 7.7678 3.4778 7.7678 7.7679z"
                  fill="#fff" stroke="#000" stroke-linejoin="round" stroke-width="2.5893"/>
            <path transform="matrix(.38621 0 0 .38621 4482.5 784.59)"
                  d="m285 1031.7c0 4.2901-3.4778 7.7678-7.7678 7.7678s-7.7679-3.4777-7.7679-7.7678 3.4778-7.7679 7.7679-7.7679 7.7678 3.4778 7.7678 7.7679z"
                  fill="#da421e"/>
            <path transform="matrix(3.6923 -7.0711e-8 7.0711e-8 2.2857 3530.2 -1138.5)"
                  d="m345.5 1032.9c0 0.7249-0.36377 1.3125-0.8125 1.3125s-0.8125-0.5876-0.8125-1.3125 0.36377-1.3125 0.8125-1.3125 0.8125 0.5876 0.8125 1.3125z"
                  fill="#fff"/>
            <path transform="matrix(3.6923 -7.0711e-8 7.0711e-8 2.2857 3530.2 -1168.5)"
                  d="m345.5 1032.9c0 0.7249-0.36377 1.3125-0.8125 1.3125s-0.8125-0.5876-0.8125-1.3125 0.36377-1.3125 0.8125-1.3125 0.8125 0.5876 0.8125 1.3125z"
                  fill="#fff"/>
            <path transform="matrix(3.6923 -7.0711e-8 7.0711e-8 2.2857 3530.2 -1198.5)"
                  d="m345.5 1032.9c0 0.7249-0.36377 1.3125-0.8125 1.3125s-0.8125-0.5876-0.8125-1.3125 0.36377-1.3125 0.8125-1.3125 0.8125 0.5876 0.8125 1.3125z"
                  fill="#fff"/>
            <path transform="matrix(3.6923 -7.0711e-8 7.0711e-8 2.2857 3503.4 -1221.8)"
                  d="m345.5 1032.9c0 0.7249-0.36377 1.3125-0.8125 1.3125s-0.8125-0.5876-0.8125-1.3125 0.36377-1.3125 0.8125-1.3125 0.8125 0.5876 0.8125 1.3125z"
                  fill="#fff"/>
            <path transform="matrix(3.6923 -7.0711e-8 7.0711e-8 2.2857 3463.4 -1221.8)"
                  d="m345.5 1032.9c0 0.7249-0.36377 1.3125-0.8125 1.3125s-0.8125-0.5876-0.8125-1.3125 0.36377-1.3125 0.8125-1.3125 0.8125 0.5876 0.8125 1.3125z"
                  fill="#fff"/>
            <path transform="matrix(3.6923 -7.0711e-8 7.0711e-8 2.2857 3423.4 -1221.8)"
                  d="m345.5 1032.9c0 0.7249-0.36377 1.3125-0.8125 1.3125s-0.8125-0.5876-0.8125-1.3125 0.36377-1.3125 0.8125-1.3125 0.8125 0.5876 0.8125 1.3125z"
                  fill="#fff"/>
            <path transform="matrix(3.6923 -7.0711e-8 7.0711e-8 2.2857 3383.4 -1221.8)"
                  d="m345.5 1032.9c0 0.7249-0.36377 1.3125-0.8125 1.3125s-0.8125-0.5876-0.8125-1.3125 0.36377-1.3125 0.8125-1.3125 0.8125 0.5876 0.8125 1.3125z"
                  fill="#fff"/>
            <path transform="matrix(3.6923 -7.0711e-8 7.0711e-8 2.2857 3343.4 -1221.8)"
                  d="m345.5 1032.9c0 0.7249-0.36377 1.3125-0.8125 1.3125s-0.8125-0.5876-0.8125-1.3125 0.36377-1.3125 0.8125-1.3125 0.8125 0.5876 0.8125 1.3125z"
                  fill="#fff"/>
            <path transform="matrix(3.6923 -7.0711e-8 7.0711e-8 2.2857 3303.4 -1221.8)"
                  d="m345.5 1032.9c0 0.7249-0.36377 1.3125-0.8125 1.3125s-0.8125-0.5876-0.8125-1.3125 0.36377-1.3125 0.8125-1.3125 0.8125 0.5876 0.8125 1.3125z"
                  fill="#fff"/>
            <path transform="matrix(3.6923 -7.0711e-8 7.0711e-8 2.2857 3263.4 -1221.8)"
                  d="m345.5 1032.9c0 0.7249-0.36377 1.3125-0.8125 1.3125s-0.8125-0.5876-0.8125-1.3125 0.36377-1.3125 0.8125-1.3125 0.8125 0.5876 0.8125 1.3125z"
                  fill="#fff"/>
            <path transform="matrix(3.6923 -7.0711e-8 7.0711e-8 2.2857 3223.4 -1221.8)"
                  d="m345.5 1032.9c0 0.7249-0.36377 1.3125-0.8125 1.3125s-0.8125-0.5876-0.8125-1.3125 0.36377-1.3125 0.8125-1.3125 0.8125 0.5876 0.8125 1.3125z"
                  fill="#fff"/>
            <path transform="matrix(3.6923 -7.0711e-8 7.0711e-8 2.2857 3350 -1144.7)"
                  d="m345.5 1032.9c0 0.7249-0.36377 1.3125-0.8125 1.3125s-0.8125-0.5876-0.8125-1.3125 0.36377-1.3125 0.8125-1.3125 0.8125 0.5876 0.8125 1.3125z"
                  fill="#fff"/>
            <path transform="matrix(.77241 0 0 .77241 4230.2 342.28)"
                  d="m285 1031.7c0 4.2901-3.4778 7.7678-7.7678 7.7678s-7.7679-3.4777-7.7679-7.7678 3.4778-7.7679 7.7679-7.7679 7.7678 3.4778 7.7678 7.7679z"
                  fill="#fff" stroke="#000" stroke-linejoin="round" stroke-width="2.5893"/>
            <path transform="matrix(.38621 0 0 .38621 4337.3 740.74)"
                  d="m285 1031.7c0 4.2901-3.4778 7.7678-7.7678 7.7678s-7.7679-3.4777-7.7679-7.7678 3.4778-7.7679 7.7679-7.7679 7.7678 3.4778 7.7678 7.7679z"
                  fill="#528dba"/>
            <path transform="matrix(3.6923 -7.0711e-8 7.0711e-8 2.2857 4503.6 -1127.9)"
                  d="m345.5 1032.9c0 0.7249-0.36377 1.3125-0.8125 1.3125s-0.8125-0.5876-0.8125-1.3125 0.36377-1.3125 0.8125-1.3125 0.8125 0.5876 0.8125 1.3125z"
                  fill="#fff"/>
            <path transform="matrix(3.6923 -7.0711e-8 7.0711e-8 2.2857 4483.2 -1148.3)"
                  d="m345.5 1032.9c0 0.7249-0.36377 1.3125-0.8125 1.3125s-0.8125-0.5876-0.8125-1.3125 0.36377-1.3125 0.8125-1.3125 0.8125 0.5876 0.8125 1.3125z"
                  fill="#fff"/>
            <path transform="matrix(3.6923 -7.0711e-8 7.0711e-8 2.2857 4462.8 -1168.7)"
                  d="m345.5 1032.9c0 0.7249-0.36377 1.3125-0.8125 1.3125s-0.8125-0.5876-0.8125-1.3125 0.36377-1.3125 0.8125-1.3125 0.8125 0.5876 0.8125 1.3125z"
                  fill="#fff"/>
            <path transform="matrix(3.6923 -7.0711e-8 7.0711e-8 2.2857 4539.1 -1127.9)"
                  d="m345.5 1032.9c0 0.7249-0.36377 1.3125-0.8125 1.3125s-0.8125-0.5876-0.8125-1.3125 0.36377-1.3125 0.8125-1.3125 0.8125 0.5876 0.8125 1.3125z"
                  fill="#fff"/>
            <path transform="matrix(3.6923 -7.0711e-8 7.0711e-8 2.2857 4559.4 -1148.3)"
                  d="m345.5 1032.9c0 0.7249-0.36377 1.3125-0.8125 1.3125s-0.8125-0.5876-0.8125-1.3125 0.36377-1.3125 0.8125-1.3125 0.8125 0.5876 0.8125 1.3125z"
                  fill="#fff"/>
            <path transform="matrix(3.6923 -7.0711e-8 7.0711e-8 2.2857 4579.8 -1168.7)"
                  d="m345.5 1032.9c0 0.7249-0.36377 1.3125-0.8125 1.3125s-0.8125-0.5876-0.8125-1.3125 0.36377-1.3125 0.8125-1.3125 0.8125 0.5876 0.8125 1.3125z"
                  fill="#fff"/>
            <path transform="matrix(3.6923 -7.0711e-8 7.0711e-8 2.2857 4600.2 -1189.1)"
                  d="m345.5 1032.9c0 0.7249-0.36377 1.3125-0.8125 1.3125s-0.8125-0.5876-0.8125-1.3125 0.36377-1.3125 0.8125-1.3125 0.8125 0.5876 0.8125 1.3125z"
                  fill="#fff"/>
            <path transform="matrix(3.6923 -7.0711e-8 7.0711e-8 2.2857 4620.7 -1209.5)"
                  d="m345.5 1032.9c0 0.7249-0.36377 1.3125-0.8125 1.3125s-0.8125-0.5876-0.8125-1.3125 0.36377-1.3125 0.8125-1.3125 0.8125 0.5876 0.8125 1.3125z"
                  fill="#fff"/>
            <path transform="matrix(3.6923 -7.0711e-8 7.0711e-8 2.2857 4641.2 -1230)"
                  d="m345.5 1032.9c0 0.7249-0.36377 1.3125-0.8125 1.3125s-0.8125-0.5876-0.8125-1.3125 0.36377-1.3125 0.8125-1.3125 0.8125 0.5876 0.8125 1.3125z"
                  fill="#fff"/>
            <path transform="matrix(3.6923 -7.0711e-8 7.0711e-8 2.2857 4661.6 -1250.5)"
                  d="m345.5 1032.9c0 0.7249-0.36377 1.3125-0.8125 1.3125s-0.8125-0.5876-0.8125-1.3125 0.36377-1.3125 0.8125-1.3125 0.8125 0.5876 0.8125 1.3125z"
                  fill="#fff"/>
            <path transform="matrix(3.6923 -7.0711e-8 7.0711e-8 2.2857 4682 -1270.9)"
                  d="m345.5 1032.9c0 0.7249-0.36377 1.3125-0.8125 1.3125s-0.8125-0.5876-0.8125-1.3125 0.36377-1.3125 0.8125-1.3125 0.8125 0.5876 0.8125 1.3125z"
                  fill="#fff"/>
            <path transform="matrix(.77241 0 0 .77241 5765.3 268.61)"
                  d="m285 1031.7c0 4.2901-3.4778 7.7678-7.7678 7.7678s-7.7679-3.4777-7.7679-7.7678 3.4778-7.7679 7.7679-7.7679 7.7678 3.4778 7.7678 7.7679z"
                  fill="#fff" stroke="#000" stroke-linejoin="round" stroke-width="2.5893"/>
            <path transform="matrix(.38621 0 0 .38621 5872.4 667.08)"
                  d="m285 1031.7c0 4.2901-3.4778 7.7678-7.7678 7.7678s-7.7679-3.4777-7.7679-7.7678 3.4778-7.7679 7.7679-7.7679 7.7678 3.4778 7.7678 7.7679z"
                  fill="#7e5330"/>
            <path transform="matrix(3.6923 -7.0711e-8 7.0711e-8 2.2857 3818.8 -1510.7)"
                  d="m345.5 1032.9c0 0.7249-0.36377 1.3125-0.8125 1.3125s-0.8125-0.5876-0.8125-1.3125 0.36377-1.3125 0.8125-1.3125 0.8125 0.5876 0.8125 1.3125z"
                  fill="#fff"/>
            <path transform="matrix(3.6923 -7.0711e-8 7.0711e-8 2.2857 3811.4 -1545.4)"
                  d="m345.5 1032.9c0 0.7249-0.36377 1.3125-0.8125 1.3125s-0.8125-0.5876-0.8125-1.3125 0.36377-1.3125 0.8125-1.3125 0.8125 0.5876 0.8125 1.3125z"
                  fill="#fff"/>
            <path transform="matrix(3.6923 -7.0711e-8 7.0711e-8 2.2857 3811.4 -1570.4)"
                  d="m345.5 1032.9c0 0.7249-0.36377 1.3125-0.8125 1.3125s-0.8125-0.5876-0.8125-1.3125 0.36377-1.3125 0.8125-1.3125 0.8125 0.5876 0.8125 1.3125z"
                  fill="#fff"/>
            <path transform="matrix(3.6923 -7.0711e-8 7.0711e-8 2.2857 3675.2 -870.25)"
                  d="m345.5 1032.9c0 0.7249-0.36377 1.3125-0.8125 1.3125s-0.8125-0.5876-0.8125-1.3125 0.36377-1.3125 0.8125-1.3125 0.8125 0.5876 0.8125 1.3125z"
                  fill="#fff"/>
            <path transform="matrix(3.6923 -7.0711e-8 7.0711e-8 2.2857 3675.2 -832.11)"
                  d="m345.5 1032.9c0 0.7249-0.36377 1.3125-0.8125 1.3125s-0.8125-0.5876-0.8125-1.3125 0.36377-1.3125 0.8125-1.3125 0.8125 0.5876 0.8125 1.3125z"
                  fill="#fff"/>
            <path transform="matrix(3.6923 -7.0711e-8 7.0711e-8 2.2857 3675.2 -793.98)"
                  d="m345.5 1032.9c0 0.7249-0.36377 1.3125-0.8125 1.3125s-0.8125-0.5876-0.8125-1.3125 0.36377-1.3125 0.8125-1.3125 0.8125 0.5876 0.8125 1.3125z"
                  fill="#fff"/>
            <path transform="matrix(.77241 0 0 .77241 5054.9 377.32)"
                  d="m285 1031.7c0 4.2901-3.4778 7.7678-7.7678 7.7678s-7.7679-3.4777-7.7679-7.7678 3.4778-7.7679 7.7679-7.7679 7.7678 3.4778 7.7678 7.7679z"
                  fill="#fff" stroke="#000" stroke-linejoin="round" stroke-width="2.5893"/>
            <path transform="matrix(.77241 0 0 .77241 4895.1 377.32)"
                  d="m285 1031.7c0 4.2901-3.4778 7.7678-7.7678 7.7678s-7.7679-3.4777-7.7679-7.7678 3.4778-7.7679 7.7679-7.7679 7.7678 3.4778 7.7678 7.7679z"
                  fill="#fff" stroke="#000" stroke-linejoin="round" stroke-width="2.5893"/>
            <path transform="matrix(.38621 0 0 .38621 5002.1 775.79)"
                  d="m285 1031.7c0 4.2901-3.4778 7.7678-7.7678 7.7678s-7.7679-3.4777-7.7679-7.7678 3.4778-7.7679 7.7679-7.7679 7.7678 3.4778 7.7678 7.7679z"
                  fill="#7e5330"/>
            <path transform="matrix(3.6923 -7.0711e-8 7.0711e-8 2.2857 4030.2 -1186.8)"
                  d="m345.5 1032.9a0.8125 1.3125 0 1 1-1.625 0 0.8125 1.3125 0 1 1 1.625 0z" fill="#fff"/>
        </g>
    </g>
</svg>
