<svg fill="none" stroke-width="2.83" xmlns="http://www.w3.org/2000/svg" xml:space="preserve" fill-rule="evenodd"
     clip-rule="evenodd" viewBox="0 0 2064 1611">
      <path stroke="#805233"
            d="M938.02 794.4c1.61-.14 12.99-1.15 14.4-1.26 5.24-.4 16.08-1.67 19.43-1.97.45-.04 1-.06 1.63-.08 4.02-.1 11.2.2 15.93-.49 1.04-.15 2.13-.38 3.25-.66 4.8-1.2 10.05-3.47 13.26-5.78 1.88-1.35 4.1-3.04 6.31-4.8"/>
  <path stroke="#b8a496" d="M1014.42 777.6a135.3 135.3 0 0 0 3.25-2.75"/>
  <path stroke="#009bd5" stroke-linejoin="round" stroke-miterlimit="10"
        d="M1238.86 1239.43c-2.54-2.38-5.43-6.17-7.35-8.6-1.92-2.44-9.39-11.66-11.37-14.2a27.84 27.84 0 0 0-9.06-7.35c-3.69-1.82-5.52-2.76-11.12-2.29-5.6.47-17.06 1.31-21.77 1.27-4.71-.04-20.58-2.9-25.9-5.28-5.32-2.37-21.62-13.74-26.43-21.27-4.81-7.53-9.17-19.3-12.5-32.53-3.34-13.25-5.56-18.94-4.56-22.02 1.19-3.65 5.32-8.13 6.28-11.2 1.19-3.82 1.27-5.05 1.53-8.7.25-3.65.81-9.21.3-13.71s-1.78-11.97-2.55-16.13c-.76-4.15-1.95-8.06-1.99-11.2-.05-3.14 1.61-7.3.8-9.8-.8-2.51-5.01-11.55-6.87-15.62-1.87-4.07-3.57-8.66-5.77-12.48-2.21-3.82-3.74-5.9-4.08-8.36-.34-2.46-.72-5.43-1.23-10.44s-1.44-13.03-1.86-16.67c-.43-3.66-2.25-9.43-2.85-11.04-.59-1.61-3.05-10.9-4.15-13.33-1.11-2.42-3.48-8.06-3.95-8.95-.47-.9-5.44-6.62-6.88-8.32a45.14 45.14 0 0 0-6.81-6.3 1443.7 1443.7 0 0 0-17.93-13.65 61.73 61.73 0 0 0-8.19-4.66c-2.17-.98-4.63-1.66-10.65-2.98-6.03-1.31-18.8-4.2-21.44-4.75a29.45 29.45 0 0 1-7.29-2.63c-2.85-1.36-4.12-1.44-6.16-1.36-2.03.09-3.65-.08-7.09-1.27A6027.3 6027.3 0 0 0 955 902.18c-2.5-.8-9.02-3.7-6.96-8.6.94-2.22 3.3-4.8 2.82-7.23-.48-2.43-.93-4.12-4.63-5.62-3.7-1.5-6.4-2.96-10.55-2.85-4.16.12-8.64.35-11.1.9-2.7.62-6.23 3.92-7.57 7.82-.78 2.25-1.1 4-1.52 4.92-1.2 2.62-3.89 7.15-9.18 7.58-5.29.42-6.45 1.04-7.13 1.3-.68.25-2.1 1.02-3.53 3.45-1.44 2.43-3.8 4.98-6.94 5.74-3.14.76-7.6 1.44-10.15 1.84-2.55.4-5.41-.7-9.25-.05-3.85.64-11.7 1.98-18.88 3.16-7.17 1.2-23.68 3.74-28.98 4.67-5.3.93-9.5 1.4-16 3.06-6.5 1.65-9.64 2.29-13.8 3.82-4.15 1.53-6.44 2.37-10.01 2.41-3.56.05-8.66.26-10.36.3a7.15 7.15 0 0 1-5.8-2.2c-2.3-2.17-7.14-6.48-9.51-9.09-2.38-2.6-4.42-5.26-7.14-8.31a149.79 149.79 0 0 1-9.16-11.6c-2.1-3.06-3.7-5.25-4.59-10.13-.89-4.88-2.37-11.2-2.75-13.88-.39-2.67-.35-6.92.3-10.95.63-4.03.97-5.05.03-10.14-.93-5.1-1.73-9.85-2.54-14.56-.8-4.71-3.19-16.45-4.09-22.28-.9-5.83 2.04-9.68 3.11-12.9 1.08-3.23 2.3-6.19 1.96-12.47-.34-6.28-.6-14.07-1.45-17.69-.85-3.62-1.19-3.45-1.19-7.98s.23-7.8-2.32-11.32c-2.54-3.5-5.37-5.6-7.18-8.14a33.68 33.68 0 0 1-4.82-11.54c-.73-4.02-.23-9.24-.96-13.1-.72-3.87-3.52-9.94-10.4-11.25-6.87-1.32-14.34-3.02-18.96-3.14-4.63-.13-11.3 0-15.24-.13-3.95-.13-16.93-1.19-19.56-1.25-2.63-.05-11.66.65-14 1-2.36.33-14.86-.2-22.1-1-7.25-.79-25.4-2.95-29.98-3.38-4.59-.42-17.66-2-20.58-2.33-2.93-.34-13.5-2.93-17.45-3.23-3.94-.3-8.57-.17-19.69 2.97-11.12 3.14-16.17 4.3-19.99 5.18-3.81.88-7.8 1.56-12.19-.65-4.38-2.2-8.23-4.6-11.29-4.98-3.05-.37-6.4.28-9.7 1.19-3.31.9-7.8-.62-11.32-2.43-3.9-2.01-7.86-3.23-11.17-1.67-3.31 1.55-6 4.26-6.43 8-.28 2.52-.7 7.36-1.52 10.02"/>
  <path stroke="#007734" stroke-linejoin="round" stroke-miterlimit="10"
        d="M1023.98 1582.91c-3.5-17-23-103-28.74-138.3-1.06-6.48-4.16-20.12-5.44-26.06-1.27-5.94-5.51-18.17-9.67-29.79a2620.86 2620.86 0 0 0-21.88-58.12c-7.58-19.35-14.03-39.16-18.95-53.41-4.92-14.26-21.22-60.27-26.65-75.38-5.43-15.1-24.1-67.95-26.99-75.88-2.88-7.92-8.2-23.14-9.85-27.95-1.64-4.81-7.86-20.77-9.62-25.63-1.75-4.87-1.92-9.57-2.43-16.64-.5-7.08-.11-10.24 2.55-17.71 2.66-7.47 10.3-29.2 12.35-35.06 2.03-5.85 5.13-14.05 6.57-19.35 1.45-5.3 3.65-11.2 5.94-17.61 2.3-6.41 7.9-22.88 9.43-27.04 1.52-4.16 3.62-10.21 4.24-12.81.62-2.6 1.47-5.43 1.58-9.42.12-4 .82-17.68 1.05-24 .13-3.5 4.2-9.46 5.38-10.8 1.2-1.35 3.9-4.1 4.85-4.71l.59-.38c3.67-2.35 7.47-4.77 9.42-8.86a186.22 186.22 0 0 0 5.78-13.96c1.41-3.93 2.01-6.17-1.07-10.46a507.84 507.84 0 0 0-10.71-13.95c-1.35-1.7-1.22-3.28-.85-6.17.09-.7.18-1.4.24-2.16.16-1.82 1.15-9.33 1.42-12.36.45-5.16 1.63-5.49 3.27-5.95 2-.56 2.86-.65 8.5-1.2l2.3-.22c6.02-.58 11.72-10.15 10.8-18.4 0 0 .08-5.5 2.59-8.4 1.66-1.92 11.58-7.52 13.38-12.49.58-1.62 1.04-3.52 1.67-5.52 1.62-5.17.92-7.06-.63-11.19l-.08-.22c-1.6-4.29-4.04-8.67-7.46-13.4a96.5 96.5 0 0 0-7.92-9.58l-1.75-1.94a103.93 103.93 0 0 0-10.39-10.22c-3.13-2.75-4.47-4.87-5.95-9.48a44.1 44.1 0 0 1-2.56-12.94c-.7-9.67-.5-11.72 5.94-19.69 6.2-7.67 14.26-8.63 24.16-9.1 10.55-.5 14.53-1.85 18.55-6.27 3.48-3.82 2.35-18.38 1.36-25.22l-.39-2.79c-.27-2.08-.57-4.98-.9-8.15-.7-7-1.52-14.92-2.53-19.18-1.67-7.09-7.35-14.89-18.4-25.3-11.5-10.83-46.65-42.47-65.6-59.46a35169.73 35169.73 0 0 1-88.33-79.39c-13.33-12.08-19.55-20.82-27.43-31.88-1.47-2.07-3-4.22-4.63-6.47"/>
  <path stroke="#db6ba2" stroke-linejoin="round"
        d="M386.07 1218.5c6.54-5.61 12.31-10.55 15.36-13.34 8.3-7.58 10.05-9 15.55-20.37a77.71 77.71 0 0 1 18.06-23.72c5.4-4.84 10.74-7.81 18.42-12.9 5.77-3.82 7.65-6.07 20.03-10.44 7.94-2.8 11.87-4.06 18.08-6.19 8.28-2.85 14.46-.13 23.51 5.7 9.06 5.82 42.19 29.65 54.58 38.22 12.4 8.57 16.99 6.12 30.39-1.1a1018.5 1018.5 0 0 0 33.01-18.59 10014.9 10014.9 0 0 1 71.59-41.23c10.52-5.94 26.59-14.88 41.19-23.37 14.6-8.48 21.25-17.61 28.2-26.52 6.97-8.91 14.4-18.97 18.93-24.91 4.54-5.94 7.69-9.89 13.97-18.25S820 1004.01 825.27 997c5.26-7 17.9-24.14 22.82-30.88 4.92-6.73 11.77-15.37 16.05-20.9 4.3-5.51 7.22-8.52 10.15-12.51 2.93-3.99 10.9-15.37 14.94-20.63 4.03-5.26 5.74-7.92 7.04-11.12 1.3-3.2 2.36-4.44 3.85-6.22 2.05-2.45 2.27-3.14 4.45-6.51a138.1 138.1 0 0 1 6.25-9.13c.44-.56 1.28-1.44 1.28-1.44a19.73 19.73 0 0 1 3.77-3.28l.59-.38c3.42-2.19 6.65-4.26 8.18-7.47 1.8-3.77 4.34-10.02 5.65-13.65 1.2-3.29 1.55-4.28-.63-7.31a475.9 475.9 0 0 0-10.62-13.83c-2.3-2.9-1.93-5.72-1.55-8.71.08-.65.16-1.32.23-2.03.16-1.82 1.15-9.32 1.41-12.35.56-6.3 2.45-8 5.73-8.93 2.3-.65 3.34-.75 9.1-1.3l2.3-.23c4.14-.28 8.56-8.2 7.97-15.78 0 0 .53-6.82 3.18-9.88 2.55-2.94 10.57-6.7 12.9-12.12.7-1.6.84-2.65 1.48-4.67 1.27-4.06.91-5-.57-8.98l-.08-.22c-1.5-4-3.8-8.13-7.03-12.61a94.85 94.85 0 0 0-7.7-9.28l-1.75-1.95c-4.52-5.04-7.1-7.3-10.1-9.93-3.59-3.15-5.28-5.83-6.95-11-1.68-5.21-2.17-8.43-2.7-13.62-1.18-11.74-.05-13.87 6.68-22.19 7.07-8.75 16.25-9.87 26.65-10.36 10.83-.51 13.35-2.04 16.2-5.16 2.38-2.63 1.3-16.95.5-22.44l-.4-2.84c-.27-2.1-.57-5.03-.9-8.25-.67-6.54-1.5-14.7-2.46-18.74-1.5-6.3-7.03-13.8-17.42-23.6-11.49-10.8-46.61-42.43-65.55-59.4a35865.68 35865.68 0 0 1-88.34-79.4c-13.6-12.34-19.92-21.2-27.91-32.44-1.47-2.06-2.99-4.2-4.62-6.44-6.52-8.8-17.54-25.61-25.69-36.3-8.14-10.7-14.48-22.68-22.29-33.88-7.8-11.2-32.31-44.3-40.8-56.64-10.6-15.4-9.31-22.93-9.08-27.08 1.17-21.24 10.67-155.9 12-182.9 1.34-27 0-35-6.33-58.34-6.33-23.33-36-123-49.33-170.33-13.34-47.34-32.67-57.34-42-76-9.34-18.67-14-28.67-14-28.67"/>
  <path stroke="#ffd500"
        d="M830.45 963.03c-1.23-4.23-2.08-7.04-2.4-8.1-.32-1.07-1.65-7.3-1.93-8.6l-2.95-13.7c-.3-1.43-1.74-7.74-2.06-9.26a16.75 16.75 0 0 1-.3-5.14c.2-1.86.26-2.46.32-3.14.06-.68.42-1.52 1.27-2.63.85-1.1 1.42-1.74 1.76-2.2.34-.47.53-.81.68-1.4.15-.6.36-1.26.45-1.6.08-.34.1-.83.08-1.57-.02-.74-.2-12.97-.19-14.52.02-1.55.3-3.07 2.34-4.18l13.52-7.3a1484.2 1484.2 0 0 0 13.27-7.25"/>
  <path stroke="#805233"
        d="M1021.58 775.4c3.61-3.44 4.88-5.1 9.68-2.63 4.79 2.46 8.88 4.53 13.08 6.56 4.2 2.04 12.01 5.98 14.85 7.17 2.85 1.2 6.52 1.63 11.28 2.5 4.75.88 44.93 7.42 56.02 9.29 11.09 1.86 52.34 8.71 65.66 11a5401.9 5401.9 0 0 0 45.25 7.64c6.45 1.02 15.02 3.9 23.51 8.49 8.48 4.59 15.44 8.06 18.75 9.76 3.32 1.7 4.42 2.46 7.9 7.64 3.48 5.18 5.01 7.39 7.38 9.85 2.38 2.46 6.49 5.22 8.62 8.44 2.12 3.23 5.98 7.68 8.36 12.95 2.37 5.26 3.56 8.82 4.92 12 1.36 3.16 6.49 6.29 12.65 3.83 6.15-2.47 29.28-12.35 37.26-15.5 7.98-3.13 22.32-8.78 27.76-11.62 5.43-2.85 12.48-6.42 19.55-14.97 7.07-8.54 10.64-13.97 16.92-20.76 6.29-6.8 9.99-10.97 16.11-10.88 6.1.08 9.8.72 12.73.17 2.93-.55 9.68-7.72 14.9-11.83 5.22-4.12 8.4-6.53 10.99-8.7 2.59-2.16 7.04-6.5 6.49-15.79-.55-9.3-.89-18.29.25-23.3 1.15-5 6.48-23.38 8.07-27.68 1.58-4.3 4.7-7.13 9.34-9.45 4.63-2.32 20.02-9.4 26.99-12.34 6.96-2.94 22.06-8.37 29.11-10.15 7.04-1.79 15.19-3.7 22.83-3.2 7.64.5 16.35 1.7 26.31 5.77m-713.86 55.86a76.5 76.5 0 0 1 3.14 8.88c.59 2.33 3.01 9.25 3.86 11.92.85 2.67 2.59 8.87 3.43 10.52.85 1.66 4.8 6.8 9.68 7.73 4.88.93 7.73.76 13.33.17l2.55-.26"/>
  <path stroke="#816da6"
        d="M668.17 471.2c1.14 1.8 2.32 3.57 3.4 5.31 1.78 2.9 4.95 8.5 6.98 12.7 2.04 4.22 5.47 10.79 6.09 12.18.62 1.38 2.29 4.52 3.36 6.47 1.08 1.96 2.35 3.06 3.97 6.23 1.6 3.17 4.04 8.32 6.93 13.98a44.86 44.86 0 0 0 8.77 12.36 2891 2891 0 0 1 20.62 22.25c3.53 3.86 5.86 5.01 13.84 8.15 7.98 3.14 14.22 5.69 16.98 6.62 2.75.93 6.53 2.08 12.6 4.8 6.07 2.71 17.02 7.21 20.36 8.68 3.33 1.48 4.93 2.18 9.22 6.17 4.29 3.99 15.67 14.69 28.07 26.23 12.39 11.54 21.9 20.6 26.2 24.5 4.3 3.9 25.85 23.94 32.93 30.61a637.22 637.22 0 0 1 20.42 20.37 179.08 179.08 0 0 1 14.49 17.26c3.62 4.98 12.76 16.7 15.86 20.82 3.1 4.12 4.92 6.62 6.32 8.5 1.4 1.86 1.87 3.13 2.17 6.65.3 3.53 1.3 13.08 1.86 18.47.55 5.39 1.74 17.37 2.25 22.12s2.15 22.8 2.83 30.44c.68 7.64 2.49 22.8 2.89 27.28.4 4.47 1.67 17.25 2.05 20.65.38 3.4.6 8.87-2 12.77-2.59 3.9-3.35 5.01-4.58 7.52-1.23 2.5-2.55 4.88-3.44 7.17-.89 2.29-3.22 8.78-4.11 14.68-.9 5.9-1.32 15.58-1.36 20.37-.04 4.8.13 6.07.51 7.56.38 1.48.55 2.67.6 6.4.03 3.74-.22 16.77-.3 21.48l-.47 20.54c-.09 3.1-1.06 4.5-1.19 7.39-.13 2.88-.09 14.68 0 18.8.09 4.11.09 7.17.04 9.29a65.35 65.35 0 0 1-.9 8.57l-3.43 23.47a33.04 33.04 0 0 0-.25 8.96c.38 3.31 1.4 11.79 1.7 14.98.3 3.18 1.82 16.42 2.2 19.94.38 3.52 1.7 14.51 1.95 16.51.25 1.99.9 5.48 1.36 7.6a686.6 686.6 0 0 0 2 8.53c.23 1.03.47 2.25.67 3.5"/>
  <path stroke="#005a98"
        d="m812.86 443.75-8.56.61c-3.77.3-5.43 1.53-7.3 2.84a151.76 151.76 0 0 0-7.21 5.57c-1.57 1.31-2.93 2.46-3.9 4.2-.98 1.74-3.49 6.49-4.42 9.46-.93 2.97-.55 6.54.34 9 .9 2.46 4.75 9.8 6.54 12.13 1.78 2.34 5.94 7.3 8.02 11.63 2.08 4.33 4.41 10.95 5.26 15.24.85 4.29 1.57 8.87 2.3 11.33.71 2.46 4.15 7.26 8.9 7.85 4.76.6 14.01 1.44 20.42 3.19 6.4 1.74 19.42 4.88 23.66 5.33 4.25.45 7.06.78 9.78.99 2.71.21 5.9 1.27 6.96 4.33 1.06 3.05 7.6 23.85 8.95 27.92 1.36 4.08 2.8 9.34 6.2 13.41 3.4 4.08 16.5 20.46 20.29 25.27 3.79 4.81 8.76 12.79 10.69 15.17a14.84 14.84 0 0 0 7.35 5.03c2.4.7 6.13 2.97 8.48 4.97 1.92 1.63 5.39 5.5 6.91 7.03 1.53 1.52 5.6 3.14 7.3 5 1.7 1.87 3.14 4.16 3.48 6.16.34 2 .04 5.09.47 7 .43 1.91 1.97 4.5 3.52 6.22 1.56 1.73 5.52 10.25 6.75 12.84 1.23 2.58 5.77 12.52 7.98 17.06 2.2 4.54 3.3 6.7 4.54 12.3 1.23 5.6 2.16 11.04 3.3 13.2a874.3 874.3 0 0 1 6.77 13.05c1.81 3.62 3.72 7.47 4.1 8.49.39 1.02 1.33 4.06 3.12 5.93 2.3 2.4 6.63 3.8 9 4.96 1.37.67 4.54 2.36 5.5 3.13 3.82 3 7.3 6.17 8.56 7.4 1.57 1.5 8 3.74 11.57 9.62.87 1.44 4.28 6.36 5.31 8 2.31 3.68 1.09 8.09.37 10.62-1.06 3.75-3.43 7.44-4.15 9.7-.79 2.47-2.15 9.41-3.08 11.65-.94 2.23-4.98 11-5.86 12.98a1015.7 1015.7 0 0 1-7.1 14.86 270.8 270.8 0 0 0-4.4 9.3c-1.41 3.2.09 5.13 2.04 6.06 1.95.93 13.02 6.2 15.62 7.47 2.6 1.27 2.86 3.23 3.77 4.87.9 1.64 2.88 6.5 3.45 7.97.56 1.48 1.65 2.32 2.38 3.02.72.7 1.03 1.96 1.22 3.1.2 1.15 1 4.48 1.64 6.18.64 1.7 5.62 14.78 6.64 17.56 1.02 2.77 3.17 8.2 3.51 9.3.34 1.1.37 2.21-.14 3.45-.51 1.25-1.92 4.76-2.07 5.83a17.2 17.2 0 0 0 .29 5.07c.39 1.86 1.02 4.3 1.04 6.5.03 2.21.15 6.31.29 8.15a58.1 58.1 0 0 0 1.1 6.68c.48 2.3 1.67 8.04 2.12 10.1.45 2.07 2.27 8.86 3.08 11.71.83 2.86 2.35 7.36 3.12 9.8.76 2.43 5.19 16.36 6.33 19.8.28.84.81 2.35 1.45 4.19"/>
  <path stroke="#f08a00"
        d="M767.61 1063.32a73.23 73.23 0 0 1 2.49-6.61c1.44-3.05 5.5-9.79 9.57-16.86 4.08-7.07 6.74-11.43 7.64-13.01.9-1.59 1.42-4.19 1.42-6.68 0-2.49.1-17.94.1-20.09 0-2.15 1.08-4.86.91-7.41-.16-2.55-.56-6.17-.73-7.92-.17-1.76.06-9.4 0-14.6-.06-5.2.11-10.19.23-12.17.1-1.98.68-4.19 1.8-6.73 1.14-2.55 3.46-6.96 3.97-8.6.5-1.64 1.19-3.45 1.13-6.57-.05-3.1-.11-16.3-.28-20.6-.17-4.3-.34-19.57-.57-26.02-.22-6.45.41-14.82.53-17.54.1-2.71.66-8.87 1.7-14.25.73-3.74 6.9-13.67 8.34-16.54 3.12-6.2 16.12-24.9 18.46-30.2 2.33-5.31 3.88-11.46 3.33-16.17-.55-4.72-3.87-21.53-4.2-24.76-.34-3.22-.85-9.67-.05-13.45.81-3.77.51-11.58.47-14.94-.04-3.35-.09-17.4-.04-21.51.04-4.12 2.19-7.87 3.32-12.73 1.13-4.87 1.87-9.8 7.3-15.06s9.88-9.77 14.03-12.06c4.16-2.3 8.07-3.78 12.4-7.35 4.32-3.56 9.72-8.57 14.43-13.45 4.71-4.88 16.6-17.4 20.45-21.13 3.86-3.74 7.24-6.5 8.75-10.17 1.43-3.52 3.84-9.77 5.83-14.13"/>
  <path stroke="#00957e"
        d="M558.62 1114.63c1.73-1.67 8.66-8.94 11.84-12.38a67.6 67.6 0 0 1 9.9-8.44 75.22 75.22 0 0 1 9.42-4.97c2.92-1.27 11.41-2.88 16.5-2.5 5.1.38 17.15 1.74 22.03 2.25 4.88.51 15.83 1.73 20.2 2.16 4.37.42 8.15-.98 10.7-2.59 2.54-1.61 5.43-3.74 9.63-6.71 4.2-2.97 5.13-5.05 6.4-7.21 1.28-2.16 5.01-9.42 6.58-12.18 1.57-2.76 4.38-6.83 5.44-10.35 1.06-3.53 2.29-8.41 3.52-13.12 1.23-4.71 4.92-7.68 7.64-9.46 2.72-1.78 9.08-5.52 11.92-6.12 2.85-.59 17.23-2.28 19.4-3.17 2.16-.9 5.3-3.99 7.77-6.29 2.46-2.29 6.15-7.55 8.31-10.73 2.17-3.19 5.14-10.48 5.4-12.9.25-2.42.2-6.16-.09-9.77-.3-3.6-3.31-11.33-4.5-14.64-1.19-3.3-.8-4.16.21-6.79 1.02-2.63 1.71-4.65 1.88-9.4.17-4.76.91-23.77 1.2-31.35.28-7.58 5.54-9.28 8.93-11.1 3.4-1.8 9.6-5.48 13.07-7.56 3.48-2.08 8.15-5.25 10.75-6.92 2.6-1.67 6.9-2.4 8.46-2.66 1.56-.25 3.23-.62 3.63-1.92.4-1.3 1.1-2.63 2.26-3.9 1.16-1.28 3.42-3.49 5.16-5.31a31.64 31.64 0 0 0 4.2-5.14c1.7-2.5 3.59-5.45 5.64-8.59 2.3-3.5 5.21-5.54 7.88-5.12 1.98.3 3.81 1.13 8.92 2.83 1.06.4 2.19.8 3.32 1.2l6.48 2.25c5.5 1.91 9.27 3.2 11.37 3.95 3.91 1.4 5.81.34 8.23-1l3.72-2.04 2.3-1.26c1.3-.72 1.47-.81 3.5.05 3.15 1.34 11.1 4.7 12.48 5.36a7.23 7.23 0 0 0 6.74-.06c1.39-.7 2.02-1.03 4.73-.45 3.33.72 7.24 1.46 10.98 1.58 3.59.11 10.82.37 12.38.43 1.45.05 2.11.18 3.58.47a8.8 8.8 0 0 0 4.1-.07c.42-.1.92-.06 2.15.19 1.29.25 2.43.57 3.8.96l.3.09c1.28.37 2.6.76 4.76.33a13.8 13.8 0 0 1 7.66.6c1.58.6 3.3 1.3 4.93 1.95 2.14.87 4.15 1.69 5.65 2.18 1.96.65 3.97.97 6.13.97 1.23 0 2.5-.1 3.85-.3 2.58-.4 5.07-.97 6.88-1.4l2.09-.46a36.4 36.4 0 0 1 5.52-.4l3.8-.03c6.06-.06 17.32-.16 20.48-.26 2.94-.1 6.35-.33 9.1-.52l2.96-.2c2.22-.14 3.12-.05 4.48.08l.86.08c2.25.2 4.19-.23 5.97-.68 1.17-.3 4.73-1.21 8.73-1.48 2.09-.14 5.96-.23 9.7-.32 3.01-.06 5.99-.14 8.04-.23 5.02-.23 8.95-.53 10.8-.82 1.54-.25 2.72-.1 3.78.08 1.11.19 1.76.03 3.05-.26.37-.09.81-.19 1.37-.3 1.66-.36 10.18-2.44 16.41-3.95l5.48-1.33a13.61 13.61 0 0 0 4.59-1.82c.43-.28 1.2-.28 1.94-.01 1.85.66 3.17.85 4.28.63 1.61-.33 2.64-1.36 3.78-2.9 1.09-1.47 2.76-3.63 3.58-4.66a26.5 26.5 0 0 0 2.87-4.75c.29-.65 1.09-2.25 1.9-3.86.77-1.55 1.56-3.11 1.93-3.92"/>
  <path stroke="#6a2"
        d="M775.3 860.9c3.66-.91 5.87-1.63 9.13-2.73 5.39-1.81 9.87-3.46 13.6-4.73 3.74-1.27 5.7-2.15 8.18-2.24 2.5-.08 4.12 1.18 6.28 2.1 3.8 1.62 12.36 4.22 17.53 6.1 1.03.4 2.13.79 3.23 1.17l6.48 2.25c5.52 1.92 9.3 3.2 11.4 3.96 2.46.88 3.21.46 5.43-.77l3.75-2.05 2.28-1.25c2.03-1.12 3.25-1.48 6.48-.1 3.21 1.36 11.2 4.75 12.6 5.41 1.36.65 2.45.64 3.75-.02 1.92-.97 3.27-1.53 6.98-.74 3.19.69 6.9 1.4 10.37 1.5l12.4.43c1.72.06 2.57.23 4.12.54 1.2.25 1.97.13 2.61-.04 1.2-.3 2.3-.11 3.64.16 1.42.28 2.62.62 4.06 1.03l.31.09c1.14.32 1.82.52 3.15.26 3.22-.65 6.42-.4 9.52.75 1.61.6 3.35 1.31 5.02 1.99 2.08.84 4.05 1.64 5.44 2.1 2.55.84 5.22 1 8.4.52 2.45-.36 4.86-.92 6.62-1.33.94-.22 1.71-.4 2.25-.5 1.46-.26 3.5-.41 6.08-.45l3.82-.04c6.04-.05 17.28-.16 20.4-.25 2.87-.1 6.25-.33 8.96-.52l3-.2a24.8 24.8 0 0 1 5.02.1l.83.07c1.56.14 2.95-.11 4.82-.6a52.3 52.3 0 0 1 9.35-1.57c2.17-.14 6.07-.23 9.84-.32 2.99-.07 5.94-.14 7.97-.23 4.83-.22 8.72-.52 10.42-.79a14.4 14.4 0 0 1 4.88.09c.42.07.53.06 1.73-.22a1573.96 1573.96 0 0 0 17.73-4.24l5.5-1.33c1.99-.47 2.76-.9 3.56-1.4a5.62 5.62 0 0 1 4.91-.33c1.54.56 2.19.56 2.45.5.35-.07.73-.24 1.73-1.59 1.11-1.5 2.81-3.7 3.65-4.76.77-.97 1.93-2.87 2.42-4 .3-.68 1.13-2.33 1.97-4 .76-1.51 1.52-3.04 1.88-3.83"/>
  <path stroke="#e75113"
        d="M550.67 753.78c1.53.54 5.24 2.07 6.8 2.72 1.55.65 3.45 1.9 4.55 3.09 1.1 1.18 1.59 3.7 1.78 4.92.2 1.22 1.1 3.76 1.61 4.58.51.82 2.15 3.11 3.48 5.63s3.26 6.2 4.5 9.08c1.25 2.9 2.96 6.4 3.34 7.28.69 1.58 2.6 3.46 4.45 4.63a10.25 10.25 0 0 0 6.02 1.66c1.83-.13 6.1-.85 8.81-1.06 2.72-.21 6.07.25 8.2.6 2.11.33 4.02 1.44 5.8 3.13 1.78 1.7 6.75 6.63 10.32 10.02 3.56 3.4 9.25 8.91 11.07 10.61 1.83 1.7 3.06 2.97 4.63 3.4 1.57.42 3.14.85 5.52 1.44 2.37.6 5.26.38 8.4.08a6076 6076 0 0 0 24.3-2.4c7.25-.74 46.32-4.9 52.3-5.58 5.99-.67 15.24-1.52 20.46-2.12 5.22-.6 17.86-2.06 20.67-2.26 2.8-.2 3.1 1.07 4.41 2.6 1.3 1.53 6.62 7.98 8.03 9.7 1.42 1.74 1.65 2.1 3.48 3.46 1.84 1.36 18.53 14.07 19.94 15.15a23.8 23.8 0 0 0 5.37 2.84c4.63 1.75 10.81 9.44 12.25 10.44 1.45.98 4.37 2.01 5.87 2.6 1.5.6 23.48 8.35 25.64 9.14 2.15.8 11.9 3.96 15.8 5.37 3.9 1.4 16.28 5.47 18.43 6.12 2.15.65 3.8.28 5.86.94 2.06.64 2.54.6 4.78.59 9.19-.01 11.15-6.66 11.69-8.39.53-1.73 3.08-10.4 3.3-11.93.23-1.52 1.1-6.53 1.42-8.06.31-1.53.54-2.06 1.19-4.13.65-2.06 2.69-7.9 3.31-9.76.62-1.87.79-2.52.99-3.99.2-1.47.37-2.63.74-3.51a18.4 18.4 0 0 1 1.58-2.83c.42-.6 1.2-1.31 1.88-1.85.68-.52 1.53-1.16 2-1.88a65.9 65.9 0 0 0 1.7-2.89c.48-.91 1.58-3.01 4.2-3.57a52.1 52.1 0 0 0 6.34-1.73c2.1-.7 4.54-1.6 7-1.74 2.46-.15 14.05-1.26 15.9-1.51 1.84-.26 2.96-.55 3.33-2.19.35-1.63 1.27-2.44 2.75-2.6 1.49-.18 6.5-.3 9.42 1.63 1.17.76 7.43 5.07 8.62 5.83a6.8 6.8 0 0 0 3.95 1.25c1.93.11 6.1.33 7.74.44 1.64.12 2.89.09 4.27-.68 1.39-.76 3.65-2.07 5.02-2.64 1.39-.57 2.15-.77 3.3-1.36 1.14-.6 2.8-1.4 3.5-1.85.69-.44 1.43-1.56 1.85-3.85a99 99 0 0 0 .82-8.83c.11-1.8.17-2.52.31-4.3a9.25 9.25 0 0 0-.4-4.33c-.56-1.98-1.24-2.74-1.89-3.67-.65-.94-1.22-2.92.2-4.05 1.41-1.13 4.78-3.48 6.44-4.64 1.68-1.16 2.83-2.58 2.84-3.66.02-1.46.5-4.5-3.63-8.5-2.9-2.81-4.45-3.63-6.81-6-.73-.73-1.11-3.54-.56-5.37.4-1.33.33-2.67-.15-4.42a345.3 345.3 0 0 0-2.22-7.7c-.84-2.59.08-4.84 1.16-6.76.6-1.05 3.38-4.78 4.09-5.83a7.82 7.82 0 0 0 1.35-3.37c.11-1.1.65-4.72.68-5.94.03-1.21-.14-2.26-.4-4.04a94.15 94.15 0 0 1-.73-6.94c-.11-2.09-.45-7.24-.54-8.96-.08-1.73-.11-7.42-.14-10.73-.03-3.3 0-5.2.11-7.55.12-2.35.17-5.38.29-6.68.11-1.3.31-2.91.56-4.39.26-1.47 1.87-11.4 2.12-12.9.26-1.5.51-3.73.65-5.4.14-1.67.82-7.36.96-9.14.15-1.78 1.14-9.34 1.34-11.77.19-2.43.45-3.82.56-5a28.7 28.7 0 0 0-.2-5.02c-.33-3.12-.4-4.8-.48-6.02-.05-.66-.76-3.09-1.24-4.2-.49-1.1-1.59-3.78-1.67-5.28-.09-1.5-.4-6.48-.6-9.4a896.1 896.1 0 0 0-1.39-15.47c-.25-2.58-.28-3.28-.42-4.44a17.65 17.65 0 0 0-1.24-4.02 44.8 44.8 0 0 1-1.52-4.39"/>
  <path stroke="#cb6418" stroke-linejoin="round" stroke-miterlimit="10"
        d="M664.24 859.52a76.47 76.47 0 0 0 4.23 8.69c1.14 2.04 3.14 3.94 5.07 5.77 1.36 1.3 2.77 2.63 3.79 3.95a413.8 413.8 0 0 0 7.83 9.43 586.6 586.6 0 0 1 7.19 8.6 165.9 165.9 0 0 1 5.04 6.6c1.53 2.08 3.12 4.24 5.14 6.74 1.8 2.23 4.98 6.12 8.53 10.45a3061.3 3061.3 0 0 1 12.86 15.75c6.59 8.16 15.93 19.31 22.41 26.14 6.98 7.35 16.7 7.56 22.5 7.7 3.7.08 11.34.09 16.78.09h10.46c4.9 0 7.08-.36 10.1-.83 1-.16 2.09-.33 3.41-.51 3.6-.49 7.9-.59 13.26-.59l7.21.02h2.54c6.95-.05 11.48-2 16.28-4.06a92.24 92.24 0 0 1 4.9-2c6.06-2.2 11.9-2.64 15.82-1.22 3.27 1.18 5.4 2.52 8.11 4.23l1.67 1.04c3.11 1.93 5.32 4.24 7.4 10.4 2.3 6.83 5.02 11.85 6.64 14.07 1 1.37 4.72 5.88 10.6 6.38 2.4.2 5.16.31 8.23.31 1.87 0 3.68-.04 5.3-.1a130.32 130.32 0 0 1 15.37.46c3.16.35 7.7 2.21 12.08 4.01 1.13.47 2.26.93 3.36 1.36 5.62 2.22 9.02 3.87 12.15 5.89a55.7 55.7 0 0 1 3.06 2.23c3.19 2.43 8 6.1 15.83 10.03 7.51 3.78 13.39 5.39 19.63 5.39 1.95 0 3.99-.15 6.41-.47 8.01-1.06 20.91-3.05 27.13-4.08 3.49-.58 6.67-1.4 9.74-2.19 2.44-.63 4.96-1.27 7.67-1.81 6.43-1.28 24.98-5.48 31.78-7.15 3.21-.79 9.27-2.33 15.79-4 7.54-1.92 15.69-4 20.79-5.25 10.82-2.65 16.54-9.28 18-20.84.6-4.71 1.43-11.5 2.26-18.2 1.15-9.29 2.32-18.9 2.75-21.97a697 697 0 0 0 1.46-11.4l.2-1.6c.58-4.72 1.23-9.83 2.32-16 1.15-6.58 3.55-11.44 5.74-15.33 2.56-4.53 3.8-5.97 8.15-10.77 4.5-4.98 5.84-7.06 6.85-10.61.79-2.78 1.46-5.6 2.17-8.57l.37-1.51c.35-1.47.68-3.08 1-4.66.47-2.36.92-4.58 1.42-6.15.73-2.27 3.13-6.19 4.88-9.05l.59-.96c1.41-2.32 4.31-7.3 6.87-11.68l2.59-4.45c2.99-5.11 2.23-9.63 1.78-12.32l-.15-.91-.04-.32c-.39-2.75-1.12-7.87-2.04-10.53-1.03-2.96-7.19-17.69-7.45-18.31-1.42-3.39-2.2-5.25-3.87-10.06-1.91-5.5-5.94-8.85-9.07-10.15a82.99 82.99 0 0 0-3.33-1.27 57.14 57.14 0 0 1-6.65-2.75c-8.45-4.37-11.64-6.38-12.83-7.3-1.86-1.44-5.27-7.13-7.09-10.19l-1.1-1.81c-1.38-2.26-4.01-6.4-6.52-10.37l-2.67-4.21c-2.7-4.29-6.3-10.31-8.93-14.71l-.91-1.52c-2.66-4.44-4.06-6.25-7.64-8.9a103.16 103.16 0 0 0-8.03-5.18l-2.83-1.72a100.99 100.99 0 0 1-6.73-4.73c-2.24-1.66-4.56-3.38-6.94-4.93a111.67 111.67 0 0 0-13.17-7.57l-.63-.3a205.88 205.88 0 0 1-13.21-6.8c-4.27-2.48-7.81-5.71-12.3-9.8-4.48-4.09-7.43-5.74-10.28-7.35l-1.35-.76c-2.91-1.64-5.65-3.2-8.15-4.14-2.03-.77-4.2-.88-6.3-1a45.3 45.3 0 0 1-2.56-.18l-2.02-.23c-2.19-.25-4.45-.51-7.04-.51-3.35 0-9.74.47-13.99.92-3.03.32-7.78.4-13.29.48l-6 .1a259 259 0 0 0-16 .94c-1.5.12-2.82.23-3.91.3-2.37.16-5.73.98-8.98 1.77-2.64.65-5.37 1.32-6.97 1.46-3.62.31-7.22 1.23-12.04 3.08-3.53 1.35-8.83 5.1-13.1 8.12-1.26.9-2.41 1.7-3.36 2.34a521.04 521.04 0 0 0-11.9 8.47l-3.4 2.47c-2.05 1.48-5.79 4.26-9.5 7.02a955 955 0 0 1-13.54 9.97 327.97 327.97 0 0 1-6.95 5c-2.62 1.79-3.7 2.53-8.27 3.08-4.97.6-18.72 3.27-24.98 4.56l-40.87 8.45a988.6 988.6 0 0 0-23.71 5.4c-6.27 1.46-12.29 2.87-16.58 3.81-15 3.3-24.68 5.36-27.97 5.94-2.97.53-9.91 2.17-16.04 3.62-2.8.66-5.4 1.28-7.33 1.72l-.83.2c-2.45.56-4.39 1-8.46 1.2l-1.76.07c-4.17.16-8.1.31-12.72 2.6-5.43 2.68-10.84 8.74-9.77 17.74a354.6 354.6 0 0 0 1.77 12.73 699 699 0 0 1 .9 6.03 215.9 215.9 0 0 0 2.51 14.18l.56 2.78a437.9 437.9 0 0 0 1.74 8.11c.85 3.82 1.65 7.42 1.9 9.32a23.4 23.4 0 0 1-1.33 10.57c-1.04 3.03-2.9 7-4.68 10.84-.63 1.36-1.26 2.7-1.84 3.99-2.11 4.66-2.2 10.35-2.25 13.4l-.02 1.1c-.1 2.63.28 6.63 1.3 9.23Z"/>
  <path stroke="#ad5937" stroke-linejoin="round" stroke-miterlimit="10"
        d="M667.4 858.27a73.48 73.48 0 0 0 4.04 8.28c.89 1.6 2.61 3.23 4.44 4.97a41.15 41.15 0 0 1 4.13 4.32c1.37 1.77 4.61 5.6 7.75 9.33 2.7 3.2 5.44 6.45 7.23 8.64 1.99 2.46 3.59 4.63 5.14 6.73 1.51 2.06 3.08 4.19 5.04 6.63 1.8 2.22 4.98 6.1 8.53 10.43 4.39 5.35 9.33 11.38 12.86 15.76 6.25 7.75 15.82 19.18 22.24 25.93 6 6.33 14.83 6.53 20.1 6.64 3.66.09 11.29.1 16.7.1h10.47c4.63 0 6.6-.32 9.57-.79 1.01-.16 2.13-.33 3.48-.52 3.78-.51 8.22-.62 13.71-.62l7.22.02h2.52c6.26-.05 10.48-1.86 14.96-3.78 1.6-.7 3.27-1.4 5.08-2.07 6.88-2.5 13.4-2.93 18.14-1.23 3.62 1.31 6 2.82 8.77 4.56l1.64 1.03c3.68 2.27 6.44 5.1 8.82 12.2 2.05 6.05 4.58 10.97 6.18 13.15.78 1.08 3.69 4.62 8.15 5 2.29.2 4.96.3 7.93.3 1.84 0 3.6-.04 5.2-.1a134.6 134.6 0 0 1 15.86.47c3.63.41 8.38 2.36 12.98 4.25l3.32 1.34c5.84 2.31 9.42 4.05 12.75 6.2.97.62 2.04 1.44 3.27 2.38 3.27 2.49 7.76 5.91 15.3 9.69 7 3.53 12.42 5.03 18.1 5.03 1.8 0 3.69-.14 5.96-.44a1062.5 1062.5 0 0 0 27.03-4.07c3.34-.55 6.3-1.31 9.44-2.12a135 135 0 0 1 7.86-1.85c6.22-1.24 24.96-5.48 31.62-7.12 3.21-.78 9.26-2.33 15.77-3.99 7.55-1.92 15.71-4 20.82-5.26 9.39-2.3 14.16-7.85 15.44-17.96l2.25-18.19c1.2-9.73 2.33-18.91 2.75-22.01.64-4.61 1.01-7.65 1.46-11.36l.2-1.6c.56-4.56 1.24-9.93 2.34-16.18 1.25-7.08 3.81-12.27 6.14-16.41 2.72-4.83 4.13-6.46 8.58-11.38 4.41-4.87 5.3-6.43 6.1-9.25.77-2.72 1.41-5.37 2.14-8.44l.37-1.52c.34-1.43.66-3 .97-4.54.5-2.44.96-4.76 1.52-6.5.85-2.67 3.27-6.62 5.22-9.8l.58-.95c1.4-2.29 4.29-7.24 6.84-11.62l2.6-4.45c2.36-4.05 1.78-7.51 1.35-10.04l-.16-1-.04-.32c-.35-2.45-1.07-7.54-1.89-9.88-.8-2.3-5.17-12.86-7.37-18.13-1.44-3.44-2.24-5.35-3.95-10.25-1.54-4.44-4.82-7.15-7.16-8.13-.97-.4-2.05-.8-3.19-1.21a61.01 61.01 0 0 1-7.04-2.93c-6.97-3.6-11.47-6.16-13.36-7.63-2.18-1.7-4.99-6.23-7.92-11.13l-1.07-1.78c-1.38-2.25-4-6.38-6.5-10.33l-2.67-4.22a748 748 0 0 1-8.98-14.77l-.91-1.52c-2.47-4.13-3.59-5.57-6.74-7.9a98.72 98.72 0 0 0-7.76-5.02l-2.86-1.74c-2.19-1.34-4.51-3.06-6.98-4.88-2.2-1.64-4.48-3.32-6.77-4.82-5.05-3.3-8.52-5.29-12.8-7.36l-.63-.3c-4.33-2.1-9.24-4.48-13.43-6.92-4.58-2.66-8.24-6-12.88-10.23a45.47 45.47 0 0 0-9.66-6.89l-1.36-.77c-2.78-1.57-5.41-3.06-7.67-3.92-1.54-.58-3.36-.67-5.28-.78-.9-.05-1.81-.1-2.73-.19l-2.06-.23c-2.19-.26-4.25-.5-6.65-.5-3.19 0-9.56.47-13.62.9-3.19.35-8.02.42-13.6.5l-5.98.11c-6.02.13-11.68.59-15.81.92-1.52.13-2.85.24-3.96.31-2.07.14-5.29.92-8.4 1.69-2.89.7-5.62 1.37-7.48 1.53-3.28.29-6.6 1.15-11.11 2.87-3.13 1.2-8.46 4.97-12.36 7.72-1.28.91-2.46 1.74-3.42 2.4a528.5 528.5 0 0 0-11.8 8.4l-3.42 2.47a959.24 959.24 0 0 0-9.45 6.99 907.36 907.36 0 0 1-9.21 6.82l-4.36 3.17a330.78 330.78 0 0 1-7.03 5.05c-3.05 2.09-4.61 3.03-9.78 3.65-4.87.6-18.5 3.24-24.7 4.52l-40.87 8.45a1107.6 1107.6 0 0 0-23.63 5.37 1385.62 1385.62 0 0 1-44.73 9.8c-2.88.52-9.77 2.15-15.85 3.58-2.8.67-5.42 1.28-7.36 1.73l-.82.19c-2.51.57-4.68 1.08-9.06 1.29l-1.8.07c-3.95.15-7.37.28-11.34 2.24-4.38 2.17-8.76 7.06-7.9 14.29.65 5.4 1.16 8.75 1.75 12.62.29 1.84.58 3.77.91 6.07.86 5.94 1.5 9.14 2.48 13.98l.56 2.79c.52 2.6 1.14 5.4 1.73 8.05.9 4.06 1.68 7.57 1.94 9.62.48 3.77-.02 7.84-1.48 12.1-1.1 3.2-2.99 7.26-4.81 11.18l-1.83 3.95c-1.81 4.02-1.9 9.25-1.94 12.05l-.03 1.16c-.07 2.3.28 5.83 1.08 7.86Z"/>
  <path stroke="#cd9c53" stroke-miterlimit="10"
        d="M1292.38 1345.29c1.31-1.1 2.68-2.26 4.11-3.49 4.67-3.98 9.96-8.5 17.36-13.99 7.7-5.73 18.58-7.93 30.1-10.26 3.42-.69 6.95-1.4 10.4-2.21 15.95-3.76 22.69-7.45 25.28-9.32l1.21-.86c2.94-2.07 5.25-3.72 7.05-6.84 2.45-4.25 4.59-7.59 7.06-10.1 1.26-1.29 2.81-2.06 4.59-2.95a34.06 34.06 0 0 0 7.61-4.88c5.19-4.45 13.19-15.15 18.45-22.96 2.44-3.62 3.84-6.79 4.1-9.74.69-7.69-2.97-11.1-6.76-15.9"/>
  <path stroke="#cd9c53" stroke-miterlimit="10"
        d="m665.12 788.84.4 2.02.56 2.77c.53 2.65 1.16 5.5 1.76 8.19a144.4 144.4 0 0 1 1.84 9.01c.35 2.73-.05 5.76-1.17 9.03-.98 2.86-2.8 6.75-4.54 10.52a417 417 0 0 0-1.86 4.01c-2.4 5.3-2.5 11.45-2.55 14.75l-.02 1.04c-.1 3.06.33 7.52 1.54 10.59a79.7 79.7 0 0 0 4.42 9.1c1.4 2.5 3.58 4.57 5.7 6.58 1.32 1.27 2.58 2.46 3.44 3.57 1.45 1.87 4.6 5.6 7.92 9.54 2.67 3.16 5.38 6.37 7.14 8.54 1.9 2.33 3.38 4.34 4.94 6.47 1.57 2.12 3.18 4.31 5.24 6.87 1.8 2.23 5 6.13 8.55 10.46 4.38 5.35 9.3 11.37 12.84 15.74 6.63 8.21 16.05 19.45 22.6 26.34 7.95 8.38 18.97 8.62 24.88 8.76 2.84.06 8.2.1 16.86.1l10.46-.02c5.16 0 7.57-.38 10.63-.86.97-.15 2.04-.32 3.34-.5 3.4-.46 7.58-.56 12.8-.56l7.21.02h2.56c7.64-.05 12.7-2.23 17.6-4.33a88.1 88.1 0 0 1 4.73-1.93c5.25-1.9 10.4-2.34 13.5-1.22 2.92 1.05 4.82 2.25 7.45 3.9l1.7 1.07c2.19 1.35 4.02 2.85 5.95 8.58 2.44 7.21 5.36 12.59 7.12 15 1.22 1.66 5.75 7.14 13.07 7.76 2.48.22 5.35.32 8.51.32 1.92 0 3.76-.04 5.42-.1.9-.02 1.98-.03 3.17-.03 4.45 0 9.06.18 11.72.48 2.68.29 7.19 2.14 11.15 3.77l3.4 1.38c5.4 2.13 8.64 3.69 11.56 5.58.75.48 1.72 1.22 2.85 2.07a96.68 96.68 0 0 0 16.36 10.37c8.02 4.03 14.35 5.75 21.16 5.75 2.1 0 4.28-.16 6.85-.5a1105.1 1105.1 0 0 0 27.24-4.1c3.64-.6 6.89-1.44 10.03-2.24 2.4-.62 4.87-1.26 7.49-1.78 6.47-1.28 25.1-5.5 31.92-7.18 3.22-.79 9.29-2.34 15.83-4.01 7.52-1.92 15.67-3.99 20.75-5.24 13.33-3.42 17.72-2.25 26.42.03 5.27 1.39 10.72 1.26 18.05-.41 7.32-1.67 16.93-4.44 24.07-6.05 10.27-2.32 13.69-2.3 22.49 6.87 4.81 5.02 5.27 5.86 7.54 8.27 3.29 3.49 6.15 6.63 8.61 9.34a202 202 0 0 0 9.92 9.94 214.7 214.7 0 0 1 8.4 8.33c2.4 2.57 6.3 6.6 10.43 10.87 5.55 5.73 11.83 12.23 15.92 16.66 4.22 4.59 6.63 7.14 8.52 9.13 1.32 1.39 2.38 2.51 3.63 3.88 3.33 3.64 11.25 11.81 17.39 16.72 1.37 1.1 2.69 2.11 3.98 3.1 4.32 3.31 8.05 6.16 12.8 11.56l2.08 2.38c6.78 7.71 18.12 20.62 23.94 27.01l1.77 1.95c5.93 6.52 12.66 13.91 16.46 18.71 4.12 5.2 16.38 19.64 23.02 26.52 5.84 6.05 15.61 16.17 20.76 21.88a551.71 551.71 0 0 1 17.01 20.09c2.61 3.28 6.5 7.22 10.26 11.03 1.98 2.01 3.93 3.98 5.62 5.79 2.05 2.19 4.28 4.86 6.87 7.96 3.42 4.09 7.3 8.74 12.29 14.14a13912.64 13912.64 0 0 1 41.38 45.08c4.09 4.45 7.92 8.62 10.93 11.98 4.65 5.2 8.58 11.6 16.04 30.48 2.07 5.26 5.13 12.96 8.56 21.62 9.21 23.22 21.82 55.02 24.5 62.23 6.25 16.77 11.78 34.67 17.41 56.31l.23.88c4.14 15.93 6.22 23.93 16.06 45.77 7.39 16.41 11.17 26.73 15.54 38.69 1.4 3.81 2.85 7.79 4.5 12.18 6.39 16.97 6.95 20.08.51 44.57l-.38 1.43c-6.49 24.68-10.79 40.99-11.62 68.71-.51 17.06-.46 30.93-.42 42.07.02 6.89.05 12.33-.08 16.43"/>
  <path stroke="#0066ad" stroke-linejoin="round"
        d="M435.78 712.8c.72.2 1.36.36 1.95.5 2.73.7 4.7 1.2 9.5 3.66 7.04 3.62 12.49 6.13 15.78 7.25 2.78.94 12.27 2.94 28.2 5.95 9.06 1.7 12.13 6.79 13.8 11.03 1.8 4.59.26 9.83-.82 12.54a1220.8 1220.8 0 0 0-5.31 13.86c-1.49 3.95-1.84 5.93-1.7 9.67.13 3.86.98 18.46 1.62 22.88.44 3.06 3.06 7.06 7.77 11.9a100.2 100.2 0 0 0 12.12 10.82c4.1 3 11.35 1.3 16.15.17 3.2-.76 9.6-2.47 16.38-4.28 4.58-1.22 9.31-2.48 13.32-3.52 9.74-2.53 11.68-2.37 15.93-2.02l.62.05c4.59.36 8.6 2.3 10.7 5.19.87 1.17 1.66 2.5 2.42 3.78a51.79 51.79 0 0 0 2.05 3.26c.8 1.14 3.54 3.67 12 9.23 6.4 4.22 8.57 10.57 9.3 13.98.81 3.86 1.21 5.7 1.92 8.9.62 2.81 1.31 3.75 2.12 4.84.9 1.21 2.24 3.01 5.06 6.64 2.2 2.85 4.23 3.51 9.1 5.1l1.92.64c6.26 2.09 8.66 2.43 12.44.68 1.1-.51 4.39-2.02 8.04-3.6a357.82 357.82 0 0 0 11.86-5.4c1.26-.64 2.47-1.24 3.67-1.81l2.54-1.24c3.68-1.81 5.06-2.5 14.05-4.54 11-2.5 14.96-3.92 22.98-6.78l4.56-1.66c5.53-2.02 9.9-3.62 13.75-4.32 4.66-.84 9.39-.62 17.6.15l6.53.62c8.71.83 20.65 1.96 26.95 2.5 8.97.74 12.77-3.31 17.02-11.56a339.4 339.4 0 0 1 2.35-4.48c2.48-4.66 3.97-7.48 5.86-13.43 1.7-5.36 3.04-9.8 4.11-13.38l1.16-3.82c.8-2.6 1.52-3.56 2.97-5.47.6-.8 1.31-1.72 2.16-2.95.82-1.17 1.59-2.33 2.32-3.43 1.75-2.63 3.4-5.11 4.59-6.1 2.55-2.12 5.57-4.12 12-3.47 3.52.37 6.9.81 10.18 1.25 3.4.45 6.61.87 9.84 1.19 7.05.69 11.68-2.28 15.63-5.6l2.16-1.81c4.36-3.65 10.34-8.65 12.42-10.78l.35-.36c2.28-2.35 5.12-5.26 9.73-6.24 5.33-1.11 9.62-1.15 12.08-.1a13.39 13.39 0 0 1 6.8 5.94l.7 1.16c1.98 3.33 3.85 6.48 7.08 7.99 3.52 1.65 6.3 1.57 10.5 1.46 2.5-.08 4.64 1.02 6.69 2.08.97.5 1.89.97 2.82 1.3 3.58 1.27 8.2 2.67 12.38 2.3l1.11-.1c3.6-.3 6.7-.56 9.6-2.8a84.44 84.44 0 0 0 2.95-2.4c1.21-1 2.36-1.96 3.89-3.04 2.08-1.47 3.06-1.5 5.43-1.6l1.42-.04c2.48-.1 4.45-.16 7.16-1.11 1.26-.45 2.74-1.04 4.16-1.61 1.67-.67 3.24-1.3 4.22-1.6a9.32 9.32 0 0 1 7.02 1.2 47.01 47.01 0 0 1 10.21 8.83c1.16 1.3 2.19 2.41 3.1 3.39 2.12 2.27 3.53 3.77 4.09 5.2.51 1.26.77 2.41.99 3.43.19.82.34 1.53.6 2.16.3.7.86 1.62 1.51 2.68.56.92 1.15 1.88 1.46 2.56.25.54.52 1.3.81 2.07.57 1.57 1.12 3.06 1.77 3.95.86 1.2 2.03 2.82 6.57 5.26 1.24.67 2.23 1.18 3.09 1.62a31.44 31.44 0 0 1 4.78 2.81l1.06.81c2.18 1.68 4.88 3.77 9.52 3.88 4.66.1 5.88.28 9.11 1l3.57.77c2.14.46 4.17.89 5.41 1.22 1.73.47 2.36.87 4.28 2.34 1.48 1.14 4.01 2.9 6.25 4.46l2.46 1.72a90.71 90.71 0 0 0 11.1 6.4c3.36 1.51 12.88 4.5 15.95 5.43l4.27 1.31a474.3 474.3 0 0 0 14.54 4.35c4.94 1.34 8.32 2.1 11.91 2.92l2.33.53c4.34 1 16.42 4.1 24.22 6.36 6.31 1.82 15.53 4.14 22.63 7 9.23 3.72 13.28 5.99 20.84 11.16a653.36 653.36 0 0 0 26.76 17.12c6.17 3.68 12.07 11.02 17.67 12.85 5.61 1.82 8.83 2.72 15.66 7.5 6.84 4.8 10.87 7.73 16.47 14.23 5.6 6.49 7.17 8.02 13.58 12.81 6.41 4.8 23.94 17.15 31.36 22.62 7.43 5.48 33.57 24.79 42.44 31.1 8.87 6.33 23.13 16.65 31.15 22.42 8.02 5.77 24.8 17.93 33.97 24.78 9.16 6.85 20.99 13.64 38.93 13.69 17.94.06 20.99-1.35 36.66.8 15.68 2.14 26.71 2.54 34.64 2.83 7.92.28 41.07 1.24 54.77 2.37 13.69 1.13 21.76 1.7 36.35 4.16 14.6 2.46 48.1 8.02 57.04 9.42 40.35 6.33 73.35 11.58 93.1 15.33s33.5 9 43.25 26 17.75 42.5 39.5 47c20.39 4.22 41 3.83 53.59 23.54"/>
  <path stroke="#ec7404" stroke-linejoin="round"
        d="M666.91 860.45c1.32-.68 2.6-1.3 3.86-1.9l2.45-1.2c4.39-2.17 6.22-2.95 15.55-5.07a151.82 151.82 0 0 0 22.07-6.52c1.71-.6 3.21-1.16 4.64-1.68 5.84-2.13 10.45-3.82 14.88-4.62 5.92-1.08 12.05-.63 19.44.06l6.54.62c8.7.83 20.6 1.97 26.87 2.49 4.78.4 6.62-.53 10.4-7.89.9-1.75 1.69-3.23 2.4-4.56 2.37-4.46 3.68-6.93 5.38-12.3 1.7-5.31 3.02-9.72 4.09-13.27l1.16-3.85c1.15-3.76 2.43-5.46 4.06-7.6a80.28 80.28 0 0 0 4.22-6.02c2.21-3.33 3.96-5.95 5.92-7.58 3.57-2.96 8.4-5.88 17.04-5 3.62.38 7.05.83 10.37 1.27 3.35.44 6.5.86 9.61 1.17 4.34.43 7.17-1.16 10.6-4.03l2.17-1.82c3.77-3.16 10.08-8.44 11.92-10.32l.34-.35c2.61-2.69 6.56-6.75 13.2-8.15 6.88-1.45 12.32-1.35 16.16.3a20.07 20.07 0 0 1 9.94 8.67l.72 1.2c1.44 2.41 2.79 4.69 4.12 5.31 1.97.92 3.45.93 7.44.82 4.27-.14 7.57 1.59 9.98 2.83.77.4 1.49.77 1.99.94 1.71.61 6.28 2.23 9.5 1.94l1.14-.1c3.27-.28 4.76-.44 6-1.4a85.94 85.94 0 0 0 2.76-2.24 62.83 62.83 0 0 1 4.33-3.38c3.74-2.64 6.35-2.74 9.1-2.84l1.43-.05c2.2-.08 3.41-.12 5.15-.73 1.17-.41 2.55-.97 3.87-1.5 1.82-.73 3.55-1.43 4.84-1.8 2.96-.87 8.02-.89 12.55 1.95 4.16 2.6 7.99 5.9 11.69 10.08 1.11 1.25 2.11 2.32 2.99 3.26 2.55 2.73 4.39 4.7 5.43 7.31a27.41 27.41 0 0 1 1.31 4.48c.09.42.16.78.26 1.08.11.22.65 1.1 1.01 1.68.67 1.1 1.36 2.23 1.84 3.27.31.68.66 1.61 1.02 2.59.28.76.74 2.03.96 2.41.46.62 1.05 1.44 4.21 3.14 1.19.64 2.16 1.14 2.98 1.56a38.03 38.03 0 0 1 6.89 4.28c1.88 1.45 3.11 2.4 5.51 2.46 5.08.12 6.79.36 10.44 1.17l3.5.75c2.24.48 4.36.93 5.78 1.32 2.89.78 4.3 1.71 6.64 3.5a189.7 189.7 0 0 0 6 4.28c.94.65 1.81 1.25 2.5 1.75a84.34 84.34 0 0 0 9.97 5.75c2.52 1.13 10.52 3.72 15.13 5.11l4.31 1.33c4.26 1.32 10.09 3.13 14.3 4.28 4.81 1.3 7.98 2.02 11.64 2.85l2.35.53a614.23 614.23 0 0 1 24.58 6.46c1.45.33 9.31 2.6 11.75 3.43 4.28 1.46 7.97 2.72 11.21 3.1 4.87.56 9.92-.75 15.87-4.15 4.73-2.7 10.05-7.18 15.69-11.93l2.78-2.33c3.3-2.77 7.49-6.49 11.54-10.1 3.99-3.55 7.77-6.9 10.49-9.16l.75-.62c4.99-4.15 7.74-6.43 12.71-8.51 5.38-2.25 13.64-4.67 20.72-4.72 6.79-.04 12.08.11 20.02.43 2.07.08 4.87.22 7.9.37 7.43.36 17.59.86 19.88.63 4.57-.4 15.55-1.6 20.09-2.78 10.27-2.66 16.98-3.85 26.71.17 9.74 4.02 9.51 7.13 26.6 7.98 17.09.85 28.32 1.61 36.21 1.9 7.9.3 28.18 1.38 38.93 1.89 10.76.5 33.9 1.64 42.13 2.06 8.24.43 16.67.26 27.36-1.44 10.69-1.7 18.11-3.5 26.09-4.47 7.98-.96 34.49-4.95 48.74-7.24 14.26-2.3 73.11-11.55 82.34-12.9 55.29-8.13 91.63-14.46 113.29-18.13 21.67-3.66 31.34-10.66 57.34-14.33 26-3.67 42.99 0 70.33-4.33 27.33-4.34 135-20 159-24.67 24-4.67 39.82-3.72 60.33-2.33 54.34 3.66 52.67-17.67 66.67-59.67"/>
  <path stroke="#6a2" stroke-miterlimit="10"
        d="M684.65 29.66c.58 5.1.54 7.66.66 11.5.18 5.63.01 11.35-.58 21.75-1 17.5-2.44 44.5-3.44 58.25s-.67 18.02 3 23.5c4.44 6.63 17 8.25 26.26 2.75 9.25-5.5 10.18-14.25 12.18-26.5 3.24-19.84 20.75-19.25 42.5-9 15.38 7.25 28.75 15.25 56.5 25.25s80.75 28.75 106 38.25 29.75 11.5 52.7 34.17c7.58 7.47 25.58 24.33 34.19 33.5 8.6 9.16 22.55 22.66 30.78 32.76a8458.5 8458.5 0 0 0 30.27 37c7.07 8.55 26.77 32.6 32.88 39.9 6.11 7.3 12.13 14.38 14.34 17.86 2.21 3.48 5.35 6.88 8.32 9.94 2.97 3.05 6.44 7.85 7.58 12.52 1.15 4.67.97 7.78.43 10.27-.65 3-3.1 7.03-3.1 7.03-4.94 7.67-16.8 25.52-25.46 38.56l-8.33 12.55a3692.88 3692.88 0 0 0-23.13 35.95l-9.62 15.05c-8.12 12.63-13.71 20.3-17.61 24.14-3.48 3.43-31.8 30.84-37.44 36.08-2.36 2.19-7.47 7.12-12.88 12.35-7.08 6.84-11.9 11.59-15.24 14.6-5.44 4.9-6.27 14-5.96 16.77 0 0 .15 2.7.31 3.75.5 3.18 1.34 9.51 1.72 13.32.44 4.52 1.27 11.17 16.37 9.81 2.13-.19 4.19-.37 7.05-.27 2.79.09 5.15.27 7.43.54l1.99.22c.8.08 1.6.12 2.39.17 2.24.12 4.79.25 7.31 1.2 2.75 1.05 5.73 2.74 8.62 4.37l1.34.76a51.88 51.88 0 0 1 10.91 7.79c4.81 4.39 7.96 7.19 11.72 9.38 3.97 2.3 8.75 4.62 12.98 6.67l.63.3c4.56 2.21 8.23 4.32 13.55 7.79 2.46 1.6 4.82 3.35 7.1 5.04 2.34 1.73 4.55 3.37 6.49 4.56l2.81 1.71c2.84 1.71 5.52 3.33 8.28 5.37 4.03 2.97 5.67 5.07 8.55 9.88l.91 1.53a808.29 808.29 0 0 0 8.89 14.63l2.66 4.2c2.52 3.98 5.16 8.15 6.56 10.41l1.11 1.85c1.32 2.22 4.85 8.12 6.26 9.25.7.55 3.32 2.33 12.31 6.97 1.93 1 4.12 1.8 6.25 2.57 1.23.45 2.41.89 3.46 1.32 3.82 1.59 8.71 5.62 10.99 12.18 1.63 4.7 2.4 6.54 3.79 9.86.66 1.58 6.48 15.5 7.52 18.51.95 2.74 1.64 7.2 2.19 11.17l.05.32.13.82c.5 2.94 1.43 8.42-2.19 14.6l-2.59 4.45a893.5 893.5 0 0 1-6.91 11.73l-.59.97c-1.56 2.56-3.93 6.43-4.53 8.31-.45 1.4-.9 3.63-1.34 5.79-.33 1.62-.66 3.27-1.02 4.78l-.37 1.51a212.1 212.1 0 0 1-2.21 8.7c-1.24 4.4-3.07 6.96-7.6 11.96-4.31 4.77-5.19 6-7.7 10.16-2.57 4.28-3.74 8.03-4.78 12.14-.83 3.28-1.21 6.13-1.7 9.72l-.06.45c-.54 4.01-1.36 10.07 2.08 13.64 2.6 2.7 5.39 5.7 8.07 8.7l4.77 5.31c11.65 13.02 35.91 40.1 43.87 48.56 9.4 10 17.03 18.13 22.56 24.22 2.94 3.25 6.4 6.56 9.75 9.77 2.93 2.81 5.96 5.71 8.54 8.47 2.37 2.55 6.26 6.57 10.38 10.82 5.57 5.75 11.87 12.26 15.98 16.73 4.2 4.56 6.61 7.1 8.49 9.09a253.6 253.6 0 0 1 3.67 3.92c3.27 3.57 11.03 11.58 17 16.36 1.36 1.08 2.65 2.08 3.93 3.06 4.28 3.27 8.31 6.36 13.29 12.02l2.08 2.37c6.77 7.71 18.1 20.6 23.9 26.97l1.76 1.94c5.98 6.57 12.75 14 16.62 18.9 4.59 5.79 16.63 19.87 22.8 26.27 5.85 6.06 15.65 16.21 20.84 21.97a560.2 560.2 0 0 1 17.14 20.23c2.51 3.15 6.33 7.02 10.02 10.77 2 2.03 3.97 4.03 5.68 5.86 2.12 2.26 4.38 4.96 7 8.1 3.4 4.06 7.25 8.67 12.18 14.01 8.4 9.11 26 28.25 33.09 36.04 2.77 3.04 5.59 6.1 8.3 9.05 4.1 4.46 7.94 8.64 10.96 12.02 4.91 5.49 9.02 12.14 16.66 31.49l8.57 21.61c9.21 23.24 21.83 55.06 24.52 62.3 6.29 16.89 11.86 34.89 17.52 56.65l.22.88c3.59 13.77 5.51 21.19 11.94 36.29"/>
  <path stroke="#992746" stroke-miterlimit="10"
        d="m434.9 716.09 2 .52c2.6.65 4.33 1.09 8.78 3.38 5 2.57 11.88 5.96 16.23 7.44 2.97 1.01 12.35 3 28.67 6.07 7.35 1.39 9.76 5.11 11.26 8.94 1.38 3.5.08 7.79-.81 10.04-1.06 2.65-3.78 9.79-5.33 13.92-1.64 4.34-2.07 6.81-1.92 10.99.14 4.02.99 18.63 1.65 23.24.56 3.83 3.4 8.35 8.7 13.78a103.6 103.6 0 0 0 12.55 11.2c5.36 3.93 13.53 2 18.94.73 3.25-.77 9.67-2.48 16.48-4.3 4.56-1.22 9.3-2.48 13.3-3.52 9.18-2.38 10.82-2.25 14.79-1.92l.63.05c4.26.34 7.05 2.19 8.23 3.8a43.47 43.47 0 0 1 2.24 3.51c.69 1.17 1.4 2.38 2.19 3.49.91 1.3 3.25 3.76 12.9 10.11 5.4 3.55 7.23 8.94 7.85 11.84.82 3.88 1.21 5.72 1.92 8.92.78 3.53 1.76 4.85 2.73 6.16.88 1.2 2.24 3.02 5.09 6.69 2.85 3.67 5.65 4.59 10.73 6.25l1.9.63c3.63 1.2 6.34 1.97 8.94 1.97 1.95 0 3.84-.44 6-1.44a398 398 0 0 1 8-3.58c1.78-.77 10.24-4.6 12.03-5.47 1.22-.63 2.4-1.22 3.57-1.77l2.59-1.26c3.51-1.73 4.7-2.32 13.3-4.27 11.2-2.55 15.48-4.08 23.37-6.9l4.59-1.67c5.37-1.96 9.62-3.52 13.19-4.16 4.26-.78 8.77-.56 16.66.18l6.53.63c8.72.83 20.67 1.96 26.99 2.5 11.9.99 16.56-6.08 20.32-13.4.88-1.7 1.65-3.14 2.33-4.44 2.48-4.66 4.12-7.74 6.1-13.99 1.72-5.38 3.06-9.84 4.13-13.43l1.15-3.81c.62-2.02 1.04-2.57 2.43-4.4a84.9 84.9 0 0 0 2.25-3.07c.83-1.19 1.6-2.37 2.35-3.48 1.4-2.1 3.13-4.7 3.93-5.37 1.76-1.46 3.94-3.27 9.49-2.7 3.46.35 6.82.8 10.07 1.23 3.44.45 6.68.88 9.95 1.2 8.34.83 13.86-2.76 18.16-6.38l2.16-1.8c5.51-4.62 10.63-8.94 12.66-11.01l.36-.37c2.16-2.22 4.4-4.52 7.99-5.28 5.31-1.12 8.67-.89 10.04-.3 2.1.9 3.64 1.94 5.23 4.57l.68 1.14c2.16 3.63 4.4 7.38 8.57 9.33 4.25 1.99 7.68 1.9 12.03 1.78 1.65-.03 3.3.8 5.04 1.7a26.8 26.8 0 0 0 3.25 1.49c3.9 1.38 9 2.9 13.8 2.48l1.11-.1c3.96-.34 7.71-.65 11.38-3.5a98 98 0 0 0 3.06-2.48c1.21-1 2.25-1.88 3.67-2.87 1.26-.9 1.4-.9 3.6-.98l1.41-.05c2.56-.1 4.97-.18 8.17-1.3 1.3-.46 2.83-1.07 4.3-1.66a58.15 58.15 0 0 1 3.91-1.48 6.03 6.03 0 0 1 4.25.81 43.7 43.7 0 0 1 9.48 8.2 188.5 188.5 0 0 0 3.16 3.45c1.65 1.78 3.09 3.31 3.41 4.13.41 1.02.62 1.99.83 2.92.21.94.41 1.83.78 2.73.4.94 1.02 1.96 1.75 3.14.46.77 1.04 1.72 1.27 2.22.22.47.45 1.13.7 1.8.66 1.81 1.28 3.51 2.21 4.79 1.26 1.75 2.89 3.67 7.71 6.26 1.26.68 2.28 1.2 3.15 1.64a28.82 28.82 0 0 1 5.32 3.3c2.44 1.87 5.77 4.44 11.51 4.58 4.6.1 5.63.3 8.46.92l3.6.78c2.1.44 4.08.86 5.23 1.17 1.06.3 1.25.35 3.1 1.76 1.54 1.19 4.11 2.97 6.37 4.55l2.44 1.7a93.78 93.78 0 0 0 11.68 6.74c3.53 1.59 13.01 4.56 16.36 5.57l4.24 1.3c4.33 1.35 10.26 3.2 14.65 4.39 5.02 1.36 8.44 2.13 12.05 2.96l2.33.52c4.79 1.16 8.53 2.13 12.99 3.31 3.46.92 10.87 3.96 13.75 8.06 2.82 4 3.75 7.7 1.67 14.12-1.14 3.51-2.35 5.63-6.85 10.6-4.35 4.81-5.59 6.26-8.15 10.78a46.09 46.09 0 0 0-4.35 11 80.36 80.36 0 0 0-1.63 9.35l-.04.34c-.47 3.46-1.16 8.54 1.14 10.93a362.7 362.7 0 0 1 8.16 8.78l4.77 5.33c11.64 13 35.88 40.05 43.81 48.49a1943.83 1943.83 0 0 1 22.6 24.27c2.86 3.15 6.28 6.42 9.58 9.59a221.1 221.1 0 0 1 8.68 8.61c2.35 2.52 6.23 6.53 10.34 10.77 5.58 5.76 11.9 12.29 16.04 16.79 4.18 4.55 6.58 7.08 8.45 9.06 1.36 1.42 2.44 2.56 3.72 3.96 2.57 2.82 10.58 11.18 16.61 16.01 1.33 1.06 2.61 2.04 3.87 3 4.41 3.38 8.58 6.57 13.77 12.48l2.09 2.37c6.76 7.7 18.07 20.58 23.85 26.93l1.77 1.94c6.01 6.6 12.82 14.09 16.77 19.07 4.44 5.61 16.57 19.8 22.58 26.02 5.87 6.08 15.69 16.26 20.92 22.06a338.3 338.3 0 0 1 13.02 15.19 49.08 49.08 0 0 0 2.41 2.93c4.23 5.35 6.69 10.57 7.29 15.5.63 5.16.56 11.49-4.69 19.28-5.39 7.98-13.61 18.97-19.06 23.64a36.87 36.87 0 0 1-8.31 5.33c-1.57.79-2.82 1.41-3.68 2.29-2.22 2.26-4.22 5.4-6.54 9.42-2.17 3.78-5.02 5.79-8.03 7.92l-1.19.85c-2.8 2.01-9.96 5.97-26.49 9.86-3.5.83-7.05 1.55-10.49 2.24-11.14 2.25-21.67 4.38-28.76 9.65-7.3 5.42-12.54 9.9-17.17 13.85a458.45 458.45 0 0 1-4.15 3.52"/>
  <path stroke="#007734" stroke-linejoin="round"
        d="M644.35 1326.63c15.45-4.59 52.8-16.3 66.03-20.37 13.25-4.08 16.61-8.66 21.03-25.07 4.4-16.41 9.39-32.37 13.63-41.71 4.25-9.33 11.2-22.91 19.92-33.04 8.72-10.13 15.83-16.17 20.07-23.13 4.25-6.96 9-10.35 12.9-14.13a650.86 650.86 0 0 0 20.38-21.01c5.39-5.94 17.78-19.44 24.19-27.16 6.4-7.73 13.5-18.97 17.6-28.48 4.12-9.51 5.8-17.82 4.95-24.19M916.48 536c-3.6-3.26-7.56-5.19-14.47-5.56-6.9-.37-13.5-.73-15.3-.86-1.77-.13-6.7-.72-12-1.7-5.3-.97-17.19-3.35-24.06-4.5a148.04 148.04 0 0 0-22.03-2.08c-8.83-.22-30.5.74-41.6 1.3-11.08.57-26.98 1.25-32.75 1.55-5.78.3-11.38.72-15.11.76-3.74.05-6.58-.63-12.65-3.86-6.07-3.22-20.85-11.23-25.66-14.4a21.63 21.63 0 0 1-8.6-10.7c-1.47-3.73-8.66-20.98-11.04-26.53-2.37-5.55-6.1-13.64-8.43-19.47-2.32-5.82-9.4-19.91-12.05-24.16-2.66-4.24-4.97-8.93-17.15-13.17s-31.18-10.48-41.47-14.27c-10.3-3.8-13.19-6.11-20.71-14.6-7.53-8.49-22.19-24.73-31.35-35.25-9.17-10.53-26.82-30.73-32.2-37.35A73.78 73.78 0 0 1 507 293.72c-3.06-6.5-7.81-12.9-17.94-15.17-10.13-2.26-25.35-5.88-28.8-16.23-3.45-10.36-5.04-16.41-5.5-18.79"/>
  <path stroke="#816da6" stroke-linejoin="round"
        d="M84.15 1347.91c2.5.17 25.83 2.5 36.97 3.97 6.83.89 12.73.64 15.83.17 3.1-.47 29.54-4.03 47.4-6.67 17.87-2.63 53.1-7.63 72.53-11.2 19.44-3.56 23.77-13.07 31.75-24.19 7.97-11.12 25-34.03 28.64-39.21 3.65-5.18 8.7-13.03 14.69-16.38 5.98-3.36 18.63-9.98 25.63-14.22 7-4.25 22.64-11.82 30.95-18.89 8.3-7.07 13.04-10.87 17.79-15.2 6.31-5.76 11.57-12.51 13.31-16.93 1.74-4.41 3.69-16.84 4.58-21.34.89-4.5-.3-7.81 12.18-23.9 12.48-16.08 112-145.89 121.8-158.22 9.79-12.34 22.75-20.77 28.74-34.46 6-13.7 5.89-15.17 9.96-19.98 4.08-4.81 7.05-7.9 13.12-13.11 6.06-5.22 6.86-7.09 10.14-13.03 3.28-5.94 5.26-8.94 10.07-15.28 4.81-6.34 4.59-10.86 16.68-16.68 9.22-4.43 8.78-3.87 13.75-6.31 3.2-1.57 6.23-2.56 7.8-3.37 1.3-.66 2.53-1.28 3.76-1.87l2.5-1.21c3.94-1.94 5.42-2.67 14.8-4.8 10.8-2.46 14.7-3.86 22.47-6.64 1.71-.61 3.23-1.16 4.66-1.69 5.68-2.08 10.17-3.72 14.31-4.47 5.02-.91 10.18-.68 18.52.1l6.54.63c8.7.83 20.63 1.96 26.9 2.49 7.2.6 9.94-2.38 13.72-9.73.89-1.73 1.67-3.2 2.37-4.51 2.38-4.5 3.83-7.2 5.63-12.86 1.7-5.34 3.02-9.77 4.1-13.33l1.15-3.84c.97-3.18 1.99-4.51 3.52-6.53.58-.76 1.26-1.65 2.07-2.83.8-1.15 1.56-2.3 2.28-3.37 2.05-3.1 3.68-5.54 5.25-6.84 3.19-2.65 7.15-4.99 14.53-4.23 3.56.37 6.97.82 10.27 1.25 3.37.45 6.56.87 9.72 1.18 5.5.54 9.1-1.44 13.12-4.81l2.16-1.82c4.07-3.4 10.2-8.54 12.17-10.54l.35-.36c2.46-2.54 5.84-6 11.46-7.2 4.25-.89 10.15-1.6 14.13.1a16.69 16.69 0 0 1 8.36 7.31l.7 1.18c1.8 3 3.33 5.59 5.61 6.65 2.69 1.25 4.68 1.25 8.97 1.14 3.35-.07 6.14 1.32 8.34 2.46.87.44 1.69.87 2.4 1.12 1.91.68 6.97 2.48 10.94 2.12l1.13-.1c3.44-.3 5.7-.49 7.8-2.1 1.1-.86 2-1.6 2.86-2.32a59.04 59.04 0 0 1 4.1-3.22c2.91-2.05 4.65-2.11 7.27-2.2l1.42-.06c2.37-.09 3.93-.14 6.16-.92 1.21-.43 2.64-1 4.01-1.56 1.75-.7 3.4-1.36 4.53-1.7a12.8 12.8 0 0 1 9.78 1.58 50.07 50.07 0 0 1 10.95 9.45 178.7 178.7 0 0 0 3.05 3.33c2.38 2.55 3.95 4.24 4.76 6.25.61 1.52.91 2.87 1.15 3.96.15.67.28 1.24.42 1.6.19.45.76 1.38 1.27 2.2a32.25 32.25 0 0 1 1.65 2.91c.28.6.59 1.45.91 2.33.4 1.1.96 2.62 1.33 3.13.7.98 1.58 2.19 5.42 4.25 1.22.66 2.2 1.16 3.04 1.6a34.74 34.74 0 0 1 6.37 3.95c2.05 1.58 4 3.08 7.51 3.16 4.83.12 6.34.32 9.78 1.09 1.15.26 2.36.51 3.53.76 2.19.47 4.27.9 5.6 1.27 2.33.63 3.35 1.3 5.46 2.92 1.42 1.1 3.92 2.83 6.12 4.37l2.48 1.73a86.8 86.8 0 0 0 10.54 6.08c2.69 1.21 10.71 3.8 15.54 5.27l4.28 1.32a472.51 472.51 0 0 0 14.43 4.3c4.87 1.33 8.22 2.1 11.77 2.9l2.34.53c4.37 1 16.55 4.14 24.4 6.4 1.17.35 9.19 2.58 11.59 3.4 4.46 1.52 8.32 2.83 11.91 3.25.87.1 1.74.15 2.62.15 4.8 0 9.74-1.53 15.34-4.72 4.99-2.85 10.43-7.43 16.19-12.28l2.77-2.33c3.35-2.8 7.55-6.54 11.62-10.16 3.97-3.53 7.72-6.87 10.4-9.1l.75-.61c4.89-4.07 7.35-6.1 11.85-8 5.08-2.12 12.85-4.4 19.42-4.44 6.74-.05 11.99.1 19.88.42 2.06.08 4.84.22 7.87.37 8.36.4 17.84.88 20.39.61 4.28-.46 6.72-.4 9.22-1.15 2.73-.81 10.57-3.94 14.71-12.44 3.58-7.34 5.04-12.12 4.19-17.86-.8-5.39-5.9-13.67-7.17-18.59-1.28-4.92-3.18-15.53-5.28-26.34-2.09-10.81-6.05-25.01-6.73-29.94-.68-4.92-2.04-14.82-4.19-24.38-2.14-9.57-6.51-28.52-7.69-34.01a87.3 87.3 0 0 0-8.04-21.9c-4.35-8.15-10.21-14.6-14.03-19.6-3.82-5.01-19.46-25.84-23.88-31.21a3249.6 3249.6 0 0 1-23.71-30.1"/>
  <path stroke="#816da6" stroke-linejoin="round"
        d="M1348.12 734.69c-1.45-7.6-2.98-14.26 0-25.68 2.97-11.41 5.94-16.08 9.04-21.85 3.1-5.77 20.45-38.54 26.73-50.42 6.28-11.89 20.46-39.56 27.59-52.29a1442.88 1442.88 0 0 0 19.18-35.05"/>
  <path stroke="#007734" stroke-miterlimit="10"
        d="M977.07 616.78c-.44-3.93.7-13.93 7.06-19.67 3.3-2.97 8.1-7.7 15.16-14.52a1251.6 1251.6 0 0 1 12.93-12.4c5.63-5.22 33.89-32.59 37.36-36 3.67-3.62 9.27-11.32 17.14-23.57l9.62-15.03a3676.84 3676.84 0 0 1 23.15-36l8.34-12.56c8.65-13.02 20.51-30.87 25.43-38.52l2.73-4.23c5.06-7.84 8.41-13.02 9.55-15.92 1.51-3.85 2.54-6.17 6.04-9.3 2.76-2.48 3.98-4.25 6.21-7.46l.91-1.3c1.65-2.37 3.45-5.01 5.37-7.86 1.37-2.02 2.81-4.15 4.32-6.34a1106.8 1106.8 0 0 0 11.72-17.92l4.31-6.64c1.48-2.25 2.83-4.72 4.14-7.1 1.54-2.81 2.86-5.24 4.15-6.88 2.29-2.92 7.64-10.5 10.46-14.62 1.44-2.1 4.24-6.52 7.22-11.2a663.8 663.8 0 0 1 7.94-12.33c1.29-1.9 2.96-4.46 4.65-7.05 3.12-4.78 6.06-9.3 7.28-10.75l.57-.67c2.48-2.96 8.31-9.9 11.15-12.41 11.76-10.4 36.4-32.38 58.13-51.77a9962.23 9962.23 0 0 1 42.26-37.63l2.25-1.98c6.28-5.56 10.07-8.9 25.57-14.99 6.75-2.64 22.79-8.97 40.28-15.86 26.48-10.43 56.49-22.26 62.23-24.47 11.7-4.52 19.72-8.46 23.18-11.38"/>
  <path stroke="#b0d3c0" d="M1294.17 1346.03c-.97.74-2.14 1.61-3.41 2.54"/>
  <path stroke="#b0d3c0" stroke-dasharray="8.64 5.76"
        d="M1286.06 1351.91c-4.02 2.8-8.16 5.49-10.47 6.57-5.1 2.38-8.38 5.94-13.19 9.57a6695.7 6695.7 0 0 1-44.02 32.08c-9.56 6.9-40.2 29.41-49.4 35.73-23.33 16.05-24 56.39.17 63.55 31.21 9.26 49.08 10.5 65.58 9 14.56-1.32 34-12.58 50.05-21.74"/>
  <path stroke="#cd9c53" stroke-linejoin="round"
        d="M1287.65 1085.83c2.37 2.55 6.12 5.51 9.6 5.89 3.48.39 10.29 1.32 17.89-.8 7.6-2.12 38.62-11.29 47.87-14.13 9.25-2.85 8.96-1.66 17.02 1.23 8.06 2.88 18.93 6.79 23.13 8.44 4.2 1.66 6.87 2.59 10.1 8.79 3.23 6.19 5.22 9.84 6.2 11.71"/>
</svg>