<svg xmlns="http://www.w3.org/2000/svg" xmlns:xlink="http://www.w3.org/1999/xlink" xmlns:serif="http://www.serif.com/" width="2064" height="2064" viewBox="0 0 2064 1611" version="1.1" xml:space="preserve" style="fill-rule:evenodd;clip-rule:evenodd;">
    <g>





        <g>

            <g>
                <g id="BAHN_ALL_NEW_OK_------------">

                    <g id="U5lücke_6_">
                        <g>
                            <path d="M938.022,794.397C939.631,794.263 951.009,793.247 952.429,793.14C957.66,792.743 968.496,791.471 971.851,791.174C972.303,791.134 972.853,791.109 973.479,791.094C977.5,790.995 984.678,791.297 989.415,790.601C990.45,790.448 991.542,790.225 992.66,789.943C997.454,788.737 1002.71,786.468 1005.92,784.163C1007.8,782.809 1010.02,781.12 1012.23,779.365" style="fill:none;fill-rule:nonzero;stroke:#805233;stroke-width:2.83px;stroke-linejoin:round;"/>
                            <path d="M1014.42,777.601C1015.57,776.663 1016.66,775.734 1017.67,774.851" style="fill:none;fill-rule:nonzero;stroke:#b8a496;stroke-width:2.83px;stroke-linejoin:round;"/>
                        </g>
                    </g>
                    <path id="U7_11_" d="M1238.86,1239.43C1236.32,1237.05 1233.43,1233.26 1231.51,1230.83C1229.59,1228.39 1222.12,1219.17 1220.14,1216.63C1218.16,1214.08 1214.78,1211.11 1211.08,1209.28C1207.39,1207.46 1205.56,1206.52 1199.96,1206.99C1194.36,1207.46 1182.9,1208.3 1178.19,1208.26C1173.48,1208.22 1157.61,1205.36 1152.29,1202.98C1146.97,1200.61 1130.67,1189.24 1125.86,1181.71C1121.05,1174.18 1116.69,1162.41 1113.36,1149.18C1110.02,1135.93 1107.8,1130.24 1108.8,1127.16C1109.99,1123.51 1114.12,1119.03 1115.08,1115.96C1116.27,1112.14 1116.35,1110.91 1116.61,1107.26C1116.86,1103.61 1117.42,1098.05 1116.91,1093.55C1116.4,1089.05 1115.13,1081.58 1114.36,1077.42C1113.6,1073.27 1112.41,1069.36 1112.37,1066.22C1112.32,1063.08 1113.98,1058.92 1113.17,1056.42C1112.37,1053.91 1108.16,1044.87 1106.3,1040.8C1104.43,1036.73 1102.73,1032.14 1100.53,1028.32C1098.32,1024.5 1096.79,1022.42 1096.45,1019.96C1096.11,1017.5 1095.73,1014.53 1095.22,1009.52C1094.71,1004.51 1093.78,996.493 1093.36,992.845C1092.93,989.193 1091.11,983.423 1090.51,981.808C1089.92,980.195 1087.46,970.902 1086.36,968.484C1085.25,966.064 1082.88,960.421 1082.41,959.529C1081.94,958.638 1076.97,952.911 1075.53,951.212C1074.09,949.515 1072.17,947.618 1068.72,944.902C1065.26,942.185 1052.66,932.624 1050.79,931.263C1048.92,929.906 1044.77,927.572 1042.6,926.597C1040.43,925.618 1037.97,924.939 1031.95,923.624C1025.92,922.308 1013.15,919.423 1010.51,918.872C1007.88,918.318 1006.06,917.597 1003.22,916.243C1000.37,914.884 999.101,914.798 997.062,914.884C995.025,914.966 993.412,914.798 989.974,913.611C986.536,912.423 957.507,902.986 955,902.181C952.498,901.374 945.979,898.476 948.045,893.581C948.983,891.361 951.341,888.784 950.858,886.351C950.379,883.919 949.934,882.228 946.23,880.726C942.521,879.228 939.837,877.769 935.679,877.88C931.521,877.995 927.041,878.226 924.589,878.786C921.886,879.4 918.349,882.702 917.007,886.597C916.23,888.851 915.916,890.601 915.494,891.521C914.289,894.144 911.603,898.669 906.31,899.095C901.021,899.519 899.863,900.144 899.183,900.398C898.502,900.652 897.088,901.419 895.646,903.849C894.205,906.281 891.857,908.829 888.713,909.593C885.572,910.355 881.101,911.033 878.556,911.431C876.009,911.829 873.15,910.726 869.306,911.376C865.455,912.025 857.606,913.355 850.435,914.544C843.261,915.732 826.751,918.275 821.448,919.21C816.142,920.144 811.941,920.611 805.448,922.267C798.955,923.923 795.814,924.56 791.656,926.087C787.497,927.616 785.205,928.462 781.64,928.505C778.075,928.55 772.983,928.761 771.285,928.804C769.587,928.845 767.764,928.761 765.472,926.597C763.18,924.429 758.341,920.118 755.965,917.515C753.589,914.911 751.551,912.253 748.834,909.198C746.118,906.142 741.762,900.652 739.667,897.597C737.573,894.54 735.977,892.347 735.084,887.468C734.193,882.587 732.708,876.263 732.325,873.591C731.943,870.917 731.985,866.673 732.622,862.642C733.26,858.61 733.6,857.591 732.665,852.498C731.731,847.405 730.926,842.652 730.118,837.941C729.312,833.229 726.935,821.487 726.03,815.66C725.125,809.834 728.067,805.983 729.142,802.76C730.217,799.533 731.441,796.57 731.102,790.289C730.762,784.008 730.498,776.222 729.652,772.6C728.802,768.979 728.464,769.148 728.464,764.621C728.464,760.094 728.69,756.811 726.144,753.305C723.597,749.796 720.768,747.702 718.956,745.158C717.145,742.61 714.882,737.632 714.145,733.615C713.41,729.596 713.906,724.376 713.184,720.514C712.461,716.652 709.661,710.582 702.787,709.268C695.912,707.953 688.443,706.253 683.816,706.126C679.191,705.999 672.527,706.126 668.581,705.999C664.634,705.871 651.648,704.811 649.018,704.755C646.386,704.696 637.361,705.403 635.012,705.744C632.664,706.084 620.158,705.546 612.915,704.754C605.673,703.962 587.523,701.798 582.939,701.373C578.355,700.948 565.284,699.378 562.356,699.038C559.426,698.7 548.86,696.109 544.913,695.811C540.967,695.514 536.341,695.642 525.222,698.783C514.104,701.925 509.053,703.084 505.235,703.962C501.416,704.838 497.425,705.518 493.041,703.311C488.656,701.105 484.81,698.702 481.752,698.332C478.696,697.965 475.357,698.614 472.049,699.52C468.737,700.424 464.252,698.898 460.733,697.086C456.829,695.076 452.868,693.858 449.556,695.416C446.245,696.973 443.553,699.685 443.134,703.423C442.851,705.943 442.426,710.778 441.606,713.439" style="fill:none;fill-rule:nonzero;stroke:#009bd5;stroke-width:2.83px;stroke-linejoin:round;stroke-miterlimit:10;"/>
                    <path id="s2_6_" d="M1023.98,1582.91C1020.48,1565.91 1000.98,1479.91 995.236,1444.61C994.183,1438.13 991.078,1424.49 989.802,1418.55C988.531,1412.61 984.285,1400.38 980.128,1388.76C975.968,1377.13 965.839,1349.99 958.255,1330.64C950.675,1311.29 944.224,1291.48 939.302,1277.23C934.378,1262.97 918.08,1216.96 912.65,1201.85C907.218,1186.75 888.546,1133.9 885.66,1125.97C882.775,1118.05 877.453,1102.83 875.812,1098.02C874.173,1093.21 867.947,1077.25 866.193,1072.39C864.439,1067.52 864.267,1062.82 863.759,1055.75C863.251,1048.67 863.646,1045.51 866.306,1038.04C868.966,1030.57 876.619,1008.84 878.656,1002.98C880.693,997.128 883.791,988.935 885.234,983.63C886.677,978.322 888.882,972.425 891.175,966.017C893.468,959.609 899.07,943.144 900.597,938.984C902.123,934.824 904.218,928.769 904.841,926.169C905.464,923.567 906.31,920.738 906.423,916.749C906.537,912.759 907.236,899.072 907.472,892.757C907.603,889.255 911.664,883.286 912.853,881.943C914.041,880.6 916.744,877.853 917.701,877.24L918.289,876.863C921.959,874.513 925.757,872.085 927.709,867.999C929.558,864.134 932.148,857.742 933.488,854.038C934.904,850.114 935.5,847.867 932.42,843.584C929.793,839.928 924.066,832.602 921.705,829.626C920.361,827.934 920.49,826.347 920.859,823.457C920.947,822.769 921.037,822.055 921.103,821.301C921.265,819.478 922.255,811.973 922.519,808.942C922.974,803.784 924.154,803.451 925.787,802.989C927.787,802.426 928.652,802.343 934.283,801.799L936.582,801.574C942.609,800.988 948.312,791.416 947.396,783.166C947.396,783.166 947.468,777.661 949.98,774.761C951.64,772.845 961.562,767.25 963.357,762.282C963.943,760.66 964.402,758.761 965.031,756.758C966.648,751.587 965.945,749.702 964.402,745.573L964.322,745.355C962.718,741.064 960.279,736.676 956.865,731.941C954.041,728.029 952.228,726.019 948.937,722.37L947.187,720.427C942.531,715.241 939.876,712.911 936.803,710.214C933.67,707.465 932.333,705.338 930.848,700.728C929.251,695.774 928.729,693.668 928.295,687.79C927.581,678.123 927.786,676.071 934.229,668.102C940.43,660.433 948.494,659.466 958.395,658.998C968.936,658.502 972.922,657.152 976.944,652.727C980.418,648.909 979.295,634.349 978.303,627.512C978.161,626.541 978.026,625.604 977.911,624.722C977.64,622.639 977.344,619.743 977.016,616.566C976.301,609.575 975.489,601.649 974.481,597.39C972.807,590.302 967.133,582.502 956.084,572.098C944.578,561.262 909.428,529.618 890.471,512.626C869.627,493.942 818.448,448.017 802.15,433.244C788.816,421.158 782.597,412.42 774.724,401.355C773.253,399.289 771.727,397.143 770.09,394.886" style="fill:none;fill-rule:nonzero;stroke:#007734;stroke-width:2.83px;stroke-linejoin:round;stroke-miterlimit:10;"/>
                    <path id="s1_5_" d="M386.068,1218.5C392.606,1212.89 398.382,1207.95 401.429,1205.16C409.729,1197.58 411.479,1196.16 416.979,1184.79C422.302,1173.78 429.652,1165.91 435.042,1161.07C440.434,1156.23 445.779,1153.26 453.461,1148.17C459.231,1144.35 461.111,1142.1 473.492,1137.73C481.429,1134.93 485.363,1133.67 491.571,1131.54C499.846,1128.69 506.028,1131.41 515.082,1137.24C524.137,1143.06 557.267,1166.89 569.658,1175.46C582.052,1184.03 586.646,1181.58 600.046,1174.36C607.236,1170.48 617.107,1165.1 633.064,1155.77C649.021,1146.43 694.12,1120.49 704.645,1114.54C715.169,1108.6 731.24,1099.66 745.838,1091.17C760.437,1082.69 767.087,1073.56 774.046,1064.65C781.006,1055.74 788.433,1045.68 792.974,1039.74C797.515,1033.8 800.657,1029.85 806.937,1021.49C813.217,1013.13 820.008,1004.01 825.27,997.005C830.533,990.002 843.166,972.855 848.088,966.121C853.011,959.388 859.859,950.746 864.145,945.228C868.431,939.71 871.358,936.697 874.286,932.707C877.217,928.72 885.196,917.345 889.227,912.082C893.258,906.82 894.969,904.16 896.272,900.964C897.571,897.767 898.627,896.519 900.118,894.738C902.17,892.289 902.389,891.601 904.571,888.226C906.436,885.343 908.745,881.775 910.825,879.101C911.263,878.538 912.104,877.663 912.104,877.663C913.434,876.225 914.665,875.149 915.866,874.381L916.458,873.999C919.879,871.811 923.106,869.743 924.643,866.532C926.448,862.761 928.981,856.51 930.293,852.883C931.481,849.592 931.84,848.598 929.661,845.57C927.096,841.999 921.297,834.578 919.045,831.742C916.745,828.848 917.107,826.021 917.487,823.028C917.569,822.382 917.655,821.71 917.719,821.003C917.879,819.184 918.866,811.684 919.135,808.647C919.688,802.345 921.575,800.647 924.864,799.717C927.157,799.071 928.196,798.97 933.959,798.412L936.254,798.189C940.399,797.915 944.815,789.999 944.233,782.415C944.233,782.415 944.762,775.594 947.412,772.533C949.962,769.591 957.982,765.833 960.314,760.415C961.003,758.815 961.154,757.76 961.787,755.738C963.058,751.681 962.703,750.737 961.22,746.761L961.138,746.543C959.642,742.539 957.343,738.412 954.111,733.929C951.394,730.168 949.628,728.205 946.414,724.646L944.66,722.696C940.139,717.662 937.556,715.393 934.564,712.767C930.972,709.617 929.283,706.944 927.613,701.768C925.935,696.557 925.439,693.339 924.916,688.155C923.732,676.415 924.863,674.281 931.589,665.963C938.664,657.21 947.844,656.091 958.238,655.6C969.07,655.09 971.593,653.563 974.431,650.441C976.824,647.808 975.734,633.487 974.939,628.003C974.796,627.015 974.658,626.061 974.541,625.164C974.269,623.058 973.968,620.127 973.64,616.914C972.97,610.367 972.134,602.219 971.179,598.175C969.687,591.862 964.152,584.362 953.757,574.577C942.275,563.764 907.15,532.14 888.207,515.162C867.358,496.476 816.174,450.544 799.869,435.766C786.264,423.434 779.95,414.563 771.958,403.331C770.491,401.27 768.973,399.136 767.342,396.888C760.818,388.084 749.8,371.279 741.652,360.584C733.505,349.889 727.171,337.914 719.361,326.711C711.552,315.507 687.05,282.403 678.562,270.067C667.967,254.67 669.249,247.144 669.48,242.993C670.652,221.751 680.151,87.084 681.485,60.084C682.819,33.084 681.485,25.083 675.152,1.75C668.819,-21.583 639.151,-121.25 625.818,-168.583C612.485,-215.916 593.151,-225.916 583.818,-244.583C574.485,-263.25 569.818,-273.25 569.818,-273.25" style="fill:none;fill-rule:nonzero;stroke:#db6ba2;stroke-width:2.83px;stroke-linejoin:round;"/>
                    <g id="U-Bahn">
                        <path id="U4_11_" d="M830.446,963.028C829.217,958.805 828.366,955.985 828.05,954.924C827.732,953.862 826.395,947.623 826.117,946.327C825.843,945.034 823.467,934.043 823.169,932.621C822.871,931.198 821.43,924.895 821.11,923.368C820.792,921.842 820.621,920.1 820.813,918.231C821.002,916.366 821.067,915.772 821.13,915.094C821.193,914.414 821.555,913.565 822.401,912.461C823.252,911.358 823.823,910.723 824.164,910.254C824.504,909.787 824.693,909.446 824.843,908.854C824.991,908.26 825.204,907.602 825.289,907.262C825.374,906.922 825.394,906.434 825.374,905.692C825.353,904.95 825.162,892.721 825.183,891.172C825.204,889.623 825.48,888.096 827.518,886.991C829.554,885.887 838.157,881.239 841.041,879.682C843.927,878.129 852.924,873.233 854.311,872.44" style="fill:none;fill-rule:nonzero;stroke:#ffd500;stroke-width:2.83px;stroke-linejoin:round;stroke-miterlimit:10;"/>
                        <path id="U5_11_" d="M1021.58,775.399C1025.19,771.961 1026.46,770.306 1031.26,772.768C1036.05,775.229 1040.14,777.296 1044.34,779.332C1048.54,781.368 1056.35,785.314 1059.19,786.504C1062.04,787.692 1065.71,788.131 1070.47,789.009C1075.22,789.885 1115.4,796.421 1126.49,798.288C1137.58,800.154 1178.83,807.003 1192.15,809.294C1205.48,811.585 1230.94,815.915 1237.4,816.934C1243.85,817.954 1252.42,820.838 1260.91,825.42C1269.39,830.005 1276.35,833.483 1279.66,835.182C1282.98,836.88 1284.08,837.644 1287.56,842.822C1291.04,848.001 1292.57,850.207 1294.94,852.669C1297.32,855.13 1301.43,857.889 1303.56,861.113C1305.68,864.338 1309.54,868.795 1311.92,874.058C1314.29,879.318 1315.48,882.884 1316.84,886.052C1318.2,889.222 1323.33,892.347 1329.49,889.886C1335.64,887.425 1358.77,877.536 1366.75,874.396C1374.73,871.257 1389.07,865.613 1394.51,862.769C1399.94,859.925 1406.99,856.346 1414.06,847.802C1421.13,839.256 1424.7,833.828 1430.98,827.039C1437.27,820.248 1440.97,816.073 1447.09,816.159C1453.19,816.243 1456.89,816.884 1459.82,816.331C1462.75,815.778 1469.5,808.615 1474.72,804.499C1479.94,800.383 1483.12,797.965 1485.71,795.8C1488.3,793.636 1492.75,789.307 1492.2,780.012C1491.65,770.718 1491.31,761.722 1492.45,756.714C1493.6,751.706 1498.93,733.329 1500.52,729.028C1502.1,724.727 1505.22,721.898 1509.86,719.579C1514.49,717.259 1529.88,710.184 1536.85,707.242C1543.81,704.302 1558.91,698.868 1565.96,697.087C1573,695.305 1581.15,693.381 1588.79,693.89C1596.43,694.399 1605.14,695.586 1615.1,699.661" style="fill:none;fill-rule:nonzero;stroke:#805233;stroke-width:2.83px;stroke-linejoin:round;stroke-miterlimit:10;"/>
                        <path id="U55_14_" d="M901.235,755.525C902,757.18 903.78,762.06 904.377,764.395C904.969,766.729 907.391,773.645 908.235,776.32C909.088,778.994 910.825,785.19 911.674,786.844C912.524,788.499 916.469,793.635 921.352,794.569C926.229,795.504 929.075,795.333 934.676,794.739C935.502,794.651 936.358,794.563 937.231,794.476" style="fill:#ebebeb;fill-rule:nonzero;stroke:#805233;stroke-width:2.83px;stroke-linejoin:round;stroke-miterlimit:10;"/>
                        <path id="U6_11_" d="M668.17,471.2C669.307,473.002 670.489,474.768 671.568,476.515C673.35,479.403 676.518,485.002 678.555,489.219C680.593,493.434 684.016,499.998 684.639,501.385C685.26,502.772 686.93,505.911 688.004,507.864C689.079,509.816 690.353,510.922 691.966,514.09C693.578,517.258 696.013,522.407 698.898,528.067C701.784,533.725 703.822,536.385 707.669,540.43C711.516,544.476 724.772,558.823 728.294,562.682C731.815,566.544 734.149,567.69 742.129,570.831C750.108,573.972 756.346,576.517 759.105,577.45C761.864,578.385 765.641,579.53 771.709,582.247C777.777,584.963 788.728,589.462 792.065,590.933C795.403,592.405 797.003,593.112 801.29,597.102C805.575,601.09 816.964,611.787 829.355,623.329C841.748,634.873 851.253,643.927 855.555,647.831C859.856,651.736 881.414,671.768 888.487,678.442C895.559,685.121 903.539,693.212 908.914,698.812C914.291,704.416 919.778,711.093 923.399,716.072C927.02,721.051 936.159,732.778 939.256,736.895C942.356,741.011 944.18,743.514 945.58,745.382C946.979,747.25 947.446,748.523 947.746,752.045C948.043,755.566 949.059,765.115 949.612,770.507C950.164,775.896 951.35,787.879 951.86,792.631C952.371,797.384 954.01,815.436 954.688,823.073C955.369,830.713 957.178,845.878 957.576,850.347C957.972,854.817 959.246,867.605 959.629,871C960.008,874.395 960.221,879.869 957.635,883.772C955.043,887.676 954.281,888.78 953.051,891.287C951.819,893.789 950.504,896.166 949.613,898.457C948.722,900.75 946.387,907.241 945.497,913.143C944.603,919.041 944.181,928.717 944.138,933.514C944.097,938.309 944.267,939.582 944.65,941.069C945.031,942.553 945.199,943.741 945.244,947.475C945.285,951.209 945.031,964.239 944.947,968.95C944.859,973.659 944.564,986.391 944.478,989.489C944.392,992.59 943.417,993.989 943.29,996.877C943.163,999.762 943.204,1011.56 943.29,1015.68C943.376,1019.79 943.376,1022.85 943.333,1024.97C943.29,1027.09 943.079,1029.21 942.439,1033.54C941.802,1037.87 939.425,1054 939.001,1057.01C938.577,1060.03 938.363,1062.66 938.745,1065.97C939.13,1069.28 940.144,1077.76 940.441,1080.95C940.741,1084.13 942.269,1097.37 942.65,1100.89C943.034,1104.41 944.347,1115.4 944.601,1117.4C944.855,1119.39 945.495,1122.88 945.96,1125C946.427,1127.12 947.443,1131.36 947.952,1133.53C948.193,1134.56 948.427,1135.78 948.632,1137.03" style="fill:none;fill-rule:nonzero;stroke:#816da6;stroke-width:2.83px;stroke-linejoin:round;stroke-miterlimit:10;"/>
                        <path id="U8_11_" d="M812.856,443.751C809.282,443.996 805.989,444.23 804.303,444.362C800.526,444.659 798.87,445.888 797.003,447.205C795.136,448.52 791.358,451.449 789.787,452.766C788.219,454.081 786.859,455.227 785.884,456.966C784.907,458.707 782.405,463.459 781.471,466.43C780.536,469.402 780.92,472.966 781.811,475.429C782.702,477.889 786.564,485.231 788.346,487.565C790.128,489.901 794.287,494.867 796.367,499.195C798.446,503.522 800.781,510.144 801.631,514.429C802.479,518.716 803.199,523.299 803.922,525.761C804.643,528.222 808.08,533.017 812.834,533.614C817.588,534.208 826.84,535.055 833.246,536.796C839.654,538.535 852.67,541.676 856.911,542.129C861.155,542.582 863.974,542.908 866.689,543.12C869.404,543.332 872.587,544.392 873.648,547.449C874.709,550.505 881.244,571.299 882.603,575.373C883.962,579.447 885.404,584.711 888.798,588.785C892.194,592.857 905.292,609.239 909.085,614.05C912.876,618.86 917.855,626.838 919.777,629.215C921.701,631.591 924.208,633.403 927.134,634.25C929.523,634.942 933.257,637.222 935.607,639.216C937.529,640.849 940.999,644.719 942.523,646.247C944.052,647.772 948.127,649.388 949.823,651.255C951.52,653.122 952.965,655.414 953.303,657.408C953.641,659.402 953.344,662.5 953.77,664.41C954.196,666.32 955.737,668.907 957.293,670.634C958.848,672.362 962.809,680.877 964.038,683.465C965.27,686.055 969.811,695.986 972.017,700.526C974.224,705.068 975.328,707.232 976.558,712.836C977.787,718.438 978.72,723.868 979.867,726.033C981.013,728.197 984.82,735.456 986.634,739.075C988.441,742.696 990.353,746.554 990.734,747.57C991.117,748.591 992.06,751.627 993.853,753.502C996.15,755.902 1000.48,757.293 1002.85,758.46C1004.22,759.13 1007.39,760.824 1008.35,761.585C1012.17,764.585 1015.65,767.763 1016.91,768.981C1018.48,770.481 1024.91,772.731 1028.48,778.606C1029.35,780.051 1032.76,784.969 1033.79,786.606C1036.1,790.294 1034.88,794.7 1034.16,797.231C1033.1,800.981 1030.73,804.669 1030.01,806.922C1029.22,809.397 1027.86,816.344 1026.93,818.579C1025.99,820.813 1021.95,829.585 1021.07,831.564C1020.19,833.545 1015.24,843.815 1013.97,846.418C1012.69,849.02 1010.99,852.527 1009.57,855.725C1008.16,858.922 1009.66,860.848 1011.61,861.779C1013.56,862.714 1024.63,867.976 1027.23,869.251C1029.83,870.524 1030.09,872.476 1031,874.115C1031.9,875.756 1033.88,880.624 1034.45,882.094C1035.01,883.567 1036.1,884.414 1036.83,885.115C1037.55,885.814 1037.86,887.068 1038.05,888.214C1038.25,889.36 1039.05,892.691 1039.69,894.39C1040.33,896.085 1045.31,909.173 1046.33,911.945C1047.35,914.717 1049.5,920.148 1049.84,921.255C1050.18,922.357 1050.21,923.46 1049.7,924.703C1049.19,925.949 1047.78,929.458 1047.63,930.533C1047.49,931.609 1047.52,933.73 1047.92,935.597C1048.31,937.464 1048.94,939.896 1048.96,942.105C1048.99,944.31 1049.11,948.415 1049.25,950.251C1049.39,952.093 1049.87,954.638 1050.35,956.929C1050.83,959.222 1052.02,964.966 1052.47,967.031C1052.92,969.096 1054.74,975.886 1055.55,978.744C1056.38,981.601 1057.9,986.099 1058.67,988.533C1059.43,990.968 1063.86,1004.9 1065,1008.34C1065.28,1009.18 1065.81,1010.69 1066.45,1012.53" style="fill:none;fill-rule:nonzero;stroke:#005a98;stroke-width:2.83px;stroke-linejoin:round;stroke-miterlimit:10;"/>
                        <path id="U9_11_" d="M767.613,1063.32C768.526,1060.64 769.376,1058.24 770.096,1056.71C771.537,1053.66 775.599,1046.92 779.673,1039.85C783.747,1032.78 786.405,1028.42 787.313,1026.84C788.218,1025.25 788.727,1022.65 788.727,1020.16C788.727,1017.67 788.839,1002.22 788.839,1000.07C788.839,997.922 789.915,995.207 789.745,992.657C789.575,990.114 789.179,986.493 789.009,984.739C788.839,982.983 789.067,975.343 789.009,970.139C788.952,964.932 789.122,959.952 789.237,957.971C789.349,955.991 789.917,953.784 791.049,951.239C792.181,948.69 794.5,944.28 795.01,942.637C795.519,940.995 796.198,939.186 796.142,936.074C796.085,932.964 796.029,919.779 795.859,915.476C795.689,911.175 795.519,895.898 795.294,889.447C795.067,882.996 795.701,874.63 795.815,871.912C795.928,869.195 796.481,863.037 797.523,857.662C798.25,853.917 804.416,843.985 805.856,841.121C808.981,834.912 821.982,816.218 824.315,810.912C826.65,805.606 828.199,799.457 827.648,794.746C827.095,790.035 823.785,773.222 823.446,769.994C823.106,766.769 822.597,760.318 823.403,756.542C824.211,752.766 823.913,744.958 823.87,741.604C823.827,738.25 823.785,724.204 823.827,720.086C823.87,715.971 826.02,712.222 827.152,707.356C828.284,702.489 829.019,697.566 834.452,692.304C839.885,687.041 844.325,682.528 848.485,680.237C852.643,677.945 856.547,676.461 860.879,672.894C865.204,669.331 870.596,664.322 875.307,659.442C880.02,654.561 891.901,642.044 895.764,638.308C899.624,634.574 903.004,631.815 904.506,628.136C905.94,624.624 908.348,618.367 910.336,614.005" style="fill:none;fill-rule:nonzero;stroke:#f08a00;stroke-width:2.83px;stroke-linejoin:round;stroke-miterlimit:10;"/>
                        <path id="U3_11_" d="M558.623,1114.63C560.351,1112.96 567.281,1105.69 570.464,1102.25C573.649,1098.81 578.402,1095.12 580.355,1093.81C582.306,1092.49 586.847,1090.11 589.776,1088.84C592.704,1087.57 601.192,1085.96 606.284,1086.34C611.377,1086.72 623.43,1088.08 628.31,1088.59C633.191,1089.1 644.139,1090.32 648.511,1090.75C652.881,1091.17 656.657,1089.77 659.204,1088.16C661.751,1086.55 664.637,1084.42 668.838,1081.45C673.039,1078.48 673.975,1076.4 675.246,1074.24C676.518,1072.08 680.254,1064.82 681.823,1062.06C683.394,1059.3 686.196,1055.23 687.257,1051.71C688.319,1048.18 689.548,1043.3 690.778,1038.59C692.009,1033.88 695.701,1030.91 698.418,1029.13C701.135,1027.35 707.501,1023.61 710.344,1023.01C713.188,1022.42 727.573,1020.73 729.739,1019.84C731.904,1018.94 735.046,1015.85 737.506,1013.55C739.969,1011.26 743.66,1006 745.823,1002.82C747.988,999.634 750.959,992.337 751.214,989.917C751.47,987.497 751.427,983.763 751.13,980.154C750.832,976.55 747.818,968.822 746.631,965.513C745.443,962.202 745.823,961.353 746.844,958.722C747.863,956.089 748.555,954.068 748.725,949.314C748.895,944.562 749.63,925.55 749.913,917.968C750.195,910.386 755.457,908.687 758.852,906.876C762.247,905.064 768.443,901.388 771.923,899.308C775.402,897.23 780.07,894.06 782.675,892.392C785.278,890.724 789.577,889.986 791.134,889.73C792.691,889.476 794.36,889.111 794.756,887.806C795.152,886.505 795.859,885.175 797.02,883.904C798.179,882.632 800.443,880.425 802.182,878.599C803.922,876.773 804.686,875.968 806.383,873.462C808.08,870.96 809.967,868.011 812.022,864.872C814.313,861.372 817.23,859.33 819.897,859.747C821.875,860.057 823.71,860.88 828.824,862.584C829.885,862.981 831.008,863.385 832.137,863.778L838.623,866.032C844.129,867.942 847.894,869.229 849.985,869.975C853.903,871.375 855.802,870.319 858.215,868.985C859.657,868.186 860.85,867.539 861.942,866.942L864.247,865.68C865.536,864.961 865.706,864.866 867.739,865.731C870.895,867.071 878.838,870.436 880.219,871.092C882.518,872.182 884.725,872.162 886.96,871.029C888.35,870.324 888.981,870.001 891.689,870.583C895.023,871.298 898.935,872.044 902.666,872.161C906.257,872.273 913.494,872.529 915.052,872.585C916.496,872.638 917.164,872.771 918.627,873.064C920.511,873.439 921.815,873.22 922.736,872.988C923.148,872.884 923.65,872.933 924.877,873.177C926.168,873.435 927.312,873.753 928.671,874.142L928.974,874.23C930.259,874.603 931.589,874.988 933.742,874.556C936.326,874.033 938.904,874.24 941.398,875.167C942.984,875.759 944.695,876.452 946.332,877.113C948.469,877.978 950.484,878.798 951.982,879.292C953.943,879.938 955.945,880.257 958.109,880.257C959.336,880.257 960.613,880.154 961.963,879.952C964.538,879.564 967.026,878.986 968.842,878.564C969.711,878.363 970.43,878.195 970.93,878.103C972.184,877.876 974.09,877.738 976.448,877.707L980.254,877.67C986.307,877.612 997.571,877.506 1000.73,877.41C1003.67,877.317 1007.08,877.078 1009.83,876.885C1010.95,876.807 1011.97,876.735 1012.79,876.686C1015.01,876.553 1015.91,876.639 1017.27,876.77L1018.13,876.852C1020.38,877.049 1022.32,876.623 1024.1,876.168C1025.27,875.869 1028.83,874.955 1032.83,874.689C1034.92,874.55 1038.79,874.46 1042.53,874.374C1045.54,874.306 1048.52,874.234 1050.57,874.142C1055.59,873.91 1059.52,873.609 1061.37,873.316C1062.91,873.068 1064.09,873.222 1065.15,873.398C1066.26,873.585 1066.91,873.435 1068.2,873.138C1068.57,873.052 1069.01,872.95 1069.57,872.831C1071.23,872.476 1079.75,870.402 1085.98,868.89C1088.66,868.238 1090.79,867.72 1091.46,867.562C1093.71,867.029 1094.85,866.488 1096.05,865.736C1096.48,865.462 1097.25,865.462 1097.99,865.726C1099.84,866.388 1101.16,866.583 1102.27,866.355C1103.88,866.027 1104.91,865.005 1106.05,863.462C1107.14,861.99 1108.81,859.827 1109.63,858.796C1110.58,857.604 1111.89,855.432 1112.5,854.053C1112.79,853.397 1113.59,851.804 1114.4,850.194C1115.17,848.643 1115.96,847.078 1116.33,846.268" style="fill:none;fill-rule:nonzero;stroke:#00957e;stroke-width:2.83px;stroke-linejoin:round;stroke-miterlimit:10;"/>
                        <path id="U1_11_" d="M775.305,860.905C778.963,859.989 781.169,859.265 784.426,858.171C789.816,856.358 794.3,854.712 798.033,853.439C801.768,852.168 803.721,851.29 806.211,851.205C808.701,851.12 810.326,852.378 812.493,853.3C816.296,854.917 824.846,857.517 830.02,859.404C831.054,859.795 832.152,860.186 833.254,860.572L839.734,862.824C845.251,864.736 849.03,866.029 851.126,866.777C853.593,867.66 854.341,867.244 856.564,866.013C858.014,865.21 859.212,864.558 860.311,863.958L862.588,862.712C864.616,861.587 865.84,861.234 869.065,862.605C872.28,863.97 880.276,867.361 881.672,868.023C883.03,868.667 884.118,868.663 885.42,868.002C887.338,867.026 888.692,866.465 892.399,867.262C895.586,867.946 899.307,868.658 902.766,868.766C906.362,868.879 913.61,869.135 915.166,869.192C916.889,869.255 917.739,869.424 919.286,869.733C920.489,869.975 921.256,869.858 921.903,869.694C923.091,869.399 924.202,869.58 925.539,869.846C926.955,870.129 928.164,870.465 929.6,870.877L929.914,870.967C931.047,871.295 931.727,871.491 933.06,871.227C936.275,870.575 939.476,870.831 942.578,871.985C944.193,872.588 945.935,873.295 947.601,873.967C949.683,874.811 951.65,875.608 953.04,876.067C955.585,876.907 958.261,877.075 961.447,876.594C963.89,876.227 966.301,875.666 968.062,875.258C968.999,875.039 969.771,874.862 970.31,874.764C971.767,874.498 973.812,874.346 976.39,874.313L980.208,874.274C986.249,874.217 997.49,874.112 1000.61,874.016C1003.48,873.926 1006.86,873.69 1009.57,873.498C1010.71,873.418 1011.74,873.346 1012.57,873.297C1015.06,873.143 1016.17,873.254 1017.59,873.391L1018.42,873.469C1019.98,873.612 1021.37,873.358 1023.24,872.879C1024.48,872.561 1028.28,871.588 1032.59,871.301C1034.76,871.157 1038.66,871.067 1042.43,870.979C1045.42,870.912 1048.37,870.842 1050.4,870.75C1055.23,870.526 1059.12,870.231 1060.82,869.963C1063.05,869.609 1064.77,869.895 1065.7,870.049C1066.12,870.119 1066.23,870.106 1067.43,869.83C1067.81,869.739 1068.27,869.635 1068.85,869.512C1070.46,869.166 1079.31,867.016 1085.16,865.592C1087.86,864.936 1089.99,864.416 1090.66,864.258C1092.65,863.789 1093.42,863.364 1094.22,862.862C1095.57,862.014 1097.36,861.897 1099.13,862.532C1100.67,863.086 1101.32,863.086 1101.58,863.03C1101.93,862.959 1102.31,862.789 1103.31,861.44C1104.42,859.94 1106.12,857.733 1106.96,856.684C1107.73,855.713 1108.89,853.807 1109.38,852.686C1109.68,852.003 1110.51,850.349 1111.35,848.677C1112.11,847.166 1112.87,845.641 1113.23,844.852" style="fill:none;fill-rule:nonzero;stroke:#6a2;stroke-width:2.83px;stroke-linejoin:round;stroke-miterlimit:10;"/>
                        <path id="U2_11_" d="M550.674,753.784C552.202,754.321 555.908,755.849 557.463,756.501C559.021,757.15 560.916,758.397 562.02,759.585C563.123,760.773 563.605,763.291 563.802,764.509C563.999,765.726 564.906,768.271 565.414,769.092C565.923,769.912 567.563,772.203 568.893,774.721C570.223,777.24 572.147,780.917 573.392,783.804C574.636,786.691 576.346,790.202 576.728,791.081C577.416,792.664 579.329,794.539 581.179,795.715C583.164,796.977 585.379,797.497 587.204,797.371C589.029,797.241 593.295,796.519 596.011,796.308C598.728,796.097 602.079,796.563 604.201,796.903C606.323,797.242 608.232,798.345 610.014,800.044C611.795,801.742 616.762,806.665 620.327,810.06C623.891,813.456 629.578,818.972 631.403,820.67C633.228,822.366 634.459,823.64 636.029,824.066C637.599,824.489 639.17,824.916 641.547,825.508C643.923,826.102 646.81,825.891 649.949,825.593C653.09,825.296 667.011,823.924 674.253,823.189C681.496,822.454 720.567,818.294 726.554,817.615C732.536,816.936 741.787,816.089 747.009,815.493C752.229,814.899 764.874,813.43 767.676,813.23C770.477,813.031 770.788,814.305 772.09,815.834C773.391,817.361 778.71,823.813 780.123,825.538C781.538,827.265 781.767,827.632 783.604,828.989C785.442,830.347 802.134,843.057 803.536,844.139C804.936,845.221 807.278,846.36 808.913,846.978C813.538,848.728 819.721,856.425 821.163,857.416C822.605,858.404 825.534,859.431 827.033,860.024C828.532,860.617 850.514,868.372 852.667,869.163C854.817,869.956 864.563,873.124 868.469,874.525C872.372,875.925 884.749,880.001 886.901,880.65C889.052,881.3 890.692,880.931 892.756,881.585C894.821,882.234 895.301,882.181 897.538,882.179C906.726,882.165 908.688,875.517 909.226,873.79C909.761,872.062 912.306,863.394 912.535,861.863C912.763,860.336 913.639,855.328 913.951,853.8C914.261,852.274 914.488,851.735 915.139,849.669C915.786,847.606 917.827,841.776 918.45,839.908C919.071,838.042 919.239,837.39 919.438,835.92C919.637,834.448 919.809,833.289 920.176,832.41C920.54,831.534 921.334,830.176 921.758,829.582C922.182,828.987 922.961,828.267 923.641,827.735C924.321,827.205 925.167,826.567 925.635,825.846C926.102,825.123 926.846,823.87 927.331,822.961C927.819,822.047 928.924,819.945 931.532,819.395C934.141,818.844 935.774,818.355 937.877,817.656C939.979,816.957 942.42,816.064 944.881,815.917C947.341,815.769 958.927,814.664 960.771,814.409C962.621,814.154 963.744,813.857 964.105,812.222C964.464,810.589 965.376,809.783 966.863,809.613C968.35,809.443 973.351,809.32 976.285,811.246C977.447,812.01 983.712,816.319 984.9,817.083C986.088,817.848 986.916,818.229 988.847,818.335C990.777,818.441 994.951,818.66 996.591,818.773C998.232,818.887 999.476,818.857 1000.86,818.094C1002.25,817.329 1004.51,816.022 1005.88,815.448C1007.27,814.877 1008.03,814.683 1009.18,814.091C1010.32,813.498 1011.98,812.692 1012.68,812.244C1013.37,811.8 1014.11,810.681 1014.53,808.389C1014.95,806.098 1015.24,801.373 1015.35,799.563C1015.46,797.751 1015.52,797.044 1015.66,795.262C1015.8,793.481 1015.83,792.914 1015.26,790.934C1014.7,788.953 1014.02,788.189 1013.37,787.255C1012.72,786.32 1012.15,784.342 1013.57,783.209C1014.98,782.077 1018.35,779.73 1020.01,778.567C1021.69,777.409 1022.84,775.991 1022.85,774.914C1022.87,773.449 1023.35,770.414 1019.22,766.414C1016.32,763.596 1014.77,762.776 1012.41,760.414C1011.68,759.679 1011.3,756.867 1011.85,755.039C1012.25,753.706 1012.18,752.369 1011.7,750.616C1011.22,748.861 1009.88,744.168 1009.48,742.914C1008.64,740.331 1009.56,738.081 1010.64,736.164C1011.24,735.105 1014.02,731.378 1014.73,730.33C1015.43,729.282 1015.97,728.065 1016.08,726.964C1016.19,725.86 1016.73,722.237 1016.76,721.023C1016.79,719.807 1016.62,718.759 1016.36,716.977C1016.11,715.195 1015.74,712.139 1015.63,710.045C1015.52,707.95 1015.18,702.802 1015.09,701.075C1015.01,699.348 1014.98,693.662 1014.95,690.352C1014.92,687.041 1014.95,685.145 1015.06,682.797C1015.18,680.448 1015.23,677.421 1015.35,676.118C1015.46,674.817 1015.66,673.206 1015.91,671.733C1016.17,670.261 1017.78,660.332 1018.03,658.833C1018.29,657.333 1018.54,655.099 1018.68,653.429C1018.82,651.76 1019.5,646.074 1019.64,644.29C1019.79,642.508 1020.78,634.954 1020.98,632.519C1021.17,630.086 1021.43,628.702 1021.54,627.512C1021.65,626.324 1021.55,624.484 1021.34,622.504C1021.01,619.377 1020.94,617.694 1020.86,616.477C1020.81,615.823 1020.1,613.394 1019.62,612.289C1019.13,611.185 1018.03,608.498 1017.95,607C1017.86,605.499 1017.55,600.52 1017.35,597.605C1017.15,594.691 1016.22,584.705 1015.96,582.127C1015.71,579.554 1015.68,578.847 1015.54,577.686C1015.4,576.528 1014.8,574.858 1014.3,573.669C1013.79,572.48 1013.15,570.558 1012.78,569.283" style="fill:none;fill-rule:nonzero;stroke:#e75113;stroke-width:2.83px;stroke-linejoin:round;stroke-miterlimit:10;"/>
                    </g>
                    <g id="S-Bahn">
                        <path id="s42" d="M664.243,859.516C665.213,861.972 666.714,865.059 668.472,868.208C669.612,870.253 671.609,872.15 673.538,873.984C674.899,875.277 676.309,876.615 677.325,877.927C678.735,879.744 681.857,883.445 685.164,887.361C687.85,890.544 690.575,893.771 692.346,895.952C694.288,898.347 695.793,900.39 697.386,902.556C698.923,904.644 700.512,906.804 702.528,909.302C704.325,911.531 707.514,915.421 711.064,919.751C715.449,925.103 720.383,931.124 723.918,935.501C730.506,943.663 739.854,954.814 746.33,961.636C753.313,968.986 763.026,969.204 768.829,969.335C772.523,969.417 780.175,969.427 785.607,969.427L796.071,969.421C800.964,969.421 803.147,969.074 806.172,968.599C807.165,968.443 808.259,968.269 809.582,968.089C813.179,967.601 817.48,967.501 822.837,967.501L830.053,967.519L832.594,967.511C839.541,967.468 844.073,965.521 848.87,963.46C850.437,962.785 852.058,962.091 853.776,961.464C859.826,959.263 865.672,958.824 869.592,960.236C872.863,961.417 874.997,962.761 877.7,964.466L879.374,965.515C882.481,967.437 884.687,969.753 886.762,975.902C889.073,982.744 891.786,987.763 893.409,989.982C894.407,991.351 898.127,995.857 904.014,996.361C906.405,996.566 909.17,996.671 912.239,996.671C914.114,996.671 915.92,996.632 917.542,996.579C918.467,996.55 919.592,996.534 920.827,996.534C924.294,996.534 929.542,996.665 932.915,997.036C936.075,997.384 940.608,999.243 944.991,1001.04C946.124,1001.51 947.248,1001.97 948.348,1002.4C953.967,1004.62 957.372,1006.27 960.502,1008.29C961.36,1008.85 962.381,1009.62 963.561,1010.52C966.75,1012.95 971.569,1016.62 979.391,1020.55C986.905,1024.33 992.776,1025.94 999.024,1025.94C1000.97,1025.94 1003.01,1025.79 1005.43,1025.47C1013.44,1024.41 1026.34,1022.42 1032.56,1021.39C1036.05,1020.81 1039.23,1019.99 1042.3,1019.2C1044.74,1018.57 1047.26,1017.93 1049.97,1017.39C1056.4,1016.11 1074.95,1011.91 1081.75,1010.24C1084.96,1009.45 1091.02,1007.91 1097.54,1006.24C1105.08,1004.32 1113.23,1002.24 1118.33,1000.99C1129.15,998.335 1134.87,991.714 1136.33,980.154C1136.93,975.437 1137.76,968.656 1138.59,961.952C1139.74,952.665 1140.91,943.058 1141.34,939.982C1141.97,935.355 1142.35,932.298 1142.8,928.572L1143,926.972C1143.58,922.261 1144.23,917.146 1145.32,910.978C1146.47,904.402 1148.87,899.538 1151.06,895.646C1153.62,891.122 1154.86,889.677 1159.21,884.875C1163.71,879.899 1165.05,877.817 1166.06,874.268C1166.85,871.488 1167.52,868.676 1168.23,865.701L1168.6,864.186C1168.95,862.717 1169.28,861.107 1169.6,859.526C1170.07,857.172 1170.52,854.951 1171.02,853.384C1171.75,851.107 1174.15,847.191 1175.9,844.331L1176.49,843.368C1177.9,841.052 1180.8,836.079 1183.36,831.69L1185.95,827.242C1188.94,822.127 1188.18,817.615 1187.73,814.92C1187.67,814.593 1187.62,814.287 1187.58,814.007L1187.54,813.688C1187.15,810.938 1186.42,805.818 1185.5,803.165C1184.47,800.195 1178.31,785.473 1178.05,784.848C1176.63,781.462 1175.85,779.598 1174.18,774.788C1172.27,769.292 1168.24,765.939 1165.11,764.637C1164.1,764.217 1162.97,763.804 1161.78,763.37C1159.56,762.557 1157.26,761.72 1155.13,760.622C1146.68,756.255 1143.49,754.24 1142.3,753.318C1140.44,751.879 1137.03,746.187 1135.21,743.13C1134.8,742.44 1134.43,741.821 1134.11,741.317C1132.73,739.058 1130.1,734.911 1127.59,730.95L1124.92,726.736C1122.22,722.451 1118.62,716.426 1115.99,712.03L1115.08,710.509C1112.42,706.068 1111.02,704.262 1107.44,701.618C1104.8,699.678 1102.3,698.171 1099.41,696.426C1098.51,695.88 1097.57,695.313 1096.58,694.705C1094.52,693.436 1092.25,691.758 1089.85,689.978C1087.61,688.32 1085.29,686.602 1082.91,685.052C1077.72,681.671 1074.15,679.618 1069.74,677.478L1069.11,677.172C1064.83,675.1 1059.98,672.75 1055.9,670.379C1051.63,667.896 1048.09,664.666 1043.6,660.577C1039.12,656.491 1036.17,654.836 1033.32,653.234L1031.97,652.471C1029.06,650.828 1026.32,649.278 1023.82,648.33C1021.79,647.562 1019.62,647.446 1017.52,647.335C1016.68,647.289 1015.82,647.244 1014.96,647.154C1014.27,647.082 1013.6,647.004 1012.94,646.925C1010.75,646.67 1008.49,646.406 1005.9,646.406C1002.55,646.406 996.16,646.876 991.914,647.329C988.884,647.654 984.13,647.727 978.621,647.811C976.718,647.839 974.71,647.872 972.626,647.915C966.509,648.04 960.789,648.507 956.613,648.848C955.115,648.969 953.8,649.077 952.705,649.15C950.339,649.306 946.977,650.129 943.726,650.925C941.089,651.571 938.361,652.238 936.759,652.377C933.142,652.69 929.539,653.611 924.72,655.46C921.193,656.811 915.886,660.564 911.619,663.578C910.357,664.471 909.208,665.284 908.261,665.922C905.187,667.995 900.296,671.541 896.365,674.391L892.953,676.861C890.908,678.335 887.173,681.12 883.464,683.883C879.839,686.585 876.238,689.268 874.289,690.674C872.882,691.689 871.388,692.78 869.921,693.853C867.287,695.778 864.744,697.635 862.974,698.848C860.351,700.638 859.266,701.379 854.702,701.93C849.73,702.532 835.978,705.2 829.722,706.494L788.853,714.938C782.999,716.149 773.921,718.275 765.14,720.331C758.865,721.801 752.85,723.209 748.558,724.153C733.551,727.452 723.879,729.507 720.585,730.094C717.617,730.624 710.678,732.265 704.555,733.712C701.757,734.373 699.152,734.989 697.223,735.429L696.386,735.621C693.938,736.186 692.004,736.635 687.927,736.83L686.167,736.903C682.002,737.06 678.067,737.211 673.447,739.495C668.022,742.176 662.609,748.244 663.685,757.235C664.337,762.695 664.853,766.064 665.448,769.966C665.727,771.795 666.02,773.719 666.349,776.003C667.218,782.041 667.87,785.277 668.861,790.176L669.42,792.957C669.946,795.585 670.573,798.413 671.163,801.072C672.009,804.886 672.809,808.492 673.052,810.393C673.468,813.638 673.024,817.193 671.731,820.956C670.689,823.989 668.838,827.962 667.05,831.804C666.419,833.16 665.794,834.503 665.212,835.788C663.1,840.45 663.009,846.135 662.961,849.189L662.939,850.282C662.848,852.916 663.219,856.922 664.243,859.516Z" style="fill:none;fill-rule:nonzero;stroke:#cb6418;stroke-width:2.83px;stroke-linejoin:round;stroke-miterlimit:10;"/>
                        <path id="s41" d="M667.407,858.267C668.323,860.587 669.756,863.528 671.441,866.552C672.329,868.146 674.054,869.783 675.879,871.521C677.332,872.902 678.835,874.331 680.012,875.843C681.378,877.607 684.623,881.449 687.762,885.167C690.462,888.367 693.204,891.615 694.985,893.808C696.979,896.265 698.579,898.439 700.126,900.54C701.641,902.599 703.206,904.728 705.174,907.165C706.968,909.39 710.152,913.273 713.695,917.595C718.086,922.951 723.026,928.982 726.564,933.365C732.811,941.105 742.382,952.54 748.797,959.294C754.805,965.617 763.632,965.816 768.904,965.935C772.564,966.019 780.189,966.027 785.606,966.027L796.07,966.021C800.695,966.021 802.662,965.71 805.639,965.242C806.654,965.083 807.769,964.906 809.121,964.721C812.905,964.207 817.341,964.102 822.833,964.102L830.05,964.12L832.57,964.112C838.831,964.073 843.054,962.258 847.527,960.34C849.136,959.649 850.801,958.932 852.611,958.274C859.493,955.77 866.013,955.338 870.746,957.045C874.365,958.35 876.752,959.856 879.517,961.596L881.164,962.629C884.837,964.901 887.595,967.733 889.984,974.821C892.031,980.881 894.558,985.799 896.156,987.983C896.941,989.059 899.849,992.596 904.306,992.977C906.599,993.174 909.269,993.274 912.24,993.274C914.076,993.274 915.844,993.237 917.433,993.186C918.386,993.155 919.55,993.137 920.828,993.137C924.382,993.137 929.777,993.274 933.289,993.658C936.927,994.06 941.685,996.012 946.283,997.9C947.402,998.359 948.515,998.814 949.599,999.244C955.443,1001.55 959.017,1003.29 962.347,1005.44C963.318,1006.06 964.386,1006.88 965.622,1007.82C968.894,1010.31 973.38,1013.73 980.919,1017.51C987.927,1021.04 993.341,1022.54 999.023,1022.54C1000.82,1022.54 1002.71,1022.4 1004.98,1022.1C1012.96,1021.04 1025.8,1019.06 1032.01,1018.03C1035.35,1017.48 1038.31,1016.72 1041.45,1015.91C1043.93,1015.27 1046.51,1014.61 1049.31,1014.06C1055.53,1012.82 1074.27,1008.58 1080.93,1006.94C1084.14,1006.16 1090.19,1004.61 1096.7,1002.95C1104.25,1001.03 1112.41,998.943 1117.52,997.689C1126.91,995.384 1131.68,989.845 1132.96,979.734C1133.55,975.021 1134.39,968.244 1135.21,961.542C1136.41,951.814 1137.54,942.628 1137.96,939.527C1138.6,934.919 1138.97,931.876 1139.42,928.167L1139.62,926.564C1140.18,922.015 1140.86,916.642 1141.96,910.394C1143.21,903.312 1145.77,898.123 1148.1,893.98C1150.82,889.152 1152.23,887.519 1156.68,882.597C1161.09,877.734 1161.98,876.175 1162.78,873.345C1163.55,870.63 1164.19,867.98 1164.92,864.912L1165.29,863.394C1165.63,861.962 1165.95,860.394 1166.26,858.854C1166.76,856.406 1167.22,854.094 1167.78,852.352C1168.63,849.684 1171.05,845.733 1173,842.559L1173.58,841.601C1174.98,839.313 1177.87,834.356 1180.42,829.982L1183.02,825.528C1185.38,821.479 1184.8,818.017 1184.37,815.49C1184.31,815.134 1184.26,814.801 1184.21,814.491L1184.17,814.17C1183.82,811.722 1183.1,806.629 1182.28,804.285C1181.48,801.986 1177.11,791.427 1174.91,786.162C1173.47,782.715 1172.67,780.814 1170.96,775.906C1169.42,771.468 1166.14,768.755 1163.8,767.779C1162.83,767.379 1161.75,766.983 1160.61,766.566C1158.4,765.758 1155.89,764.842 1153.57,763.645C1146.6,760.044 1142.1,757.476 1140.21,756.01C1138.03,754.317 1135.22,749.779 1132.29,744.878C1131.88,744.199 1131.52,743.594 1131.22,743.099C1129.84,740.85 1127.22,736.717 1124.72,732.772L1122.05,728.554C1119.32,724.234 1115.7,718.19 1113.07,713.778L1112.16,712.257C1109.69,708.134 1108.57,706.687 1105.42,704.357C1102.91,702.511 1100.48,701.043 1097.66,699.34C1096.74,698.788 1095.8,698.217 1094.8,697.605C1092.61,696.26 1090.29,694.54 1087.82,692.715C1085.62,691.084 1083.34,689.399 1081.05,687.903C1076,684.608 1072.53,682.613 1068.25,680.541L1067.62,680.235C1063.29,678.135 1058.38,675.756 1054.19,673.32C1049.61,670.656 1045.95,667.319 1041.31,663.093C1037.11,659.269 1034.34,657.709 1031.65,656.202L1030.29,655.432C1027.51,653.856 1024.88,652.369 1022.62,651.513C1021.08,650.932 1019.26,650.835 1017.34,650.733C1016.44,650.684 1015.53,650.635 1014.61,650.54C1013.91,650.467 1013.22,650.387 1012.55,650.308C1010.36,650.054 1008.3,649.814 1005.9,649.814C1002.71,649.814 996.342,650.284 992.278,650.717C989.092,651.059 984.264,651.132 978.674,651.218C976.776,651.247 974.774,651.279 972.695,651.322C966.681,651.446 961.021,651.907 956.89,652.244C955.371,652.367 954.036,652.475 952.927,652.55C950.859,652.686 947.642,653.474 944.532,654.237C941.643,654.945 938.913,655.614 937.051,655.773C933.768,656.056 930.444,656.916 925.936,658.644C922.807,659.841 917.477,663.611 913.583,666.363C912.297,667.272 911.124,668.101 910.159,668.752C907.137,670.792 902.27,674.318 898.36,677.152L894.94,679.628C892.905,681.095 889.186,683.866 885.495,686.617C881.852,689.334 878.237,692.028 876.276,693.441C874.876,694.451 873.385,695.54 871.924,696.606C869.236,698.571 866.695,700.427 864.891,701.664C861.842,703.746 860.277,704.69 855.107,705.314C850.236,705.903 836.616,708.547 830.407,709.833L789.538,718.278C783.728,719.479 774.672,721.6 765.911,723.651C759.619,725.126 753.59,726.537 749.284,727.483C734.019,730.838 724.564,732.846 721.18,733.451C718.304,733.967 711.411,735.596 705.331,737.032C702.523,737.696 699.908,738.314 697.974,738.756L697.148,738.945C694.637,739.525 692.468,740.027 688.086,740.238L686.291,740.312C682.335,740.462 678.918,740.591 674.95,742.553C670.567,744.719 666.192,749.61 667.057,756.84C667.703,762.246 668.213,765.591 668.805,769.464C669.085,771.301 669.379,773.234 669.71,775.528C670.565,781.471 671.211,784.672 672.189,789.512L672.75,792.299C673.271,794.903 673.895,797.708 674.479,800.345C675.379,804.408 676.158,807.916 676.42,809.971C676.902,813.739 676.404,817.81 674.941,822.072C673.84,825.274 671.954,829.33 670.128,833.251C669.502,834.597 668.882,835.929 668.305,837.204C666.485,841.222 666.402,846.446 666.357,849.255C666.35,849.694 666.343,850.083 666.334,850.408C666.259,852.705 666.608,856.241 667.407,858.267Z" style="fill:none;fill-rule:nonzero;stroke:#ad5937;stroke-width:2.83px;stroke-linejoin:round;stroke-miterlimit:10;"/>
                        <path id="s45_bbi" d="M1292.38,1345.29C1293.69,1344.19 1295.06,1343.03 1296.49,1341.8C1301.16,1337.82 1306.45,1333.3 1313.85,1327.81C1321.55,1322.08 1332.43,1319.88 1343.95,1317.55C1347.37,1316.86 1350.9,1316.15 1354.35,1315.34C1370.3,1311.58 1377.04,1307.89 1379.63,1306.02L1380.84,1305.16C1383.78,1303.09 1386.09,1301.44 1387.89,1298.32C1390.34,1294.07 1392.48,1290.73 1394.95,1288.22C1396.21,1286.93 1397.76,1286.16 1399.54,1285.27C1401.6,1284.24 1404.15,1282.96 1407.15,1280.39C1412.34,1275.94 1420.34,1265.24 1425.6,1257.43C1428.04,1253.81 1429.44,1250.64 1429.7,1247.69C1430.39,1240 1426.73,1236.59 1422.94,1231.79" style="fill:none;fill-rule:nonzero;stroke:#cd9c53;stroke-width:2.83px;stroke-miterlimit:10;"/>
                        <path id="s45_südring_2_" d="M665.118,788.836C665.249,789.489 665.386,790.159 665.525,790.857L666.083,793.631C666.613,796.28 667.245,799.134 667.84,801.815C668.669,805.553 669.452,809.086 669.677,810.834C670.026,813.557 669.634,816.594 668.512,819.858C667.528,822.723 665.716,826.613 663.965,830.377C663.328,831.743 662.698,833.098 662.111,834.393C659.707,839.699 659.609,845.843 659.557,849.145L659.536,850.177C659.432,853.24 659.87,857.704 661.079,860.766C662.101,863.357 663.672,866.59 665.499,869.863C666.893,872.363 669.079,874.441 671.194,876.453C672.523,877.716 673.777,878.906 674.637,880.016C676.09,881.889 679.235,885.614 682.564,889.557C685.234,892.721 687.944,895.93 689.704,898.098C691.598,900.428 693.077,902.442 694.645,904.573C696.205,906.692 697.815,908.885 699.878,911.44C701.678,913.67 704.872,917.567 708.427,921.905C712.807,927.252 717.739,933.266 721.268,937.639C727.899,945.852 737.316,957.086 743.863,963.979C751.821,972.356 762.836,972.604 768.752,972.737C771.59,972.8 776.945,972.832 785.606,972.832L796.07,972.823C801.228,972.823 803.643,972.442 806.7,971.961C807.675,971.809 808.744,971.639 810.04,971.463C813.445,971 817.617,970.903 822.836,970.903L830.053,970.922L832.614,970.914C840.253,970.867 845.316,968.69 850.215,966.588C851.809,965.903 853.315,965.256 854.942,964.664C860.191,962.752 865.338,962.317 868.441,963.438C871.365,964.494 873.263,965.69 875.89,967.346L877.589,968.41C879.777,969.764 881.607,971.256 883.542,976.992C885.976,984.201 888.9,989.578 890.664,991.989C891.88,993.653 896.406,999.127 903.727,999.752C906.213,999.965 909.079,1000.07 912.243,1000.07C914.157,1000.07 916.001,1000.03 917.657,999.979C918.551,999.951 919.637,999.936 920.831,999.936C925.284,999.936 929.887,1000.12 932.547,1000.42C935.233,1000.71 939.735,1002.56 943.704,1004.19C944.85,1004.66 945.989,1005.12 947.102,1005.57C952.497,1007.7 955.737,1009.26 958.665,1011.15C959.413,1011.63 960.383,1012.37 961.506,1013.22C964.795,1015.73 969.766,1019.51 977.868,1023.59C985.887,1027.62 992.215,1029.34 999.028,1029.34C1001.13,1029.34 1003.31,1029.18 1005.88,1028.84C1013.93,1027.77 1026.87,1025.77 1033.12,1024.74C1036.76,1024.14 1040.01,1023.3 1043.15,1022.5C1045.55,1021.88 1048.02,1021.24 1050.64,1020.72C1057.11,1019.44 1075.74,1015.22 1082.56,1013.54C1085.78,1012.75 1091.85,1011.2 1098.39,1009.53C1105.91,1007.61 1114.06,1005.54 1119.14,1004.29C1132.47,1000.87 1136.86,1002.04 1145.56,1004.32C1150.83,1005.71 1156.28,1005.58 1163.61,1003.91C1170.93,1002.24 1180.54,999.473 1187.68,997.864C1197.95,995.542 1201.37,995.551 1210.17,1004.73C1214.98,1009.75 1215.44,1010.59 1217.71,1013C1221,1016.49 1223.86,1019.63 1226.32,1022.34C1229.34,1025.67 1232.84,1029.03 1236.24,1032.28C1239.26,1035.17 1242.13,1037.92 1244.64,1040.61C1247.04,1043.18 1250.94,1047.21 1255.07,1051.48C1260.62,1057.21 1266.9,1063.71 1270.99,1068.14C1275.21,1072.73 1277.62,1075.28 1279.51,1077.27C1280.83,1078.66 1281.89,1079.78 1283.14,1081.15C1286.47,1084.79 1294.39,1092.96 1300.53,1097.87C1301.9,1098.97 1303.22,1099.98 1304.51,1100.97C1308.83,1104.28 1312.56,1107.13 1317.31,1112.53L1319.39,1114.91C1326.17,1122.62 1337.51,1135.53 1343.33,1141.92L1345.1,1143.87C1351.03,1150.39 1357.76,1157.78 1361.56,1162.58C1365.68,1167.78 1377.94,1182.22 1384.58,1189.1C1390.42,1195.15 1400.19,1205.27 1405.34,1210.98C1410.28,1216.46 1418.39,1226.1 1422.35,1231.07C1424.96,1234.35 1428.85,1238.29 1432.61,1242.1C1434.59,1244.11 1436.54,1246.08 1438.23,1247.89C1440.28,1250.08 1442.51,1252.75 1445.1,1255.85C1448.52,1259.94 1452.4,1264.59 1457.39,1269.99C1465.78,1279.09 1483.37,1298.23 1490.47,1306.01C1493.24,1309.05 1496.06,1312.12 1498.77,1315.07C1502.86,1319.52 1506.69,1323.69 1509.7,1327.05C1514.35,1332.25 1518.28,1338.65 1525.74,1357.53C1527.81,1362.79 1530.87,1370.49 1534.3,1379.15C1543.51,1402.37 1556.12,1434.17 1558.8,1441.38C1565.05,1458.15 1570.58,1476.05 1576.21,1497.69L1576.44,1498.57C1580.58,1514.5 1582.66,1522.5 1592.5,1544.34C1599.89,1560.75 1603.67,1571.07 1608.04,1583.03C1609.44,1586.84 1610.89,1590.82 1612.54,1595.21C1618.93,1612.18 1619.49,1615.29 1613.05,1639.78L1612.67,1641.21C1606.18,1665.89 1601.88,1682.2 1601.05,1709.92C1600.54,1726.98 1600.59,1740.85 1600.63,1751.99C1600.65,1758.88 1600.68,1764.32 1600.55,1768.42" style="fill:none;fill-rule:nonzero;stroke:#cd9c53;stroke-width:2.83px;stroke-miterlimit:10;"/>
                        <path id="s3_1_" d="M435.784,712.802C436.501,712.997 437.138,713.156 437.733,713.307C440.462,713.995 442.436,714.491 447.236,716.962C454.266,720.582 459.718,723.088 463.006,724.207C465.786,725.152 475.276,727.154 491.205,730.157C500.266,731.861 503.34,736.95 505.009,741.193C506.81,745.778 505.267,751.017 504.186,753.733C503.137,756.368 500.43,763.476 498.877,767.594C497.392,771.537 497.041,773.525 497.174,777.261C497.314,781.115 498.16,795.72 498.799,800.137C499.24,803.196 501.856,807.2 506.569,812.039C510.942,816.526 515.021,820.168 518.692,822.857C522.79,825.864 530.04,824.156 534.837,823.026C538.039,822.271 544.441,820.562 551.22,818.754C555.797,817.53 560.532,816.268 564.537,815.229C574.283,812.701 576.221,812.859 580.465,813.208L581.085,813.258C585.679,813.623 589.684,815.563 591.798,818.446C592.661,819.624 593.448,820.948 594.21,822.229C594.871,823.34 595.556,824.491 596.258,825.488C597.066,826.633 599.8,829.164 608.252,834.723C614.665,838.943 616.833,845.286 617.556,848.695C618.373,852.563 618.77,854.4 619.476,857.591C620.099,860.41 620.792,861.351 621.597,862.439C622.491,863.65 623.84,865.451 626.657,869.085C628.867,871.935 630.886,872.595 635.761,874.189L637.678,874.82C643.944,876.908 646.337,877.255 650.116,875.496C651.212,874.988 654.507,873.475 658.164,871.892C663.171,869.726 668.212,867.382 670.019,866.507C671.28,865.861 672.487,865.259 673.69,864.687C674.671,864.218 675.496,863.812 676.231,863.451C679.911,861.638 681.287,860.957 690.283,858.91C701.276,856.411 705.24,854.994 713.257,852.128C714.862,851.553 716.382,850.996 717.823,850.47C723.351,848.449 727.719,846.852 731.574,846.153C736.234,845.307 740.959,845.526 749.162,846.299L755.698,846.919C764.413,847.748 776.347,848.884 782.649,849.412C791.618,850.162 795.42,846.109 799.668,837.856C800.552,836.138 801.323,834.683 802.019,833.377C804.495,828.718 805.989,825.905 807.882,819.952C809.588,814.592 810.922,810.146 811.994,806.571L813.149,802.746C813.942,800.145 814.67,799.189 816.12,797.284C816.725,796.489 817.433,795.559 818.282,794.334C819.095,793.161 819.865,792.003 820.595,790.905C822.345,788.272 823.997,785.786 825.187,784.801C827.736,782.685 830.761,780.681 837.194,781.334C840.71,781.695 844.094,782.145 847.369,782.576C850.77,783.026 853.984,783.451 857.206,783.768C864.262,784.459 868.894,781.488 872.844,778.171L875,776.36C879.363,772.71 885.339,767.71 887.419,765.583L887.773,765.22C890.052,762.875 892.89,759.955 897.501,758.985C902.828,757.866 907.121,757.833 909.58,758.883C912.183,759.999 914.333,761.437 916.38,764.821L917.072,765.98C919.056,769.313 920.931,772.46 924.156,773.97C927.681,775.617 930.46,775.541 934.656,775.43C937.162,775.352 939.298,776.451 941.347,777.509C942.32,778.01 943.24,778.483 944.171,778.814C947.746,780.079 952.363,781.481 956.546,781.112L957.66,781.015C961.263,780.709 964.369,780.446 967.252,778.216C968.398,777.33 969.324,776.556 970.209,775.818C971.423,774.805 972.568,773.849 974.097,772.771C976.183,771.299 977.162,771.264 979.531,771.179L980.949,771.126C983.435,771.035 985.398,770.966 988.109,770.016C989.371,769.574 990.849,768.98 992.271,768.408C993.937,767.738 995.509,767.105 996.488,766.818C998.171,766.324 1001.07,766.49 1003.51,768.014C1007.11,770.273 1010.46,773.159 1013.72,776.837C1014.88,778.141 1015.91,779.251 1016.82,780.229C1018.94,782.502 1020.35,784.004 1020.91,785.422C1021.42,786.691 1021.68,787.842 1021.9,788.859C1022.09,789.682 1022.24,790.393 1022.5,791.019C1022.8,791.719 1023.36,792.635 1024.01,793.696C1024.57,794.624 1025.16,795.582 1025.47,796.259C1025.72,796.801 1025.99,797.551 1026.28,798.329C1026.85,799.902 1027.4,801.39 1028.05,802.283C1028.91,803.473 1030.08,805.104 1034.62,807.54C1035.86,808.206 1036.85,808.72 1037.71,809.159C1039.73,810.199 1040.84,810.771 1042.49,811.972C1042.84,812.232 1043.19,812.505 1043.55,812.782C1045.73,814.461 1048.43,816.548 1053.07,816.655C1057.73,816.764 1058.95,816.943 1062.18,817.661C1063.35,817.921 1064.57,818.18 1065.75,818.431C1067.89,818.886 1069.92,819.317 1071.16,819.654C1072.89,820.124 1073.52,820.515 1075.44,821.992C1076.92,823.131 1079.45,824.894 1081.69,826.451C1082.61,827.092 1083.46,827.687 1084.15,828.173C1086.6,829.902 1092.2,833.195 1095.25,834.573C1098.61,836.083 1108.13,839.069 1111.2,839.997C1112.32,840.335 1113.8,840.792 1115.47,841.31C1119.78,842.647 1125.67,844.479 1130.01,845.655C1134.95,846.998 1138.33,847.765 1141.92,848.578L1144.25,849.11C1148.59,850.104 1160.67,853.213 1168.47,855.465C1174.78,857.292 1184,859.614 1191.1,862.475C1200.33,866.192 1204.38,868.457 1211.94,873.635C1219.49,878.813 1232.54,887.073 1238.7,890.752C1244.87,894.432 1250.77,901.773 1256.37,903.598C1261.98,905.423 1265.2,906.315 1272.03,911.108C1278.87,915.905 1282.9,918.834 1288.5,925.328C1294.1,931.819 1295.67,933.348 1302.08,938.143C1308.49,942.938 1326.02,955.289 1333.44,960.762C1340.87,966.237 1367.01,985.547 1375.88,991.868C1384.75,998.192 1399.01,1008.51 1407.03,1014.28C1415.05,1020.05 1431.83,1032.21 1441,1039.06C1450.16,1045.91 1461.99,1052.7 1479.93,1052.75C1497.87,1052.81 1500.92,1051.4 1516.59,1053.55C1532.27,1055.69 1543.3,1056.09 1551.23,1056.38C1559.15,1056.66 1592.3,1057.62 1606,1058.75C1619.69,1059.88 1627.76,1060.45 1642.35,1062.91C1656.95,1065.37 1690.45,1070.93 1699.39,1072.33C1739.74,1078.66 1772.74,1083.91 1792.49,1087.66C1812.24,1091.41 1825.99,1096.66 1835.74,1113.66C1845.49,1130.66 1853.49,1156.16 1875.24,1160.66C1895.63,1164.88 1916.24,1164.49 1928.83,1184.2" style="fill:none;fill-rule:nonzero;stroke:#0066ad;stroke-width:2.83px;stroke-linejoin:round;"/>
                        <path id="s5_2_" d="M666.912,860.454C668.234,859.774 669.501,859.141 670.765,858.543C671.712,858.091 672.507,857.698 673.218,857.349C677.606,855.185 679.439,854.4 688.771,852.277C699.367,849.869 703.202,848.498 710.841,845.764C712.551,845.153 714.054,844.603 715.483,844.08C721.318,841.945 725.926,840.261 730.357,839.457C736.285,838.38 742.41,838.828 749.796,839.523L756.339,840.144C765.036,840.972 776.949,842.106 783.213,842.629C787.995,843.025 789.829,842.095 793.612,834.74C794.511,832.992 795.3,831.511 796.006,830.182C798.379,825.715 799.687,823.254 801.394,817.888C803.086,812.569 804.411,808.159 805.475,804.614L806.639,800.759C807.786,796.995 809.074,795.305 810.702,793.164C811.259,792.435 811.907,791.582 812.688,790.456C813.474,789.321 814.218,788.2 814.923,787.141C817.134,783.814 818.88,781.187 820.838,779.564C824.412,776.595 829.236,773.678 837.885,774.567C841.496,774.939 844.932,775.393 848.254,775.834C851.598,776.275 854.757,776.693 857.864,777C862.199,777.43 865.032,775.843 868.459,772.965L870.629,771.146C874.399,767.992 880.707,762.711 882.549,760.828L882.889,760.479C885.504,757.791 889.452,753.728 896.092,752.331C902.975,750.882 908.409,750.985 912.254,752.633C916.7,754.542 919.674,757.135 922.194,761.305L922.911,762.502C924.346,764.911 925.7,767.188 927.032,767.812C929.002,768.731 930.481,768.737 934.469,768.633C938.74,768.491 942.038,770.22 944.454,771.464C945.219,771.857 945.938,772.228 946.438,772.403C948.152,773.01 952.719,774.632 955.932,774.339L957.079,774.238C960.346,773.963 961.84,773.8 963.081,772.839C964.151,772.011 965.018,771.286 965.844,770.599C967.108,769.543 968.413,768.453 970.168,767.215C973.907,764.576 976.518,764.484 979.278,764.384L980.696,764.331C982.899,764.252 984.114,764.208 985.848,763.6C987.024,763.188 988.399,762.632 989.723,762.099C991.545,761.367 993.268,760.674 994.561,760.294C997.516,759.426 1002.58,759.412 1007.11,762.253C1011.27,764.857 1015.1,768.153 1018.8,772.325C1019.91,773.583 1020.91,774.65 1021.79,775.593C1024.34,778.324 1026.18,780.299 1027.22,782.9C1027.93,784.68 1028.28,786.241 1028.53,787.38C1028.62,787.796 1028.69,788.162 1028.79,788.455C1028.9,788.683 1029.44,789.562 1029.8,790.145C1030.47,791.239 1031.16,792.371 1031.64,793.408C1031.95,794.085 1032.3,795.02 1032.66,796C1032.94,796.759 1033.4,798.028 1033.62,798.413C1034.08,799.027 1034.67,799.853 1037.83,801.549C1039.02,802.193 1039.99,802.69 1040.81,803.114C1042.9,804.188 1044.4,804.966 1046.47,806.47C1046.88,806.768 1047.29,807.078 1047.7,807.395C1049.58,808.841 1050.81,809.797 1053.21,809.854C1058.29,809.973 1060,810.209 1063.65,811.019C1064.8,811.274 1065.99,811.528 1067.15,811.774C1069.39,812.252 1071.51,812.7 1072.93,813.087C1075.82,813.869 1077.23,814.8 1079.57,816.593C1080.93,817.636 1083.5,819.428 1085.57,820.866C1086.51,821.517 1087.38,822.125 1088.07,822.616C1090.21,824.13 1095.43,827.19 1098.04,828.37C1100.56,829.505 1108.56,832.092 1113.17,833.481C1114.3,833.824 1115.79,834.287 1117.48,834.81C1121.74,836.132 1127.57,837.942 1131.78,839.086C1136.59,840.391 1139.76,841.107 1143.42,841.94L1145.77,842.475C1150.18,843.486 1162.45,846.641 1170.35,848.926C1171.8,849.257 1179.66,851.535 1182.1,852.364C1186.38,853.821 1190.07,855.081 1193.31,855.458C1198.18,856.021 1203.23,854.709 1209.18,851.311C1213.91,848.619 1219.23,844.133 1224.87,839.384L1227.65,837.046C1230.95,834.281 1235.14,830.56 1239.19,826.958C1243.18,823.403 1246.96,820.048 1249.68,817.788L1250.43,817.168C1255.42,813.022 1258.17,810.739 1263.14,808.658C1268.52,806.407 1276.78,803.985 1283.86,803.941C1290.65,803.901 1295.94,804.053 1303.88,804.368C1305.95,804.449 1308.75,804.588 1311.78,804.737C1319.21,805.1 1329.37,805.598 1331.66,805.366C1336.23,804.974 1347.21,803.765 1351.75,802.59C1362.02,799.931 1368.73,798.739 1378.46,802.759C1388.2,806.777 1387.97,809.889 1405.06,810.738C1422.15,811.587 1433.38,812.351 1441.27,812.648C1449.17,812.945 1469.45,814.02 1480.2,814.529C1490.96,815.039 1514.1,816.172 1522.33,816.594C1530.57,817.019 1539,816.848 1549.69,815.152C1560.38,813.455 1567.8,811.644 1575.78,810.681C1583.76,809.719 1610.27,805.729 1624.52,803.438C1638.78,801.147 1697.63,791.893 1706.86,790.539C1762.15,782.415 1798.49,776.082 1820.15,772.415C1841.82,768.748 1851.49,761.749 1877.49,758.082C1903.49,754.415 1920.48,758.081 1947.82,753.748C1975.15,749.415 2082.82,733.749 2106.82,729.082C2130.82,724.415 2146.64,725.363 2167.15,726.748C2221.49,730.415 2219.82,709.082 2233.82,667.082" style="fill:none;fill-rule:nonzero;stroke:#ec7404;stroke-width:2.83px;stroke-linejoin:round;"/>
                        <path id="s8_1_" d="M684.646,29.664C685.229,34.767 685.191,37.324 685.313,41.164C685.492,46.79 685.324,52.514 684.729,62.914C683.729,80.414 682.295,107.414 681.295,121.164C680.295,134.914 680.622,139.175 684.295,144.664C688.729,151.289 701.296,152.914 710.546,147.414C719.796,141.914 720.729,133.164 722.729,120.914C725.968,101.074 743.479,101.664 765.229,111.914C780.614,119.164 793.979,127.164 821.729,137.164C849.479,147.164 902.479,165.914 927.729,175.414C952.979,184.914 957.479,186.914 980.437,209.576C988.013,217.054 1006.01,233.907 1014.62,243.074C1023.22,252.241 1037.17,265.736 1045.4,275.838C1053.63,285.938 1068.6,304.299 1075.67,312.844C1082.74,321.389 1102.44,345.437 1108.55,352.738C1114.66,360.038 1120.68,367.125 1122.89,370.604C1125.1,374.083 1128.24,377.479 1131.21,380.536C1134.18,383.591 1137.65,388.389 1138.79,393.057C1139.94,397.726 1139.76,400.842 1139.22,403.328C1138.57,406.323 1136.12,410.358 1136.12,410.358C1131.18,418.028 1119.32,435.882 1110.66,448.921C1107.24,454.06 1104.28,458.525 1102.33,461.473C1097.51,468.762 1087.78,483.99 1079.2,497.423C1075.5,503.218 1072.1,508.539 1069.58,512.465C1061.46,525.097 1055.87,532.769 1051.97,536.61C1048.49,540.036 1020.17,567.453 1014.53,572.689C1012.17,574.877 1007.06,579.814 1001.65,585.043C994.573,591.88 989.741,596.63 986.409,599.64C980.971,604.549 980.138,613.648 980.448,616.408C980.448,616.408 980.602,619.107 980.764,620.156C981.256,623.335 982.102,629.671 982.477,633.482C982.922,638.003 983.748,644.651 998.852,643.295C1000.98,643.104 1003.04,642.92 1005.9,643.015C1008.69,643.108 1011.05,643.29 1013.33,643.556C1013.98,643.632 1014.64,643.708 1015.32,643.779C1016.12,643.864 1016.92,643.904 1017.71,643.946C1019.95,644.066 1022.5,644.204 1025.02,645.158C1027.77,646.196 1030.75,647.887 1033.64,649.52L1034.98,650.276C1037.86,651.891 1041.12,653.722 1045.89,658.069C1050.7,662.457 1053.85,665.257 1057.61,667.445C1061.58,669.754 1066.36,672.072 1070.59,674.118L1071.22,674.424C1075.78,676.634 1079.45,678.743 1084.77,682.21C1087.23,683.814 1089.59,685.563 1091.87,687.252C1094.21,688.984 1096.42,690.621 1098.36,691.813C1099.34,692.417 1100.27,692.978 1101.17,693.52C1104.01,695.234 1106.69,696.853 1109.45,698.886C1113.48,701.858 1115.12,703.959 1118,708.769L1118.91,710.296C1121.53,714.678 1125.12,720.678 1127.8,724.926L1130.46,729.13C1132.98,733.109 1135.62,737.276 1137.02,739.545C1137.33,740.058 1137.71,740.688 1138.13,741.393C1139.45,743.612 1142.98,749.505 1144.39,750.64C1145.09,751.187 1147.71,752.965 1156.7,757.606C1158.63,758.605 1160.82,759.406 1162.95,760.181C1164.18,760.633 1165.36,761.065 1166.41,761.501C1170.23,763.089 1175.12,767.121 1177.4,773.678C1179.03,778.388 1179.8,780.218 1181.19,783.542C1181.85,785.117 1187.67,799.041 1188.71,802.055C1189.66,804.789 1190.35,809.25 1190.9,813.217L1190.95,813.537C1190.99,813.787 1191.03,814.063 1191.08,814.36C1191.58,817.304 1192.51,822.785 1188.89,828.966L1186.3,833.406C1183.61,838.024 1180.82,842.8 1179.39,845.144L1178.8,846.111C1177.24,848.671 1174.87,852.538 1174.27,854.424C1173.82,855.813 1173.37,858.046 1172.93,860.207C1172.6,861.829 1172.27,863.478 1171.91,864.986L1171.54,866.501C1170.82,869.511 1170.14,872.353 1169.33,875.201C1168.09,879.597 1166.26,882.158 1161.73,887.16C1157.42,891.931 1156.54,893.156 1154.03,897.32C1151.46,901.597 1150.29,905.355 1149.25,909.46C1148.42,912.742 1148.04,915.585 1147.55,919.183L1147.49,919.628C1146.95,923.64 1146.13,929.701 1149.57,933.273C1152.17,935.972 1154.96,938.978 1157.64,941.968L1162.41,947.285C1174.06,960.298 1198.32,987.374 1206.28,995.839C1215.68,1005.84 1223.31,1013.97 1228.84,1020.06C1231.78,1023.31 1235.24,1026.62 1238.59,1029.83C1241.52,1032.64 1244.55,1035.54 1247.13,1038.3C1249.5,1040.85 1253.39,1044.87 1257.51,1049.12C1263.08,1054.87 1269.38,1061.38 1273.49,1065.85C1277.69,1070.41 1280.1,1072.95 1281.98,1074.94C1283.32,1076.35 1284.39,1077.48 1285.65,1078.86C1288.92,1082.43 1296.68,1090.44 1302.65,1095.22C1304.01,1096.3 1305.3,1097.3 1306.58,1098.28C1310.86,1101.55 1314.89,1104.64 1319.87,1110.3L1321.95,1112.67C1328.72,1120.38 1340.05,1133.27 1345.85,1139.64L1347.61,1141.58C1353.59,1148.15 1360.36,1155.58 1364.23,1160.48C1368.82,1166.27 1380.86,1180.35 1387.03,1186.75C1392.88,1192.81 1402.68,1202.96 1407.87,1208.72C1412.84,1214.23 1421.02,1223.95 1425.01,1228.95C1427.52,1232.1 1431.34,1235.97 1435.03,1239.72C1437.03,1241.75 1439,1243.75 1440.71,1245.58C1442.83,1247.84 1445.09,1250.54 1447.71,1253.68C1451.11,1257.74 1454.96,1262.35 1459.89,1267.69C1468.29,1276.8 1485.89,1295.94 1492.98,1303.73C1495.75,1306.77 1498.57,1309.83 1501.28,1312.78C1505.38,1317.24 1509.22,1321.42 1512.24,1324.8C1517.15,1330.29 1521.26,1336.94 1528.9,1356.29C1530.98,1361.55 1534.03,1369.25 1537.47,1377.9C1546.68,1401.14 1559.3,1432.96 1561.99,1440.2C1568.28,1457.09 1573.85,1475.09 1579.51,1496.85L1579.73,1497.73C1583.32,1511.5 1585.24,1518.92 1591.67,1534.02" style="fill:none;fill-rule:nonzero;stroke:#6a2;stroke-width:2.83px;stroke-miterlimit:10;"/>
                        <path id="s9_1_" d="M434.892,716.086C435.631,716.286 436.288,716.451 436.904,716.607C439.508,717.262 441.228,717.696 445.68,719.987C450.683,722.564 457.56,725.947 461.909,727.429C464.885,728.441 474.261,730.427 490.576,733.502C497.934,734.886 500.339,738.614 501.843,742.44C503.215,745.935 501.919,750.23 501.026,752.478C499.969,755.132 497.252,762.267 495.695,766.398C494.057,770.744 493.628,773.21 493.777,777.385C493.921,781.407 494.767,796.018 495.433,800.626C495.988,804.464 498.832,808.975 504.131,814.415C508.636,819.038 512.859,822.803 516.68,825.603C522.043,829.539 530.209,827.613 535.617,826.339C538.868,825.572 545.294,823.858 552.096,822.041C556.665,820.82 561.391,819.56 565.391,818.521C574.581,816.137 576.223,816.272 580.189,816.595L580.815,816.646C585.08,816.986 587.868,818.836 589.055,820.456C589.821,821.5 590.533,822.696 591.285,823.965C591.979,825.133 592.697,826.341 593.477,827.446C594.395,828.749 596.732,831.215 606.38,837.562C611.776,841.113 613.61,846.5 614.225,849.397C615.046,853.279 615.443,855.123 616.152,858.323C616.931,861.848 617.911,863.175 618.878,864.483C619.759,865.676 621.122,867.498 623.968,871.166C626.817,874.84 629.616,875.756 634.7,877.42L636.598,878.045C640.229,879.256 642.944,880.018 645.536,880.018C647.493,880.018 649.384,879.584 651.544,878.58C652.634,878.073 655.91,876.578 659.541,875C661.321,874.225 669.778,870.403 671.565,869.532C672.794,868.901 673.972,868.313 675.145,867.756C676.145,867.28 676.982,866.868 677.73,866.5C681.243,864.768 682.426,864.184 691.031,862.227C702.223,859.682 706.506,858.15 714.395,855.328C716.01,854.752 717.536,854.192 718.985,853.663C724.36,851.697 728.606,850.144 732.176,849.498C736.444,848.723 740.947,848.937 748.836,849.685L755.368,850.305C764.092,851.135 776.037,852.272 782.357,852.801C794.258,853.797 798.919,846.732 802.683,839.411C803.559,837.71 804.326,836.266 805.013,834.973C807.49,830.311 809.126,827.231 811.114,820.985C812.828,815.602 814.168,811.14 815.244,807.551L816.394,803.738C817.01,801.72 817.429,801.171 818.819,799.343C819.449,798.516 820.184,797.548 821.07,796.271C821.896,795.08 822.678,793.902 823.42,792.789C824.813,790.692 826.546,788.085 827.352,787.418C829.106,785.961 831.295,784.149 836.837,784.718C840.302,785.074 843.662,785.52 846.914,785.949C850.345,786.402 853.586,786.832 856.864,787.154C865.196,787.98 870.719,784.388 875.022,780.775L877.176,778.969C882.692,774.352 887.811,770.035 889.844,767.958L890.203,767.589C892.362,765.366 894.598,763.068 898.19,762.312C903.503,761.194 906.862,761.423 908.229,762.007C910.336,762.912 911.866,763.949 913.457,766.579L914.141,767.719C916.299,771.346 918.535,775.097 922.707,777.05C926.961,779.039 930.389,778.946 934.737,778.829C936.393,778.802 938.037,779.635 939.78,780.531C940.811,781.061 941.877,781.61 943.026,782.017C946.926,783.398 952.024,784.929 956.839,784.496L957.941,784.4C961.904,784.063 965.65,783.747 969.324,780.902C970.509,779.987 971.468,779.187 972.382,778.424C973.591,777.415 974.634,776.543 976.05,775.546C977.31,774.656 977.441,774.651 979.646,774.572L981.062,774.519C983.618,774.427 986.029,774.34 989.226,773.219C990.531,772.761 992.062,772.148 993.534,771.556C995.052,770.946 996.62,770.315 997.443,770.075C998.066,769.887 1000.01,769.839 1001.69,770.891C1005.02,772.974 1008.12,775.657 1011.17,779.087C1012.35,780.414 1013.4,781.546 1014.33,782.542C1015.98,784.317 1017.42,785.853 1017.74,786.675C1018.15,787.691 1018.36,788.656 1018.57,789.593C1018.78,790.531 1018.98,791.416 1019.35,792.318C1019.75,793.263 1020.37,794.285 1021.1,795.465C1021.56,796.229 1022.14,797.179 1022.37,797.678C1022.59,798.151 1022.82,798.807 1023.07,799.489C1023.73,801.293 1024.35,802.995 1025.28,804.269C1026.54,806.017 1028.17,807.94 1032.99,810.528C1034.25,811.206 1035.27,811.727 1036.14,812.175C1038.07,813.17 1039.03,813.669 1040.47,814.714C1040.8,814.955 1041.13,815.209 1041.46,815.466C1043.9,817.342 1047.23,819.911 1052.97,820.046C1057.57,820.153 1058.6,820.341 1061.43,820.972C1062.61,821.234 1063.84,821.494 1065.03,821.747C1067.13,822.191 1069.11,822.612 1070.26,822.925C1071.32,823.214 1071.51,823.266 1073.36,824.679C1074.9,825.867 1077.47,827.653 1079.73,829.231C1080.65,829.867 1081.5,830.458 1082.17,830.937C1084.76,832.763 1090.54,836.17 1093.85,837.665C1097.38,839.256 1106.86,842.23 1110.21,843.242C1111.32,843.579 1112.79,844.032 1114.45,844.549C1118.78,845.894 1124.71,847.736 1129.1,848.927C1134.12,850.288 1137.54,851.064 1141.15,851.885L1143.48,852.415C1148.27,853.573 1152.01,854.54 1156.47,855.724C1159.93,856.643 1167.34,859.684 1170.22,863.783C1173.04,867.783 1173.97,871.471 1171.89,877.901C1170.75,881.414 1169.54,883.535 1165.04,888.508C1160.69,893.311 1159.45,894.756 1156.89,899.279C1155.16,902.343 1153.35,906.781 1152.54,910.284C1151.76,913.38 1151.38,916.136 1150.91,919.626L1150.87,919.968C1150.4,923.433 1149.71,928.515 1152.01,930.902C1154.64,933.63 1157.46,936.667 1160.17,939.685L1164.94,945.005C1176.58,958.007 1200.82,985.062 1208.75,993.495C1218.17,1003.51 1225.81,1011.65 1231.35,1017.77C1234.21,1020.92 1237.63,1024.19 1240.93,1027.36C1243.9,1030.2 1246.96,1033.13 1249.61,1035.97C1251.96,1038.49 1255.84,1042.5 1259.95,1046.74C1265.53,1052.5 1271.85,1059.03 1275.99,1063.53C1280.17,1068.08 1282.57,1070.61 1284.44,1072.59C1285.8,1074.01 1286.88,1075.15 1288.16,1076.55C1290.73,1079.37 1298.74,1087.73 1304.77,1092.56C1306.1,1093.62 1307.38,1094.6 1308.64,1095.56C1313.05,1098.94 1317.22,1102.13 1322.41,1108.04L1324.5,1110.41C1331.26,1118.11 1342.57,1130.99 1348.35,1137.34L1350.12,1139.28C1356.13,1145.88 1362.94,1153.37 1366.89,1158.35C1371.33,1163.96 1383.46,1178.15 1389.47,1184.37C1395.34,1190.45 1405.16,1200.63 1410.39,1206.43C1413.99,1210.42 1419.36,1216.5 1423.41,1221.62C1425.39,1224.12 1425.82,1224.55 1425.82,1224.55C1430.05,1229.9 1432.51,1235.12 1433.11,1240.05C1433.74,1245.21 1433.67,1251.54 1428.42,1259.33C1423.03,1267.31 1414.81,1278.3 1409.36,1282.97C1406.04,1285.81 1403.28,1287.19 1401.05,1288.3C1399.48,1289.09 1398.23,1289.71 1397.37,1290.59C1395.15,1292.85 1393.15,1295.99 1390.83,1300.01C1388.66,1303.79 1385.81,1305.8 1382.8,1307.93L1381.61,1308.78C1378.81,1310.79 1371.65,1314.75 1355.12,1318.64C1351.62,1319.47 1348.07,1320.19 1344.63,1320.88C1333.49,1323.13 1322.96,1325.26 1315.87,1330.53C1308.57,1335.95 1303.33,1340.43 1298.7,1344.38C1297.25,1345.62 1295.88,1346.79 1294.55,1347.9" style="fill:none;fill-rule:nonzero;stroke:#992746;stroke-width:2.83px;stroke-miterlimit:10;"/>
                        <path id="s25_süd" d="M644.351,1326.63C659.798,1322.04 697.144,1310.33 710.385,1306.26C723.627,1302.18 726.992,1297.6 731.406,1281.19C735.819,1264.78 740.8,1248.82 745.044,1239.48C749.286,1230.15 756.247,1216.57 764.962,1206.44C773.676,1196.31 780.792,1190.27 785.034,1183.31C789.278,1176.35 794.031,1172.96 797.935,1169.18C801.839,1165.4 812.916,1154.11 818.306,1148.17C823.696,1142.23 836.088,1128.73 842.495,1121.01C848.902,1113.28 855.992,1102.04 860.106,1092.53C864.223,1083.02 865.899,1074.71 865.051,1068.34" style="fill:none;fill-rule:nonzero;stroke:#007734;stroke-width:2.83px;stroke-linejoin:round;"/>
                        <path id="s25_nord" d="M916.481,535.997C912.885,532.742 908.916,530.81 902.012,530.442C895.108,530.075 888.504,529.707 886.719,529.58C884.936,529.452 880.016,528.857 874.708,527.883C869.403,526.906 857.52,524.529 850.646,523.384C843.77,522.238 837.447,521.531 828.62,521.305C819.792,521.078 798.12,522.039 787.029,522.607C775.938,523.173 760.038,523.851 754.265,524.148C748.494,524.446 742.892,524.871 739.158,524.914C735.424,524.955 732.58,524.276 726.512,521.052C720.443,517.827 705.659,509.819 700.85,506.652C696.039,503.482 693.721,499.691 692.25,495.957C690.776,492.224 683.591,474.966 681.214,469.42C678.838,463.873 675.104,455.782 672.783,449.954C670.462,444.126 663.389,430.036 660.73,425.793C658.07,421.549 655.763,416.865 643.584,412.622C631.404,408.378 612.405,402.139 602.106,398.349C591.808,394.557 588.922,392.239 581.396,383.748C573.871,375.262 559.214,359.02 550.047,348.497C540.881,337.972 523.226,317.769 517.851,311.149C512.476,304.53 510.041,300.228 506.987,293.721C503.932,287.213 499.179,280.819 489.049,278.555C478.921,276.291 463.699,272.671 460.247,262.316C456.796,251.962 455.212,245.907 454.758,243.531" style="fill:none;fill-rule:nonzero;stroke:#007734;stroke-width:2.83px;stroke-linejoin:round;"/>
                        <path id="s7_x2F_75" d="M84.146,1347.91C86.646,1348.08 109.979,1350.41 121.121,1351.88C127.955,1352.77 133.853,1352.52 136.951,1352.05C140.049,1351.58 166.488,1348.02 184.355,1345.38C202.221,1342.75 237.446,1337.75 256.881,1334.18C276.319,1330.62 280.649,1321.11 288.625,1309.99C296.604,1298.87 313.623,1275.96 317.271,1270.78C320.92,1265.6 325.972,1257.75 331.956,1254.4C337.939,1251.04 350.587,1244.42 357.589,1240.18C364.593,1235.93 380.234,1228.36 388.54,1221.29C396.848,1214.22 401.576,1210.42 406.33,1206.09C412.644,1200.33 417.904,1193.58 419.644,1189.16C421.382,1184.75 423.327,1172.32 424.217,1167.82C425.109,1163.32 423.919,1160.01 436.398,1143.92C448.875,1127.84 548.409,998.031 558.198,985.697C567.987,973.363 580.946,964.929 586.943,951.236C592.942,937.544 592.829,936.07 596.902,931.259C600.976,926.448 603.947,923.366 610.015,918.146C616.083,912.927 616.876,911.06 620.159,905.12C623.441,899.179 625.422,896.179 630.231,889.843C635.041,883.505 634.82,878.976 646.915,873.161C656.13,868.73 655.69,869.288 660.665,866.848C663.853,865.285 666.885,864.293 668.462,863.477C669.755,862.815 670.991,862.199 672.225,861.613C673.191,861.153 673.998,860.754 674.722,860.397C678.662,858.455 680.138,857.726 689.525,855.591C700.319,853.137 704.218,851.742 711.986,848.964C713.704,848.349 715.215,847.796 716.65,847.272C722.332,845.194 726.819,843.553 730.963,842.801C735.984,841.888 741.136,842.121 749.477,842.908L756.017,843.527C764.723,844.356 776.648,845.492 782.929,846.016C790.117,846.62 792.857,843.644 796.638,836.295C797.53,834.562 798.31,833.094 799.01,831.775C801.395,827.287 802.835,824.578 804.635,818.918C806.333,813.578 807.662,809.15 808.733,805.591L809.892,801.749C810.864,798.566 811.876,797.235 813.41,795.221C813.99,794.459 814.67,793.569 815.484,792.393C816.284,791.24 817.041,790.099 817.757,789.02C819.813,785.926 821.437,783.483 823.01,782.179C826.197,779.534 830.16,777.192 837.536,777.949C841.099,778.315 844.511,778.766 847.807,779.203C851.18,779.648 854.367,780.071 857.532,780.383C863.027,780.918 866.63,778.941 870.646,775.567L872.812,773.753C876.876,770.352 883.019,765.21 884.98,763.205L885.328,762.849C887.794,760.314 891.169,756.842 896.794,755.658C901.042,754.763 906.937,754.055 910.917,755.759C914.708,757.386 917.132,759.502 919.283,763.064L919.988,764.244C921.773,767.238 923.314,769.827 925.592,770.892C928.276,772.145 930.272,772.145 934.561,772.034C937.913,771.962 940.696,773.353 942.899,774.488C943.768,774.935 944.587,775.357 945.303,775.61C947.213,776.288 952.273,778.089 956.236,777.726L957.369,777.628C960.807,777.337 963.078,777.144 965.167,775.527C966.273,774.671 967.171,773.923 968.025,773.209C969.294,772.149 970.49,771.15 972.13,769.994C975.044,767.938 976.777,767.877 979.402,767.781L980.818,767.728C983.187,767.643 984.755,767.586 986.976,766.807C988.193,766.379 989.622,765.805 990.994,765.252C992.738,764.551 994.386,763.888 995.521,763.555C997.976,762.829 1001.96,763.035 1005.3,765.132C1009.19,767.565 1012.77,770.655 1016.25,774.581C1017.39,775.859 1018.4,776.95 1019.3,777.91C1021.68,780.464 1023.25,782.149 1024.06,784.161C1024.67,785.682 1024.97,787.033 1025.21,788.118C1025.36,788.787 1025.49,789.364 1025.63,789.715C1025.82,790.169 1026.39,791.1 1026.9,791.92C1027.52,792.93 1028.15,793.975 1028.55,794.831C1028.83,795.439 1029.14,796.284 1029.46,797.163C1029.86,798.266 1030.42,799.775 1030.79,800.288C1031.49,801.265 1032.37,802.476 1036.21,804.543C1037.43,805.196 1038.41,805.702 1039.25,806.136C1041.28,807.179 1042.61,807.867 1044.47,809.22C1044.86,809.498 1045.24,809.791 1045.62,810.087C1047.67,811.673 1049.62,813.17 1053.13,813.253C1057.96,813.366 1059.47,813.573 1062.91,814.339C1064.06,814.596 1065.27,814.852 1066.44,815.1C1068.63,815.566 1070.71,816.006 1072.04,816.369C1074.37,817.001 1075.39,817.673 1077.5,819.291C1078.92,820.382 1081.42,822.122 1083.62,823.656C1084.55,824.302 1085.41,824.903 1086.1,825.391C1088.38,827.001 1093.79,830.186 1096.64,831.468C1099.33,832.68 1107.35,835.279 1112.18,836.737C1113.3,837.078 1114.78,837.538 1116.46,838.058C1120.74,839.387 1126.61,841.207 1130.89,842.369C1135.76,843.692 1139.11,844.453 1142.66,845.259L1145,845.792C1149.37,846.795 1161.55,849.926 1169.4,852.194C1170.57,852.54 1178.59,854.767 1180.99,855.587C1185.45,857.107 1189.31,858.419 1192.9,858.839C1193.77,858.941 1194.64,858.991 1195.52,858.991C1200.32,858.991 1205.26,857.46 1210.86,854.266C1215.85,851.419 1221.29,846.837 1227.05,841.986L1229.82,839.657C1233.17,836.859 1237.37,833.119 1241.44,829.502C1245.41,825.968 1249.16,822.631 1251.84,820.408L1252.59,819.787C1257.48,815.723 1259.94,813.683 1264.44,811.799C1269.52,809.673 1277.29,807.387 1283.86,807.347C1290.6,807.297 1295.85,807.457 1303.74,807.77C1305.8,807.852 1308.58,807.99 1311.61,808.138C1319.97,808.549 1329.45,809.018 1332,808.752C1336.28,808.29 1338.72,808.353 1341.22,807.603C1343.95,806.786 1351.79,803.665 1355.93,795.165C1359.51,787.823 1360.97,783.041 1360.12,777.299C1359.32,771.913 1354.22,763.633 1352.95,758.71C1351.67,753.787 1349.77,743.178 1347.67,732.37C1345.58,721.56 1341.62,707.359 1340.94,702.435C1340.26,697.512 1338.9,687.611 1336.75,678.045C1334.61,668.482 1330.24,649.526 1329.06,644.037C1327.87,638.549 1325.38,630.288 1321.02,622.141C1316.67,613.993 1310.81,607.541 1306.99,602.534C1303.17,597.526 1287.53,576.704 1283.11,571.328C1280.35,567.965 1268.71,553.136 1259.4,541.224" style="fill:none;fill-rule:nonzero;stroke:#816da6;stroke-width:2.83px;stroke-linejoin:round;"/>
                        <path id="s7_ost" d="M1348.12,734.687C1346.67,727.09 1345.14,720.427 1348.12,709.011C1351.09,697.595 1354.06,692.926 1357.16,687.156C1360.26,681.385 1377.61,648.622 1383.89,636.739C1390.17,624.854 1404.35,597.184 1411.48,584.453C1418.61,571.724 1426.59,557.294 1430.66,549.398" style="fill:none;fill-rule:nonzero;stroke:#816da6;stroke-width:2.83px;stroke-linejoin:round;"/>
                        <path id="s2_nord" d="M977.07,616.784C976.626,612.846 977.765,602.854 984.132,597.11C987.421,594.137 992.232,589.41 999.287,582.59C1004.71,577.35 1009.84,572.402 1012.22,570.19C1017.85,564.967 1046.11,537.602 1049.58,534.181C1053.25,530.573 1058.85,522.867 1066.72,510.622C1069.24,506.697 1072.63,501.379 1076.34,495.587C1084.92,482.142 1094.66,466.903 1099.49,459.591C1101.44,456.644 1104.41,452.175 1107.83,447.034C1116.48,434.005 1128.34,416.162 1133.26,408.513L1135.99,404.28C1141.05,396.44 1144.4,391.26 1145.54,388.355C1147.05,384.515 1148.08,382.19 1151.58,379.053C1154.34,376.577 1155.56,374.811 1157.79,371.604L1158.7,370.291C1160.35,367.933 1162.15,365.285 1164.07,362.444C1165.44,360.416 1166.88,358.29 1168.39,356.099C1170.88,352.462 1176,344.543 1180.11,338.18C1181.89,335.437 1183.43,333.047 1184.42,331.542C1185.9,329.291 1187.25,326.821 1188.56,324.434C1190.1,321.628 1191.42,319.205 1192.71,317.562C1195,314.645 1200.35,307.065 1203.17,302.94C1204.61,300.837 1207.41,296.417 1210.39,291.736C1213.4,286.993 1216.52,282.089 1218.33,279.406C1219.62,277.504 1221.29,274.947 1222.98,272.358C1226.1,267.577 1229.04,263.059 1230.26,261.611L1230.83,260.937C1233.31,257.975 1239.14,251.04 1241.98,248.53C1253.74,238.138 1278.38,216.155 1300.11,196.758C1320.8,178.294 1338.66,162.348 1342.37,159.128C1343.16,158.435 1343.9,157.777 1344.62,157.149C1350.9,151.593 1354.69,148.242 1370.19,142.163C1376.94,139.517 1392.98,133.195 1410.47,126.304C1436.95,115.868 1466.96,104.04 1472.7,101.826C1484.4,97.306 1492.42,93.373 1495.88,90.447" style="fill:none;fill-rule:nonzero;stroke:#007734;stroke-width:2.83px;stroke-miterlimit:10;"/>
                        <g id="s_bbi__x28_ready..._x29_">
                            <g>
                                <path d="M1294.17,1346.03C1293.2,1346.77 1292.03,1347.64 1290.76,1348.57" style="fill:none;fill-rule:nonzero;stroke:#b0d3c0;stroke-width:2.83px;stroke-linejoin:round;"/>
                                <path d="M1286.06,1351.91C1282.04,1354.71 1277.9,1357.4 1275.59,1358.48C1270.49,1360.86 1267.21,1364.42 1262.4,1368.05C1257.59,1371.67 1227.94,1393.23 1218.38,1400.13C1208.82,1407.03 1178.18,1429.54 1168.98,1435.86C1145.65,1451.91 1144.98,1492.25 1169.15,1499.41C1200.36,1508.67 1218.23,1509.91 1234.73,1508.41C1249.29,1507.09 1268.73,1495.83 1284.78,1486.67" style="fill:none;fill-rule:nonzero;stroke:#b0d3c0;stroke-width:2.83px;stroke-linejoin:round;stroke-dasharray:8.64,5.76;"/>
                                <path d="M1287.28,1485.25C1288.54,1484.53 1289.77,1483.84 1290.98,1483.16" style="fill:none;fill-rule:nonzero;stroke:#b0d3c0;stroke-width:2.83px;stroke-linejoin:round;"/>
                            </g>
                        </g>
                        <path id="s47" d="M1287.65,1085.83C1290.02,1088.38 1293.77,1091.34 1297.25,1091.72C1300.73,1092.11 1307.54,1093.04 1315.14,1090.92C1322.74,1088.8 1353.76,1079.63 1363.01,1076.79C1372.26,1073.94 1371.97,1075.13 1380.03,1078.02C1388.09,1080.9 1398.96,1084.81 1403.16,1086.46C1407.36,1088.12 1410.03,1089.05 1413.26,1095.25C1416.49,1101.44 1418.48,1105.09 1419.46,1106.96" style="fill:none;fill-rule:nonzero;stroke:#cd9c53;stroke-width:2.83px;stroke-linejoin:round;"/>
                    </g>
                </g>







            </g>
        </g>

    </g>
</svg>