<svg xmlns="http://www.w3.org/2000/svg" xml:space="preserve" fill-rule="evenodd" clip-rule="evenodd" viewBox="0 0 2064 1611">
  <g fill="none" stroke-linejoin="round" stroke-width="2.83">
    <path stroke="#805233" d="M938.022 794.397c1.609-.134 12.987-1.15 14.407-1.257 5.231-.397 16.067-1.669 19.422-1.966.452-.04 1.002-.065 1.628-.08 4.021-.099 11.199.203 15.936-.493a33.243 33.243 0 0 0 3.245-.658c4.794-1.206 10.05-3.475 13.26-5.78 1.88-1.354 4.1-3.043 6.31-4.798"/>
    <path stroke="#b8a496" d="M1014.42 777.601a124.64 124.64 0 0 0 3.25-2.75"/>
  </g>
  <path fill="none" stroke="#009bd5" stroke-linejoin="round" stroke-miterlimit="10" stroke-width="2.83" d="M1238.86 1239.43c-2.54-2.38-5.43-6.17-7.35-8.6-1.92-2.44-9.39-11.66-11.37-14.2-1.98-2.55-5.36-5.52-9.06-7.35-3.69-1.82-5.52-2.76-11.12-2.29-5.6.47-17.06 1.31-21.77 1.27-4.71-.04-20.58-2.9-25.9-5.28-5.32-2.37-21.62-13.74-26.43-21.27-4.81-7.53-9.17-19.3-12.5-32.53-3.34-13.25-5.56-18.94-4.56-22.02 1.19-3.65 5.32-8.13 6.28-11.2 1.19-3.82 1.27-5.05 1.53-8.7.25-3.65.81-9.21.3-13.71s-1.78-11.97-2.55-16.13c-.76-4.15-1.95-8.06-1.99-11.2-.05-3.14 1.61-7.3.8-9.8-.8-2.51-5.01-11.55-6.87-15.62-1.87-4.07-3.57-8.66-5.77-12.48-2.21-3.82-3.74-5.9-4.08-8.36-.34-2.46-.72-5.43-1.23-10.44s-1.44-13.027-1.86-16.675c-.43-3.652-2.25-9.422-2.85-11.037-.59-1.613-3.05-10.906-4.15-13.324-1.11-2.42-3.48-8.063-3.95-8.955-.47-.891-5.44-6.618-6.88-8.317-1.44-1.697-3.36-3.594-6.81-6.31-3.46-2.717-16.06-12.278-17.93-13.639-1.87-1.357-6.02-3.691-8.19-4.666-2.17-.979-4.63-1.658-10.65-2.973-6.03-1.316-18.8-4.201-21.44-4.752-2.63-.554-4.45-1.275-7.29-2.629-2.85-1.359-4.119-1.445-6.158-1.359-2.037.082-3.65-.086-7.088-1.273-3.438-1.188-32.467-10.625-34.974-11.43-2.502-.807-9.021-3.705-6.955-8.6.938-2.22 3.296-4.797 2.813-7.23-.479-2.432-.924-4.123-4.628-5.625-3.709-1.498-6.393-2.957-10.551-2.846-4.158.115-8.638.346-11.09.906-2.703.614-6.24 3.916-7.582 7.811-.777 2.254-1.091 4.004-1.513 4.924-1.205 2.623-3.891 7.148-9.184 7.574-5.289.424-6.447 1.049-7.127 1.303-.681.254-2.095 1.021-3.537 3.451-1.441 2.432-3.789 4.98-6.933 5.744-3.141.762-7.612 1.44-10.157 1.838-2.547.398-5.406-.705-9.25-.055-3.851.649-11.7 1.979-18.871 3.168-7.174 1.188-23.684 3.731-28.987 4.666-5.306.934-9.507 1.401-16 3.057s-9.634 2.293-13.792 3.82c-4.159 1.529-6.451 2.375-10.016 2.418-3.565.045-8.657.256-10.355.299-1.698.041-3.521-.043-5.813-2.207-2.292-2.168-7.131-6.479-9.507-9.082-2.376-2.604-4.414-5.262-7.131-8.317-2.716-3.056-7.072-8.546-9.167-11.601-2.094-3.057-3.69-5.25-4.583-10.129-.891-4.881-2.376-11.205-2.759-13.877-.382-2.674-.34-6.918.297-10.949.638-4.032.978-5.051.043-10.144-.934-5.093-1.739-9.846-2.547-14.557-.806-4.712-3.183-16.454-4.088-22.281-.905-5.826 2.037-9.677 3.112-12.9 1.075-3.227 2.299-6.19 1.96-12.471-.34-6.281-.604-14.067-1.45-17.689-.85-3.621-1.188-3.452-1.188-7.979s.226-7.81-2.32-11.316c-2.547-3.509-5.376-5.603-7.188-8.147-1.811-2.548-4.074-7.526-4.811-11.543-.735-4.019-.239-9.239-.961-13.101-.723-3.862-3.523-9.932-10.397-11.246-6.875-1.315-14.344-3.015-18.971-3.142-4.625-.127-11.289 0-15.235-.127-3.947-.128-16.933-1.188-19.563-1.244-2.632-.059-11.657.648-14.006.989-2.348.34-14.854-.198-22.097-.99-7.242-.792-25.392-2.956-29.976-3.381-4.584-.425-17.655-1.995-20.583-2.335-2.93-.338-13.496-2.929-17.443-3.227-3.946-.297-8.572-.169-19.691 2.972-11.118 3.142-16.169 4.301-19.987 5.179-3.819.876-7.81 1.556-12.194-.651-4.385-2.206-8.231-4.609-11.289-4.979-3.056-.367-6.395.282-9.703 1.188-3.312.904-7.797-.622-11.316-2.434-3.904-2.01-7.865-3.228-11.177-1.67-3.311 1.557-6.003 4.269-6.422 8.007-.283 2.52-.708 7.355-1.528 10.016"/>
  <path fill="none" stroke="#007734" stroke-linejoin="round" stroke-miterlimit="10" stroke-width="2.83" d="M1023.98 1582.91c-3.5-17-23-103-28.744-138.3-1.053-6.48-4.158-20.12-5.434-26.06-1.271-5.94-5.517-18.17-9.674-29.79-4.16-11.63-14.289-38.77-21.873-58.12-7.58-19.35-14.031-39.16-18.953-53.41-4.924-14.26-21.222-60.27-26.652-75.38-5.432-15.1-24.104-67.95-26.99-75.88-2.885-7.92-8.207-23.14-9.848-27.95-1.639-4.81-7.865-20.77-9.619-25.63-1.754-4.87-1.926-9.57-2.434-16.64-.508-7.08-.113-10.24 2.547-17.71 2.66-7.47 10.313-29.2 12.35-35.06 2.037-5.852 5.135-14.045 6.578-19.35 1.443-5.308 3.648-11.205 5.941-17.613 2.293-6.408 7.895-22.873 9.422-27.033 1.526-4.16 3.621-10.215 4.244-12.815.623-2.602 1.469-5.431 1.582-9.42.114-3.99.813-17.677 1.049-23.992.131-3.502 4.192-9.471 5.381-10.814 1.188-1.343 3.891-4.09 4.848-4.703l.588-.377c3.67-2.35 7.468-4.778 9.42-8.864 1.849-3.865 4.439-10.257 5.779-13.961 1.416-3.924 2.012-6.171-1.068-10.454-2.627-3.656-8.354-10.982-10.715-13.958-1.344-1.692-1.215-3.279-.846-6.169.088-.688.178-1.402.244-2.156.162-1.823 1.152-9.328 1.416-12.359.455-5.158 1.635-5.491 3.268-5.953 2-.563 2.865-.646 8.496-1.19l2.299-.225c6.027-.586 11.73-10.158 10.814-18.408 0 0 .072-5.505 2.584-8.405 1.66-1.916 11.582-7.511 13.377-12.479.586-1.622 1.045-3.521 1.674-5.524 1.617-5.171.914-7.056-.629-11.185l-.08-.218c-1.604-4.291-4.043-8.679-7.457-13.414-2.824-3.912-4.637-5.922-7.928-9.571l-1.75-1.943c-4.656-5.186-7.311-7.516-10.384-10.213-3.133-2.749-4.47-4.876-5.955-9.486-1.597-4.954-2.119-7.06-2.553-12.938-.714-9.667-.509-11.719 5.934-19.688 6.201-7.669 14.265-8.636 24.166-9.104 10.541-.496 14.527-1.846 18.549-6.271 3.474-3.818 2.351-18.378 1.359-25.215-.142-.971-.277-1.908-.392-2.79-.271-2.083-.567-4.979-.895-8.156-.715-6.991-1.527-14.917-2.535-19.176-1.674-7.088-7.348-14.888-18.397-25.292-11.506-10.836-46.656-42.48-65.613-59.472-20.844-18.684-72.023-64.609-88.321-79.382-13.334-12.086-19.553-20.824-27.426-31.889-1.471-2.066-2.997-4.212-4.634-6.469"/>
  <path fill="none" stroke="#db6ba2" stroke-linejoin="round" stroke-width="2.83" d="M386.068 1218.5c6.538-5.61 12.314-10.55 15.361-13.34 8.3-7.58 10.05-9 15.55-20.37 5.323-11.01 12.673-18.88 18.063-23.72 5.392-4.84 10.737-7.81 18.419-12.9 5.77-3.82 7.65-6.07 20.031-10.44 7.937-2.8 11.871-4.06 18.079-6.19 8.275-2.85 14.457-.13 23.511 5.7 9.055 5.82 42.185 29.65 54.576 38.22 12.394 8.57 16.988 6.12 30.388-1.1 7.19-3.88 17.061-9.26 33.018-18.59 15.957-9.34 61.056-35.28 71.581-41.23 10.524-5.94 26.595-14.88 41.193-23.37 14.599-8.48 21.249-17.61 28.208-26.52 6.96-8.91 14.387-18.97 18.928-24.91 4.541-5.94 7.683-9.89 13.963-18.25 6.28-8.36 13.071-17.48 18.333-24.485 5.263-7.003 17.896-24.15 22.818-30.884 4.923-6.733 11.771-15.375 16.057-20.893 4.286-5.518 7.213-8.531 10.141-12.521 2.931-3.987 10.91-15.362 14.941-20.625 4.031-5.262 5.742-7.922 7.045-11.118 1.299-3.197 2.355-4.445 3.846-6.226 2.052-2.449 2.271-3.137 4.453-6.512 1.865-2.883 4.174-6.451 6.254-9.125.438-.563 1.279-1.438 1.279-1.438 1.33-1.438 2.561-2.514 3.762-3.282l.592-.382c3.421-2.188 6.648-4.256 8.185-7.467 1.805-3.771 4.338-10.022 5.65-13.649 1.188-3.291 1.547-4.285-.632-7.313-2.565-3.571-8.364-10.992-10.616-13.828-2.3-2.894-1.938-5.721-1.558-8.714.082-.646.168-1.318.232-2.025.16-1.819 1.147-9.319 1.416-12.356.553-6.302 2.44-8 5.729-8.93 2.293-.646 3.332-.747 9.095-1.305l2.295-.223c4.145-.274 8.561-8.19 7.979-15.774 0 0 .529-6.821 3.179-9.882 2.55-2.942 10.57-6.7 12.902-12.118.689-1.6.84-2.655 1.473-4.677 1.271-4.057.916-5.001-.567-8.977l-.082-.218c-1.496-4.004-3.795-8.131-7.027-12.614-2.717-3.761-4.483-5.724-7.697-9.283l-1.754-1.95c-4.521-5.034-7.104-7.303-10.096-9.929-3.592-3.15-5.281-5.823-6.951-10.999-1.678-5.211-2.174-8.429-2.697-13.613-1.184-11.74-.053-13.874 6.673-22.192 7.075-8.753 16.255-9.872 26.649-10.363 10.832-.51 13.355-2.037 16.193-5.159 2.393-2.633 1.303-16.954.508-22.438-.143-.988-.281-1.942-.398-2.839-.272-2.106-.573-5.037-.901-8.25-.67-6.547-1.506-14.695-2.461-18.739-1.492-6.313-7.027-13.813-17.422-23.598-11.482-10.813-46.607-42.437-65.55-59.415-20.849-18.686-72.033-64.618-88.338-79.396-13.605-12.332-19.919-21.203-27.911-32.435-1.467-2.061-2.985-4.195-4.616-6.443-6.524-8.804-17.542-25.609-25.69-36.304-8.147-10.695-14.481-22.67-22.291-33.873-7.809-11.204-32.311-44.308-40.799-56.644-10.595-15.397-9.313-22.923-9.082-27.074 1.172-21.242 10.671-155.909 12.005-182.909 1.334-27 0-35.001-6.333-58.334-6.333-23.333-36.001-123-49.334-170.333-13.333-47.333-32.667-57.333-42-76-9.333-18.667-14-28.667-14-28.667"/>
  <g stroke-linejoin="round" stroke-miterlimit="10" stroke-width="2.83">
    <path fill="none" stroke="#ffd500" d="M830.446 963.028c-1.229-4.223-2.08-7.043-2.396-8.104-.318-1.062-1.655-7.301-1.933-8.597-.274-1.293-2.65-12.284-2.948-13.706-.298-1.423-1.739-7.726-2.059-9.253-.318-1.526-.489-3.268-.297-5.137.189-1.865.254-2.459.317-3.137.063-.68.425-1.529 1.271-2.633.851-1.103 1.422-1.738 1.763-2.207.34-.467.529-.808.679-1.4.148-.594.361-1.252.446-1.592.085-.34.105-.828.085-1.57-.021-.742-.212-12.971-.191-14.52.021-1.549.297-3.076 2.335-4.181 2.036-1.104 10.639-5.752 13.523-7.309 2.886-1.553 11.883-6.449 13.27-7.242"/>
    <path fill="none" stroke="#805233" d="M1021.58 775.399c3.61-3.438 4.88-5.093 9.68-2.631 4.79 2.461 8.88 4.528 13.08 6.564 4.2 2.036 12.01 5.982 14.85 7.172 2.85 1.188 6.52 1.627 11.28 2.505 4.75.876 44.93 7.412 56.02 9.279 11.09 1.866 52.34 8.715 65.66 11.006 13.33 2.291 38.79 6.621 45.25 7.64 6.45 1.02 15.02 3.904 23.51 8.486 8.48 4.585 15.44 8.063 18.75 9.762 3.32 1.698 4.42 2.462 7.9 7.64 3.48 5.179 5.01 7.385 7.38 9.847 2.38 2.461 6.49 5.22 8.62 8.444 2.12 3.225 5.98 7.682 8.36 12.945 2.37 5.26 3.56 8.826 4.92 11.994 1.36 3.17 6.49 6.295 12.65 3.834 6.15-2.461 29.28-12.35 37.26-15.49 7.98-3.139 22.32-8.783 27.76-11.627 5.43-2.844 12.48-6.423 19.55-14.967 7.07-8.546 10.64-13.974 16.92-20.763 6.29-6.791 9.99-10.966 16.11-10.88 6.1.084 9.8.725 12.73.172 2.93-.553 9.68-7.716 14.9-11.832 5.22-4.116 8.4-6.534 10.99-8.699 2.59-2.164 7.04-6.493 6.49-15.788-.55-9.294-.89-18.29.25-23.298 1.15-5.008 6.48-23.385 8.07-27.686 1.58-4.301 4.7-7.13 9.34-9.449 4.63-2.32 20.02-9.395 26.99-12.337 6.96-2.94 22.06-8.374 29.11-10.155 7.04-1.782 15.19-3.706 22.83-3.197 7.64.509 16.35 1.696 26.31 5.771"/>
    <path fill="#ebebeb" fill-rule="nonzero" stroke="#805233" d="M901.235 755.525c.765 1.655 2.545 6.535 3.142 8.87.592 2.334 3.014 9.25 3.858 11.925.853 2.674 2.59 8.87 3.439 10.524.85 1.655 4.795 6.791 9.678 7.725 4.877.935 7.723.764 13.324.17.826-.088 1.682-.176 2.555-.263"/>
    <path fill="none" stroke="#816da6" d="M668.17 471.2c1.137 1.802 2.319 3.568 3.398 5.315 1.782 2.888 4.95 8.487 6.987 12.704 2.038 4.215 5.461 10.779 6.084 12.166.621 1.387 2.291 4.526 3.365 6.479 1.075 1.952 2.349 3.058 3.962 6.226 1.612 3.168 4.047 8.317 6.932 13.977 2.886 5.658 4.924 8.318 8.771 12.363 3.847 4.046 17.103 18.393 20.625 22.252 3.521 3.862 5.855 5.008 13.835 8.149 7.979 3.141 14.217 5.686 16.976 6.619 2.759.935 6.536 2.08 12.604 4.797 6.068 2.716 17.019 7.215 20.356 8.686 3.338 1.472 4.938 2.179 9.225 6.169 4.285 3.988 15.674 14.685 28.065 26.227 12.393 11.544 21.898 20.598 26.2 24.502 4.301 3.905 25.859 23.937 32.932 30.611 7.072 6.679 15.052 14.77 20.427 20.37 5.377 5.604 10.864 12.281 14.485 17.26 3.621 4.979 12.76 16.706 15.857 20.823 3.1 4.116 4.924 6.619 6.324 8.487 1.399 1.868 1.866 3.141 2.166 6.663.297 3.521 1.313 13.07 1.866 18.462.552 5.389 1.738 17.372 2.248 22.124.511 4.753 2.15 22.805 2.828 30.442.681 7.64 2.49 22.805 2.888 27.274.396 4.47 1.67 17.258 2.053 20.653.379 3.395.592 8.869-1.994 12.772-2.592 3.904-3.354 5.008-4.584 7.515-1.232 2.502-2.547 4.879-3.438 7.17-.891 2.293-3.226 8.784-4.116 14.686-.894 5.898-1.316 15.574-1.359 20.371-.041 4.795.129 6.068.512 7.555.381 1.484.549 2.672.594 6.406.041 3.734-.213 16.764-.297 21.475-.088 4.709-.383 17.441-.469 20.539-.086 3.101-1.061 4.5-1.188 7.388-.127 2.885-.086 14.683 0 18.803.086 4.11.086 7.17.043 9.29-.043 2.12-.254 4.24-.894 8.57-.637 4.33-3.014 20.46-3.438 23.47-.424 3.02-.638 5.65-.256 8.96.385 3.31 1.399 11.79 1.696 14.98.3 3.18 1.828 16.42 2.209 19.94.384 3.52 1.697 14.51 1.951 16.51.254 1.99.894 5.48 1.359 7.6.467 2.12 1.483 6.36 1.992 8.53.241 1.03.475 2.25.68 3.5"/>
    <path fill="none" stroke="#005a98" d="M812.856 443.751c-3.574.245-6.867.479-8.553.611-3.777.297-5.433 1.526-7.3 2.843-1.867 1.315-5.645 4.244-7.216 5.561-1.568 1.315-2.928 2.461-3.903 4.2-.977 1.741-3.479 6.493-4.413 9.464-.935 2.972-.551 6.536.34 8.999.891 2.46 4.753 9.802 6.535 12.136 1.782 2.336 5.941 7.302 8.021 11.63 2.079 4.327 4.414 10.949 5.264 15.234.848 4.287 1.568 8.87 2.291 11.332.721 2.461 4.158 7.256 8.912 7.853 4.754.594 14.006 1.441 20.412 3.182 6.408 1.739 19.424 4.88 23.665 5.333 4.244.453 7.063.779 9.778.991 2.715.212 5.898 1.272 6.959 4.329 1.061 3.056 7.596 23.85 8.955 27.924 1.359 4.074 2.801 9.338 6.195 13.412 3.396 4.072 16.494 20.454 20.287 25.265 3.791 4.81 8.77 12.788 10.692 15.165 1.924 2.376 4.431 4.188 7.357 5.035 2.389.692 6.123 2.972 8.473 4.966 1.922 1.633 5.392 5.503 6.916 7.031 1.529 1.525 5.604 3.141 7.3 5.008 1.697 1.867 3.142 4.159 3.48 6.153.338 1.994.041 5.092.467 7.002.426 1.91 1.967 4.497 3.523 6.224 1.555 1.728 5.516 10.243 6.745 12.831 1.232 2.59 5.773 12.521 7.979 17.061 2.207 4.542 3.311 6.706 4.541 12.31 1.229 5.602 2.162 11.032 3.309 13.197 1.146 2.164 4.953 9.423 6.767 13.042 1.807 3.621 3.719 7.479 4.1 8.495.383 1.021 1.326 4.057 3.119 5.932 2.297 2.4 6.627 3.791 8.997 4.958 1.37.67 4.54 2.364 5.5 3.125 3.82 3 7.3 6.178 8.56 7.396 1.57 1.5 8 3.75 11.57 9.625.87 1.445 4.28 6.363 5.31 8 2.31 3.688 1.09 8.094.37 10.625-1.06 3.75-3.43 7.438-4.15 9.691-.79 2.475-2.15 9.422-3.08 11.657-.94 2.234-4.98 11.006-5.86 12.985-.88 1.981-5.83 12.251-7.1 14.854-1.28 2.602-2.98 6.109-4.4 9.307-1.41 3.197.09 5.123 2.04 6.054 1.95.935 13.02 6.197 15.62 7.472 2.6 1.273 2.86 3.225 3.77 4.864.9 1.641 2.88 6.509 3.45 7.979.56 1.473 1.65 2.32 2.38 3.021.72.699 1.03 1.953 1.22 3.099.2 1.146 1 4.477 1.64 6.176.64 1.695 5.62 14.783 6.64 17.555 1.02 2.772 3.17 8.203 3.51 9.31.34 1.102.37 2.205-.14 3.448-.51 1.246-1.92 4.755-2.07 5.83-.14 1.076-.11 3.197.29 5.064.39 1.867 1.02 4.299 1.04 6.508.03 2.205.15 6.31.29 8.146.14 1.842.62 4.387 1.1 6.678.48 2.293 1.67 8.037 2.12 10.102.45 2.065 2.27 8.855 3.08 11.713.83 2.857 2.35 7.355 3.12 9.789.76 2.435 5.19 16.367 6.33 19.807.28.84.81 2.35 1.45 4.19"/>
    <path fill="none" stroke="#f08a00" d="M767.613 1063.32c.913-2.68 1.763-5.08 2.483-6.61 1.441-3.05 5.503-9.79 9.577-16.86s6.732-11.43 7.64-13.01c.905-1.59 1.414-4.19 1.414-6.68 0-2.49.112-17.94.112-20.09 0-2.148 1.076-4.863.906-7.413-.17-2.543-.566-6.164-.736-7.918-.17-1.756.058-9.396 0-14.6-.057-5.207.113-10.187.228-12.168.112-1.98.68-4.187 1.812-6.732 1.132-2.549 3.451-6.959 3.961-8.602.509-1.642 1.188-3.451 1.132-6.563-.057-3.11-.113-16.295-.283-20.598-.17-4.301-.34-19.578-.565-26.029-.227-6.451.407-14.817.521-17.535.113-2.717.666-8.875 1.708-14.25.727-3.745 6.893-13.677 8.333-16.541 3.125-6.209 16.126-24.903 18.459-30.209 2.335-5.306 3.884-11.455 3.333-16.166-.553-4.711-3.863-21.524-4.202-24.752-.34-3.225-.849-9.676-.043-13.452.808-3.776.51-11.584.467-14.938-.043-3.354-.085-17.4-.043-21.518.043-4.115 2.193-7.864 3.325-12.73 1.132-4.867 1.867-9.79 7.3-15.052 5.433-5.263 9.873-9.776 14.033-12.067 4.158-2.292 8.062-3.776 12.394-7.343 4.325-3.563 9.717-8.572 14.428-13.452 4.713-4.881 16.594-17.398 20.457-21.134 3.86-3.734 7.24-6.493 8.742-10.172 1.434-3.512 3.842-9.769 5.83-14.131"/>
    <path fill="none" stroke="#00957e" d="M558.623 1114.63c1.728-1.67 8.658-8.94 11.841-12.38 3.185-3.44 7.938-7.13 9.891-8.44 1.951-1.32 6.492-3.7 9.421-4.97 2.928-1.27 11.416-2.88 16.508-2.5 5.093.38 17.146 1.74 22.026 2.25 4.881.51 15.829 1.73 20.201 2.16 4.37.42 8.146-.98 10.693-2.59 2.547-1.61 5.433-3.74 9.634-6.71 4.201-2.97 5.137-5.05 6.408-7.21 1.272-2.16 5.008-9.42 6.577-12.18 1.571-2.76 4.373-6.83 5.434-10.35 1.062-3.53 2.291-8.41 3.521-13.12 1.231-4.71 4.923-7.68 7.64-9.46 2.717-1.78 9.083-5.52 11.926-6.12 2.844-.59 17.229-2.28 19.395-3.17 2.165-.9 5.307-3.99 7.767-6.29 2.463-2.29 6.154-7.55 8.317-10.73 2.165-3.186 5.136-10.483 5.391-12.903.256-2.42.213-6.154-.084-9.763-.298-3.604-3.312-11.332-4.499-14.641-1.188-3.311-.808-4.16.213-6.791 1.019-2.633 1.711-4.654 1.881-9.408.17-4.752.905-23.764 1.188-31.346.282-7.582 5.544-9.281 8.939-11.092 3.395-1.812 9.591-5.488 13.071-7.568 3.479-2.078 8.147-5.248 10.752-6.916 2.603-1.668 6.902-2.406 8.459-2.662 1.557-.254 3.226-.619 3.622-1.924.396-1.301 1.103-2.631 2.264-3.902 1.159-1.272 3.423-3.479 5.162-5.305 1.74-1.826 2.504-2.631 4.201-5.137 1.697-2.502 3.584-5.451 5.639-8.59 2.291-3.5 5.208-5.542 7.875-5.125 1.978.31 3.813 1.133 8.927 2.837 1.061.397 2.184.801 3.313 1.194l6.486 2.254c5.506 1.91 9.271 3.197 11.362 3.943 3.918 1.4 5.817.344 8.23-.99 1.442-.799 2.635-1.446 3.727-2.043l2.305-1.262c1.289-.719 1.459-.814 3.492.051 3.156 1.34 11.099 4.705 12.48 5.361 2.299 1.09 4.506 1.07 6.741-.063 1.39-.705 2.021-1.028 4.729-.446 3.334.715 7.246 1.461 10.977 1.578 3.591.112 10.828.368 12.386.424 1.444.053 2.112.186 3.575.479 1.884.375 3.188.156 4.109-.076.412-.104.914-.055 2.141.189 1.291.258 2.435.576 3.794.965l.303.088c1.285.373 2.615.758 4.768.326 2.584-.523 5.162-.316 7.656.611 1.586.592 3.297 1.285 4.934 1.946 2.137.865 4.152 1.685 5.65 2.179 1.961.646 3.963.965 6.127.965a26.01 26.01 0 0 0 3.854-.305c2.575-.388 5.063-.966 6.879-1.388.869-.201 1.588-.369 2.088-.461 1.254-.227 3.16-.365 5.518-.396l3.806-.037c6.053-.058 17.317-.164 20.476-.26 2.94-.093 6.35-.332 9.1-.525 1.12-.078 2.14-.15 2.96-.199 2.22-.133 3.12-.047 4.48.084l.86.082c2.25.197 4.19-.229 5.97-.684 1.17-.299 4.73-1.213 8.73-1.479 2.09-.139 5.96-.229 9.7-.315 3.01-.068 5.99-.14 8.04-.232 5.02-.232 8.95-.533 10.8-.826 1.54-.248 2.72-.094 3.78.082 1.11.187 1.76.037 3.05-.26.37-.086.81-.188 1.37-.307 1.66-.355 10.18-2.429 16.41-3.941 2.68-.652 4.81-1.17 5.48-1.328 2.25-.533 3.39-1.074 4.59-1.826.43-.274 1.2-.274 1.94-.01 1.85.662 3.17.857 4.28.629 1.61-.328 2.64-1.35 3.78-2.893a211.68 211.68 0 0 1 3.58-4.666c.95-1.192 2.26-3.364 2.87-4.743.29-.656 1.09-2.249 1.9-3.859.77-1.551 1.56-3.116 1.93-3.926"/>
    <path fill="none" stroke="#6a2" d="M775.305 860.905c3.658-.916 5.864-1.64 9.121-2.734 5.39-1.813 9.874-3.459 13.607-4.732 3.735-1.271 5.688-2.149 8.178-2.234 2.49-.085 4.115 1.173 6.282 2.095 3.803 1.617 12.353 4.217 17.527 6.104 1.034.391 2.132.782 3.234 1.168l6.48 2.252c5.517 1.912 9.296 3.205 11.392 3.953 2.467.883 3.215.467 5.438-.764 1.45-.803 2.648-1.455 3.747-2.055l2.277-1.246c2.028-1.125 3.252-1.478 6.477-.107 3.215 1.365 11.211 4.756 12.607 5.418 1.358.644 2.446.64 3.748-.021 1.918-.976 3.272-1.537 6.979-.74 3.187.684 6.908 1.396 10.367 1.504 3.596.113 10.844.369 12.4.426 1.723.063 2.573.232 4.12.541 1.203.242 1.97.125 2.617-.039 1.188-.295 2.299-.114 3.636.152 1.416.283 2.625.619 4.061 1.031l.314.09c1.133.328 1.813.524 3.146.26 3.215-.652 6.416-.396 9.518.758 1.615.603 3.357 1.31 5.023 1.982 2.082.844 4.049 1.641 5.439 2.1 2.545.84 5.221 1.008 8.407.527 2.443-.367 4.854-.928 6.615-1.336a52.929 52.929 0 0 1 2.248-.494c1.457-.266 3.502-.418 6.08-.451l3.818-.039c6.041-.057 17.282-.162 20.402-.258 2.87-.09 6.25-.326 8.96-.518 1.14-.08 2.17-.152 3-.201 2.49-.154 3.6-.043 5.02.094l.83.078c1.56.143 2.95-.111 4.82-.59 1.24-.318 5.04-1.291 9.35-1.578 2.17-.144 6.07-.234 9.84-.322 2.99-.067 5.94-.137 7.97-.229 4.83-.224 8.72-.519 10.42-.787 2.23-.354 3.95-.068 4.88.086.42.07.53.057 1.73-.219.38-.091.84-.195 1.42-.318 1.61-.346 10.46-2.496 16.31-3.92 2.7-.656 4.83-1.176 5.5-1.334 1.99-.469 2.76-.894 3.56-1.396 1.35-.848 3.14-.965 4.91-.33 1.54.554 2.19.554 2.45.498.35-.071.73-.241 1.73-1.59 1.11-1.5 2.81-3.707 3.65-4.756.77-.971 1.93-2.877 2.42-3.998.3-.683 1.13-2.337 1.97-4.009.76-1.511 1.52-3.036 1.88-3.825"/>
    <path fill="none" stroke="#e75113" d="M550.674 753.784c1.528.537 5.234 2.065 6.789 2.717 1.558.649 3.453 1.896 4.557 3.084 1.103 1.188 1.585 3.706 1.782 4.924.197 1.217 1.104 3.762 1.612 4.583.509.82 2.149 3.111 3.479 5.629 1.33 2.519 3.254 6.196 4.499 9.083 1.244 2.887 2.954 6.398 3.336 7.277.688 1.583 2.601 3.458 4.451 4.634 1.985 1.262 4.2 1.782 6.025 1.656 1.825-.13 6.091-.852 8.807-1.063 2.717-.211 6.068.255 8.19.595 2.122.339 4.031 1.442 5.813 3.141 1.781 1.698 6.748 6.621 10.313 10.016 3.564 3.396 9.251 8.912 11.076 10.61 1.825 1.696 3.056 2.97 4.626 3.396 1.57.423 3.141.85 5.518 1.442 2.376.594 5.263.383 8.402.085 3.141-.297 17.062-1.669 24.304-2.404 7.243-.735 46.314-4.895 52.301-5.574 5.982-.679 15.233-1.526 20.455-2.122 5.22-.594 17.865-2.063 20.667-2.263 2.801-.199 3.112 1.075 4.414 2.604 1.301 1.527 6.62 7.979 8.033 9.704 1.415 1.727 1.644 2.094 3.481 3.451 1.838 1.358 18.53 14.068 19.932 15.15 1.4 1.082 3.742 2.221 5.377 2.839 4.625 1.75 10.808 9.447 12.25 10.438 1.442.988 4.371 2.015 5.87 2.608 1.499.593 23.481 8.348 25.634 9.139 2.15.793 11.896 3.961 15.802 5.362 3.903 1.4 16.28 5.476 18.432 6.125 2.151.65 3.791.281 5.855.935 2.065.649 2.545.596 4.782.594 9.188-.014 11.15-6.662 11.688-8.389.535-1.728 3.08-10.396 3.309-11.927.228-1.527 1.104-6.535 1.416-8.063.31-1.526.537-2.065 1.188-4.131.647-2.063 2.688-7.893 3.311-9.761.621-1.866.789-2.518.988-3.988.199-1.472.371-2.631.738-3.51.364-.876 1.158-2.234 1.582-2.828.424-.595 1.203-1.315 1.883-1.847.68-.53 1.526-1.168 1.994-1.889a47.355 47.355 0 0 0 1.696-2.885c.488-.914 1.593-3.016 4.201-3.566 2.609-.551 4.242-1.04 6.345-1.739 2.102-.699 4.543-1.592 7.004-1.739 2.46-.148 14.046-1.253 15.89-1.508 1.85-.255 2.973-.552 3.334-2.187.359-1.633 1.271-2.439 2.758-2.609 1.487-.17 6.488-.293 9.422 1.633 1.162.764 7.427 5.073 8.615 5.837 1.188.765 2.016 1.146 3.947 1.252 1.93.106 6.104.325 7.744.438 1.641.114 2.885.084 4.269-.679 1.39-.765 3.65-2.072 5.02-2.646 1.39-.571 2.15-.765 3.3-1.357 1.14-.593 2.8-1.399 3.5-1.847.69-.444 1.43-1.563 1.85-3.855.42-2.291.71-7.016.82-8.826.11-1.812.17-2.519.31-4.301.14-1.781.17-2.348-.4-4.328-.56-1.981-1.24-2.745-1.89-3.679-.65-.935-1.22-2.913.2-4.046 1.41-1.132 4.78-3.479 6.44-4.642 1.68-1.158 2.83-2.576 2.84-3.653.02-1.465.5-4.5-3.63-8.5-2.9-2.818-4.45-3.638-6.81-6-.73-.735-1.11-3.547-.56-5.375.4-1.333.33-2.67-.15-4.423-.48-1.755-1.82-6.448-2.22-7.702-.84-2.583.08-4.833 1.16-6.75.6-1.059 3.38-4.786 4.09-5.834.7-1.048 1.24-2.265 1.35-3.366.11-1.104.65-4.727.68-5.941.03-1.216-.14-2.264-.4-4.046-.25-1.782-.62-4.838-.73-6.932-.11-2.095-.45-7.243-.54-8.97-.08-1.727-.11-7.413-.14-10.723-.03-3.311 0-5.207.11-7.555.12-2.349.17-5.376.29-6.679a55.6 55.6 0 0 1 .56-4.385c.26-1.472 1.87-11.401 2.12-12.9.26-1.5.51-3.734.65-5.404.14-1.669.82-7.355.96-9.139.15-1.782 1.14-9.336 1.34-11.771.19-2.433.45-3.817.56-5.007.11-1.188.01-3.028-.2-5.008-.33-3.127-.4-4.81-.48-6.027-.05-.654-.76-3.083-1.24-4.188-.49-1.104-1.59-3.791-1.67-5.289-.09-1.501-.4-6.48-.6-9.395-.2-2.914-1.13-12.9-1.39-15.478-.25-2.573-.28-3.28-.42-4.441-.14-1.158-.74-2.828-1.24-4.017-.51-1.189-1.15-3.111-1.52-4.386"/>
  </g>
  <path fill="none" stroke="#cb6418" stroke-linejoin="round" stroke-miterlimit="10" stroke-width="2.83" d="M664.243 859.516c.97 2.456 2.471 5.543 4.229 8.692 1.14 2.045 3.137 3.942 5.066 5.776 1.361 1.293 2.771 2.631 3.787 3.943 1.41 1.817 4.532 5.518 7.839 9.434 2.686 3.183 5.411 6.41 7.182 8.591 1.942 2.395 3.447 4.438 5.04 6.604 1.537 2.088 3.126 4.248 5.142 6.746 1.797 2.229 4.986 6.119 8.536 10.449 4.385 5.352 9.319 11.373 12.854 15.75 6.588 8.162 15.936 19.313 22.412 26.135 6.983 7.35 16.696 7.568 22.499 7.699 3.694.082 11.346.092 16.778.092l10.464-.006c4.893 0 7.076-.347 10.101-.822.993-.156 2.087-.33 3.41-.51 3.597-.488 7.898-.588 13.255-.588l7.216.018 2.541-.008c6.947-.043 11.479-1.99 16.276-4.051 1.567-.675 3.188-1.369 4.906-1.996 6.05-2.201 11.896-2.64 15.816-1.228 3.271 1.181 5.405 2.525 8.108 4.23l1.674 1.049c3.107 1.922 5.313 4.238 7.388 10.387 2.311 6.842 5.024 11.861 6.647 14.08.998 1.369 4.718 5.875 10.605 6.379 2.391.205 5.156.31 8.225.31 1.875 0 3.681-.039 5.303-.092.925-.029 2.05-.045 3.285-.045 3.467 0 8.715.131 12.088.502 3.16.348 7.693 2.207 12.076 4.004 1.133.47 2.257.93 3.357 1.36 5.619 2.22 9.024 3.87 12.154 5.89.858.56 1.879 1.33 3.059 2.23 3.189 2.43 8.008 6.1 15.83 10.03 7.514 3.78 13.385 5.39 19.633 5.39 1.946 0 3.986-.15 6.406-.47 8.01-1.06 20.91-3.05 27.13-4.08 3.49-.58 6.67-1.4 9.74-2.19 2.44-.63 4.96-1.27 7.67-1.81 6.43-1.28 24.98-5.48 31.78-7.15 3.21-.79 9.27-2.33 15.79-4 7.54-1.92 15.69-4 20.79-5.25 10.82-2.655 16.54-9.276 18-20.836.6-4.717 1.43-11.498 2.26-18.202 1.15-9.287 2.32-18.894 2.75-21.97a684.72 684.72 0 0 0 1.46-11.41l.2-1.6c.58-4.711 1.23-9.826 2.32-15.994 1.15-6.576 3.55-11.44 5.74-15.332 2.56-4.524 3.8-5.969 8.15-10.771 4.5-4.976 5.84-7.058 6.85-10.607.79-2.78 1.46-5.592 2.17-8.567l.37-1.515c.35-1.469.68-3.079 1-4.66.47-2.354.92-4.575 1.42-6.142.73-2.277 3.13-6.193 4.88-9.053l.59-.963c1.41-2.316 4.31-7.289 6.87-11.678l2.59-4.448c2.99-5.115 2.23-9.627 1.78-12.322-.06-.327-.11-.633-.15-.913l-.04-.319c-.39-2.75-1.12-7.87-2.04-10.523-1.03-2.97-7.19-17.692-7.45-18.317-1.42-3.386-2.2-5.25-3.87-10.06-1.91-5.496-5.94-8.849-9.07-10.151-1.01-.42-2.14-.833-3.33-1.267-2.22-.813-4.52-1.65-6.65-2.748-8.45-4.367-11.64-6.382-12.83-7.304-1.86-1.439-5.27-7.131-7.09-10.188-.41-.69-.78-1.309-1.1-1.813-1.38-2.259-4.01-6.406-6.52-10.367l-2.67-4.214c-2.7-4.285-6.3-10.31-8.93-14.706l-.91-1.521c-2.66-4.441-4.06-6.247-7.64-8.891-2.64-1.94-5.14-3.447-8.03-5.192-.9-.546-1.84-1.113-2.83-1.721-2.06-1.269-4.33-2.947-6.73-4.727-2.24-1.658-4.56-3.376-6.94-4.926-5.19-3.381-8.76-5.434-13.17-7.574l-.63-.306c-4.28-2.072-9.13-4.422-13.21-6.793-4.27-2.483-7.81-5.713-12.3-9.802-4.48-4.086-7.43-5.741-10.28-7.343l-1.35-.763c-2.91-1.643-5.65-3.193-8.15-4.141-2.03-.768-4.2-.884-6.3-.995-.84-.046-1.7-.091-2.56-.181-.69-.072-1.36-.15-2.02-.229-2.19-.255-4.45-.519-7.04-.519-3.35 0-9.74.47-13.986.923-3.03.325-7.784.398-13.293.482-1.903.028-3.911.061-5.995.104-6.117.125-11.837.592-16.013.933-1.498.121-2.813.229-3.908.302-2.366.156-5.728.979-8.979 1.775-2.637.646-5.365 1.313-6.967 1.452-3.617.313-7.22 1.234-12.039 3.083-3.527 1.351-8.834 5.104-13.101 8.118a193.063 193.063 0 0 1-3.358 2.344c-3.074 2.073-7.965 5.619-11.896 8.469l-3.412 2.47c-2.045 1.474-5.78 4.259-9.489 7.022-3.625 2.702-7.226 5.385-9.175 6.791a839.403 839.403 0 0 0-4.368 3.179c-2.634 1.925-5.177 3.782-6.947 4.995-2.623 1.79-3.708 2.531-8.272 3.082-4.972.602-18.724 3.27-24.98 4.564l-40.869 8.444c-5.854 1.211-14.932 3.337-23.713 5.393-6.275 1.47-12.29 2.878-16.582 3.822-15.007 3.299-24.679 5.354-27.973 5.941-2.968.53-9.907 2.171-16.03 3.618-2.798.661-5.403 1.277-7.332 1.717l-.837.192c-2.448.565-4.382 1.014-8.459 1.209l-1.76.073c-4.165.157-8.1.308-12.72 2.592-5.425 2.681-10.838 8.749-9.762 17.74.652 5.46 1.168 8.829 1.763 12.731.279 1.829.572 3.753.901 6.037.869 6.038 1.521 9.274 2.512 14.173l.559 2.781c.526 2.628 1.153 5.456 1.743 8.115.846 3.814 1.646 7.42 1.889 9.321.416 3.245-.028 6.8-1.321 10.563-1.042 3.033-2.893 7.006-4.681 10.848-.631 1.356-1.256 2.699-1.838 3.984-2.112 4.662-2.203 10.347-2.251 13.401l-.022 1.093c-.091 2.634.28 6.64 1.304 9.234Z"/>
  <path fill="none" stroke="#ad5937" stroke-linejoin="round" stroke-miterlimit="10" stroke-width="2.83" d="M667.407 858.267c.916 2.32 2.349 5.261 4.034 8.285.888 1.594 2.613 3.231 4.438 4.969 1.453 1.381 2.956 2.81 4.133 4.322 1.366 1.764 4.611 5.606 7.75 9.324 2.7 3.2 5.442 6.448 7.223 8.641 1.994 2.457 3.594 4.631 5.141 6.732 1.515 2.059 3.08 4.188 5.048 6.625 1.794 2.225 4.978 6.108 8.521 10.43 4.391 5.356 9.331 11.387 12.869 15.77 6.247 7.74 15.818 19.175 22.233 25.929 6.008 6.323 14.835 6.522 20.107 6.641 3.66.084 11.285.092 16.702.092l10.464-.006c4.625 0 6.592-.311 9.569-.779 1.015-.159 2.13-.336 3.482-.521 3.784-.514 8.22-.619 13.712-.619l7.217.018 2.52-.008c6.261-.039 10.484-1.854 14.957-3.772 1.609-.691 3.274-1.408 5.084-2.066 6.882-2.504 13.402-2.936 18.135-1.229 3.619 1.305 6.006 2.811 8.771 4.551l1.647 1.033c3.673 2.272 6.431 5.104 8.82 12.192 2.047 6.06 4.574 10.978 6.172 13.162.785 1.076 3.693 4.613 8.15 4.994 2.293.197 4.963.297 7.934.297 1.836 0 3.604-.037 5.193-.088.953-.031 2.117-.049 3.395-.049 3.554 0 8.949.137 12.461.521 3.638.402 8.396 2.354 12.994 4.242 1.119.459 2.232.914 3.316 1.344 5.844 2.306 9.418 4.046 12.748 6.196.971.62 2.039 1.44 3.275 2.38 3.272 2.49 7.758 5.91 15.297 9.69 7.008 3.53 12.422 5.03 18.104 5.03 1.797 0 3.687-.14 5.957-.44 7.98-1.06 20.82-3.04 27.03-4.07 3.34-.55 6.3-1.31 9.44-2.12 2.48-.64 5.06-1.3 7.86-1.85 6.22-1.24 24.96-5.48 31.62-7.12 3.21-.78 9.26-2.33 15.77-3.99 7.55-1.92 15.71-4.007 20.82-5.261 9.39-2.305 14.16-7.844 15.44-17.955.59-4.713 1.43-11.49 2.25-18.192 1.2-9.728 2.33-18.914 2.75-22.015.64-4.608 1.01-7.651 1.46-11.36l.2-1.603c.56-4.549 1.24-9.922 2.34-16.17 1.25-7.082 3.81-12.271 6.14-16.414 2.72-4.828 4.13-6.461 8.58-11.383 4.41-4.863 5.3-6.422 6.1-9.252.77-2.715 1.41-5.365 2.14-8.433l.37-1.518c.34-1.432.66-3 .97-4.54.5-2.448.96-4.76 1.52-6.502.85-2.668 3.27-6.619 5.22-9.793l.58-.958c1.4-2.288 4.29-7.245 6.84-11.619l2.6-4.454c2.36-4.049 1.78-7.511 1.35-10.038-.06-.356-.11-.689-.16-.999l-.04-.321c-.35-2.448-1.07-7.541-1.89-9.885-.8-2.299-5.17-12.858-7.37-18.123-1.44-3.447-2.24-5.348-3.95-10.256-1.54-4.438-4.82-7.151-7.16-8.127-.97-.4-2.05-.796-3.19-1.213-2.21-.808-4.72-1.724-7.04-2.921-6.97-3.601-11.47-6.169-13.36-7.635-2.18-1.693-4.99-6.231-7.92-11.132-.41-.679-.77-1.284-1.07-1.779-1.38-2.249-4-6.382-6.5-10.327l-2.67-4.218c-2.73-4.32-6.35-10.364-8.98-14.776l-.91-1.521c-2.47-4.123-3.59-5.57-6.74-7.9-2.51-1.846-4.94-3.314-7.76-5.017-.92-.552-1.86-1.123-2.86-1.735-2.19-1.345-4.51-3.065-6.98-4.89-2.2-1.631-4.48-3.316-6.77-4.812-5.05-3.295-8.52-5.29-12.8-7.362l-.63-.306c-4.33-2.1-9.24-4.479-13.43-6.915-4.58-2.664-8.24-6.001-12.88-10.227-4.2-3.824-6.97-5.384-9.66-6.891l-1.36-.77c-2.78-1.576-5.41-3.063-7.67-3.919-1.54-.581-3.36-.678-5.28-.78-.9-.049-1.81-.098-2.73-.193-.7-.073-1.39-.153-2.06-.232-2.19-.254-4.25-.494-6.65-.494-3.19 0-9.558.47-13.622.903-3.186.342-8.014.415-13.604.501-1.898.029-3.9.061-5.979.104-6.014.124-11.674.585-15.805.922-1.519.123-2.854.231-3.963.306-2.068.136-5.285.924-8.395 1.687-2.889.708-5.619 1.377-7.481 1.536-3.283.283-6.607 1.143-11.115 2.871-3.129 1.197-8.459 4.967-12.353 7.719a207.058 207.058 0 0 1-3.424 2.389c-3.022 2.04-7.889 5.566-11.799 8.4l-3.42 2.476c-2.035 1.467-5.754 4.238-9.445 6.989-3.643 2.717-7.258 5.411-9.219 6.824-1.4 1.01-2.891 2.099-4.352 3.165-2.688 1.965-5.229 3.821-7.033 5.058-3.049 2.082-4.614 3.026-9.784 3.65-4.871.589-18.491 3.233-24.7 4.519l-40.869 8.445c-5.81 1.201-14.866 3.322-23.627 5.373-6.292 1.475-12.321 2.886-16.627 3.832-15.265 3.355-24.72 5.363-28.104 5.968-2.876.516-9.769 2.145-15.849 3.581-2.808.664-5.423 1.282-7.357 1.724l-.826.189c-2.511.58-4.68 1.082-9.062 1.293l-1.795.074c-3.956.15-7.373.279-11.341 2.241-4.383 2.166-8.758 7.057-7.893 14.287.646 5.406 1.156 8.751 1.748 12.624.28 1.837.574 3.77.905 6.064.855 5.943 1.501 9.144 2.479 13.984l.561 2.787c.521 2.604 1.145 5.409 1.729 8.046.9 4.063 1.679 7.571 1.941 9.626.482 3.768-.016 7.839-1.479 12.101-1.101 3.202-2.987 7.258-4.813 11.179-.626 1.346-1.246 2.678-1.823 3.953-1.82 4.018-1.903 9.242-1.948 12.051-.007.439-.014.828-.023 1.153-.075 2.297.274 5.833 1.073 7.859Z"/>
  <path fill="none" stroke="#cd9c53" stroke-miterlimit="10" stroke-width="2.83" d="M1292.38 1345.29c1.31-1.1 2.68-2.26 4.11-3.49 4.67-3.98 9.96-8.5 17.36-13.99 7.7-5.73 18.58-7.93 30.1-10.26 3.42-.69 6.95-1.4 10.4-2.21 15.95-3.76 22.69-7.45 25.28-9.32l1.21-.86c2.94-2.07 5.25-3.72 7.05-6.84 2.45-4.25 4.59-7.59 7.06-10.1 1.26-1.29 2.81-2.06 4.59-2.95 2.06-1.03 4.61-2.31 7.61-4.88 5.19-4.45 13.19-15.15 18.45-22.96 2.44-3.62 3.84-6.79 4.1-9.74.69-7.69-2.97-11.1-6.76-15.9"/>
  <path fill="none" stroke="#cd9c53" stroke-miterlimit="10" stroke-width="2.83" d="M665.118 788.836c.131.653.268 1.323.407 2.021l.558 2.774c.53 2.649 1.162 5.503 1.757 8.184.829 3.738 1.612 7.271 1.837 9.019.349 2.723-.043 5.76-1.165 9.024-.984 2.865-2.796 6.755-4.547 10.519a417 417 0 0 0-1.854 4.016c-2.404 5.306-2.502 11.45-2.554 14.752l-.021 1.032c-.104 3.063.334 7.527 1.543 10.589 1.022 2.591 2.593 5.824 4.42 9.097 1.394 2.5 3.58 4.578 5.695 6.59 1.329 1.263 2.583 2.453 3.443 3.563 1.453 1.873 4.598 5.598 7.927 9.541 2.67 3.164 5.38 6.373 7.14 8.541 1.894 2.33 3.373 4.344 4.941 6.475 1.56 2.119 3.17 4.312 5.233 6.867 1.8 2.23 4.994 6.127 8.549 10.465 4.38 5.347 9.312 11.361 12.841 15.734 6.631 8.213 16.048 19.447 22.595 26.34 7.958 8.377 18.973 8.625 24.889 8.758 2.838.063 8.193.095 16.854.095l10.464-.009c5.158 0 7.573-.381 10.63-.862.975-.152 2.044-.322 3.34-.498 3.405-.463 7.577-.56 12.796-.56l7.217.019 2.561-.008c7.639-.047 12.702-2.224 17.601-4.326 1.594-.685 3.1-1.332 4.727-1.924 5.249-1.912 10.396-2.347 13.499-1.226 2.924 1.056 4.822 2.252 7.449 3.908l1.699 1.064c2.188 1.354 4.018 2.846 5.953 8.582 2.434 7.209 5.358 12.586 7.122 14.997 1.216 1.664 5.742 7.138 13.063 7.763 2.486.213 5.352.318 8.516.318 1.914 0 3.758-.04 5.414-.091.894-.028 1.98-.043 3.174-.043 4.453 0 9.056.184 11.716.484 2.686.29 7.188 2.14 11.157 3.77 1.146.47 2.285.93 3.398 1.38 5.395 2.13 8.635 3.69 11.563 5.58.748.48 1.718 1.22 2.841 2.07 3.289 2.51 8.26 6.29 16.362 10.37 8.019 4.03 14.347 5.75 21.16 5.75 2.102 0 4.282-.16 6.852-.5 8.05-1.07 20.99-3.07 27.24-4.1 3.64-.6 6.89-1.44 10.03-2.24 2.4-.62 4.87-1.26 7.49-1.78 6.47-1.28 25.1-5.5 31.92-7.18 3.22-.79 9.29-2.34 15.83-4.01 7.52-1.92 15.67-3.99 20.75-5.24 13.33-3.42 17.72-2.25 26.42.03 5.27 1.39 10.72 1.26 18.05-.41 7.32-1.67 16.93-4.437 24.07-6.046 10.27-2.322 13.69-2.313 22.49 6.866 4.81 5.02 5.27 5.86 7.54 8.27 3.29 3.49 6.15 6.63 8.61 9.34 3.02 3.33 6.52 6.69 9.92 9.94 3.02 2.89 5.89 5.64 8.4 8.33 2.4 2.57 6.3 6.6 10.43 10.87 5.55 5.73 11.83 12.23 15.92 16.66 4.22 4.59 6.63 7.14 8.52 9.13 1.32 1.39 2.38 2.51 3.63 3.88 3.33 3.64 11.25 11.81 17.39 16.72 1.37 1.1 2.69 2.11 3.98 3.1 4.32 3.31 8.05 6.16 12.8 11.56l2.08 2.38c6.78 7.71 18.12 20.62 23.94 27.01l1.77 1.95c5.93 6.52 12.66 13.91 16.46 18.71 4.12 5.2 16.38 19.64 23.02 26.52 5.84 6.05 15.61 16.17 20.76 21.88 4.94 5.48 13.05 15.12 17.01 20.09 2.61 3.28 6.5 7.22 10.26 11.03 1.98 2.01 3.93 3.98 5.62 5.79 2.05 2.19 4.28 4.86 6.87 7.96 3.42 4.09 7.3 8.74 12.29 14.14 8.39 9.1 25.98 28.24 33.08 36.02 2.77 3.04 5.59 6.11 8.3 9.06 4.09 4.45 7.92 8.62 10.93 11.98 4.65 5.2 8.58 11.6 16.04 30.48 2.07 5.26 5.13 12.96 8.56 21.62 9.21 23.22 21.82 55.02 24.5 62.23 6.25 16.77 11.78 34.67 17.41 56.31l.23.88c4.14 15.93 6.22 23.93 16.06 45.77 7.39 16.41 11.17 26.73 15.54 38.69 1.4 3.81 2.85 7.79 4.5 12.18 6.39 16.97 6.95 20.08.51 44.57l-.38 1.43c-6.49 24.68-10.79 40.99-11.62 68.71-.51 17.06-.46 30.93-.42 42.07.02 6.89.05 12.33-.08 16.43"/>
  <path fill="none" stroke="#0066ad" stroke-linejoin="round" stroke-width="2.83" d="M435.784 712.802c.717.195 1.354.354 1.949.505 2.729.688 4.703 1.184 9.503 3.655 7.03 3.62 12.482 6.126 15.77 7.245 2.78.945 12.27 2.947 28.199 5.95 9.061 1.704 12.135 6.793 13.804 11.036 1.801 4.585.258 9.824-.823 12.54-1.049 2.635-3.756 9.743-5.309 13.861-1.485 3.943-1.836 5.931-1.703 9.667.14 3.854.986 18.459 1.625 22.876.441 3.059 3.057 7.063 7.77 11.902 4.373 4.487 8.452 8.129 12.123 10.818 4.098 3.007 11.348 1.299 16.145.169 3.202-.755 9.604-2.464 16.383-4.272 4.577-1.224 9.312-2.486 13.317-3.525 9.746-2.528 11.684-2.37 15.928-2.021l.62.05c4.594.365 8.599 2.305 10.713 5.188.863 1.178 1.65 2.502 2.412 3.783.661 1.111 1.346 2.262 2.048 3.259.808 1.145 3.542 3.676 11.994 9.235 6.413 4.22 8.581 10.563 9.304 13.972a801.771 801.771 0 0 0 1.92 8.896c.623 2.819 1.316 3.76 2.121 4.848.894 1.211 2.243 3.012 5.06 6.646 2.21 2.85 4.229 3.51 9.104 5.104l1.917.631c6.266 2.088 8.659 2.435 12.438.676a373.239 373.239 0 0 1 8.048-3.604c5.007-2.166 10.048-4.51 11.855-5.385a138.028 138.028 0 0 1 3.671-1.82c.981-.469 1.806-.875 2.541-1.236 3.68-1.813 5.056-2.494 14.052-4.541 10.993-2.499 14.957-3.916 22.974-6.782 1.605-.575 3.125-1.132 4.566-1.658 5.528-2.021 9.896-3.618 13.751-4.317 4.66-.846 9.385-.627 17.588.146l6.536.62c8.715.829 20.649 1.965 26.951 2.493 8.969.75 12.771-3.303 17.019-11.556a339.393 339.393 0 0 1 2.351-4.479c2.476-4.659 3.97-7.472 5.863-13.425 1.706-5.36 3.04-9.806 4.112-13.381l1.155-3.825c.793-2.601 1.521-3.557 2.971-5.462.605-.795 1.313-1.725 2.162-2.95a212.168 212.168 0 0 0 2.313-3.429c1.75-2.633 3.402-5.119 4.592-6.104 2.549-2.116 5.574-4.12 12.007-3.467 3.516.361 6.9.811 10.175 1.242 3.401.45 6.615.875 9.837 1.192 7.056.691 11.688-2.28 15.638-5.597L875 776.36c4.363-3.65 10.339-8.65 12.419-10.777l.354-.363c2.279-2.345 5.117-5.265 9.728-6.235 5.327-1.119 9.62-1.152 12.079-.102 2.603 1.116 4.753 2.554 6.8 5.938l.692 1.159c1.984 3.333 3.859 6.48 7.084 7.99 3.525 1.647 6.304 1.571 10.5 1.46 2.506-.078 4.642 1.021 6.691 2.079.973.501 1.893.974 2.824 1.305 3.575 1.265 8.192 2.667 12.375 2.298l1.114-.097c3.603-.306 6.709-.569 9.592-2.799 1.146-.886 2.072-1.66 2.957-2.398 1.214-1.013 2.359-1.969 3.888-3.047 2.086-1.472 3.065-1.507 5.434-1.592l1.418-.053c2.486-.091 4.449-.16 7.16-1.11 1.262-.442 2.74-1.036 4.162-1.608 1.666-.67 3.238-1.303 4.217-1.59 1.683-.494 4.582-.328 7.022 1.196 3.6 2.259 6.95 5.145 10.21 8.823 1.16 1.304 2.19 2.414 3.1 3.392 2.12 2.273 3.53 3.775 4.09 5.193.51 1.269.77 2.42.99 3.437.19.823.34 1.534.6 2.16.3.7.86 1.616 1.51 2.677.56.928 1.15 1.886 1.46 2.563.25.542.52 1.292.81 2.07.57 1.573 1.12 3.061 1.77 3.954.86 1.19 2.03 2.821 6.57 5.257 1.24.666 2.23 1.18 3.09 1.619 2.02 1.04 3.13 1.612 4.78 2.813.35.26.7.533 1.06.81 2.18 1.679 4.88 3.766 9.52 3.873 4.66.109 5.88.288 9.11 1.006 1.17.26 2.39.519 3.57.77 2.14.455 4.17.886 5.41 1.223 1.73.47 2.36.861 4.28 2.338 1.48 1.139 4.01 2.902 6.25 4.459.92.641 1.77 1.236 2.46 1.722 2.45 1.729 8.05 5.022 11.1 6.4 3.36 1.51 12.88 4.496 15.95 5.424 1.12.338 2.6.795 4.27 1.313 4.31 1.337 10.2 3.169 14.54 4.345 4.94 1.343 8.32 2.11 11.91 2.923l2.33.532c4.34.994 16.42 4.103 24.22 6.355 6.31 1.827 15.53 4.149 22.63 7.01 9.23 3.717 13.28 5.982 20.84 11.16 7.55 5.178 20.6 13.438 26.76 17.117 6.17 3.68 12.07 11.021 17.67 12.846 5.61 1.825 8.83 2.717 15.66 7.51 6.84 4.797 10.87 7.726 16.47 14.22 5.6 6.491 7.17 8.02 13.58 12.815s23.94 17.146 31.36 22.619c7.43 5.475 33.57 24.785 42.44 31.106 8.87 6.324 23.13 16.642 31.15 22.412s24.8 17.93 33.97 24.78c9.16 6.85 20.99 13.64 38.93 13.69 17.94.06 20.99-1.35 36.66.8 15.68 2.14 26.71 2.54 34.64 2.83 7.92.28 41.07 1.24 54.77 2.37 13.69 1.13 21.76 1.7 36.35 4.16 14.6 2.46 48.1 8.02 57.04 9.42 40.35 6.33 73.35 11.58 93.1 15.33s33.5 9 43.25 26 17.75 42.5 39.5 47c20.39 4.22 41 3.83 53.59 23.54"/>
  <path fill="none" stroke="#ec7404" stroke-linejoin="round" stroke-width="2.83" d="M666.912 860.454c1.322-.68 2.589-1.313 3.853-1.911.947-.452 1.742-.845 2.453-1.194 4.388-2.164 6.221-2.949 15.553-5.072 10.596-2.408 14.431-3.779 22.07-6.513 1.71-.611 3.213-1.161 4.642-1.684 5.835-2.135 10.443-3.819 14.874-4.623 5.928-1.077 12.053-.629 19.439.066l6.543.621c8.697.828 20.61 1.962 26.874 2.485 4.782.396 6.616-.534 10.399-7.889.899-1.748 1.688-3.229 2.394-4.558 2.373-4.467 3.681-6.928 5.388-12.294a805.874 805.874 0 0 0 4.081-13.274l1.164-3.855c1.147-3.764 2.435-5.454 4.063-7.595a68.72 68.72 0 0 0 1.986-2.708c.786-1.135 1.53-2.256 2.235-3.315 2.211-3.327 3.957-5.954 5.915-7.577 3.574-2.969 8.398-5.886 17.047-4.997 3.611.372 7.047.826 10.369 1.267 3.344.441 6.503.859 9.61 1.166 4.335.43 7.168-1.157 10.595-4.035l2.17-1.819c3.77-3.154 10.078-8.435 11.92-10.318l.34-.349c2.615-2.688 6.563-6.751 13.203-8.148 6.883-1.449 12.317-1.346 16.162.302 4.446 1.909 7.42 4.502 9.94 8.672l.717 1.197c1.435 2.409 2.789 4.686 4.121 5.31 1.97.919 3.449.925 7.437.821 4.271-.142 7.569 1.587 9.985 2.831.765.393 1.484.764 1.984.939 1.714.607 6.281 2.229 9.494 1.936l1.147-.101c3.267-.275 4.761-.438 6.002-1.399 1.07-.828 1.937-1.553 2.763-2.24 1.264-1.056 2.569-2.146 4.324-3.384 3.739-2.639 6.35-2.731 9.11-2.831l1.418-.053c2.203-.079 3.418-.123 5.152-.731 1.176-.412 2.551-.968 3.875-1.501 1.822-.732 3.545-1.425 4.838-1.805 2.955-.868 8.019-.882 12.549 1.959 4.16 2.604 7.99 5.9 11.69 10.072 1.11 1.258 2.11 2.325 2.99 3.268 2.55 2.731 4.39 4.706 5.43 7.307.71 1.78 1.06 3.341 1.31 4.48.09.416.16.782.26 1.075.11.228.65 1.107 1.01 1.69.67 1.094 1.36 2.226 1.84 3.263.31.677.66 1.612 1.02 2.592.28.759.74 2.028.96 2.413.46.614 1.05 1.44 4.21 3.136 1.19.644 2.16 1.141 2.98 1.565 2.09 1.074 3.59 1.852 5.66 3.356.41.298.82.608 1.23.925 1.88 1.446 3.11 2.402 5.51 2.459 5.08.119 6.79.355 10.44 1.165 1.15.255 2.34.509 3.5.755 2.24.478 4.36.926 5.78 1.313 2.89.782 4.3 1.713 6.64 3.506 1.36 1.043 3.93 2.835 6 4.273.94.651 1.81 1.259 2.5 1.75 2.14 1.514 7.36 4.574 9.97 5.754 2.52 1.135 10.52 3.722 15.13 5.111 1.13.343 2.62.806 4.31 1.329 4.26 1.322 10.09 3.132 14.3 4.276 4.81 1.305 7.98 2.021 11.64 2.854l2.35.535c4.41 1.011 16.68 4.166 24.58 6.451 1.45.331 9.31 2.609 11.75 3.438 4.28 1.457 7.97 2.717 11.21 3.094 4.87.563 9.92-.749 15.87-4.147 4.73-2.692 10.05-7.178 15.69-11.927l2.78-2.338c3.3-2.765 7.49-6.486 11.54-10.088 3.99-3.555 7.77-6.91 10.49-9.17l.75-.62c4.99-4.146 7.74-6.429 12.71-8.51 5.38-2.251 13.64-4.673 20.72-4.717 6.79-.04 12.08.112 20.02.427 2.07.081 4.87.22 7.9.369 7.43.363 17.59.861 19.88.629 4.57-.392 15.55-1.601 20.09-2.776 10.27-2.659 16.98-3.851 26.71.169 9.74 4.018 9.51 7.13 26.6 7.979 17.09.849 28.32 1.613 36.21 1.91 7.9.297 28.18 1.372 38.93 1.881 10.76.51 33.9 1.643 42.13 2.065 8.24.425 16.67.254 27.36-1.442 10.69-1.697 18.11-3.508 26.09-4.471 7.98-.962 34.49-4.952 48.74-7.243 14.26-2.291 73.11-11.545 82.34-12.899 55.29-8.124 91.63-14.457 113.29-18.124 21.67-3.667 31.34-10.666 57.34-14.333 26-3.667 42.99-.001 70.33-4.334 27.33-4.333 135-19.999 159-24.666 24-4.667 39.82-3.719 60.33-2.334 54.34 3.667 52.67-17.666 66.67-59.666"/>
  <path fill="none" stroke="#6a2" stroke-miterlimit="10" stroke-width="2.83" d="M684.646 29.664c.583 5.103.545 7.66.667 11.5.179 5.626.011 11.35-.584 21.75-1 17.5-2.434 44.5-3.434 58.25s-.673 18.011 3 23.5c4.434 6.625 17.001 8.25 26.251 2.75s10.183-14.25 12.183-26.5c3.239-19.84 20.75-19.25 42.5-9 15.385 7.25 28.75 15.25 56.5 25.25s80.75 28.75 106 38.25 29.75 11.5 52.708 34.162c7.576 7.478 25.573 24.331 34.183 33.498 8.6 9.167 22.55 22.662 30.78 32.764 8.23 10.1 23.2 28.461 30.27 37.006 7.07 8.545 26.77 32.593 32.88 39.894 6.11 7.3 12.13 14.387 14.34 17.866 2.21 3.479 5.35 6.875 8.32 9.932 2.97 3.055 6.44 7.853 7.58 12.521 1.15 4.669.97 7.785.43 10.271-.65 2.995-3.1 7.03-3.1 7.03-4.94 7.67-16.8 25.524-25.46 38.563a5588.2 5588.2 0 0 0-8.33 12.552c-4.82 7.289-14.55 22.517-23.13 35.95-3.7 5.795-7.1 11.116-9.62 15.042-8.12 12.632-13.71 20.304-17.61 24.145-3.48 3.426-31.8 30.843-37.44 36.079-2.36 2.188-7.47 7.125-12.88 12.354-7.077 6.837-11.909 11.587-15.241 14.597-5.438 4.909-6.271 14.008-5.961 16.768 0 0 .154 2.699.316 3.748.492 3.179 1.338 9.515 1.713 13.326.445 4.521 1.271 11.169 16.375 9.813 2.128-.191 4.188-.375 7.048-.28 2.79.093 5.15.275 7.43.541.65.076 1.31.152 1.99.223.8.085 1.6.125 2.39.167 2.24.12 4.79.258 7.31 1.212 2.75 1.038 5.73 2.729 8.62 4.362l1.34.756c2.88 1.615 6.14 3.446 10.91 7.793 4.81 4.388 7.96 7.188 11.72 9.376 3.97 2.309 8.75 4.627 12.98 6.673l.63.306c4.56 2.21 8.23 4.319 13.55 7.786 2.46 1.604 4.82 3.353 7.1 5.042 2.34 1.732 4.55 3.369 6.49 4.561.98.604 1.91 1.165 2.81 1.707 2.84 1.714 5.52 3.333 8.28 5.366 4.03 2.972 5.67 5.073 8.55 9.883l.91 1.527c2.62 4.382 6.21 10.382 8.89 14.63l2.66 4.204c2.52 3.979 5.16 8.146 6.56 10.415.31.513.69 1.143 1.11 1.848 1.32 2.219 4.85 8.112 6.26 9.247.7.547 3.32 2.325 12.31 6.966 1.93.999 4.12 1.8 6.25 2.575 1.23.452 2.41.884 3.46 1.32 3.82 1.588 8.71 5.62 10.99 12.177 1.63 4.71 2.4 6.54 3.79 9.864.66 1.575 6.48 15.499 7.52 18.513.95 2.734 1.64 7.195 2.19 11.162l.05.32c.04.25.08.526.13.823.5 2.944 1.43 8.425-2.19 14.606l-2.59 4.44c-2.69 4.618-5.48 9.394-6.91 11.738l-.59.967c-1.56 2.56-3.93 6.427-4.53 8.313-.45 1.389-.9 3.622-1.34 5.783-.33 1.622-.66 3.271-1.02 4.779l-.37 1.515c-.72 3.01-1.4 5.852-2.21 8.7-1.24 4.396-3.07 6.957-7.6 11.959-4.31 4.771-5.19 5.996-7.7 10.16-2.57 4.277-3.74 8.035-4.78 12.14-.83 3.282-1.21 6.125-1.7 9.723l-.06.445c-.54 4.012-1.36 10.073 2.08 13.645 2.6 2.699 5.39 5.705 8.07 8.695l4.77 5.317c11.65 13.013 35.91 40.089 43.87 48.554 9.4 10.001 17.03 18.131 22.56 24.221 2.94 3.25 6.4 6.56 9.75 9.77 2.93 2.81 5.96 5.71 8.54 8.47 2.37 2.55 6.26 6.57 10.38 10.82 5.57 5.75 11.87 12.26 15.98 16.73 4.2 4.56 6.61 7.1 8.49 9.09 1.34 1.41 2.41 2.54 3.67 3.92 3.27 3.57 11.03 11.58 17 16.36 1.36 1.08 2.65 2.08 3.93 3.06 4.28 3.27 8.31 6.36 13.29 12.02l2.08 2.37c6.77 7.71 18.1 20.6 23.9 26.97l1.76 1.94c5.98 6.57 12.75 14 16.62 18.9 4.59 5.79 16.63 19.87 22.8 26.27 5.85 6.06 15.65 16.21 20.84 21.97 4.97 5.51 13.15 15.23 17.14 20.23 2.51 3.15 6.33 7.02 10.02 10.77 2 2.03 3.97 4.03 5.68 5.86 2.12 2.26 4.38 4.96 7 8.1 3.4 4.06 7.25 8.67 12.18 14.01 8.4 9.11 26 28.25 33.09 36.04 2.77 3.04 5.59 6.1 8.3 9.05 4.1 4.46 7.94 8.64 10.96 12.02 4.91 5.49 9.02 12.14 16.66 31.49 2.08 5.26 5.13 12.96 8.57 21.61 9.21 23.24 21.83 55.06 24.52 62.3 6.29 16.89 11.86 34.89 17.52 56.65l.22.88c3.59 13.77 5.51 21.19 11.94 36.29"/>
  <path fill="none" stroke="#992746" stroke-miterlimit="10" stroke-width="2.83" d="M434.892 716.086c.739.2 1.396.365 2.012.521 2.604.655 4.324 1.089 8.776 3.38 5.003 2.577 11.88 5.96 16.229 7.442 2.976 1.012 12.352 2.998 28.667 6.073 7.358 1.384 9.763 5.112 11.267 8.938 1.372 3.495.076 7.79-.817 10.038-1.057 2.654-3.774 9.789-5.331 13.92-1.638 4.346-2.067 6.812-1.918 10.987.144 4.022.99 18.633 1.656 23.241.555 3.838 3.399 8.349 8.698 13.789 4.505 4.623 8.728 8.388 12.549 11.188 5.363 3.936 13.529 2.01 18.937.736 3.251-.767 9.677-2.481 16.479-4.298 4.569-1.221 9.295-2.481 13.295-3.52 9.19-2.384 10.832-2.249 14.798-1.926l.626.051c4.265.34 7.053 2.19 8.24 3.81.766 1.044 1.478 2.24 2.23 3.509.694 1.168 1.412 2.376 2.192 3.481.918 1.303 3.255 3.769 12.903 10.116 5.396 3.551 7.23 8.938 7.845 11.835a804.464 804.464 0 0 0 1.927 8.926c.779 3.525 1.759 4.852 2.726 6.16.881 1.193 2.244 3.015 5.09 6.683 2.849 3.674 5.648 4.59 10.732 6.254l1.898.625c3.631 1.211 6.346 1.973 8.938 1.973 1.957 0 3.848-.434 6.008-1.438 1.09-.507 4.366-2.002 7.997-3.58 1.78-.775 10.237-4.597 12.024-5.468a128.551 128.551 0 0 1 3.58-1.776c1-.476 1.837-.888 2.585-1.256 3.513-1.732 4.696-2.316 13.301-4.273 11.192-2.545 15.475-4.077 23.364-6.899 1.615-.576 3.141-1.136 4.59-1.665 5.375-1.966 9.621-3.519 13.191-4.165 4.268-.775 8.771-.561 16.66.187l6.532.62c8.724.83 20.669 1.967 26.989 2.496 11.901.996 16.562-6.069 20.326-13.39a373.597 373.597 0 0 1 2.33-4.438c2.477-4.662 4.113-7.742 6.101-13.988a788.41 788.41 0 0 0 4.13-13.434l1.15-3.813c.616-2.018 1.035-2.567 2.425-4.395a80.464 80.464 0 0 0 2.251-3.072c.826-1.191 1.608-2.369 2.35-3.482 1.393-2.097 3.126-4.704 3.932-5.371 1.754-1.457 3.943-3.269 9.485-2.7 3.465.356 6.825.802 10.077 1.231 3.431.453 6.672.883 9.95 1.205 8.332.826 13.855-2.766 18.158-6.379l2.154-1.806c5.516-4.617 10.635-8.934 12.668-11.011l.359-.369c2.159-2.223 4.395-4.521 7.987-5.277 5.313-1.118 8.672-.889 10.039-.305 2.107.905 3.637 1.942 5.228 4.572l.684 1.14c2.158 3.627 4.394 7.378 8.566 9.331 4.254 1.989 7.682 1.896 12.03 1.779 1.656-.027 3.3.806 5.043 1.702 1.031.53 2.097 1.079 3.246 1.486 3.9 1.381 8.998 2.912 13.813 2.479l1.102-.096c3.963-.337 7.709-.653 11.383-3.498a97.996 97.996 0 0 0 3.058-2.478c1.209-1.009 2.252-1.881 3.668-2.878 1.26-.89 1.391-.895 3.596-.974l1.416-.053c2.556-.092 4.967-.179 8.164-1.3 1.305-.458 2.836-1.071 4.308-1.663 1.518-.61 3.086-1.241 3.909-1.481.623-.188 2.567-.236 4.247.816 3.33 2.083 6.43 4.766 9.48 8.196 1.18 1.327 2.23 2.459 3.16 3.455 1.65 1.775 3.09 3.311 3.41 4.133.41 1.016.62 1.981.83 2.918.21.938.41 1.823.78 2.725.4.945 1.02 1.967 1.75 3.147.46.764 1.04 1.714 1.27 2.213.22.473.45 1.129.7 1.811.66 1.804 1.28 3.506 2.21 4.78 1.26 1.748 2.89 3.671 7.71 6.259 1.26.678 2.28 1.199 3.15 1.647 1.93.995 2.89 1.494 4.33 2.539.33.241.66.495.99.752 2.44 1.876 5.77 4.445 11.51 4.58 4.6.107 5.63.295 8.46.926 1.18.262 2.41.522 3.6.775 2.1.444 4.08.865 5.23 1.178 1.06.289 1.25.341 3.1 1.754 1.54 1.188 4.11 2.974 6.37 4.552.92.636 1.77 1.227 2.44 1.706 2.59 1.826 8.37 5.233 11.68 6.728 3.53 1.591 13.01 4.565 16.36 5.577 1.11.337 2.58.79 4.24 1.307 4.33 1.345 10.26 3.187 14.65 4.378 5.02 1.361 8.44 2.137 12.05 2.958l2.33.53c4.79 1.158 8.53 2.125 12.99 3.309 3.46.919 10.87 3.96 13.75 8.059 2.82 4 3.75 7.688 1.67 14.118-1.14 3.513-2.35 5.634-6.85 10.607-4.35 4.803-5.59 6.248-8.15 10.771-1.73 3.064-3.54 7.502-4.35 11.005-.78 3.096-1.16 5.852-1.63 9.342l-.04.342c-.47 3.465-1.16 8.547 1.14 10.934 2.63 2.728 5.45 5.765 8.16 8.783l4.77 5.32c11.64 13.002 35.88 40.057 43.81 48.49 9.42 10.015 17.06 18.155 22.6 24.275 2.86 3.15 6.28 6.42 9.58 9.59 2.97 2.84 6.03 5.77 8.68 8.61 2.35 2.52 6.23 6.53 10.34 10.77 5.58 5.76 11.9 12.29 16.04 16.79 4.18 4.55 6.58 7.08 8.45 9.06 1.36 1.42 2.44 2.56 3.72 3.96 2.57 2.82 10.58 11.18 16.61 16.01 1.33 1.06 2.61 2.04 3.87 3 4.41 3.38 8.58 6.57 13.77 12.48l2.09 2.37c6.76 7.7 18.07 20.58 23.85 26.93l1.77 1.94c6.01 6.6 12.82 14.09 16.77 19.07 4.44 5.61 16.57 19.8 22.58 26.02 5.87 6.08 15.69 16.26 20.92 22.06 3.6 3.99 8.97 10.07 13.02 15.19 1.98 2.5 2.41 2.93 2.41 2.93 4.23 5.35 6.69 10.57 7.29 15.5.63 5.16.56 11.49-4.69 19.28-5.39 7.98-13.61 18.97-19.06 23.64-3.32 2.84-6.08 4.22-8.31 5.33-1.57.79-2.82 1.41-3.68 2.29-2.22 2.26-4.22 5.4-6.54 9.42-2.17 3.78-5.02 5.79-8.03 7.92l-1.19.85c-2.8 2.01-9.96 5.97-26.49 9.86-3.5.83-7.05 1.55-10.49 2.24-11.14 2.25-21.67 4.38-28.76 9.65-7.3 5.42-12.54 9.9-17.17 13.85a458.45 458.45 0 0 1-4.15 3.52"/>
  <path fill="none" stroke="#007734" stroke-linejoin="round" stroke-width="2.83" d="M644.351 1326.63c15.447-4.59 52.793-16.3 66.034-20.37 13.242-4.08 16.607-8.66 21.021-25.07 4.413-16.41 9.394-32.37 13.638-41.71 4.242-9.33 11.203-22.91 19.918-33.04 8.714-10.13 15.83-16.17 20.072-23.13 4.244-6.96 8.997-10.35 12.901-14.13 3.904-3.78 14.981-15.07 20.371-21.01 5.39-5.94 17.782-19.44 24.189-27.16 6.407-7.73 13.497-18.97 17.611-28.48 4.117-9.51 5.793-17.82 4.945-24.19m51.43-532.343c-3.596-3.255-7.565-5.187-14.469-5.555-6.904-.367-13.508-.735-15.293-.862-1.783-.128-6.703-.723-12.011-1.697-5.305-.977-17.188-3.354-24.062-4.499-6.876-1.146-13.199-1.853-22.026-2.079-8.828-.227-30.5.734-41.591 1.302-11.091.566-26.991 1.244-32.764 1.541-5.771.298-11.373.723-15.107.766-3.734.041-6.578-.638-12.646-3.862-6.069-3.225-20.853-11.233-25.662-14.4-4.811-3.17-7.129-6.961-8.6-10.695-1.474-3.733-8.659-20.991-11.036-26.537-2.376-5.547-6.11-13.638-8.431-19.466-2.321-5.828-9.394-19.918-12.053-24.161-2.66-4.244-4.967-8.928-17.146-13.171-12.18-4.244-31.179-10.483-41.478-14.273-10.298-3.792-13.184-6.11-20.71-14.601-7.525-8.486-22.182-24.728-31.349-35.251-9.166-10.525-26.821-30.728-32.196-37.348-5.375-6.619-7.81-10.921-10.864-17.428-3.055-6.508-7.808-12.902-17.938-15.166-10.128-2.264-25.35-5.884-28.802-16.239-3.451-10.354-5.035-16.409-5.489-18.785"/>
  <path fill="none" stroke="#816da6" stroke-linejoin="round" stroke-width="2.83" d="M84.146 1347.91c2.5.17 25.833 2.5 36.975 3.97 6.834.89 12.732.64 15.83.17 3.098-.47 29.537-4.03 47.404-6.67 17.866-2.63 53.091-7.63 72.526-11.2 19.438-3.56 23.768-13.07 31.744-24.19 7.979-11.12 24.998-34.03 28.646-39.21 3.649-5.18 8.701-13.03 14.685-16.38 5.983-3.36 18.631-9.98 25.633-14.22 7.004-4.25 22.645-11.82 30.951-18.89 8.308-7.07 13.036-10.87 17.79-15.2 6.314-5.76 11.574-12.51 13.314-16.93 1.738-4.41 3.683-16.84 4.573-21.34.892-4.5-.298-7.81 12.181-23.9 12.477-16.08 112.011-145.889 121.8-158.223 9.789-12.334 22.748-20.768 28.745-34.461 5.999-13.692 5.886-15.166 9.959-19.977 4.074-4.811 7.045-7.893 13.113-13.113 6.068-5.219 6.861-7.086 10.144-13.026 3.282-5.941 5.263-8.941 10.072-15.277 4.81-6.338 4.589-10.867 16.684-16.682 9.215-4.431 8.775-3.873 13.75-6.313 3.188-1.563 6.22-2.555 7.797-3.371a140.22 140.22 0 0 1 3.763-1.864c.966-.46 1.773-.859 2.497-1.216 3.94-1.942 5.416-2.671 14.803-4.806 10.794-2.454 14.693-3.849 22.461-6.627 1.718-.615 3.229-1.168 4.664-1.692 5.682-2.078 10.169-3.719 14.313-4.471 5.021-.913 10.173-.68 18.514.107l6.54.619c8.706.829 20.631 1.965 26.912 2.489 7.188.604 9.928-2.372 13.709-9.721.892-1.733 1.672-3.201 2.372-4.52 2.385-4.488 3.825-7.197 5.625-12.857 1.698-5.34 3.027-9.768 4.098-13.327l1.159-3.842c.972-3.183 1.984-4.514 3.518-6.528.58-.762 1.26-1.652 2.074-2.828.8-1.153 1.557-2.294 2.273-3.373 2.056-3.094 3.68-5.537 5.253-6.841 3.187-2.645 7.15-4.987 14.526-4.23 3.563.366 6.975.817 10.271 1.254 3.373.445 6.56.868 9.725 1.18 5.495.535 9.098-1.442 13.114-4.816l2.166-1.814c4.064-3.401 10.207-8.543 12.168-10.548l.348-.356c2.466-2.535 5.841-6.007 11.466-7.191 4.248-.895 10.143-1.603 14.123.101 3.791 1.627 6.215 3.743 8.366 7.305l.705 1.18c1.785 2.994 3.326 5.583 5.604 6.648 2.684 1.253 4.68 1.253 8.969 1.142 3.352-.072 6.135 1.319 8.338 2.454.869.447 1.688.869 2.404 1.122 1.91.678 6.97 2.479 10.933 2.116l1.133-.098c3.438-.291 5.709-.484 7.798-2.101a92.852 92.852 0 0 0 2.858-2.318c1.269-1.06 2.465-2.059 4.105-3.215 2.914-2.056 4.647-2.117 7.272-2.213l1.416-.053c2.369-.085 3.937-.142 6.158-.921 1.217-.428 2.646-1.002 4.018-1.555 1.744-.701 3.392-1.364 4.527-1.697 2.455-.726 6.439-.52 9.779 1.577 3.89 2.433 7.47 5.523 10.95 9.449 1.14 1.278 2.15 2.369 3.05 3.329 2.38 2.554 3.95 4.239 4.76 6.251.61 1.521.91 2.872 1.15 3.957.15.669.28 1.246.42 1.597.19.454.76 1.385 1.27 2.205.62 1.01 1.25 2.055 1.65 2.911.28.608.59 1.453.91 2.332.4 1.103.96 2.612 1.33 3.125.7.977 1.58 2.188 5.42 4.255 1.22.653 2.2 1.159 3.04 1.593 2.03 1.043 3.36 1.731 5.22 3.084.39.278.77.571 1.15.867 2.05 1.586 4 3.083 7.51 3.166 4.83.113 6.34.32 9.78 1.086 1.15.257 2.36.513 3.53.761 2.19.466 4.27.906 5.6 1.269 2.33.632 3.35 1.304 5.46 2.922 1.42 1.091 3.92 2.831 6.12 4.365.93.646 1.79 1.247 2.48 1.735 2.28 1.61 7.69 4.795 10.54 6.077 2.69 1.212 10.71 3.811 15.54 5.269 1.12.341 2.6.801 4.28 1.321 4.28 1.329 10.15 3.149 14.43 4.311 4.87 1.323 8.22 2.084 11.77 2.89l2.34.533c4.37 1.003 16.55 4.134 24.4 6.402 1.17.346 9.19 2.573 11.59 3.393 4.46 1.52 8.32 2.832 11.91 3.252.87.102 1.74.152 2.62.152 4.8 0 9.74-1.531 15.34-4.725 4.99-2.847 10.43-7.429 16.19-12.28l2.77-2.329c3.35-2.798 7.55-6.538 11.62-10.155 3.97-3.534 7.72-6.871 10.4-9.094l.75-.621c4.89-4.064 7.35-6.104 11.85-7.988 5.08-2.126 12.85-4.412 19.42-4.452 6.74-.05 11.99.11 19.88.423 2.06.082 4.84.22 7.87.368 8.36.411 17.84.88 20.39.614 4.28-.462 6.72-.399 9.22-1.149 2.73-.817 10.57-3.938 14.71-12.438 3.58-7.342 5.04-12.124 4.19-17.866-.8-5.386-5.9-13.666-7.17-18.589-1.28-4.923-3.18-15.532-5.28-26.34-2.09-10.81-6.05-25.011-6.73-29.935-.68-4.923-2.04-14.824-4.19-24.39-2.14-9.563-6.51-28.519-7.69-34.008-1.19-5.488-3.68-13.749-8.04-21.896-4.35-8.148-10.21-14.6-14.03-19.607-3.82-5.008-19.46-25.83-23.88-31.206-2.76-3.363-14.4-18.192-23.71-30.104"/>
  <path fill="none" stroke="#816da6" stroke-linejoin="round" stroke-width="2.83" d="M1348.12 734.687c-1.45-7.597-2.98-14.26 0-25.676 2.97-11.416 5.94-16.085 9.04-21.855 3.1-5.771 20.45-38.534 26.73-50.417 6.28-11.885 20.46-39.555 27.59-52.286 7.13-12.729 15.11-27.159 19.18-35.055"/>
  <path fill="none" stroke="#007734" stroke-miterlimit="10" stroke-width="2.83" d="M977.07 616.784c-.444-3.938.695-13.93 7.062-19.674 3.289-2.973 8.1-7.7 15.155-14.52 5.423-5.24 10.553-10.188 12.933-12.4 5.63-5.223 33.89-32.588 37.36-36.009 3.67-3.608 9.27-11.314 17.14-23.559 2.52-3.925 5.91-9.243 9.62-15.035 8.58-13.445 18.32-28.684 23.15-35.996 1.95-2.947 4.92-7.416 8.34-12.557 8.65-13.029 20.51-30.872 25.43-38.521l2.73-4.233c5.06-7.84 8.41-13.02 9.55-15.925 1.51-3.84 2.54-6.165 6.04-9.302 2.76-2.476 3.98-4.242 6.21-7.449l.91-1.313c1.65-2.358 3.45-5.006 5.37-7.847 1.37-2.028 2.81-4.154 4.32-6.345 2.49-3.637 7.61-11.556 11.72-17.919 1.78-2.743 3.32-5.133 4.31-6.638 1.48-2.251 2.83-4.721 4.14-7.108 1.54-2.806 2.86-5.229 4.15-6.872 2.29-2.917 7.64-10.497 10.46-14.622 1.44-2.103 4.24-6.523 7.22-11.204 3.01-4.743 6.13-9.647 7.94-12.33 1.29-1.902 2.96-4.459 4.65-7.048 3.12-4.781 6.06-9.299 7.28-10.747l.57-.674c2.48-2.962 8.31-9.897 11.15-12.407 11.76-10.392 36.4-32.375 58.13-51.772 20.69-18.464 38.55-34.41 42.26-37.63.79-.693 1.53-1.351 2.25-1.979 6.28-5.556 10.07-8.907 25.57-14.986 6.75-2.646 22.79-8.968 40.28-15.859 26.48-10.436 56.49-22.264 62.23-24.478 11.7-4.52 19.72-8.453 23.18-11.379"/>
  <g fill="none" stroke="#b0d3c0" stroke-linejoin="round" stroke-width="2.83">
    <path d="M1294.17 1346.03c-.97.74-2.14 1.61-3.41 2.54"/>
    <path stroke-dasharray="8.64 5.76" d="M1286.06 1351.91c-4.02 2.8-8.16 5.49-10.47 6.57-5.1 2.38-8.38 5.94-13.19 9.57-4.81 3.62-34.46 25.18-44.02 32.08-9.56 6.9-40.2 29.41-49.4 35.73-23.33 16.05-24 56.39.17 63.55 31.21 9.26 49.08 10.5 65.58 9 14.56-1.32 34-12.58 50.05-21.74"/>
    <path d="M1287.28 1485.25c1.26-.72 2.49-1.41 3.7-2.09"/>
  </g>
  <path fill="none" stroke="#cd9c53" stroke-linejoin="round" stroke-width="2.83" d="M1287.65 1085.83c2.37 2.55 6.12 5.51 9.6 5.89 3.48.39 10.29 1.32 17.89-.8 7.6-2.12 38.62-11.29 47.87-14.13 9.25-2.85 8.96-1.66 17.02 1.23 8.06 2.88 18.93 6.79 23.13 8.44 4.2 1.66 6.87 2.59 10.1 8.79 3.23 6.19 5.22 9.84 6.2 11.71"/>
</svg>